<svg width="100" height="100" viewBox="0 0 100 100" fill="none" xmlns="http://www.w3.org/2000/svg">
<path d="M61.4991 100C66.1507 100 69.9215 98.5972 69.9215 96.8666C69.9215 95.136 66.1507 93.733 61.4991 93.733C56.8475 93.733 53.0767 95.136 53.0767 96.8666C53.0767 98.5972 56.8475 100 61.4991 100Z" fill="#D8E4F3"/>
<path d="M53.8932 3.35614H10.7353C5.22082 3.35614 0.750488 7.85013 0.750488 13.3938V39.1989C0.750488 44.7425 5.22082 49.2365 10.7353 49.2365H53.8932C59.4076 49.2365 63.878 44.7425 63.878 39.1989V13.3938C63.878 7.85013 59.4076 3.35614 53.8932 3.35614Z" fill="#8AAFDB"/>
<path d="M53.8933 49.9911H10.7354C4.81681 49.9911 0 45.1488 0 39.1989V13.3937C0 7.4438 4.81681 2.6015 10.7354 2.6015H53.8933C59.8119 2.6015 64.6287 7.4438 64.6287 13.3937V39.1989C64.6287 45.1488 59.8119 49.9911 53.8933 49.9911ZM10.7354 4.11072C5.64379 4.11072 1.50128 8.27515 1.50128 13.3937V39.1989C1.50128 44.3175 5.64379 48.4819 10.7354 48.4819H53.8933C58.985 48.4819 63.1275 44.3175 63.1275 39.1989V13.3937C63.1275 8.27515 58.985 4.11072 53.8933 4.11072H10.7354Z" fill="#191A1A"/>
<path d="M52.6437 7.5257H11.9845C8.35034 7.5257 5.4043 10.4873 5.4043 14.1407V38.4494C5.4043 42.1028 8.35034 45.0644 11.9845 45.0644H52.6437C56.2778 45.0644 59.2238 42.1028 59.2238 38.4494V14.1407C59.2238 10.4873 56.2778 7.5257 52.6437 7.5257Z" fill="white"/>
<path d="M52.6438 45.819H11.9846C7.9439 45.819 4.65381 42.5141 4.65381 38.4494V14.1381C4.65381 10.076 7.94135 6.76849 11.9846 6.76849H52.6464C56.6871 6.76849 59.9772 10.0734 59.9772 14.1381V38.4494C59.9772 42.5115 56.6896 45.819 52.6464 45.819H52.6438ZM11.9846 8.28028C8.77087 8.28028 6.15509 10.9099 6.15509 14.1407V38.452C6.15509 41.6827 8.77087 44.3123 11.9846 44.3123H52.6464C55.8601 44.3123 58.4759 41.6827 58.4759 38.452V14.1407C58.4759 10.9099 55.8601 8.28028 52.6464 8.28028H11.9846Z" fill="#191A1A"/>
<path d="M29.1526 49.2903C30.2671 46.8193 33.1628 45.7244 35.6208 46.8423L49.8066 53.3857C52.2646 54.5061 53.3537 57.4171 52.2417 59.8881C51.1272 62.3591 48.2315 63.454 45.7735 62.3361L31.5877 55.7927C29.1297 54.6723 28.0406 51.7613 29.1526 49.2903Z" fill="white"/>
<path d="M28.9214 49.9349C28.242 52.2473 29.3413 54.7669 31.5881 55.7927L45.7739 62.3361C48.1556 63.4207 50.9444 62.4205 52.1276 60.1081L28.9189 49.9349H28.9214Z" fill="url(#paint0_radial_13048_47059)"/>
<path d="M47.789 63.5307C46.9977 63.5307 46.2089 63.3618 45.4659 63.0216L31.275 56.4782C28.448 55.189 27.1885 51.8252 28.4709 48.9807C29.7533 46.1337 33.0994 44.8675 35.9315 46.1567L50.1224 52.7001C51.4913 53.3242 52.5372 54.4472 53.069 55.8643C53.5982 57.2815 53.5499 58.8214 52.929 60.2001C52.3081 61.5789 51.1885 62.6328 49.7814 63.1649C49.1351 63.4104 48.4633 63.5307 47.7941 63.5307H47.789ZM29.8373 49.6023C28.8958 51.6897 29.8195 54.1581 31.8984 55.1046L46.0893 61.648C47.0918 62.1059 48.2165 62.1417 49.2496 61.7503C50.2827 61.3589 51.1046 60.5864 51.56 59.576C52.0155 58.5656 52.0537 57.4349 51.6644 56.3964C51.2751 55.3578 50.5066 54.5316 49.5015 54.0737L35.3106 47.5303C33.2368 46.5864 30.7813 47.515 29.8399 49.6023H29.8373Z" fill="#191A1A"/>
<path d="M96.0543 66.7646L96.0267 66.8106C95.2512 68.0999 93.5775 68.5144 92.295 67.7348L89.5384 66.0591C88.2559 65.2795 87.8422 63.5992 88.619 62.3077L88.6467 62.2618C89.4222 60.9725 91.0958 60.558 92.3783 61.3376L95.135 63.0132C96.4175 63.7928 96.8311 65.4731 96.0543 66.7646Z" fill="white"/>
<path d="M93.6951 68.8948C93.0844 68.8948 92.466 68.7337 91.9062 68.3935L89.1505 66.718C87.5144 65.7229 86.9877 63.5768 87.9749 61.932L88.0029 61.8859C88.4813 61.0904 89.2396 60.5276 90.1403 60.3051C91.0386 60.0825 91.9724 60.2232 92.7638 60.7067L95.5195 62.3822C96.3134 62.8631 96.8706 63.6279 97.092 64.5309C97.3134 65.4339 97.1709 66.3727 96.6925 67.1682L96.6645 67.2142C96.0131 68.2963 94.8655 68.8974 93.69 68.8974L93.6951 68.8948ZM89.2599 62.7122C88.7001 63.6458 88.9978 64.8634 89.9266 65.4262L92.6823 67.1017C93.6111 67.6644 94.8223 67.3652 95.3821 66.4315L95.4101 66.3854C95.6823 65.9327 95.7612 65.4006 95.6365 64.889C95.5119 64.3774 95.1938 63.9426 94.7434 63.6714L91.9851 61.9959C91.5347 61.7222 91.008 61.6429 90.4966 61.7682C89.9877 61.8936 89.5551 62.2133 89.2854 62.6661L89.2574 62.7122H89.2599Z" fill="#191A1A"/>
<path d="M86.9011 64.7789C85.0486 62.8425 85.1072 59.7627 87.0334 57.9004L91.0588 54.0071C92.985 52.1449 96.0487 52.2037 97.9011 54.1402C99.7535 56.0766 99.695 59.1564 97.7688 61.0186L93.7433 64.9094C91.8171 66.7716 88.7535 66.7128 86.9011 64.7763V64.7789Z" fill="white"/>
<path d="M97.7688 56.8517L93.7433 60.7425C91.8171 62.6047 88.7535 62.5459 86.901 60.6095C86.5295 60.2206 86.2369 59.7832 86.0181 59.3202C85.1835 61.0955 85.4659 63.2749 86.901 64.7739C88.7535 66.7103 91.8171 66.7691 93.7433 64.9069L97.7688 61.0162C99.3082 59.5274 99.6517 57.2636 98.784 55.4244C98.5398 55.9437 98.2039 56.4271 97.7688 56.8492V56.8517Z" fill="url(#paint1_radial_13048_47059)"/>
<path d="M90.3924 67.0249C90.3543 67.0249 90.3186 67.0249 90.2805 67.0249C88.7868 66.9968 87.395 66.3854 86.3593 65.3034C85.3237 64.2213 84.769 62.7991 84.7995 61.2975C84.8301 59.796 85.4357 58.3967 86.512 57.3556L90.5375 53.4624C92.7589 51.3136 96.3034 51.3827 98.4408 53.6158C100.578 55.849 100.51 59.4123 98.2881 61.561L94.2627 65.4517C93.2143 66.4673 91.8428 67.0223 90.3899 67.0223L90.3924 67.0249ZM94.4128 53.4035C93.3924 53.4035 92.3695 53.7847 91.5782 54.5495L87.5527 58.4428C86.7665 59.2051 86.3212 60.2283 86.2983 61.3257C86.2779 62.423 86.6825 63.4641 87.4408 64.2546C88.199 65.045 89.2169 65.4927 90.3085 65.5157C91.4102 65.5438 92.4357 65.1294 93.222 64.3671L97.2474 60.4764C98.8734 58.9058 98.9217 56.2966 97.3594 54.6646C96.5579 53.8282 95.4866 53.4061 94.4128 53.4061V53.4035Z" fill="#191A1A"/>
<path d="M78.6009 62.3642C78.6009 71.8595 70.9444 91.1137 61.5016 91.1137C52.0589 91.1137 44.4023 71.8595 44.4023 62.3642C44.4023 52.8689 52.0589 45.1744 61.5016 45.1744C70.9444 45.1744 78.6009 52.8715 78.6009 62.3642Z" fill="white"/>
<path d="M75.4787 52.4673C72.382 48.0573 67.2777 45.1744 61.5016 45.1744C55.7255 45.1744 50.6186 48.0573 47.5244 52.4673H75.4813H75.4787Z" fill="url(#paint2_radial_13048_47059)"/>
<path d="M61.4987 81.0325C54.7506 81.0325 49.0839 71.3556 47.4885 64.3211C47.4376 64.096 47.0381 64.1267 47.0381 64.3543C47.0381 64.3594 47.0381 64.3671 47.0381 64.3722C47.0381 71.0588 53.5114 84.6163 61.4987 84.6163C69.486 84.6163 75.9593 71.0588 75.9593 64.3722C75.9593 64.3671 75.9593 64.3594 75.9593 64.3543C75.9593 64.1267 75.5598 64.096 75.5089 64.3211C73.9135 71.3556 68.2468 81.0325 61.4987 81.0325Z" fill="url(#paint3_radial_13048_47059)"/>
<path d="M61.4989 91.8657C55.4327 91.8657 50.9034 84.8363 48.7406 80.6437C45.6947 74.7373 43.6489 67.3907 43.6489 62.3617C43.6489 52.4673 51.6566 44.4172 61.4989 44.4172C71.3411 44.4172 79.3488 52.4673 79.3488 62.3617C79.3488 67.3907 77.303 74.7373 74.2572 80.6437C72.0969 84.8337 67.565 91.8657 61.4989 91.8657ZM61.4989 45.9265C52.4836 45.9265 45.1502 53.2986 45.1502 62.3617C45.1502 71.4247 52.7177 90.3565 61.4989 90.3565C70.2801 90.3565 77.8501 71.5807 77.8501 62.3617C77.8501 53.1426 70.5167 45.9265 61.4989 45.9265Z" fill="#191A1A"/>
<path d="M90.6977 62.4946C89.5832 64.9656 86.6875 66.0605 84.2295 64.9426L76.4305 61.3895C73.9725 60.2691 72.8834 57.3581 73.9954 54.8871C75.1099 52.4161 78.0056 51.3212 80.4636 52.4391L88.2626 55.9921C90.7206 57.1126 91.8097 60.0236 90.6977 62.4946Z" fill="white"/>
<path d="M74.1506 54.5879C74.0972 54.6877 74.0437 54.7849 73.9979 54.8872C72.8834 57.3582 73.975 60.2692 76.433 61.3896L84.2321 64.9427C86.6901 66.0631 89.5858 64.9657 90.7003 62.4947C90.7766 62.3259 90.8402 62.1545 90.8962 61.9805L74.1531 54.5879H74.1506Z" fill="url(#paint4_radial_13048_47059)"/>
<path d="M86.2393 66.1347C85.4633 66.1347 84.6745 65.9736 83.9213 65.6308L76.1223 62.0777C73.2902 60.7885 72.0306 57.4247 73.3131 54.5776C74.5955 51.7306 77.9416 50.4644 80.7737 51.7536L88.5727 55.3067C89.9442 55.9308 90.9925 57.0564 91.5218 58.4709C92.0511 59.8881 92.0027 61.428 91.3819 62.8068C90.4404 64.8966 88.3844 66.1347 86.2393 66.1347ZM78.4505 52.7563C77.9594 52.7563 77.4658 52.8459 76.9925 53.0249C75.9594 53.4163 75.1375 54.1888 74.6821 55.1992C73.7406 57.2866 74.6642 59.7551 76.7431 60.7015L84.5421 64.2546C86.6185 65.201 89.074 64.2725 90.0154 62.1826C90.4709 61.1722 90.5091 60.0416 90.1198 59.003C89.7305 57.9645 88.962 57.1382 87.9569 56.6803L80.1579 53.1273C79.6134 52.8791 79.0332 52.7538 78.4531 52.7538L78.4505 52.7563Z" fill="#191A1A"/>
<path d="M23.7174 54.401L22.0393 53.2978C19.2473 51.4625 18.463 47.695 20.2886 44.8883L22.0265 42.2164C23.8522 39.4096 27.5998 38.6212 30.3918 40.4565L32.07 41.5596C34.862 43.3949 35.6462 47.1624 33.8206 49.9692L32.0827 52.641C30.2571 55.4478 26.5094 56.2363 23.7174 54.401Z" fill="white"/>
<path d="M27.0052 56.1431C25.7303 56.1431 24.4428 55.785 23.2978 55.0304L21.6209 53.9279C18.486 51.8661 17.6005 47.6249 19.6514 44.4735L21.3894 41.8029C23.4403 38.6515 27.6591 37.7638 30.794 39.823L32.4708 40.9255C35.6057 42.9873 36.4912 47.2285 34.4403 50.3799L32.7024 53.0505C31.3996 55.0534 29.224 56.1405 27.0052 56.1405V56.1431ZM27.0815 40.2195C25.3537 40.2195 23.6565 41.0688 22.6413 42.6266L20.9033 45.2972C19.3054 47.7528 19.995 51.0578 22.4377 52.6642L24.1146 53.7667C25.2978 54.5444 26.7125 54.8129 28.0968 54.5213C29.481 54.2297 30.6693 53.4137 31.4428 52.2242L33.1807 49.5537C34.7787 47.098 34.0891 43.7931 31.6464 42.1866L29.9695 41.0841C29.079 40.4983 28.0739 40.217 27.0815 40.217V40.2195Z" fill="#191A1A"/>
<path d="M61.499 80.37C57.7 80.37 54.1529 81.452 51.1401 83.3245C54.0155 87.8368 57.6033 91.1111 61.499 91.1111C65.3946 91.1111 68.9824 87.8368 71.8578 83.3245C68.8476 81.452 65.3005 80.37 61.499 80.37Z" fill="#8CCB67"/>
<path d="M61.4989 87.1052C60.6719 87.1052 60.3971 87.1052 59.0638 87.4275C58.5116 87.5605 58.1808 87.9851 58.6795 88.2563C59.5905 88.75 60.5345 89.0237 61.4963 89.0237C62.4582 89.0237 63.4022 88.7525 64.3131 88.2563C64.8119 87.9851 64.4582 87.6372 63.9289 87.4275C63.1299 87.1052 62.3208 87.1052 61.4938 87.1052H61.4989Z" fill="url(#paint5_radial_13048_47059)"/>
<path style="mix-blend-mode:multiply" d="M61.4987 81.0325C54.7506 81.0325 49.0839 71.3556 47.4885 64.3211C47.4376 64.096 47.0381 64.1267 47.0381 64.3543C47.0381 64.3594 47.0381 64.3671 47.0381 64.3722C47.0381 71.0588 53.5114 84.6163 61.4987 84.6163C69.486 84.6163 75.9593 71.0588 75.9593 64.3722C75.9593 64.3671 75.9593 64.3594 75.9593 64.3543C75.9593 64.1267 75.5598 64.096 75.5089 64.3211C73.9135 71.3556 68.2468 81.0325 61.4987 81.0325Z" fill="url(#paint6_radial_13048_47059)"/>
<path d="M61.5012 91.8657C57.7022 91.8657 53.9006 89.0518 50.5113 83.7312C50.4019 83.5598 50.3663 83.3552 50.4121 83.1582C50.4579 82.9612 50.5775 82.7899 50.7479 82.685C53.9744 80.6795 57.6945 79.6179 61.5012 79.6179C65.3078 79.6179 69.0254 80.6795 72.2544 82.685C72.4249 82.7924 72.547 82.9612 72.5903 83.1582C72.6335 83.3552 72.5979 83.5624 72.491 83.7312C69.1017 89.0518 65.3002 91.8657 61.5012 91.8657ZM52.2009 83.5726C54.3765 86.811 57.6386 90.359 61.4986 90.359C65.3587 90.359 68.6208 86.811 70.7964 83.5726C67.9643 81.9687 64.7684 81.1271 61.4986 81.1271C58.2289 81.1271 55.0304 81.9713 52.2009 83.5726Z" fill="#191A1A"/>
<path d="M63.5755 59.4583C63.5755 60.612 62.6468 61.5456 61.4992 61.5456C60.3516 61.5456 59.4229 60.612 59.4229 59.4583C59.4229 58.3046 60.3516 57.371 61.4992 57.371C62.6468 57.371 63.5755 58.3046 63.5755 59.4583Z" fill="#8CCB67"/>
<path d="M61.4989 62.3003C59.9391 62.3003 58.6719 61.0264 58.6719 59.4583C58.6719 57.8903 59.9391 56.6164 61.4989 56.6164C63.0587 56.6164 64.3258 57.8903 64.3258 59.4583C64.3258 61.0264 63.0587 62.3003 61.4989 62.3003ZM61.4989 58.1256C60.7686 58.1256 60.1732 58.7242 60.1732 59.4583C60.1732 60.1925 60.7686 60.7911 61.4989 60.7911C62.2291 60.7911 62.8246 60.1925 62.8246 59.4583C62.8246 58.7242 62.2291 58.1256 61.4989 58.1256Z" fill="#191A1A"/>
<path d="M85.2804 38.6234C84.2219 38.6234 83.3618 37.7613 83.3618 36.6946V25.1248C83.3618 24.0607 84.2193 23.196 85.2804 23.196C86.3389 23.196 87.199 24.0581 87.199 25.1248V36.6946C87.199 37.7588 86.3415 38.6234 85.2804 38.6234Z" fill="white"/>
<path d="M85.2801 39.378C83.8093 39.378 82.6108 38.1757 82.6108 36.6946V25.1248C82.6108 23.6462 83.8068 22.4414 85.2801 22.4414C86.7534 22.4414 87.9493 23.6437 87.9493 25.1248V36.6946C87.9493 38.1731 86.7534 39.378 85.2801 39.378ZM85.2801 23.9532C84.6363 23.9532 84.1121 24.4801 84.1121 25.1273V36.6972C84.1121 37.3443 84.6363 37.8713 85.2801 37.8713C85.9238 37.8713 86.448 37.3443 86.448 36.6972V25.1273C86.448 24.4801 85.9238 23.9532 85.2801 23.9532Z" fill="#191A1A"/>
<path d="M87.1963 25.1503V36.6716L88.5754 35.784C89.1072 35.4412 89.4304 34.8477 89.4304 34.2108V27.6137C89.4304 26.9767 89.1072 26.3858 88.5754 26.0405L87.1963 25.1529V25.1503Z" fill="#8CCB67"/>
<path d="M87.1963 37.4262C87.0717 37.4262 86.9495 37.3955 86.8376 37.3341C86.5958 37.2011 86.4482 36.9478 86.4482 36.6716V25.1503C86.4482 24.8741 86.5984 24.6208 86.8376 24.4878C87.0767 24.3548 87.3719 24.365 87.6035 24.5159L88.9826 25.4036C89.7332 25.887 90.1836 26.7133 90.1836 27.6111V34.2082C90.1836 35.1061 89.7358 35.9323 88.9826 36.4158L87.6035 37.3034C87.4813 37.3827 87.3388 37.4236 87.1989 37.4236L87.1963 37.4262ZM87.947 26.5291V35.2902L88.1709 35.147C88.489 34.9424 88.6798 34.5894 88.6798 34.2082V27.6111C88.6798 27.23 88.489 26.8795 88.1709 26.6723L87.947 26.5291Z" fill="#191A1A"/>
<path d="M37.7203 23.1985C38.7789 23.1985 39.6389 24.0606 39.6389 25.1273V36.6971C39.6389 37.7613 38.7814 38.6259 37.7203 38.6259C36.6618 38.6259 35.8018 37.7638 35.8018 36.6971V25.1273C35.8018 24.0632 36.6593 23.1985 37.7203 23.1985Z" fill="white"/>
<path d="M37.7205 39.378C36.2497 39.378 35.0513 38.1757 35.0513 36.6946V25.1248C35.0513 23.6462 36.2472 22.4414 37.7205 22.4414C39.1938 22.4414 40.3897 23.6437 40.3897 25.1248V36.6946C40.3897 38.1731 39.1938 39.378 37.7205 39.378ZM37.7205 23.9532C37.0767 23.9532 36.5525 24.4801 36.5525 25.1273V36.6972C36.5525 37.3443 37.0767 37.8713 37.7205 37.8713C38.3643 37.8713 38.8884 37.3443 38.8884 36.6972V25.1273C38.8884 24.4801 38.3643 23.9532 37.7205 23.9532Z" fill="#191A1A"/>
<path d="M35.8044 36.6716V25.1503L34.4253 26.038C33.8935 26.3807 33.5703 26.9742 33.5703 27.6111V34.2082C33.5703 34.8452 33.8935 35.4361 34.4253 35.7814L35.8044 36.669V36.6716Z" fill="#8CCB67"/>
<path d="M35.8041 37.4262C35.6641 37.4262 35.5216 37.3852 35.3995 37.3059L34.0204 36.4183C33.2697 35.9323 32.8193 35.1086 32.8193 34.2108V27.6137C32.8193 26.7158 33.2672 25.8896 34.0204 25.4061L35.3995 24.5185C35.6311 24.3701 35.9237 24.3599 36.1654 24.4903C36.4071 24.6234 36.5547 24.8766 36.5547 25.1529V36.6741C36.5547 36.9504 36.4046 37.2036 36.1654 37.3366C36.0534 37.398 35.9288 37.4287 35.8066 37.4287L35.8041 37.4262ZM35.0534 26.5291L34.8295 26.6723C34.5115 26.877 34.3206 27.2274 34.3206 27.6111V34.2082C34.3206 34.5893 34.5115 34.9398 34.8295 35.147L35.0534 35.2902V26.5291Z" fill="#191A1A"/>
<path d="M61.746 4.47144H61.2549C60.7223 4.47144 60.2905 4.90548 60.2905 5.44091V16.5068C60.2905 17.0423 60.7223 17.4763 61.2549 17.4763H61.746C62.2786 17.4763 62.7104 17.0423 62.7104 16.5068V5.44091C62.7104 4.90548 62.2786 4.47144 61.746 4.47144Z" fill="white"/>
<path d="M61.7457 18.2335H61.2546C60.3105 18.2335 59.5396 17.461 59.5396 16.5094V5.44089C59.5396 4.49187 60.308 3.7168 61.2546 3.7168H61.7457C62.6897 3.7168 63.4607 4.48931 63.4607 5.44089V16.5094C63.4607 17.4584 62.6922 18.2335 61.7457 18.2335ZM61.2546 5.22602C61.1375 5.22602 61.0408 5.32322 61.0408 5.44089V16.5094C61.0408 16.6271 61.1375 16.7243 61.2546 16.7243H61.7457C61.8627 16.7243 61.9594 16.6271 61.9594 16.5094V5.44089C61.9594 5.32322 61.8627 5.22602 61.7457 5.22602H61.2546Z" fill="#191A1A"/>
<path d="M65.556 5.25552C65.7769 3.00606 64.1421 1.00243 61.9045 0.780288C59.6669 0.558142 57.6738 2.2016 57.4528 4.45105C57.2319 6.70051 58.8667 8.70413 61.1043 8.92628C63.3419 9.14843 65.335 7.50497 65.556 5.25552Z" fill="#8CCB67"/>
<path d="M63.0156 5.63518C63.8523 4.79405 63.8523 3.43032 63.0156 2.58919C62.1789 1.74806 60.8224 1.74806 59.9857 2.58919C59.149 3.43032 59.149 4.79405 59.9857 5.63518C60.8224 6.47631 62.1789 6.47631 63.0156 5.63518Z" fill="url(#paint7_radial_13048_47059)"/>
<path d="M61.499 5.90391C59.784 5.90391 58.3209 4.83723 57.7204 3.328C57.5346 3.79868 57.4277 4.31028 57.4277 4.8449C57.4277 7.10618 59.2496 8.93771 61.499 8.93771C63.7484 8.93771 65.5703 7.10618 65.5703 4.8449C65.5703 4.30772 65.4634 3.79612 65.2776 3.328C64.6771 4.83723 63.214 5.90391 61.499 5.90391Z" fill="#8CCB67"/>
<path d="M61.4991 9.69484C58.8401 9.69484 56.6772 7.52054 56.6772 4.84742C56.6772 2.17431 58.8401 0 61.4991 0C64.1582 0 66.321 2.17431 66.321 4.84742C66.321 7.52054 64.1582 9.69484 61.4991 9.69484ZM61.4991 1.50922C59.6671 1.50922 58.1785 3.00822 58.1785 4.84742C58.1785 6.68663 59.6696 8.18562 61.4991 8.18562C63.3287 8.18562 64.8198 6.68663 64.8198 4.84742C64.8198 3.00822 63.3287 1.50922 61.4991 1.50922Z" fill="#191A1A"/>
<path d="M76.9291 48.1724H46.069C41.3234 48.1724 37.532 44.1998 37.728 39.4343L38.4125 22.7151C38.5957 18.2182 42.2776 14.6677 46.7534 14.6677H76.2447C80.723 14.6677 84.4024 18.2182 84.5857 22.7151L85.2701 39.4343C85.4661 44.1998 81.6747 48.1724 76.9291 48.1724Z" fill="white"/>
<path d="M85.0233 33.3692C84.1124 36.9965 80.8477 39.7054 76.9291 39.7054H46.069C42.1504 39.7054 38.8857 36.9965 37.9748 33.3692L37.728 39.4342C37.532 44.1998 41.3234 48.1724 46.069 48.1724H76.9291C81.6747 48.1724 85.4661 44.1998 85.2701 39.4342L85.0233 33.3692Z" fill="url(#paint8_radial_13048_47059)"/>
<path d="M76.9289 48.9244H46.0687C43.5674 48.9244 41.2366 47.9243 39.5038 46.1106C37.7709 44.297 36.8753 41.9129 36.977 39.401L37.6615 22.6819C37.8625 17.7628 41.8575 13.9105 46.7532 13.9105H76.2444C81.1426 13.9105 85.135 17.7628 85.336 22.6819L86.0205 39.401C86.1223 41.9129 85.2266 44.297 83.4938 46.1106C81.7609 47.9243 79.4301 48.9244 76.9289 48.9244ZM46.7532 15.4197C42.6641 15.4197 39.3282 18.6377 39.1603 22.7458L38.4758 39.4649C38.3893 41.5625 39.1399 43.5526 40.5852 45.0695C42.0305 46.5839 43.9796 47.4203 46.0687 47.4203H76.9289C79.0179 47.4203 80.9645 46.5864 82.4123 45.0695C83.8602 43.5526 84.6083 41.5651 84.5218 39.4649L83.8373 22.7458C83.6693 18.6377 80.3334 15.4197 76.2444 15.4197H46.7532Z" fill="#191A1A"/>
<path d="M52.3972 23.4851C48.0766 23.4851 44.5601 27.0177 44.5601 31.3638C44.5601 35.7098 48.0741 39.2424 52.3972 39.2424C56.7204 39.2424 60.2344 35.7098 60.2344 31.3638C60.2344 27.0177 56.7204 23.4851 52.3972 23.4851ZM52.3972 37.4748C49.0461 37.4748 46.3183 34.7327 46.3183 31.3638C46.3183 27.9949 49.0461 25.2527 52.3972 25.2527C55.7484 25.2527 58.4761 27.9949 58.4761 31.3638C58.4761 34.7327 55.7484 37.4748 52.3972 37.4748Z" fill="#7FB95E"/>
<path d="M70.4607 23.4851C66.1401 23.4851 62.6235 27.0177 62.6235 31.3638C62.6235 35.7098 66.1375 39.2424 70.4607 39.2424C74.7839 39.2424 78.2979 35.7098 78.2979 31.3638C78.2979 27.0177 74.7839 23.4851 70.4607 23.4851ZM70.4607 37.4748C67.1096 37.4748 64.3818 34.7327 64.3818 31.3638C64.3818 27.9949 67.1096 25.2527 70.4607 25.2527C73.8119 25.2527 76.5396 27.9949 76.5396 31.3638C76.5396 34.7327 73.8119 37.4748 70.4607 37.4748Z" fill="#7FB95E"/>
<path d="M59.1452 32.8397C59.0154 32.8397 58.8831 32.7834 58.7686 32.6683C58.4836 32.3792 58.4225 31.8267 58.6312 31.4353C59.2978 30.1768 60.3691 29.4247 61.4963 29.4247C62.6236 29.4247 63.5778 30.0873 64.2546 31.246C64.476 31.6246 64.4353 32.1823 64.1605 32.4867C63.8856 32.7936 63.4836 32.7348 63.2622 32.3562C62.8271 31.6144 62.1833 31.1898 61.4963 31.1898C60.8093 31.1898 60.0892 31.6707 59.6617 32.479C59.537 32.7143 59.3436 32.8397 59.1452 32.8397Z" fill="#7FB95E"/>
<path d="M44.6487 29.8085H45.7759V32.5941H44.6487C44.0253 32.5941 43.5215 32.0851 43.5215 31.4609V30.9442C43.5215 30.3175 44.0278 29.811 44.6487 29.811V29.8085Z" fill="#7FB95E"/>
<path d="M78.3513 32.5942H77.2241V29.8085H78.3513C78.9747 29.8085 79.4785 30.3176 79.4785 30.9417V31.4584C79.4785 32.0851 78.9722 32.5916 78.3513 32.5916V32.5942Z" fill="#7FB95E"/>
<path d="M54.9465 32.6376C54.5317 32.6376 54.1959 32.2999 54.1959 31.883C54.1959 30.3507 53.2875 29.0564 52.2111 29.0564C51.1348 29.0564 50.2264 30.3507 50.2264 31.883C50.2264 32.2999 49.8905 32.6376 49.4757 32.6376C49.061 32.6376 48.7251 32.2999 48.7251 31.883C48.7251 29.4913 50.29 27.5472 52.2111 27.5472C54.1322 27.5472 55.6971 29.4913 55.6971 31.883C55.6971 32.2999 55.3612 32.6376 54.9465 32.6376Z" fill="#191A1A"/>
<path d="M73.5246 32.6376C73.1099 32.6376 72.774 32.2999 72.774 31.883C72.774 30.3507 71.8656 29.0564 70.7892 29.0564C69.7129 29.0564 68.8045 30.3507 68.8045 31.883C68.8045 32.2999 68.4686 32.6376 68.0539 32.6376C67.6391 32.6376 67.3032 32.2999 67.3032 31.883C67.3032 29.4913 68.8681 27.5472 70.7892 27.5472C72.7104 27.5472 74.2753 29.4913 74.2753 31.883C74.2753 32.2999 73.9394 32.6376 73.5246 32.6376Z" fill="#191A1A"/>
<path d="M60.1045 36.8788H62.8984C63.3997 36.8788 63.8068 37.2881 63.8068 37.792V38.8459C63.8068 40.0584 62.8271 41.0407 61.6236 41.0407H61.3844C60.1783 41.0407 59.2012 40.0558 59.2012 38.8459V37.792C59.2012 37.2881 59.6083 36.8788 60.1096 36.8788H60.1045Z" fill="#FF727C"/>
<path d="M60.1047 36.8788C59.9292 36.8788 59.7689 36.9299 59.6289 37.0169C60.0259 37.5541 60.662 37.9045 61.3795 37.9045H61.6187C62.3363 37.9045 62.9724 37.5541 63.3694 37.0169C63.232 36.9299 63.0691 36.8788 62.8935 36.8788H60.0996H60.1047Z" fill="white"/>
<path d="M61.6208 41.4167H61.3816C59.9719 41.4167 58.8218 40.263 58.8218 38.8433V37.7894C58.8218 37.0783 59.3968 36.5002 60.1042 36.5002H62.8981C63.6055 36.5002 64.1806 37.0783 64.1806 37.7894V38.8433C64.1806 40.2605 63.033 41.4167 61.6208 41.4167ZM60.1042 37.2574C59.8116 37.2574 59.5724 37.4978 59.5724 37.792V38.8459C59.5724 39.8486 60.3841 40.6646 61.3816 40.6646H61.6208C62.6182 40.6646 63.4299 39.8486 63.4299 38.8459V37.792C63.4299 37.4978 63.1907 37.2574 62.8981 37.2574H60.1042Z" fill="#191A1A"/>
<path d="M52.3972 22.6461C48.0766 22.6461 44.5601 26.1787 44.5601 30.5247C44.5601 34.8708 48.0741 38.4034 52.3972 38.4034C56.7204 38.4034 60.2344 34.8708 60.2344 30.5247C60.2344 26.1787 56.7204 22.6461 52.3972 22.6461ZM52.3972 36.6358C49.0461 36.6358 46.3183 33.8936 46.3183 30.5247C46.3183 27.1558 49.0461 24.4136 52.3972 24.4136C55.7484 24.4136 58.4761 27.1558 58.4761 30.5247C58.4761 33.8936 55.7484 36.6358 52.3972 36.6358Z" fill="#8CCB67"/>
<path d="M70.4607 22.6461C66.1401 22.6461 62.6235 26.1787 62.6235 30.5247C62.6235 34.8708 66.1375 38.4034 70.4607 38.4034C74.7839 38.4034 78.2979 34.8708 78.2979 30.5247C78.2979 26.1787 74.7839 22.6461 70.4607 22.6461ZM70.4607 36.6358C67.1096 36.6358 64.3818 33.8936 64.3818 30.5247C64.3818 27.1558 67.1096 24.4136 70.4607 24.4136C73.8119 24.4136 76.5396 27.1558 76.5396 30.5247C76.5396 33.8936 73.8119 36.6358 70.4607 36.6358Z" fill="#8CCB67"/>
<path d="M59.1452 32.0032C59.0154 32.0032 58.8831 31.9469 58.7686 31.8318C58.4836 31.5428 58.4225 30.9902 58.6312 30.5988C59.2978 29.3403 60.3691 28.5883 61.4963 28.5883C62.6236 28.5883 63.5778 29.2508 64.2546 30.4096C64.476 30.7881 64.4353 31.3458 64.1605 31.6502C63.8856 31.9572 63.4836 31.8983 63.2622 31.5197C62.8271 30.7779 62.1833 30.3533 61.4963 30.3533C60.8093 30.3533 60.0892 30.8342 59.6617 31.6425C59.537 31.8779 59.3436 32.0032 59.1452 32.0032Z" fill="#8CCB67"/>
<path d="M45.7789 31.7551H44.6516C44.0282 31.7551 43.5244 31.246 43.5244 30.6193V30.1026C43.5244 29.4759 44.0308 28.9669 44.6516 28.9669H45.7789V31.7525V31.7551Z" fill="#8CCB67"/>
<path d="M77.2217 28.9694H78.3489C78.9723 28.9694 79.4761 29.4785 79.4761 30.1052V30.6219C79.4761 31.2486 78.9698 31.7576 78.3489 31.7576H77.2217V28.972V28.9694Z" fill="#8CCB67"/>
<path d="M27.2343 39.7106C27.2343 39.7106 25.247 37.966 22.6109 38.6976C17.9467 39.9919 11.7661 49.6331 16.9238 53.6184C23.0002 58.3124 27.962 53.8128 29.9086 48.6099" fill="white"/>
<path d="M21.9872 56.3401C20.1653 56.3401 18.2874 55.6213 16.4656 54.2144C14.6004 52.7742 13.8625 50.495 14.3867 47.7989C15.2035 43.591 19.0279 38.9047 22.4096 37.9685C25.3969 37.1397 27.631 39.0582 27.7251 39.14C28.0381 39.4137 28.0687 39.8895 27.7964 40.2042C27.5241 40.5162 27.0508 40.5495 26.7404 40.2783C26.6641 40.2118 24.9999 38.8152 22.8091 39.4214C19.949 40.2144 16.5724 44.4249 15.8625 48.0879C15.5724 49.5767 15.6004 51.641 17.3816 53.0172C19.4808 54.639 21.5266 55.1787 23.4656 54.6211C25.8447 53.9381 27.9898 51.5899 29.2061 48.3386C29.3511 47.9498 29.7837 47.7503 30.173 47.8986C30.5598 48.0445 30.7582 48.4793 30.6107 48.8707C29.2264 52.567 26.7099 55.2606 23.8753 56.0715C23.2569 56.248 22.6233 56.3375 21.9847 56.3375L21.9872 56.3401Z" fill="#191A1A"/>
<path d="M13.7546 25.4802L13.1762 25.9611C12.5762 26.4599 12.4921 27.3531 12.9882 27.9563L26.6049 44.509C27.101 45.1121 27.9896 45.1967 28.5896 44.6979L29.168 44.217C29.768 43.7182 29.8521 42.8249 29.356 42.2218L15.7393 25.6691C15.2432 25.066 14.3546 24.9814 13.7546 25.4802Z" fill="white"/>
<path d="M27.6947 45.7704C27.0713 45.7704 26.4555 45.5018 26.0281 44.9851L12.4097 28.4348C11.6514 27.5113 11.7786 26.1402 12.6972 25.378L13.2748 24.897C14.1934 24.1348 15.5573 24.2627 16.3156 25.1861L29.9339 41.7364C30.6922 42.6598 30.565 44.0309 29.6464 44.7932L29.0688 45.2741C28.6667 45.6092 28.1782 45.7704 27.6947 45.7704ZM14.654 25.9049C14.5064 25.9049 14.3563 25.9535 14.2341 26.0558L13.6565 26.5367C13.3766 26.7695 13.3359 27.189 13.57 27.4704L27.1858 44.0207C27.4174 44.3021 27.8347 44.3404 28.1146 44.1102L28.6922 43.6293C28.9721 43.3965 29.0128 42.977 28.7812 42.6957L15.1654 26.1454C15.0357 25.9868 14.8474 25.9049 14.6565 25.9049H14.654Z" fill="#191A1A"/>
<path d="M22.2355 44.5069L22.2224 44.4495C21.8531 42.8366 22.856 41.2292 24.4579 40.8586L27.8997 40.0623C29.5041 39.6912 31.1055 40.6987 31.4748 42.3116L31.4879 42.3689C31.8571 43.9818 30.8543 45.5892 29.2524 45.9598L25.8105 46.7561C24.2062 47.1273 22.6047 46.1197 22.2355 44.5069Z" fill="white"/>
<path d="M31.4887 42.3683L31.4759 42.3095C31.3742 41.8593 31.1731 41.4602 30.9034 41.12C30.6617 42.2123 29.822 43.1255 28.6642 43.3915L25.2215 44.187C24.0637 44.4531 22.9136 44.0029 22.2215 43.1255C22.1273 43.5475 22.1197 43.9952 22.2215 44.4454L22.2342 44.5042C22.6031 46.1183 24.2011 47.1236 25.8067 46.7553L29.2495 45.9597C30.8551 45.5888 31.8551 43.9824 31.4861 42.3683H31.4887Z" fill="#D4DED8"/>
<path d="M25.1401 47.584C23.4403 47.584 21.9009 46.4073 21.5039 44.673L21.4912 44.6142C21.2673 43.6396 21.4378 42.6343 21.967 41.785C22.4963 40.9358 23.3233 40.3449 24.2927 40.1198L27.738 39.3242C28.7101 39.0991 29.7101 39.2705 30.5548 39.8026C31.3996 40.3346 31.9874 41.166 32.2113 42.1406L32.2241 42.1994C32.6846 44.2151 31.4276 46.2334 29.4225 46.6964L25.9798 47.4919C25.6999 47.5559 25.42 47.5866 25.1452 47.5866L25.1401 47.584ZM28.5752 40.7362C28.4073 40.7362 28.2393 40.7542 28.0714 40.7951L24.6261 41.5906C24.0459 41.7236 23.5523 42.0792 23.2342 42.5857C22.9187 43.0922 22.8169 43.6933 22.9518 44.2765L22.9645 44.3354C23.2393 45.5402 24.4403 46.2948 25.6362 46.0185L29.079 45.223C30.2775 44.9467 31.0281 43.7419 30.7533 42.5371L30.7406 42.4782C30.6083 41.895 30.2546 41.3988 29.7508 41.079C29.392 40.8514 28.9849 40.7362 28.5701 40.7362H28.5752Z" fill="#191A1A"/>
<defs>
<radialGradient id="paint0_radial_13048_47059" cx="0" cy="0" r="1" gradientUnits="userSpaceOnUse" gradientTransform="translate(40.6747 52.0043) scale(17.4886 17.5812)">
<stop stop-color="#D4DED8"/>
<stop offset="0.29" stop-color="#DAE3DE"/>
<stop offset="0.71" stop-color="#EDF1EF"/>
<stop offset="1" stop-color="white"/>
</radialGradient>
<radialGradient id="paint1_radial_13048_47059" cx="0" cy="0" r="1" gradientUnits="userSpaceOnUse" gradientTransform="translate(90.784 57.5066) scale(9.07637 9.1244)">
<stop stop-color="#D4DED8"/>
<stop offset="0.29" stop-color="#DAE3DE"/>
<stop offset="0.71" stop-color="#EDF1EF"/>
<stop offset="1" stop-color="white"/>
</radialGradient>
<radialGradient id="paint2_radial_13048_47059" cx="0" cy="0" r="1" gradientUnits="userSpaceOnUse" gradientTransform="translate(62.0028 49.0652) scale(21.336 21.4489)">
<stop stop-color="#D4DED8"/>
<stop offset="0.29" stop-color="#DAE3DE"/>
<stop offset="0.71" stop-color="#EDF1EF"/>
<stop offset="1" stop-color="white"/>
</radialGradient>
<radialGradient id="paint3_radial_13048_47059" cx="0" cy="0" r="1" gradientUnits="userSpaceOnUse" gradientTransform="translate(61.1526 82.268) scale(18.8194 18.919)">
<stop stop-color="#D4DED8"/>
<stop offset="0.29" stop-color="#DAE3DE"/>
<stop offset="0.71" stop-color="#EDF1EF"/>
<stop offset="1" stop-color="white"/>
</radialGradient>
<radialGradient id="paint4_radial_13048_47059" cx="0" cy="0" r="1" gradientUnits="userSpaceOnUse" gradientTransform="translate(81.5374 53.8077) scale(20.2571 20.3643)">
<stop stop-color="#D4DED8"/>
<stop offset="0.29" stop-color="#DAE3DE"/>
<stop offset="0.71" stop-color="#EDF1EF"/>
<stop offset="1" stop-color="white"/>
</radialGradient>
<radialGradient id="paint5_radial_13048_47059" cx="0" cy="0" r="1" gradientUnits="userSpaceOnUse" gradientTransform="translate(61.5778 89.4304) scale(3.32317 3.34076)">
<stop stop-color="#EDFFCA"/>
<stop offset="1" stop-color="white"/>
</radialGradient>
<radialGradient id="paint6_radial_13048_47059" cx="0" cy="0" r="1" gradientUnits="userSpaceOnUse" gradientTransform="translate(62.5674 83.8796) scale(18.2164 18.3128)">
<stop stop-color="#D4DED8"/>
<stop offset="0.29" stop-color="#DAE3DE"/>
<stop offset="0.71" stop-color="#EDF1EF"/>
<stop offset="1" stop-color="white"/>
</radialGradient>
<radialGradient id="paint7_radial_13048_47059" cx="0" cy="0" r="1" gradientUnits="userSpaceOnUse" gradientTransform="translate(61.593 0.572173) scale(4.56745 4.59162)">
<stop stop-color="#E4FFB8"/>
<stop offset="0.21" stop-color="#E6FFBE"/>
<stop offset="0.51" stop-color="#EDFFD1"/>
<stop offset="0.86" stop-color="#F9FFF1"/>
<stop offset="1" stop-color="white"/>
</radialGradient>
<radialGradient id="paint8_radial_13048_47059" cx="0" cy="0" r="1" gradientUnits="userSpaceOnUse" gradientTransform="translate(62.1912 56.4629) scale(30.2571 30.4172)">
<stop stop-color="#D4DED8"/>
<stop offset="0.29" stop-color="#DAE3DE"/>
<stop offset="0.71" stop-color="#EDF1EF"/>
<stop offset="1" stop-color="white"/>
</radialGradient>
</defs>
</svg>
