<svg width="63" height="85" viewBox="0 0 63 85" fill="none" xmlns="http://www.w3.org/2000/svg">
<mask id="mask0_13111_85803" style="mask-type:alpha" maskUnits="userSpaceOnUse" x="0" y="0" width="63" height="85">
<rect x="0.5" width="62" height="85" fill="#BAB3B3"/>
</mask>
<g mask="url(#mask0_13111_85803)">
<path d="M40.0548 52.4228C40.0548 60.6419 33.3917 77.308 25.1741 77.308C16.9565 77.308 10.2935 60.6419 10.2935 52.4228C10.2935 44.2038 16.9565 37.5435 25.1741 37.5435C33.3917 37.5435 40.0548 44.206 40.0548 52.4228Z" fill="white"/>
<path d="M31.6334 39.0138L23.0084 37.7007C18.9826 38.2875 15.4817 40.484 13.1787 43.6193L37.7208 47.3524C38.219 47.4276 38.7106 47.4498 39.1933 47.4254C37.8758 43.7277 35.1366 40.7032 31.6334 39.0115V39.0138Z" fill="url(#paint0_radial_13111_85803)"/>
<path d="M25.1742 68.5819C19.3016 68.5819 14.3702 60.2056 12.9818 54.1166C12.9375 53.9218 12.5898 53.9483 12.5898 54.1454C12.5898 54.1498 12.5898 54.1565 12.5898 54.1609C12.5898 59.9488 18.2232 71.6839 25.1742 71.6839C32.1252 71.6839 37.7586 59.9488 37.7586 54.1609V54.1454C37.7586 53.9483 37.4109 53.9218 37.3666 54.1166C35.9782 60.2056 31.0468 68.5819 25.1742 68.5819Z" fill="url(#paint1_radial_13111_85803)"/>
<path d="M25.1739 77.959C19.8948 77.959 15.9532 71.8745 14.071 68.2454C11.4204 63.1329 9.64001 56.7738 9.64001 52.4207C9.64001 43.8562 16.6087 36.8882 25.1739 36.8882C33.7392 36.8882 40.7079 43.8562 40.7079 52.4207C40.7079 56.7738 38.9275 63.1329 36.2769 68.2454C34.3969 71.8723 30.453 77.959 25.1739 77.959ZM25.1739 38.1945C17.3284 38.1945 10.9465 44.5758 10.9465 52.4207C10.9465 60.2655 17.5321 76.6527 25.1739 76.6527C32.8158 76.6527 39.4036 60.4006 39.4036 52.4207C39.4036 44.4408 33.0217 38.1945 25.1739 38.1945Z" fill="#191A1A"/>
<path d="M25.1741 68.0084C21.868 68.0084 18.7811 68.945 16.1593 70.5658C18.6616 74.4716 21.7838 77.3058 25.1741 77.3058C28.5643 77.3058 31.6866 74.4716 34.1888 70.5658C31.5692 68.945 28.4824 68.0084 25.1741 68.0084Z" fill="#8CCB67"/>
<path d="M25.174 73.8405C24.4544 73.8405 24.2152 73.8405 23.0549 74.1195C22.5743 74.2346 22.2865 74.6022 22.7205 74.8369C23.5133 75.2642 24.3348 75.5012 25.1718 75.5012C26.0089 75.5012 26.8304 75.2664 27.6231 74.8369C28.0572 74.6022 27.7494 74.3011 27.2888 74.1195C26.5935 73.8405 25.8893 73.8405 25.1696 73.8405H25.174Z" fill="url(#paint2_radial_13111_85803)"/>
<path style="mix-blend-mode:multiply" d="M25.1742 68.5819C19.3016 68.5819 14.3702 60.2056 12.9818 54.1166C12.9375 53.9218 12.5898 53.9484 12.5898 54.1454C12.5898 54.1499 12.5898 54.1565 12.5898 54.1609C12.5898 59.9488 18.2232 71.684 25.1742 71.684C32.1252 71.684 37.7586 59.9488 37.7586 54.1609V54.1454C37.7586 53.9484 37.4109 53.9218 37.3666 54.1166C35.9782 60.2056 31.0468 68.5819 25.1742 68.5819Z" fill="url(#paint3_radial_13111_85803)"/>
<path d="M25.1741 77.9589C21.868 77.9589 18.5597 75.5233 15.6102 70.9178C15.5149 70.7694 15.4839 70.5923 15.5238 70.4218C15.5637 70.2513 15.6677 70.103 15.8183 70.0122C18.6262 68.2763 21.8636 67.3574 25.1763 67.3574C28.489 67.3574 31.7243 68.2763 34.5343 70.0122C34.6827 70.1052 34.789 70.2513 34.8266 70.4218C34.8643 70.5923 34.8333 70.7716 34.7402 70.9178C31.7907 75.5233 28.4824 77.9589 25.1763 77.9589H25.1741ZM17.0827 70.7805C18.976 73.5836 21.8149 76.6547 25.1741 76.6547C28.5333 76.6547 31.3722 73.5836 33.2655 70.7805C30.8009 69.3922 28.0196 68.6637 25.1741 68.6637C22.3286 68.6637 19.5451 69.3944 17.0827 70.7805Z" fill="#191A1A"/>
<path d="M26.9809 49.9075C26.9809 50.9061 26.1727 51.7142 25.174 51.7142C24.1753 51.7142 23.3671 50.9061 23.3671 49.9075C23.3671 48.9089 24.1753 48.1007 25.174 48.1007C26.1727 48.1007 26.9809 48.9089 26.9809 49.9075Z" fill="#8CCB67"/>
<path d="M25.1739 52.3675C23.8165 52.3675 22.7137 51.2649 22.7137 49.9076C22.7137 48.5503 23.8165 47.4476 25.1739 47.4476C26.5313 47.4476 27.6341 48.5503 27.6341 49.9076C27.6341 51.2649 26.5313 52.3675 25.1739 52.3675ZM25.1739 48.754C24.5384 48.754 24.0202 49.2721 24.0202 49.9076C24.0202 50.5431 24.5384 51.0612 25.1739 51.0612C25.8095 51.0612 26.3276 50.5431 26.3276 49.9076C26.3276 49.2721 25.8095 48.754 25.1739 48.754Z" fill="#191A1A"/>
<path d="M45.0861 36.2128C44.1738 36.0733 43.5494 35.2231 43.6866 34.313L45.1924 24.4134C45.3319 23.5012 46.1823 22.8768 47.0924 23.0141C48.0025 23.1536 48.6292 24.0038 48.4919 24.9138L46.9861 34.8134C46.8466 35.7257 45.9963 36.3501 45.0861 36.2128Z" fill="white"/>
<path d="M44.9864 36.8593C43.7198 36.6667 42.8473 35.4799 43.04 34.2156L44.5458 24.316C44.7384 23.0495 45.9253 22.1771 47.1897 22.3697C48.4564 22.5623 49.3288 23.7491 49.1362 25.0134L47.6304 34.913C47.4377 36.1796 46.2508 37.0519 44.9864 36.8593ZM46.9949 23.6584C46.4413 23.5742 45.9209 23.9551 45.8367 24.5086L44.3309 34.4082C44.2468 34.9618 44.6277 35.4799 45.1835 35.5662C45.7371 35.6504 46.2553 35.2695 46.3416 34.716L47.8474 24.8164C47.9315 24.2628 47.5507 23.7447 46.9971 23.6584H46.9949Z" fill="#191A1A"/>
<path d="M48.4896 24.936L47.7965 29.495L47.6836 30.2346L46.9905 34.7936L48.2925 34.2135C48.7952 33.9898 49.1495 33.5248 49.2337 32.9802L49.6079 30.5268L49.7208 29.7873L50.0951 27.334C50.177 26.7893 49.9777 26.2402 49.5636 25.8771L48.494 24.936H48.4896Z" fill="#8CCB67"/>
<path d="M46.8907 35.4401C46.7844 35.4246 46.6825 35.3825 46.5939 35.3138C46.4035 35.1699 46.3083 34.933 46.3437 34.6961L47.8451 24.8385C47.8805 24.6016 48.0422 24.4046 48.268 24.3226C48.4917 24.2407 48.7441 24.2872 48.9235 24.4466L49.993 25.3877C50.5776 25.9014 50.8544 26.6652 50.7393 27.4336L49.8801 33.0797C49.7627 33.8481 49.2689 34.4946 48.5603 34.8112L47.2583 35.3913C47.1431 35.4423 47.0147 35.4578 46.8951 35.4401H46.8907ZM48.9545 26.2136L47.8141 33.7108L48.0244 33.6178C48.3256 33.4827 48.536 33.2082 48.5847 32.8827L49.4439 27.2365C49.4926 26.911 49.3752 26.5855 49.1272 26.3685L48.9545 26.2158V26.2136Z" fill="#191A1A"/>
<path d="M6.17655 16.7878C7.08888 16.9273 7.71334 17.7775 7.57605 18.6875L6.07026 28.5872C5.93076 29.4972 5.08043 30.1238 4.17032 29.9865C3.2602 29.847 2.63353 28.9968 2.77082 28.0868L4.2766 18.1871C4.41611 17.2749 5.26644 16.6505 6.17655 16.7878Z" fill="white"/>
<path d="M4.06868 30.6331C2.80205 30.4404 1.92958 29.2536 2.12223 27.9893L3.62801 18.0897C3.82067 16.8232 5.00758 15.9508 6.27199 16.1435C7.53862 16.3361 8.41109 17.5229 8.21844 18.7872L6.71265 28.6868C6.52 29.9533 5.33309 30.8257 4.06868 30.6331ZM6.07934 17.4321C5.52575 17.348 5.00758 17.7288 4.92122 18.2824L3.41543 28.182C3.33128 28.7355 3.71216 29.2536 4.26576 29.34C4.81936 29.4241 5.33973 29.0433 5.42388 28.4898L6.92967 18.5901C7.01382 18.0366 6.63294 17.5185 6.07713 17.4321H6.07934Z" fill="#191A1A"/>
<path d="M2.77088 28.0668L3.46399 23.5078L3.57692 22.7683L4.27003 18.2093L2.96797 18.7894C2.4653 19.013 2.111 19.478 2.02685 20.0227L1.65262 22.476L1.53968 23.2156L1.16545 25.6689C1.08352 26.2136 1.28282 26.7627 1.69691 27.1258L2.76645 28.0668H2.77088Z" fill="#8CCB67"/>
<path d="M2.6736 28.7111C2.55181 28.6934 2.43666 28.6403 2.34144 28.5561L1.27189 27.6151C0.687294 27.1014 0.410497 26.3375 0.525645 25.5692L1.38483 19.923C1.50219 19.1547 1.996 18.5082 2.70461 18.1915L4.00667 17.6114C4.22368 17.514 4.47833 17.545 4.66877 17.6889C4.85921 17.8328 4.95442 18.0698 4.91899 18.3067L3.41763 28.1642C3.3822 28.4011 3.22056 28.5982 2.99469 28.6801C2.89062 28.7178 2.77989 28.7288 2.6736 28.7111ZM3.44642 19.2898L3.23605 19.3828C2.9349 19.5178 2.72454 19.7924 2.67582 20.1179L1.81664 25.764C1.76792 26.0895 1.88528 26.415 2.13329 26.6342L2.30602 26.787L3.44642 19.2898Z" fill="#191A1A"/>
<path d="M29.2871 3.90072L28.8646 3.83645C28.4064 3.76674 27.9784 4.08167 27.9087 4.53987L26.468 14.0095C26.3983 14.4677 26.7132 14.8956 27.1714 14.9653L27.594 15.0296C28.0522 15.0993 28.4802 14.7843 28.5499 14.3262L29.9906 4.85656C30.0603 4.39837 29.7454 3.97042 29.2871 3.90072Z" fill="white"/>
<path d="M27.4926 15.6829L27.0696 15.6186C26.257 15.4946 25.6967 14.733 25.8185 13.9204L27.2601 4.45031C27.3841 3.6377 28.1458 3.0753 28.9585 3.19929L29.3815 3.26351C30.1941 3.3875 30.7566 4.14918 30.6326 4.96178L29.191 14.4318C29.067 15.2444 28.3053 15.8046 27.4926 15.6829ZM28.7636 4.49016C28.6618 4.47466 28.5688 4.54552 28.5533 4.64516L27.1117 14.1152C27.0962 14.2171 27.1671 14.3101 27.2667 14.3256L27.6897 14.3898C27.7915 14.4053 27.8867 14.3344 27.9 14.2348L29.3416 4.76472C29.3571 4.66287 29.2862 4.56766 29.1866 4.55437L28.7636 4.49016Z" fill="#191A1A"/>
<path d="M32.5515 4.40356C32.6665 2.45037 31.1762 0.773757 29.2228 0.658742C27.2695 0.543728 25.5927 2.03386 25.4777 3.98706C25.3627 5.94025 26.8529 7.61686 28.8063 7.73187C30.7597 7.84689 32.4364 6.35675 32.5515 4.40356Z" fill="#8CCB67"/>
<path d="M30.9648 3.84587C30.8098 4.8644 29.8576 5.56408 28.839 5.40909C27.8204 5.25409 27.1206 4.302 27.2757 3.28347C27.4307 2.26495 28.3829 1.56527 29.4015 1.72026C30.4201 1.87525 31.1198 2.82735 30.9648 3.84587Z" fill="url(#paint4_radial_13111_85803)"/>
<path d="M28.8878 5.10134C27.413 4.87771 26.2925 3.77283 25.9714 2.40225C25.75 2.78088 25.5928 3.20379 25.5219 3.66212C25.2274 5.59732 26.5582 7.40409 28.4914 7.69858C30.4268 7.99306 32.2337 6.66234 32.5282 4.72936C32.5991 4.27102 32.5747 3.81933 32.4751 3.39199C31.762 4.60536 30.3626 5.32497 28.8878 5.10134Z" fill="#7FB95E"/>
<path d="M28.3936 8.34509C26.1062 7.99746 24.5273 5.85192 24.8772 3.56467C25.227 1.27742 27.3706 -0.301293 29.658 0.0485479C31.9455 0.396175 33.5243 2.54172 33.1745 4.82897C32.8268 7.11622 30.6811 8.69493 28.3936 8.34509ZM29.4587 1.33942C27.8821 1.10028 26.4073 2.18745 26.1659 3.76173C25.9268 5.33823 27.0118 6.81509 28.5885 7.05422C30.1651 7.29335 31.6421 6.20619 31.8813 4.63191C32.1204 3.05541 31.0332 1.57855 29.4587 1.33942Z" fill="#191A1A"/>
<path d="M36.2242 43.7054L9.6737 39.6645C5.59037 39.0423 2.84674 35.1475 3.63506 31.0956L6.40083 16.8783C7.14486 13.0544 10.7742 10.4971 14.6273 11.0838L40.0019 14.9453C43.855 15.5321 46.5587 19.0527 46.1314 22.9253L44.5414 37.3219C44.0875 41.427 40.3097 44.3298 36.2264 43.7076L36.2242 43.7054Z" fill="white"/>
<path d="M45.5486 31.6848C44.293 34.6695 41.1309 36.5604 37.7606 36.0467L11.2101 32.0058C7.83975 31.4921 5.38179 28.7488 5.07178 25.5249L4.06865 30.6817C3.28033 34.7359 6.02396 38.6306 10.1073 39.2506L36.6578 43.2915C40.7411 43.9137 44.5189 41.0109 44.9728 36.9058L45.5486 31.6848Z" fill="url(#paint5_radial_13111_85803)"/>
<path d="M36.5604 43.9359L10.0099 39.895C7.85748 39.5673 5.9819 38.4071 4.72856 36.6269C3.47522 34.8467 3.01241 32.6901 3.42872 30.5534L6.19448 16.3361C7.00716 12.1535 10.9466 9.37914 15.1583 10.019L40.533 13.8806C44.747 14.5227 47.681 18.3421 47.2138 22.5779L45.6239 36.9745C45.3847 39.1377 44.3019 41.0597 42.5769 42.386C40.8496 43.7122 38.715 44.2614 36.5626 43.9337L36.5604 43.9359ZM14.9612 11.3143C11.4426 10.7785 8.15421 13.0968 7.47439 16.5885L4.70863 30.8058C4.36097 32.5904 4.74628 34.3905 5.79368 35.8763C6.84109 37.362 8.40665 38.3318 10.2047 38.6041L36.7552 42.645C38.5533 42.9196 40.3359 42.459 41.7775 41.3519C43.219 40.2448 44.1225 38.6396 44.3218 36.8328L45.9117 22.4362C46.3015 18.9001 43.8523 15.7095 40.3337 15.1737L14.959 11.3121L14.9612 11.3143Z" fill="#191A1A"/>
<path d="M24.9348 31.6073L24.7776 31.5829C23.9893 31.4633 23.2209 32.2073 23.0637 33.2435L23.0459 33.3609L22.9264 34.1447L22.9086 34.2621C22.7514 35.3005 23.2629 36.2371 24.0513 36.3589L24.2085 36.3832C24.9968 36.5028 25.7652 35.7588 25.9224 34.7226L25.9401 34.6053L26.0597 33.8214L26.0774 33.7041C26.2347 32.6656 25.7231 31.729 24.9348 31.6073Z" fill="#FF727C"/>
<path d="M24.9349 31.6073L24.7777 31.5829C24.2529 31.5032 23.7391 31.8066 23.407 32.3225C23.6904 32.6236 24.0735 32.8361 24.5142 32.9026L24.7223 32.9336C25.1874 33.0044 25.6391 32.9026 26.0111 32.6745C25.8384 32.1055 25.4464 31.6826 24.9349 31.6051V31.6073Z" fill="white"/>
<path d="M24.3724 36.722C24.3015 36.722 24.2307 36.7176 24.1576 36.7065L24.0004 36.6822C23.0349 36.5361 22.3994 35.429 22.5832 34.2134L22.7382 33.1926C22.9242 31.9793 23.8586 31.1113 24.8241 31.2574L24.9813 31.2818C25.4663 31.3549 25.8804 31.6649 26.1461 32.152C26.3963 32.6103 26.4849 33.1771 26.3985 33.7484L26.2435 34.7669C26.073 35.8917 25.2581 36.7176 24.3702 36.7176L24.3724 36.722ZM24.6071 31.8973C24.0402 31.8973 23.5066 32.493 23.3848 33.2945L23.2298 34.3152C23.0991 35.1721 23.4888 35.9471 24.1 36.0379L24.2572 36.0622C24.8618 36.1552 25.4685 35.533 25.5992 34.6739L25.7542 33.6554C25.8206 33.2236 25.7542 32.8029 25.5748 32.4686C25.4087 32.1653 25.1651 31.9726 24.8861 31.9306L24.7289 31.9062C24.689 31.8996 24.647 31.8973 24.6071 31.8973Z" fill="#191A1A"/>
<path d="M17.9463 23.5366C17.0782 23.4126 16.2744 24.0149 16.1482 24.8828L15.9666 26.156C16.0618 26.1427 16.1615 26.1383 16.2611 26.1515C16.8391 26.2335 17.2421 26.7715 17.158 27.3494C17.076 27.9273 16.5379 28.3303 15.96 28.2462C15.8581 28.2307 15.7651 28.1997 15.6765 28.1598L15.619 28.5672C15.495 29.4352 16.0973 30.2389 16.9653 30.3651C17.8333 30.4891 18.6372 29.8869 18.7634 29.0189L19.2926 25.3345C19.4166 24.4666 18.8143 23.6628 17.9463 23.5366Z" fill="#191A1A"/>
<path d="M33.9009 25.9656C33.0328 25.8416 32.229 26.4438 32.1028 27.3118L31.9212 28.585C32.0164 28.5717 32.1161 28.5672 32.2157 28.5805C32.7937 28.6625 33.1967 29.2005 33.1126 29.7784C33.0306 30.3563 32.4925 30.7593 31.9146 30.6751C31.8127 30.6596 31.7197 30.6286 31.6311 30.5888L31.5736 30.9962C31.4495 31.8642 32.0519 32.6679 32.9199 32.7941C33.7879 32.9181 34.5918 32.3159 34.718 31.4479L35.2472 27.7635C35.3712 26.8955 34.7689 26.0918 33.9009 25.9656Z" fill="#191A1A"/>
<path d="M18.7281 20.357C15.019 19.7437 11.5004 22.2634 10.8892 25.9722C10.2758 29.6809 12.7958 33.1993 16.5049 33.8104C20.214 34.4237 23.7327 31.904 24.3438 28.1952C24.9572 24.4865 22.4372 20.9681 18.7281 20.357ZM16.7551 32.3025C13.8764 31.8265 11.9211 29.0986 12.3972 26.2202C12.8733 23.3417 15.6014 21.3866 18.4801 21.8627C21.3588 22.3387 23.3141 25.0666 22.838 27.945C22.362 30.8234 19.6338 32.7786 16.7551 32.3025Z" fill="#7FB95E"/>
<path d="M34.2395 22.9189C30.5304 22.3055 27.0117 24.8253 26.4006 28.534C25.7872 32.2428 28.3071 35.7611 32.0162 36.3722C35.7253 36.9856 39.244 34.4658 39.8552 30.7571C40.4686 27.0483 37.9486 23.53 34.2395 22.9189ZM32.2643 34.8666C29.3856 34.3905 27.4303 31.6627 27.9063 28.7842C28.3824 25.9058 31.1106 23.9507 33.9893 24.4267C36.868 24.9028 38.8233 27.6306 38.3472 30.5091C37.8711 33.3875 35.143 35.3426 32.2643 34.8666Z" fill="#7FB95E"/>
<path d="M23.2008 29.3023C23.0879 29.2846 22.9838 29.2181 22.9019 29.103C22.6982 28.8174 22.7225 28.3369 22.9572 28.0291C23.7079 27.0483 24.7332 26.5589 25.7009 26.7183C26.6243 26.8711 27.3949 27.5797 27.8134 28.6646C27.9507 29.0189 27.8355 29.4883 27.5565 29.7119C27.2775 29.9355 26.9409 29.8293 26.8037 29.4728C26.5357 28.7775 26.0419 28.3236 25.4507 28.2262C24.8306 28.1243 24.1752 28.4388 23.6946 29.0654C23.5529 29.2491 23.3691 29.3289 23.2008 29.3001V29.3023Z" fill="#7FB95E"/>
<path d="M11.1834 24.6564L12.1535 24.8166L11.7604 27.1956L10.7926 27.0358C10.2573 26.9474 9.89437 26.4408 9.98279 25.9056L10.0557 25.4643C10.1441 24.9291 10.6503 24.5684 11.1834 24.6564Z" fill="#7FB95E"/>
<path d="M39.7261 31.8183L38.7561 31.6581L39.1491 29.2791L40.1191 29.4393C40.6544 29.5277 41.0152 30.0339 40.9271 30.5669L40.8542 31.0082C40.7658 31.5434 40.2592 31.9063 39.7239 31.8179L39.7261 31.8183Z" fill="#7FB95E"/>
<path d="M18.8478 19.6396C15.1387 19.0263 11.62 21.546 11.0088 25.2548C10.3955 28.9635 12.9154 32.4819 16.6245 33.093C20.3336 33.7063 23.8523 31.1866 24.4635 27.4778C25.0768 23.769 22.5569 20.2507 18.8478 19.6396ZM16.8725 31.5873C13.9938 31.1113 12.0385 28.3834 12.5146 25.505C12.9907 22.6265 15.7188 20.6714 18.5975 21.1475C21.4763 21.6235 23.4316 24.3514 22.9555 27.2298C22.4794 30.1083 19.7512 32.0634 16.8725 31.5873Z" fill="#8CCB67"/>
<path d="M34.3573 22.2015C30.6482 21.5881 27.1295 24.1079 26.5184 27.8166C25.905 31.5254 28.4249 35.0437 32.134 35.6548C35.8431 36.2682 39.3618 33.7484 39.973 30.0397C40.5864 26.3309 38.0664 22.8126 34.3573 22.2015ZM32.3843 34.1492C29.5056 33.6731 27.5503 30.9453 28.0264 28.0668C28.5025 25.1884 31.2306 23.2333 34.1093 23.7093C36.988 24.1854 38.9433 26.9132 38.4672 29.7917C37.9911 32.6701 35.263 34.6252 32.3843 34.1492Z" fill="#8CCB67"/>
<path d="M23.3206 28.5872C23.2076 28.5695 23.1036 28.503 23.0216 28.3879C22.8179 28.1023 22.8423 27.6218 23.077 27.314C23.8277 26.3331 24.8529 25.8438 25.8206 26.0032C26.744 26.156 27.5146 26.8645 27.9331 27.9495C28.0704 28.3038 27.9553 28.7732 27.6763 28.9968C27.3973 29.2204 27.0607 29.1141 26.9234 28.7577C26.6554 28.0624 26.1616 27.6085 25.5704 27.5111C24.9504 27.4092 24.2949 27.7236 23.8144 28.3503C23.6727 28.534 23.4889 28.6137 23.3206 28.585V28.5872Z" fill="#8CCB67"/>
<path d="M11.8788 26.4792L10.9089 26.3198C10.373 26.2312 10.0121 25.7264 10.1006 25.1906L10.1737 24.7499C10.2623 24.2141 10.7672 23.8532 11.3031 23.9418L12.273 24.1012L11.881 26.4792H11.8788Z" fill="#8CCB67"/>
<path d="M39.2683 28.5627L40.2382 28.7222C40.7741 28.8107 41.135 29.3156 41.0465 29.8514L40.9734 30.292C40.8848 30.8279 40.3799 31.1888 39.844 31.1002L38.8741 30.9408L39.2661 28.5627H39.2683Z" fill="#8CCB67"/>
<path d="M50.2497 55.4806C49.2798 57.6195 46.7598 58.5671 44.6207 57.5995L37.8336 54.524C35.6945 53.5542 34.7468 51.0345 35.7145 48.8956C36.6844 46.7567 39.2043 45.809 41.3434 46.7766L48.1305 49.8521C50.2696 50.8219 51.2174 53.3417 50.2497 55.4806Z" fill="white"/>
<path d="M44.6209 53.893L37.8338 50.8175C36.8927 50.3902 36.1819 49.6639 35.7634 48.8026C35.7479 48.8358 35.7302 48.8646 35.7147 48.8978C34.7448 51.0367 35.6948 53.5564 37.8338 54.5262L44.6209 57.6017C46.76 58.5716 49.28 57.6217 50.2499 55.4828C50.7924 54.2849 50.7327 52.9675 50.2012 51.8714C49.2003 53.9417 46.729 54.8495 44.6209 53.8952V53.893Z" fill="url(#paint6_radial_13111_85803)"/>
<path d="M46.368 58.6314C45.6926 58.6314 45.0062 58.4919 44.3507 58.1952L37.5636 55.1197C36.37 54.5794 35.4577 53.6052 34.9971 52.3807C34.5365 51.1541 34.5786 49.8211 35.1189 48.6277C35.6592 47.4342 36.6336 46.522 37.8581 46.0614C39.0849 45.5987 40.418 45.643 41.6093 46.1832L48.3964 49.2587C49.5899 49.799 50.5023 50.7732 50.9629 51.9977C51.4235 53.2243 51.3814 54.5573 50.8411 55.7507C50.0217 57.5597 48.2325 58.6314 46.3658 58.6314H46.368ZM39.5898 47.0512C39.1624 47.0512 38.7328 47.1287 38.3209 47.2837C37.4219 47.6224 36.7066 48.2911 36.3103 49.1657C35.9139 50.0403 35.8807 51.019 36.2195 51.918C36.5583 52.8169 37.227 53.5321 38.1017 53.9284L44.8888 57.0039C45.7635 57.4003 46.7422 57.4335 47.6413 57.0947C48.5403 56.7559 49.2556 56.0873 49.6519 55.2127C50.0483 54.3381 50.0815 53.3594 49.7427 52.4604C49.4039 51.5615 48.7352 50.8463 47.8605 50.45L41.0734 47.3744C40.5995 47.1597 40.0947 47.0512 39.5898 47.0512Z" fill="#191A1A"/>
<path d="M25.0897 85C29.1378 85 32.4194 83.7856 32.4194 82.2876C32.4194 80.7896 29.1378 79.5753 25.0897 79.5753C21.0417 79.5753 17.7601 80.7896 17.7601 82.2876C17.7601 83.7856 21.0417 85 25.0897 85Z" fill="#D8E4F3"/>
<path d="M19.2414 43.1189C18.2715 40.98 15.7515 40.0323 13.6124 40.9999L6.82533 44.0754C4.68623 45.0452 3.73847 47.5649 4.70616 49.7038C5.67606 51.8427 8.19603 52.7904 10.3351 51.8228L17.1222 48.7473C19.2613 47.7775 20.2091 45.2578 19.2414 43.1189Z" fill="white"/>
<path d="M19.2417 43.1188C19.2285 43.0878 19.2107 43.0612 19.1975 43.0302C18.7789 43.8982 18.0681 44.6289 17.1226 45.0584L10.3355 48.1339C8.22738 49.0882 5.75171 48.1782 4.75302 46.1035C4.22599 47.1995 4.16842 48.5103 4.70873 49.7038C5.67863 51.8427 8.1986 52.7904 10.3377 51.8228L17.1248 48.7473C19.2639 47.7774 20.2117 45.2577 19.244 43.1188H19.2417Z" fill="url(#paint7_radial_13111_85803)"/>
<path d="M8.58381 52.8545C8.00143 52.8545 7.41683 52.7483 6.85437 52.5379C5.6276 52.0774 4.65549 51.1651 4.11518 49.9717C3.57487 48.7782 3.53058 47.4453 3.99339 46.2186C4.45398 44.992 5.3663 44.0199 6.55986 43.4797L13.347 40.4042C15.8094 39.2882 18.7235 40.3843 19.8395 42.8486C20.9556 45.313 19.8595 48.2247 17.3949 49.3406L10.6078 52.4161C9.96116 52.7084 9.2747 52.8567 8.58603 52.8567L8.58381 52.8545ZM15.3643 41.2744C14.8682 41.2744 14.3656 41.3762 13.8851 41.5954L7.09795 44.6709C6.22327 45.0673 5.55452 45.7824 5.21572 46.6814C4.87692 47.5804 4.91014 48.559 5.30652 49.4336C5.70289 50.3082 6.41815 50.9769 7.31719 51.3157C8.21623 51.6544 9.19499 51.6212 10.0697 51.2249L16.8568 48.1494C18.6637 47.3301 19.4697 45.1935 18.6504 43.3867C18.0481 42.0604 16.7372 41.2744 15.3665 41.2744H15.3643Z" fill="#191A1A"/>
<path d="M13.3603 37.6454L13.3492 37.6919C13.0569 38.965 13.8519 40.2337 15.1251 40.526L17.8577 41.1526C19.131 41.4449 20.3998 40.65 20.6921 39.3768L20.7032 39.3303C20.9955 38.0572 20.2005 36.7885 18.9272 36.4962L16.1947 35.8696C14.9214 35.5773 13.6526 36.3722 13.3603 37.6454Z" fill="white"/>
<path d="M18.3914 41.8657C18.1656 41.8657 17.9375 41.8391 17.7094 41.7882L14.9768 41.1616C14.1907 40.9822 13.522 40.5062 13.0946 39.822C12.6672 39.14 12.5299 38.3297 12.7115 37.5458L12.7226 37.4993C13.0946 35.8785 14.7178 34.8622 16.3387 35.2342L19.0712 35.8608C20.6922 36.2328 21.7086 37.8558 21.3366 39.4766L21.3255 39.5231C21.1439 40.3091 20.67 40.9778 19.9858 41.4051C19.4986 41.7107 18.9495 41.8657 18.3892 41.8657H18.3914ZM13.9981 37.7916L13.987 37.8381C13.8852 38.2854 13.9627 38.7437 14.204 39.1312C14.4476 39.5187 14.8263 39.7888 15.2714 39.8906L18.0039 40.5173C18.449 40.6191 18.9074 40.5416 19.2949 40.3003C19.6824 40.0567 19.9526 39.6781 20.0544 39.233L20.0655 39.1865C20.1674 38.7393 20.0899 38.2809 19.8485 37.8935C19.6049 37.506 19.2263 37.2358 18.7812 37.134L16.0486 36.5074C15.1296 36.297 14.2085 36.8727 13.9981 37.7916Z" fill="#191A1A"/>
<path d="M18.1715 36.2396L16.7129 37.1933C14.2809 38.7834 13.5985 42.0438 15.1887 44.4756L16.6999 46.7865C18.2902 49.2182 21.5509 49.9006 23.9829 48.3105L25.4415 47.3568C27.8735 45.7667 28.5559 42.5063 26.9656 40.0745L25.4544 37.7636C23.8641 35.3318 20.6035 34.6495 18.1715 36.2396Z" fill="white"/>
<g style="mix-blend-mode:multiply">
<path d="M27.1847 40.4552C26.8083 41.4803 26.1107 42.397 25.1253 43.0413L23.666 43.9956C21.2347 45.5854 17.9751 44.9035 16.3851 42.4723L14.8727 40.1607C14.793 40.0411 14.7221 39.9171 14.6535 39.7931C14.0999 41.301 14.2416 43.0413 15.1872 44.4872L16.6996 46.7988C18.2895 49.23 21.5491 49.9119 23.9805 48.3222L25.4398 47.3678C27.7516 45.8578 28.4801 42.8376 27.1825 40.4552H27.1847Z" fill="#D4DED8"/>
</g>
<path d="M21.115 49.8344C20.7075 49.8344 20.2979 49.7924 19.8904 49.706C18.3448 49.3827 17.0161 48.4771 16.1525 47.1553L14.6401 44.8437C13.7765 43.5218 13.4775 41.9431 13.8008 40.3976C14.1241 38.8521 15.0298 37.5236 16.354 36.66L17.8133 35.7057C20.5414 33.9211 24.2151 34.6894 25.9977 37.4195L27.5101 39.7311C29.2949 42.459 28.5265 46.1323 25.7962 47.9147L24.3369 48.869C23.3626 49.5067 22.2509 49.8344 21.1128 49.8344H21.115ZM18.5308 36.7973L17.0715 37.7516C16.0418 38.4247 15.3354 39.4588 15.083 40.6633C14.8305 41.8678 15.063 43.0989 15.7362 44.1285L17.2486 46.4401C17.9218 47.4697 18.9559 48.176 20.1606 48.4284C21.3652 48.6808 22.5964 48.4484 23.6261 47.7752L25.0854 46.8209C27.2112 45.4304 27.8113 42.5697 26.4206 40.4441L24.9082 38.1325C23.5176 36.0069 20.6566 35.4068 18.5308 36.7973Z" fill="#191A1A"/>
<path d="M41.7861 51.8493L41.5137 53.5409C41.4517 53.9195 41.5713 54.3048 41.8392 54.5794C42.4017 55.155 43.7591 56.6341 43.6794 57.7855C43.6794 57.7855 48.1724 58.8439 51.8195 61.5939C52.2579 61.9238 52.8647 61.9061 53.2943 61.5651L60.0238 56.2112C60.2541 56.0274 60.4091 55.7684 60.4622 55.4805L61.0335 50.9592L41.7839 51.8493H41.7861Z" fill="#D4DED8"/>
<path d="M52.1073 62.4331C51.8659 62.3755 51.6334 62.2692 51.4275 62.1142C47.9443 59.4882 43.5886 58.4342 43.531 58.421C43.221 58.3479 43.0084 58.06 43.0305 57.7412C43.0704 57.15 42.4526 56.1381 41.3742 55.0355C40.9645 54.617 40.7763 54.0192 40.8693 53.4368L41.1417 51.7452C41.1904 51.4396 41.4472 51.2116 41.7573 51.1961L61.0069 50.306C61.1996 50.2971 61.3856 50.3746 61.5162 50.5163C61.6469 50.658 61.7089 50.8507 61.6845 51.0411L61.1132 55.5624C61.1132 55.5735 61.1088 55.5868 61.1088 55.5979C61.0269 56.0407 60.7877 56.4415 60.4356 56.7227L53.7061 62.0766C53.2433 62.4441 52.6543 62.5637 52.1117 62.4353L52.1073 62.4331ZM44.2994 57.2718C45.5682 57.6239 49.1533 58.7619 52.2136 61.0713C52.4107 61.2197 52.6897 61.213 52.889 61.0536L59.6185 55.6997C59.7204 55.6178 59.7912 55.5049 59.8178 55.3765L60.2895 51.6456L42.3463 52.4759L42.1581 53.6428C42.1293 53.8177 42.1846 53.9948 42.3064 54.121C43.4712 55.3122 44.1377 56.3706 44.2994 57.2718Z" fill="#191A1A"/>
<path d="M44.4282 55.1772L52.6037 48.6476C52.6037 48.6476 57.2119 47.7951 60.7106 50.4721C61.1734 50.8263 61.1911 51.5172 60.7638 51.9135L53.3323 58.8284C52.9603 59.1738 52.3845 59.1649 52.0191 58.8129C50.799 57.6372 47.9225 55.2746 44.4282 55.1794V55.1772Z" fill="white"/>
<path d="M52.3113 59.6897C52.0389 59.6255 51.7798 59.4883 51.565 59.2823C50.5198 58.2749 47.7297 55.9212 44.4103 55.8304C44.1335 55.8238 43.8966 55.6444 43.808 55.3854C43.7217 55.1263 43.8058 54.8385 44.0206 54.668L52.1961 48.1384C52.2803 48.0719 52.3799 48.0254 52.484 48.0055C52.6833 47.9679 57.4199 47.1309 61.1068 49.954C61.4744 50.2352 61.6981 50.6647 61.7224 51.1319C61.7446 51.608 61.5586 52.0685 61.2087 52.3918L53.7772 59.3067C53.372 59.6853 52.8184 59.8115 52.3113 59.692V59.6897ZM46.3391 54.7765C49.1004 55.4319 51.2949 57.2077 52.4729 58.3413C52.5903 58.4542 52.7719 58.4564 52.887 58.348L60.3185 51.4331C60.3849 51.3711 60.4204 51.2825 60.4159 51.1917C60.4137 51.1319 60.3938 51.05 60.3118 50.988C57.4376 48.7893 53.6731 49.1547 52.8737 49.2632L46.0556 54.71C46.1508 54.73 46.2461 54.7499 46.3391 54.772V54.7765Z" fill="#191A1A"/>
<path d="M52.6016 48.6476C52.6016 48.6476 51.2375 45.8798 48.2901 44.9831C48.0443 44.9078 47.7742 44.9764 47.5948 45.1624L41.9039 51.0677C41.6271 51.3555 41.6536 51.8161 41.9614 52.0685C42.7874 52.7438 44.2201 54.0524 44.426 55.1794L52.6016 48.6498V48.6476Z" fill="white"/>
<path d="M44.2777 55.8127C44.2511 55.806 44.2245 55.7994 44.2002 55.7883C43.9854 55.7086 43.8282 55.5204 43.7861 55.2945C43.6643 54.6325 42.8295 53.6162 41.5518 52.5733C41.2639 52.3386 41.0868 51.991 41.0646 51.6212C41.0425 51.2492 41.1775 50.8817 41.4366 50.6138L47.1276 44.7085C47.4797 44.3454 47.9979 44.2081 48.4828 44.3565C51.6649 45.3241 53.1286 48.2357 53.1906 48.3575C53.3257 48.6321 53.2526 48.9642 53.0112 49.1568L44.8357 55.6865C44.6785 55.8127 44.4703 55.8569 44.2777 55.8127ZM48.0997 45.6053C48.0886 45.6031 48.0754 45.6053 48.0665 45.6141L42.3755 51.5194C42.3755 51.5194 42.3667 51.5304 42.3667 51.5437C43.2015 52.2323 44.1803 53.1601 44.7117 54.1166L51.7512 48.4926C51.253 47.7309 50.0484 46.2009 48.0997 45.6075V45.6053Z" fill="#191A1A"/>
<path d="M43.7126 58.1841C43.5443 58.1443 43.4358 57.9782 43.4668 57.8077L43.9252 55.3544C43.9584 55.1773 44.1289 55.0599 44.3061 55.0931C44.4832 55.1197 44.6006 55.2968 44.5674 55.474L44.109 57.9273C44.0758 58.1044 43.9053 58.2218 43.7281 58.1885C43.7237 58.1885 43.7171 58.1863 43.7126 58.1841Z" fill="#191A1A"/>
</g>
<defs>
<radialGradient id="paint0_radial_13111_85803" cx="0" cy="0" r="1" gradientUnits="userSpaceOnUse" gradientTransform="translate(26.5625 52.89) scale(16.9777 16.9761)">
<stop stop-color="#D4DED8"/>
<stop offset="0.29" stop-color="#DAE3DE"/>
<stop offset="0.71" stop-color="#EDF1EF"/>
<stop offset="1" stop-color="white"/>
</radialGradient>
<radialGradient id="paint1_radial_13111_85803" cx="0" cy="0" r="1" gradientUnits="userSpaceOnUse" gradientTransform="translate(24.8708 69.6513) scale(16.3776 16.3761)">
<stop stop-color="#D4DED8"/>
<stop offset="0.29" stop-color="#DAE3DE"/>
<stop offset="0.71" stop-color="#EDF1EF"/>
<stop offset="1" stop-color="white"/>
</radialGradient>
<radialGradient id="paint2_radial_13111_85803" cx="0" cy="0" r="1" gradientUnits="userSpaceOnUse" gradientTransform="translate(25.2405 -12.5989) scale(2.89199 2.89172)">
<stop stop-color="#EDFFCA"/>
<stop offset="1" stop-color="white"/>
</radialGradient>
<radialGradient id="paint3_radial_13111_85803" cx="0" cy="0" r="1" gradientUnits="userSpaceOnUse" gradientTransform="translate(26.102 71.0485) scale(15.8528 15.8513)">
<stop stop-color="#D4DED8"/>
<stop offset="0.29" stop-color="#DAE3DE"/>
<stop offset="0.71" stop-color="#EDF1EF"/>
<stop offset="1" stop-color="white"/>
</radialGradient>
<radialGradient id="paint4_radial_13111_85803" cx="0" cy="0" r="1" gradientTransform="matrix(3.92962 0.597751 -0.597808 3.92925 29.6649 0.549591)" gradientUnits="userSpaceOnUse">
<stop stop-color="#E4FFB8"/>
<stop offset="0.21" stop-color="#E6FFBE"/>
<stop offset="0.51" stop-color="#EDFFD1"/>
<stop offset="0.86" stop-color="#F9FFF1"/>
<stop offset="1" stop-color="white"/>
</radialGradient>
<radialGradient id="paint5_radial_13111_85803" cx="0" cy="0" r="1" gradientTransform="matrix(26.0318 3.95981 -3.96018 26.0294 22.9019 48.4596)" gradientUnits="userSpaceOnUse">
<stop stop-color="#D4DED8"/>
<stop offset="0.29" stop-color="#DAE3DE"/>
<stop offset="0.71" stop-color="#EDF1EF"/>
<stop offset="1" stop-color="white"/>
</radialGradient>
<radialGradient id="paint6_radial_13111_85803" cx="0" cy="0" r="1" gradientUnits="userSpaceOnUse" gradientTransform="translate(34.4746 53.1335) scale(12.3895 12.3883)">
<stop stop-color="#D4DED8"/>
<stop offset="0.29" stop-color="#DAE3DE"/>
<stop offset="0.71" stop-color="#EDF1EF"/>
<stop offset="1" stop-color="white"/>
</radialGradient>
<radialGradient id="paint7_radial_13111_85803" cx="0" cy="0" r="1" gradientUnits="userSpaceOnUse" gradientTransform="translate(7.459 53.0649) scale(15.5649 15.5635)">
<stop stop-color="#D4DED8"/>
<stop offset="0.29" stop-color="#DAE3DE"/>
<stop offset="0.71" stop-color="#EDF1EF"/>
<stop offset="1" stop-color="white"/>
</radialGradient>
</defs>
</svg>
