<svg width="81" height="81" viewBox="0 0 81 81" fill="none" xmlns="http://www.w3.org/2000/svg">
<mask id="mask0_12052_30392" style="mask-type:alpha" maskUnits="userSpaceOnUse" x="0" y="0" width="81" height="81">
<rect x="0.400024" y="0.5" width="80" height="80" fill="#D9D9D9"/>
</mask>
<g mask="url(#mask0_12052_30392)">
<path d="M76.3555 21.8415C76.3532 21.2215 75.8502 20.7193 75.2293 20.7176C75.2028 20.7176 75.1763 20.7181 75.1497 20.7204C73.4478 19.9347 71.7645 19.2228 70.1275 18.5971V15.8324C70.1275 15.3099 69.7679 14.8562 69.2588 14.7356C69.2407 14.7311 68.8123 14.6307 68.0677 14.5067C66.6859 14.2756 64.4697 14 61.7585 14C56.5528 14 51.8676 14.9926 47.8339 16.9501C45.0916 18.2815 42.6756 20.0632 40.6536 22.2445C40.5684 22.3364 40.4843 22.4288 40.4002 22.5218C40.3166 22.4294 40.2331 22.3369 40.1479 22.2456C38.1248 20.0632 35.7082 18.2815 32.9659 16.9501C28.9322 14.9926 24.2475 14 19.0419 14C16.3301 14 14.1139 14.2756 12.7338 14.5062C11.9881 14.6302 11.5591 14.7311 11.5416 14.735C11.0324 14.8556 10.6728 15.3094 10.6728 15.8319V18.5966C9.0364 19.2222 7.35255 19.9341 5.65064 20.7198C5.62411 20.7181 5.59814 20.7176 5.57105 20.717C4.95011 20.7187 4.44716 21.2209 4.44547 21.8409C4.43531 25.0188 4.34781 53.2249 4.4466 64.8823C4.44998 65.2667 4.64925 65.6229 4.97495 65.827C5.15784 65.9419 5.36614 66 5.57556 66C5.73926 66 5.90353 65.9645 6.0565 65.8923C18.7325 59.9329 27.1992 59.659 32.0701 60.4785C36.3839 61.2045 38.6977 62.8943 39.3756 63.4641C39.4236 63.5228 39.4716 63.5803 39.519 63.6394C39.7375 63.9117 40.0643 64.0616 40.4002 64.0616C40.5249 64.0616 40.6519 64.0408 40.7744 63.9979C40.9771 63.9269 41.1498 63.8012 41.2785 63.6417C41.2791 63.6406 41.2802 63.64 41.2808 63.6394C41.3282 63.5803 41.3767 63.5228 41.4242 63.4641C42.1021 62.8943 44.4165 61.2045 48.7297 60.4785C53.6006 59.659 62.0673 59.9329 74.7433 65.8923C74.8963 65.9639 75.0605 66 75.2242 66C75.4337 66 75.6425 65.9419 75.8248 65.827C76.1506 65.6224 76.3498 65.2661 76.3532 64.8823C76.4526 53.1877 76.3645 25.0148 76.3543 21.8409L76.3555 21.8415ZM48.8211 18.9781C52.545 17.1711 56.8977 16.2546 61.7585 16.2546C64.3145 16.2546 66.3974 16.5133 67.6963 16.7303C67.7567 16.7405 67.8148 16.75 67.8702 16.7596V53.1454C66.5555 52.934 64.3941 52.6725 61.7562 52.6725C57.7433 52.6725 54.0037 53.2722 50.6416 54.4542C47.1181 55.6931 44.0642 57.5599 41.5291 60.0202V24.6637C41.7792 24.3632 42.04 24.0668 42.3093 23.7776C44.1416 21.8015 46.3323 20.1866 48.8211 18.9781ZM12.9302 16.7602C12.9861 16.7506 13.0448 16.7405 13.1052 16.7303C14.4024 16.5133 16.4853 16.2546 19.0419 16.2546C23.9026 16.2546 28.2553 17.1711 31.9787 18.9776C34.468 20.186 36.6588 21.8009 38.4917 23.7782C38.7598 24.0662 39.0206 24.3632 39.2707 24.6631V60.0197C36.7356 57.5594 33.6817 55.6931 30.1582 54.4537C26.7962 53.2717 23.0565 52.672 19.0435 52.672C16.4057 52.672 14.2449 52.9335 12.9302 53.1449V16.7591V16.7602ZM21.5149 58.4257C16.9476 59.1906 11.9683 60.7688 6.69154 63.122C6.61872 51.4449 6.68364 28.1752 6.70058 22.7202C8.04291 22.1025 9.37171 21.5337 10.6728 21.018V54.5055C10.6728 54.8499 10.8309 55.1751 11.1007 55.3887C11.3705 55.6024 11.7245 55.6813 12.0598 55.6029C12.0886 55.5962 14.9951 54.9277 19.0441 54.9277C23.0931 54.9277 28.6668 55.6475 33.4943 58.4567C33.2313 58.4003 32.9614 58.3473 32.6837 58.2977C29.3391 57.7014 25.5814 57.7442 21.5149 58.4257ZM74.1088 63.122C68.832 60.7688 63.8527 59.1906 59.2855 58.4257C55.2184 57.7442 51.4606 57.7014 48.1161 58.2977C47.8384 58.3473 47.5685 58.4003 47.3055 58.4567C52.1335 55.6475 57.5142 54.9277 61.7557 54.9277C65.9972 54.9277 68.7112 55.5962 68.7395 55.6024C69.0753 55.6813 69.4287 55.6024 69.6991 55.3887C69.9695 55.1751 70.1275 54.8493 70.1275 54.5049V21.0174C71.4287 21.5332 72.7574 22.1019 74.0998 22.7196C74.1167 28.1713 74.1822 51.4195 74.1088 63.1214V63.122Z" fill="#CBCCCC"/>
</g>
</svg>
