<svg width="32" height="32" viewBox="0 0 32 32" fill="none" xmlns="http://www.w3.org/2000/svg">
<path fill-rule="evenodd" clip-rule="evenodd" d="M15.4471 26.2452C10.5696 23.3214 6.15434 25.051 4.64026 26.1865C4.31704 26.4289 3.8846 26.4679 3.52323 26.2872C3.16186 26.1066 2.93359 25.7372 2.93359 25.3332V9.33319C2.93359 8.99745 3.09167 8.68131 3.36026 8.47986C5.33128 7.0016 10.3978 5.08291 15.9552 8.08033C18.3216 6.64644 23.2567 5.24315 28.5491 8.41853C28.8703 8.61131 29.0669 8.95851 29.0669 9.33319V25.3332C29.0669 25.7175 28.8602 26.0721 28.5258 26.2614C28.1914 26.4507 27.781 26.4456 27.4515 26.2479C22.5772 23.3233 18.1638 25.0471 16.6449 26.183C16.626 26.1974 16.6066 26.2111 16.5866 26.2242C16.5181 26.2694 16.4453 26.3059 16.3699 26.3338C16.2464 26.3794 16.1164 26.4014 15.9868 26.3998C15.8782 26.3984 15.7698 26.3805 15.6655 26.346C15.6069 26.3266 15.5496 26.302 15.4942 26.2722C15.4782 26.2636 15.4625 26.2546 15.4471 26.2452ZM5.06693 23.5043V9.8999C6.80767 8.84213 10.6568 7.65455 14.9336 9.9534V23.5808C10.9829 21.8444 7.36996 22.4853 5.06693 23.5043ZM17.0669 23.5043C19.37 22.4853 22.9829 21.8444 26.9336 23.5808V9.9534C22.6568 7.65455 18.8077 8.84213 17.0669 9.8999V23.5043Z" fill="#33363D"/>
<ellipse cx="26.668" cy="9.33334" rx="4" ry="4" fill="#256EF4"/>
<ellipse cx="26.6683" cy="9.33333" rx="5.33333" ry="5.33333" fill="#256EF4"/>
</svg>
