<svg width="32" height="32" viewBox="0 0 32 32" fill="none" xmlns="http://www.w3.org/2000/svg">
<path d="M23.332 17.2002C23.4671 17.2002 23.6144 17.2247 23.7334 17.2705L22.3438 19.333H6.40039C6.2532 19.333 6.13393 19.4525 6.13379 19.5996V25.5996C6.13379 25.7469 6.25311 25.8662 6.40039 25.8662H15.8662L18 28H6.40039C5.07491 28 4 26.9251 4 25.5996V19.5996C4.00014 18.2742 5.07499 17.2002 6.40039 17.2002H23.332ZM22.2402 6.13379H6.40039C6.25311 6.13379 6.13379 6.25311 6.13379 6.40039V12.4004C6.134 12.5475 6.25324 12.667 6.40039 12.667H16L18.1738 14.7998H6.40039C5.07504 14.7998 4.00021 13.7257 4 12.4004V6.40039C4 5.07491 5.07491 4 6.40039 4H23.6934L22.2402 6.13379Z" fill="#323333"/>
<path fill-rule="evenodd" clip-rule="evenodd" d="M27.264 4.45124C27.751 4.78268 27.8771 5.44618 27.5457 5.9332L22.1013 13.9332C21.9225 14.1959 21.6359 14.3652 21.3196 14.395C21.0033 14.4249 20.6901 14.3121 20.4654 14.0875L17.1303 10.7542C16.7136 10.3377 16.7135 9.66235 17.1299 9.24568C17.5464 8.82902 18.2217 8.82884 18.6384 9.24529L21.0624 11.668L25.782 4.73293C26.1135 4.24592 26.777 4.1198 27.264 4.45124Z" fill="#3396D6"/>
<path fill-rule="evenodd" clip-rule="evenodd" d="M27.264 17.7846C27.751 18.116 27.8771 18.7795 27.5457 19.2665L22.1013 27.2665C21.9225 27.5292 21.6359 27.6985 21.3196 27.7283C21.0033 27.7582 20.6901 27.6454 20.4654 27.4208L17.1303 24.0875C16.7136 23.671 16.7135 22.9957 17.1299 22.579C17.5464 22.1623 18.2217 22.1622 18.6384 22.5786L21.0624 25.0013L25.782 18.0662C26.1135 17.5792 26.777 17.4531 27.264 17.7846Z" fill="#3396D6"/>
</svg>
