<svg width="40" height="40" viewBox="0 0 40 40" fill="none" xmlns="http://www.w3.org/2000/svg">
<path d="M18.1641 4.00098C25.988 4.00098 32.3309 10.3431 32.3311 18.167C32.3311 21.5977 31.1102 24.7431 29.0811 27.1943L34.6104 32.7236C35.131 33.2443 35.131 34.0887 34.6104 34.6094C34.0897 35.1301 33.2453 35.1301 32.7246 34.6094L27.1963 29.0811C24.7444 31.1125 21.597 32.334 18.1641 32.334C10.34 32.334 3.99707 25.991 3.99707 18.167C3.99725 10.3431 10.3401 4.00098 18.1641 4.00098ZM18.1641 6.66699C11.8129 6.66699 6.66424 11.8159 6.66406 18.167C6.66406 24.5183 11.8128 29.667 18.1641 29.667C21.1914 29.667 23.9435 28.4953 25.9971 26.583C26.0592 26.4604 26.1407 26.3447 26.2432 26.2422C26.3457 26.1397 26.4613 26.0582 26.584 25.9961C28.4938 23.943 29.6641 21.1922 29.6641 18.167C29.6639 11.8159 24.5152 6.66699 18.1641 6.66699Z" fill="#33363D"/>
</svg>
