<svg width="20" height="20" viewBox="0 0 20 20" fill="none" xmlns="http://www.w3.org/2000/svg">
<path fill-rule="evenodd" clip-rule="evenodd" d="M5.96807 2.5H14.0323C14.4716 2.49998 14.8504 2.49998 15.1624 2.52548C15.4918 2.55241 15.8193 2.61187 16.1345 2.77248C16.604 3.01171 16.9876 3.39353 17.2277 3.86484C17.3883 4.18 17.4477 4.50755 17.4746 4.83664C17.5 5.14846 17.5 5.52692 17.5 5.96533V8.3335C17.5 8.79375 17.1269 9.16683 16.6667 9.16683C16.2064 9.16683 15.8333 8.79375 15.8333 8.3335V5.99743C15.8333 5.51788 15.8327 5.20817 15.8134 4.97238C15.7949 4.74628 15.7636 4.66251 15.7427 4.62149C15.6633 4.46559 15.5356 4.33785 15.3778 4.2575C15.3366 4.23646 15.2527 4.20509 15.0266 4.18661C14.7907 4.16732 14.4807 4.16667 14.0002 4.16667H6.00017C5.51971 4.16667 5.20938 4.16732 4.97317 4.18661C4.74663 4.20512 4.66264 4.23653 4.62149 4.2575C4.46469 4.33739 4.33739 4.46469 4.2575 4.62149C4.23653 4.66264 4.20512 4.74663 4.18661 4.97317C4.16732 5.20938 4.16667 5.51971 4.16667 6.00017V14.0002C4.16667 14.4807 4.16732 14.7908 4.18661 15.0268C4.2051 15.2531 4.23648 15.337 4.2575 15.3783C4.33763 15.5355 4.46516 15.663 4.62149 15.7427C4.6625 15.7636 4.74628 15.7949 4.97239 15.8134C5.20818 15.8327 5.5179 15.8333 5.99744 15.8333H8.3335C8.79375 15.8333 9.16683 16.2064 9.16683 16.6667C9.16683 17.1269 8.79375 17.5 8.3335 17.5H5.96534C5.52693 17.5 5.14847 17.5 4.83664 17.4746C4.50756 17.4477 4.18 17.3883 3.86484 17.2277C3.39397 16.9878 3.01193 16.6048 2.77248 16.1349C2.61184 15.8196 2.5524 15.492 2.52548 15.1626C2.49998 14.8505 2.49998 14.4716 2.5 14.0323V5.96807C2.49998 5.52876 2.49998 5.14971 2.52548 4.83749C2.55238 4.50802 2.6118 4.18021 2.77248 3.86484C3.01217 3.39443 3.39443 3.01217 3.86484 2.77248C4.18021 2.6118 4.50802 2.55238 4.83749 2.52548C5.14971 2.49998 5.52876 2.49998 5.96807 2.5ZM11.25 9.16667C10.0994 9.16667 9.16667 10.0994 9.16667 11.25C9.16667 12.4006 10.0994 13.3333 11.25 13.3333C12.4006 13.3333 13.3333 12.4006 13.3333 11.25C13.3333 10.0994 12.4006 9.16667 11.25 9.16667ZM7.5 11.25C7.5 9.17892 9.17892 7.5 11.25 7.5C13.3211 7.5 15 9.17892 15 11.25C15 11.9838 14.7893 12.6683 14.425 13.2464L16.4226 15.2441C16.748 15.5695 16.748 16.0972 16.4226 16.4226C16.0972 16.748 15.5695 16.748 15.2441 16.4226L13.2464 14.425C12.6683 14.7893 11.9838 15 11.25 15C9.17892 15 7.5 13.3211 7.5 11.25Z" fill="#244874"/>
</svg>
