<svg width="73" height="73" viewBox="0 0 73 73" fill="none" xmlns="http://www.w3.org/2000/svg">
<path d="M23.912 10.0337C25.097 10.0217 26.3769 10.1446 27.6083 10.6714C28.8306 11.1944 29.9956 12.1127 30.9735 13.6714C31.6304 13.9062 32.1673 14.1415 32.6112 14.5493C33.0677 14.9687 33.4134 15.5575 33.7098 16.478C34.3634 18.5161 33.9127 20.7142 33.7157 22.2388L33.6786 22.5239L33.4657 22.3306L29.6307 18.8442C27.5523 20.0665 25.1383 20.6996 22.8934 20.9302C20.6649 21.159 18.5925 20.9927 17.1678 20.6089L15.4491 22.7085L15.3026 22.8872L15.1991 22.6802C15.1525 22.5869 15.1152 22.4397 15.0839 22.2651C15.0516 22.0856 15.0234 21.8608 14.9999 21.604C14.9528 21.0903 14.925 20.4383 14.9286 19.7339C14.9357 18.3284 15.0674 16.6959 15.4276 15.5308L15.538 15.2134C16.1422 13.649 17.5238 12.3923 19.0643 11.5122C20.7086 10.5729 22.5618 10.0459 23.912 10.0337Z" fill="#8AAFDB" stroke="#3E3A39" stroke-width="0.3"/>
<path d="M56.5597 24.6157C56.5597 26.514 58.5482 30.5385 59.075 31.2598C58.2777 31.6917 54.6614 33.1581 51.3394 32.6835C54.1868 30.3107 55.5631 27.672 56.5597 24.6157Z" fill="#C9CACA"/>
<path d="M39.6552 24.6157C39.641 25.6123 37.7569 29.3615 36.7745 31.2598C37.5718 31.6917 42.6403 33.1344 45.3501 32.6835C42.5027 30.7852 40.6518 27.672 39.6552 24.6157Z" fill="#C9CACA"/>
<path d="M45.3502 16.8802C47.6851 20.6768 54.1773 23.4104 55.7529 23.6476C56.816 21.2605 57.7271 16.3913 54.6566 13.3161C49.4932 8.15268 43.6844 10.6822 43.1766 12.329C40.1725 12.0015 37.0973 18.5839 39.4654 24.3785C41.7054 19.2103 45.3454 16.8754 45.3454 16.8754L45.3502 16.8802Z" fill="#8AAFDB"/>
<path d="M33.4894 21.0363C33.8571 20.7317 34.3981 20.7833 34.7023 21.1505C35.2035 21.7588 35.3079 22.6804 35.0616 23.8497L35.0079 24.0861C34.8538 24.7271 34.6182 25.165 34.3693 25.4777C34.1208 25.7897 33.8631 25.9709 33.6818 26.0997L33.6808 26.1007C33.649 26.1227 33.6131 26.1477 33.5831 26.17C33.5724 26.178 33.563 26.1846 33.5558 26.1906C33.4571 26.5695 33.1234 26.8224 32.7404 26.8243V26.8253H32.7365V26.8243C32.6949 26.8244 32.6341 26.8238 32.5695 26.8068V26.8087C32.1004 26.7161 31.8043 26.2495 31.8956 25.7872C32.0172 25.1643 32.4445 24.8683 32.6915 24.6925H32.6925C32.8355 24.5924 32.9489 24.5119 33.0509 24.3751C33.153 24.2382 33.2502 24.0345 33.3351 23.6837L33.4171 23.2863C33.5559 22.4499 33.3618 22.2323 33.3771 22.2501L33.3751 22.2482C33.0708 21.8806 33.1225 21.3405 33.4894 21.0363Z" fill="#3E3A39" stroke="#3E3A39" stroke-width="0.3"/>
<path d="M14.7142 20.8959C15.0645 20.6213 15.5606 20.6596 15.8666 20.9721L15.9252 21.0385L15.9261 21.0395C16.2193 21.4132 16.1549 21.9536 15.7826 22.2514L15.7816 22.2524C15.7927 22.2438 15.7771 22.2521 15.7552 22.31C15.7355 22.3624 15.7147 22.444 15.7035 22.56C15.6812 22.7918 15.698 23.154 15.8256 23.683L15.891 23.9194C15.9591 24.13 16.034 24.2702 16.1107 24.3735C16.2127 24.5108 16.3259 24.5923 16.4681 24.6918C16.7219 24.869 17.1435 25.1647 17.265 25.7875L17.2777 25.8745C17.3184 26.3085 17.0228 26.7121 16.5863 26.7983L16.5873 26.7993C16.5315 26.8104 16.4787 26.8158 16.4203 26.8159H16.2699V26.7973C15.9528 26.7403 15.6865 26.5057 15.5951 26.184C15.5888 26.1796 15.5819 26.1748 15.5756 26.1703C15.5435 26.1475 15.5092 26.1228 15.4799 26.1039L15.474 26.1C15.2931 25.9715 15.036 25.7913 14.7875 25.4799C14.5384 25.1677 14.302 24.7299 14.1478 24.0864C13.9233 23.1545 13.9288 22.4625 14.0599 21.9487C14.1918 21.4324 14.4493 21.1032 14.7142 20.8959Z" fill="#3E3A39" stroke="#3E3A39" stroke-width="0.3"/>
<path d="M32.8662 25.0988C33.3392 25.168 33.6604 25.6111 33.5918 26.0802L33.5908 26.0812C32.7538 31.6431 28.9885 35.7285 24.5781 35.7286C20.1724 35.7286 16.4015 31.6385 15.5645 26.0812V26.0802C15.4956 25.6096 15.8172 25.1733 16.2871 25.0988H16.2891C16.7304 25.0342 17.141 25.313 17.252 25.7355L17.2705 25.8214V25.8224C17.991 30.6021 21.0864 34.005 24.5781 34.005C28.0697 34.0048 31.1643 30.6019 31.8848 25.8224C31.9544 25.3499 32.3975 25.0304 32.8662 25.0988Z" fill="#3E3A39" stroke="#3E3A39" stroke-width="0.3"/>
<path d="M26.2007 30.1339C26.58 29.8466 27.1204 29.9217 27.4077 30.3009C27.6951 30.6802 27.6199 31.2207 27.2407 31.5079C26.4123 32.1365 25.494 32.4727 24.5786 32.4728C23.6631 32.4728 22.7441 32.1366 21.9155 31.5079C21.5364 31.2207 21.4613 30.6802 21.7485 30.3009C22.0357 29.9218 22.5763 29.8468 22.9556 30.1339C23.5002 30.5458 24.0438 30.7443 24.5786 30.7443C25.1133 30.7442 25.6562 30.5457 26.2007 30.1339Z" fill="#3E3A39" stroke="#3E3A39" stroke-width="0.3"/>
<path d="M29.3853 22.4437C30.4126 22.4437 31.2434 23.28 31.2437 24.3021V25.598C31.2437 26.6255 30.4075 27.4564 29.3853 27.4564H27.1401C26.1128 27.4561 25.2817 26.62 25.2817 25.598V24.3021C25.282 23.2749 26.1183 22.4439 27.1401 22.4437H29.3853ZM27.145 24.1341C27.0526 24.1343 26.9773 24.2096 26.9771 24.3021V25.598C26.9771 25.6906 27.0524 25.7658 27.145 25.7659H29.3901C29.4829 25.7659 29.5581 25.6907 29.5581 25.598V24.3021C29.5578 24.2095 29.4827 24.1341 29.3901 24.1341H27.145Z" fill="#3E3A39" stroke="#3E3A39" stroke-width="0.3"/>
<path d="M22.2667 22.4437C23.2941 22.4437 24.1249 23.28 24.1251 24.3021V25.598C24.1251 26.6255 23.289 27.4564 22.2667 27.4564H20.0216C18.9943 27.4561 18.1632 26.62 18.1632 25.598V24.3021C18.1635 23.2749 18.9997 22.4439 20.0216 22.4437H22.2667ZM20.0265 24.1341C19.9341 24.1343 19.8588 24.2096 19.8585 24.3021V25.598C19.8585 25.6906 19.9339 25.7658 20.0265 25.7659H22.2716C22.3643 25.7659 22.4396 25.6907 22.4396 25.598V24.3021C22.4393 24.2095 22.3642 24.1341 22.2716 24.1341H20.0265Z" fill="#3E3A39" stroke="#3E3A39" stroke-width="0.3"/>
<path d="M24.5112 23.6236C25.0702 23.6204 25.6323 23.803 26.1792 24.1627H26.1782C26.5765 24.4224 26.6833 24.9572 26.4263 25.357L26.4253 25.358C26.2593 25.6097 25.9844 25.7485 25.7075 25.7486H25.7026C25.5423 25.7486 25.3758 25.702 25.231 25.6041V25.605C24.9682 25.4321 24.7435 25.3542 24.5356 25.3521C24.3293 25.3501 24.1196 25.4224 23.8862 25.5875C23.496 25.8629 22.9607 25.7716 22.6851 25.3814C22.4095 24.9911 22.5016 24.4558 22.8921 24.1802C23.4069 23.8164 23.952 23.6269 24.5112 23.6236Z" fill="#3E3A39" stroke="#3E3A39" stroke-width="0.3"/>
<path d="M51.2065 21.9265C51.9195 21.9265 52.4414 22.2402 52.6997 22.4372L52.7944 22.5134L52.8589 22.5739C53.1607 22.8911 53.1767 23.3923 52.8862 23.7311C52.576 24.0929 52.0318 24.1326 51.6704 23.8239C51.6172 23.7796 51.4375 23.6388 51.1997 23.6501L51.1929 23.6511C51.0225 23.6511 50.8893 23.7183 50.8081 23.7741L50.7446 23.8229C50.5833 23.9612 50.3813 24.03 50.1812 24.03C49.9394 24.0299 49.6989 23.9269 49.5278 23.7331L49.5269 23.7311C49.2171 23.3697 49.2564 22.8239 49.6187 22.5134C49.8662 22.3012 50.4021 21.9366 51.1714 21.9265H51.2065Z" fill="#3E3A39" stroke="#3E3A39" stroke-width="0.3"/>
<path d="M44.4362 21.9265C45.1097 21.9353 45.6003 22.2163 45.8805 22.4274L45.9879 22.5124L45.9889 22.5134C46.3512 22.8239 46.3905 23.3697 46.0807 23.7311C45.7701 24.0932 45.2253 24.1326 44.8639 23.8229H44.8629C44.8048 23.7726 44.6442 23.6549 44.4156 23.6501V23.6511C44.1576 23.6511 43.9826 23.7828 43.942 23.82L43.9391 23.8229C43.7777 23.9612 43.5758 24.03 43.3756 24.03C43.1339 24.0299 42.8933 23.9269 42.7223 23.7331L42.7213 23.7311C42.4115 23.3697 42.4509 22.8239 42.8131 22.5134L42.9078 22.4372C43.1661 22.2402 43.688 21.9265 44.401 21.9265H44.4362Z" fill="#3E3A39" stroke="#3E3A39" stroke-width="0.3"/>
<path d="M49.6022 28.0268C49.9814 27.7399 50.521 27.8149 50.8082 28.1938C51.0956 28.5731 51.0214 29.1135 50.6422 29.4008C49.801 30.0378 48.8648 30.3831 47.9362 30.3842V30.3852H47.9313V30.3842C47.0035 30.383 46.0677 30.0427 45.2262 29.4008C44.8471 29.1136 44.772 28.5731 45.0592 28.1938C45.3464 27.8147 45.8869 27.7397 46.2662 28.0268C46.825 28.4505 47.384 28.6557 47.9342 28.6557C48.4844 28.6557 49.0434 28.4505 49.6022 28.0268Z" fill="#3E3A39" stroke="#3E3A39" stroke-width="0.3"/>
<path d="M56.1482 23.4025C56.6073 23.4081 57.0123 23.7715 57.0183 24.2531H57.0173C57.0311 25.0318 57.3859 26.2176 58.0964 27.795L58.4714 28.6105C58.8503 29.4126 59.2386 30.1603 59.6218 30.6866L59.6736 30.7648C59.783 30.9517 59.8169 31.1727 59.7664 31.3849C59.7093 31.6247 59.5545 31.8309 59.3367 31.9513L59.3357 31.9523C57.8018 32.784 56.099 33.2459 54.4187 33.2941H54.3328L54.324 33.2853C53.8897 33.2521 53.5401 32.8992 53.5291 32.4503C53.5176 31.9749 53.8897 31.5776 54.3669 31.5656C55.6798 31.5259 56.8097 31.197 57.6794 30.8302C57.383 30.3126 57.094 29.7333 56.8191 29.1447L56.5222 28.4982C55.7183 26.7095 55.3084 25.3287 55.2937 24.2765C55.288 23.8004 55.6672 23.4084 56.1443 23.4025H56.1482Z" fill="#3E3A39" stroke="#3E3A39" stroke-width="0.3"/>
<path d="M39.6121 22.9202L39.699 22.9299L39.7019 22.9309C40.167 23.0173 40.4763 23.4643 40.3962 23.929V23.9319C40.3791 24.0219 40.0049 26.0702 39.5125 27.5725L39.4119 27.8645C39.0709 28.8282 38.4919 29.8242 37.9402 30.6536C39.0795 31.1272 40.2802 31.3801 41.4587 31.3801C41.9395 31.3802 42.325 31.7651 42.325 32.2424C42.3248 32.6989 41.9718 33.0702 41.5232 33.1008L41.5164 33.1086H41.4539C39.6813 33.1086 37.8769 32.6415 36.238 31.762L36.2371 31.761C36.0213 31.6418 35.8588 31.4362 35.8064 31.1917L35.8074 31.1907C35.7508 30.9477 35.8088 30.6922 35.95 30.4944L35.9509 30.4924C36.5712 29.6449 37.3863 28.4065 37.782 27.2893L37.9626 26.7375C38.3667 25.4024 38.6817 23.7011 38.696 23.6252L38.7166 23.5393C38.8306 23.1494 39.2052 22.8917 39.6121 22.9202Z" fill="#3E3A39" stroke="#3E3A39" stroke-width="0.3"/>
<path d="M56.2532 23.2288C56.7262 23.298 57.0464 23.7411 56.9778 24.2103V24.2112C56.1455 29.7399 52.3988 33.8109 48.012 33.8109C43.63 33.8108 39.8784 29.7448 39.0461 24.2112V24.2103C38.9773 23.7396 39.2988 23.3034 39.7688 23.2288H39.7708C40.2121 23.1643 40.6227 23.4431 40.7336 23.8655L40.7522 23.9515V23.9525C41.4679 28.6989 44.5441 32.0823 48.012 32.0823C51.4799 32.0823 54.556 28.6989 55.2717 23.9525C55.3413 23.4803 55.7794 23.1603 56.2532 23.2288Z" fill="#3E3A39" stroke="#3E3A39" stroke-width="0.3"/>
<path d="M46.5007 9.64319C49.3695 9.00876 52.3835 9.86166 54.6804 11.9508L54.908 12.1647L55.2781 12.5416C58.9533 16.4806 58.0576 21.7469 57.0388 24.0406L57.0378 24.0397C56.8815 24.3985 56.5021 24.5987 56.1199 24.5416L56.1189 24.5406C55.1097 24.3853 52.6633 23.614 50.1648 22.2125C47.6665 20.8111 45.088 18.7649 43.8513 16.0455C43.6552 15.6128 43.8525 15.1029 44.281 14.903L44.282 14.902C44.6876 14.7181 45.1612 14.8797 45.3835 15.2535L45.4246 15.3317L45.4255 15.3326H45.4246C46.3956 17.4679 48.4065 19.1672 50.4841 20.4108C52.4806 21.6058 54.5208 22.3669 55.7107 22.6862C56.458 20.4466 56.7844 16.3812 53.7078 13.4049C51.0522 10.8367 48.2054 11.0374 46.8884 11.3248L46.6453 11.3824C45.9764 11.5543 45.4513 11.8002 45.0847 12.0397C44.9015 12.1594 44.7601 12.2767 44.6599 12.3805C44.557 12.4871 44.5079 12.5693 44.4929 12.6188L44.4919 12.6198C44.3705 13.0182 43.9847 13.2631 43.575 13.2233H43.573C43.0343 13.1649 42.3731 13.5185 41.7576 14.275L41.6355 14.4313C40.4616 15.9877 39.7085 18.6583 40.0623 21.442C40.5973 20.4442 41.4186 19.3467 42.6746 18.3385C43.0249 18.0582 43.5217 18.0968 43.8279 18.4049L43.8865 18.4703L43.8875 18.4713C44.1862 18.845 44.1223 19.3853 43.7556 19.6832H43.7546C41.4445 21.5313 40.9255 23.6978 40.8103 24.5367C40.7603 24.9076 40.4749 25.2019 40.1042 25.2643V25.2877H39.9539C39.6088 25.2876 39.2932 25.0804 39.156 24.7545V24.7535C37.4373 20.5431 38.3976 15.8601 40.2566 13.3971C41.0982 12.2812 42.1037 11.6171 43.1501 11.5084C43.7111 10.7273 44.8395 10.0636 46.2146 9.71155L46.5007 9.64319Z" fill="#3E3A39" stroke="#3E3A39" stroke-width="0.3"/>
<path d="M53.8613 34.2432C54.0619 34.1034 54.3129 34.0526 54.5557 34.1133L54.5547 34.1143C60.731 35.5883 64.4834 39.1607 64.4834 43.713C64.4833 44.1383 64.1762 44.4887 63.7715 44.5596V44.5792H63.6211C63.1446 44.579 62.7599 44.1943 62.7598 43.7178C62.7598 40.1694 59.7577 37.2504 54.5869 35.9005L48.5303 41.3516C48.2232 41.6263 47.7653 41.6439 47.4395 41.4034L47.376 41.3516L41.3242 35.9005C40.4242 36.137 39.5755 36.4225 38.8037 36.7559V36.7549C38.3651 36.9454 37.8607 36.7373 37.6719 36.3028C37.4814 35.8642 37.6895 35.3588 38.124 35.17H38.125C39.1154 34.7489 40.2013 34.3905 41.3623 34.1133H41.3633C41.635 34.0511 41.928 34.1173 42.1377 34.3087L47.9551 39.5479L53.7783 34.3087L53.8613 34.2432Z" fill="#3E3A39" stroke="#3E3A39" stroke-width="0.3"/>
<path d="M31.3 34.5927L31.8713 34.7372C37.7072 36.2911 41.2288 39.7821 41.2288 44.1923C41.2287 44.6689 40.844 45.0535 40.3674 45.0536C39.8908 45.0536 39.5052 44.669 39.5051 44.1923C39.5051 40.6757 36.5565 37.7787 31.468 36.413C30.6867 37.4171 28.6564 39.3593 24.7063 39.3593C20.7549 39.3593 18.7237 37.4164 17.9387 36.413C12.8554 37.7788 9.90747 40.6758 9.90747 44.1923C9.90736 44.669 9.52182 45.0536 9.04517 45.0536C8.56849 45.0536 8.18297 44.669 8.18286 44.1923C8.18286 39.6399 11.9357 36.0666 18.1077 34.5927L18.2502 34.5703C18.5825 34.5475 18.9054 34.7215 19.0667 35.0224C19.1084 35.099 20.5573 37.6357 24.7063 37.6357C28.8544 37.6356 30.2944 35.0999 30.342 35.0156C30.5306 34.6794 30.9197 34.5006 31.3 34.5927Z" fill="#3E3A39" stroke="#3E3A39" stroke-width="0.3"/>
<path d="M10.7057 63.8634H54.4617C59.5681 63.8634 62.4346 61.6234 62.4346 55.321C62.4346 48.5678 59.5776 46.304 54.4617 46.304H10.7057V48.2023H54.12C58.2441 48.2023 60.5363 49.5928 60.5363 55.5488C60.5363 61.0491 58.2441 61.9651 54.12 61.9651H10.7057V63.8634Z" fill="#8AAFDB"/>
<path d="M51.7563 54.2215C52.2331 54.2215 52.6187 54.6071 52.6187 55.0838C52.6186 55.5605 52.2331 55.9461 51.7563 55.9461H15.689C15.2122 55.9461 14.8267 55.5605 14.8267 55.0838C14.8267 54.6071 15.2122 54.2215 15.689 54.2215H51.7563Z" fill="#3E3A39" stroke="#3E3A39" stroke-width="0.3"/>
<path d="M52.7058 50.4249C53.1826 50.4249 53.5681 50.8104 53.5681 51.2872C53.5681 51.7639 53.1825 52.1495 52.7058 52.1495H15.2146C14.7379 52.1495 14.3523 51.7639 14.3523 51.2872C14.3523 50.8104 14.7379 50.4249 15.2146 50.4249H52.7058Z" fill="#3E3A39" stroke="#3E3A39" stroke-width="0.3"/>
<path d="M52.7058 58.018C53.1826 58.018 53.5681 58.4036 53.5681 58.8803C53.5681 59.357 53.1825 59.7426 52.7058 59.7426H15.2146C14.7379 59.7426 14.3523 59.357 14.3523 58.8803C14.3523 58.4036 14.7379 58.018 15.2146 58.018H52.7058Z" fill="#3E3A39" stroke="#3E3A39" stroke-width="0.3"/>
<path d="M55.5801 51.0884C55.897 50.8338 56.3528 50.8333 56.667 51.0894L56.7324 51.1479V51.1489C57.0644 51.4867 57.0664 52.0314 56.7324 52.3657L56.7314 52.3667C56.0007 53.093 55.5986 54.0607 55.5986 55.0933C55.5987 56.1262 56.0011 57.0986 56.7314 57.8198C57.0713 58.1543 57.0702 58.7006 56.7324 59.0386C56.6038 59.1672 56.4405 59.2468 56.2725 59.2769V59.3003H56.123C55.9029 59.3003 55.6852 59.2141 55.5156 59.0503L55.5137 59.0483C54.4558 57.9953 53.8702 56.595 53.8701 55.0981C53.8701 53.6013 54.4563 52.1956 55.5146 51.147L55.5801 51.0884Z" fill="#3E3A39" stroke="#3E3A39" stroke-width="0.3"/>
<path d="M21.4138 9.63501C23.1827 9.19217 25.2284 9.20321 27.0681 9.7522C28.8901 10.2959 30.5195 11.3719 31.4705 13.0696C33.0412 13.5854 33.8292 14.6604 34.2175 15.8245C34.5099 16.7012 34.5774 17.6306 34.5896 18.4075V22.8127C34.5895 23.1697 34.3657 23.4911 34.033 23.6174C33.6998 23.7438 33.3192 23.6521 33.0828 23.3811V23.3801L29.7546 19.635C25.9712 21.7065 20.7938 22.1616 17.4421 21.4075L15.8914 23.3479C15.739 23.537 15.519 23.6475 15.2849 23.6653L15.2771 23.6741H15.2146C15.1156 23.6741 15.025 23.6565 14.9353 23.6301L14.9275 23.6282C14.5818 23.5071 14.3524 23.1791 14.3523 22.8127V19.0159C14.3523 16.6067 14.9926 14.541 16.2 12.9358C17.4077 11.3302 19.1756 10.1952 21.4138 9.63501ZM26.6179 11.429C25.0901 10.9586 23.3479 10.929 21.8337 11.3069H21.8328C20.7519 11.576 19.3144 12.141 18.1482 13.3147C16.9858 14.4847 16.0808 16.2716 16.0808 19.011V20.3489L16.4451 19.8948H16.446C16.6365 19.6592 16.9322 19.5416 17.2263 19.5774L17.3523 19.6018L17.3533 19.6028C18.9021 20.0466 21.0285 20.163 23.2244 19.8831C25.4195 19.6032 27.6708 18.9289 29.4724 17.802L29.4744 17.8C29.6137 17.7165 29.7684 17.6702 29.9265 17.6702H30.0769V17.6926C30.2625 17.7248 30.4377 17.8167 30.5701 17.967L32.8611 20.5432V19.1145C32.8706 18.0065 32.8331 17.0113 32.5359 16.2278C32.2626 15.5076 31.7682 14.962 30.8562 14.6819L30.6677 14.6292C30.4214 14.5661 30.2147 14.3998 30.1003 14.1711L30.0994 14.1692C29.4441 12.8059 28.1459 11.8995 26.6179 11.429Z" fill="#3E3A39" stroke="#3E3A39" stroke-width="0.3"/>
</svg>
