<svg width="73" height="72" viewBox="0 0 73 72" fill="none" xmlns="http://www.w3.org/2000/svg">
<path d="M44.3996 45.0802C44.0448 45.0802 43.7009 44.9405 43.4483 44.6879L25.1431 26.3826C24.6164 25.8559 24.6164 25.0068 25.1431 24.4801L37.4397 12.1834C40.1377 9.48546 43.7278 7.99677 47.5436 7.99677C51.3594 7.99677 54.9495 9.48546 57.6474 12.1834C60.3454 14.8814 61.8341 18.4715 61.8341 22.2873C61.8341 26.1032 60.3454 29.6933 57.6474 32.3912L45.3508 44.6879C45.0982 44.9405 44.7596 45.0802 44.3996 45.0802ZM27.9916 25.426L44.3996 41.834L55.7503 30.4833C57.943 28.2905 59.1469 25.3776 59.1469 22.2819C59.1469 19.1863 57.9376 16.268 55.7503 14.0806C53.5629 11.8932 50.6446 10.684 47.5489 10.684C44.4533 10.684 41.535 11.8932 39.3476 14.0806L27.9969 25.4314L27.9916 25.426Z" fill="#3E3A39"/>
<path d="M13.7925 37.728C8.73519 42.7853 8.73519 50.9813 13.7925 56.0332C18.8498 61.0905 27.0457 61.0905 32.0976 56.0332L44.3942 43.7366L26.0891 25.4313L13.7925 37.728Z" fill="#B1CAE7"/>
<path d="M22.9505 61.1711C19.1346 61.1711 15.5446 59.6824 12.8466 56.9844C7.27338 51.4112 7.27338 42.3499 12.8466 36.7766L25.1432 24.48C25.6699 23.9533 26.5191 23.9533 27.0457 24.48L45.3509 42.7852C45.8776 43.3119 45.8776 44.1611 45.3509 44.6878L33.0543 56.9844C30.3564 59.6824 26.7663 61.1711 22.9505 61.1711ZM26.0945 27.3284L14.7438 38.6792C10.2185 43.2044 10.2185 50.562 14.7438 55.0872C19.269 59.6125 26.6265 59.6125 31.1518 55.0872L42.5025 43.7365L26.0945 27.3284Z" fill="#3E3A39"/>
<path d="M50.2254 62.6543C57.4589 62.6543 63.3228 56.7904 63.3228 49.5569C63.3228 42.3234 57.4589 36.4595 50.2254 36.4595C42.9919 36.4595 37.128 42.3234 37.128 49.5569C37.128 56.7904 42.9919 62.6543 50.2254 62.6543Z" fill="#C9CACA"/>
<path d="M50.2257 64.0033C42.2609 64.0033 35.7847 57.5218 35.7847 49.5623C35.7847 41.6028 42.2662 35.1213 50.2257 35.1213C58.1852 35.1213 64.6667 41.6028 64.6667 49.5623C64.6667 57.5218 58.1852 64.0033 50.2257 64.0033ZM50.2257 37.8031C43.7442 37.8031 38.4719 43.0754 38.4719 49.5569C38.4719 56.0385 43.7442 61.3108 50.2257 61.3108C56.7072 61.3108 61.9795 56.0385 61.9795 49.5569C61.9795 43.0754 56.7072 37.8031 50.2257 37.8031Z" fill="#3E3A39"/>
<path d="M55.2883 50.9006H45.1683C44.4266 50.9006 43.8247 50.2987 43.8247 49.557C43.8247 48.8154 44.4266 48.2134 45.1683 48.2134H55.2883C56.0299 48.2134 56.6319 48.8154 56.6319 49.557C56.6319 50.2987 56.0299 50.9006 55.2883 50.9006Z" fill="#3E3A39"/>
<path d="M35.1289 25.7752C34.785 25.7752 34.441 25.6462 34.1777 25.3829C33.651 24.8562 33.651 24.007 34.1777 23.4804L41.0784 16.5796C44.432 13.226 49.8924 13.226 53.246 16.5796C53.7727 17.1063 53.7727 17.9555 53.246 18.4821C52.7193 19.0088 51.8702 19.0088 51.3435 18.4821C49.0379 16.1765 45.2812 16.1765 42.9755 18.4821L36.0748 25.3829C35.8115 25.6462 35.4675 25.7752 35.1236 25.7752H35.1289Z" fill="#C9CACA"/>
</svg>
