<svg width="73" height="73" viewBox="0 0 73 73" fill="none" xmlns="http://www.w3.org/2000/svg">
<path d="M42.9406 64.696C30.9572 64.696 21.2146 54.9369 21.2146 42.9451C21.2146 30.9533 30.9626 21.1942 42.9406 21.1942C54.9187 21.1942 64.6667 30.9533 64.6667 42.9451C64.6667 54.9369 54.9187 64.696 42.9406 64.696ZM42.9406 23.8788C32.4403 23.8788 23.9015 32.4328 23.9015 42.9397C23.9015 53.4467 32.4457 62.0007 42.9406 62.0007C53.4355 62.0007 61.9798 53.4467 61.9798 42.9397C61.9798 32.4328 53.4355 23.8788 42.9406 23.8788Z" fill="#3E3A39"/>
<path d="M30.3924 50.789C41.6494 50.789 50.775 41.6529 50.775 30.383C50.775 19.1132 41.6494 9.97711 30.3924 9.97711C19.1354 9.97711 10.0098 19.1132 10.0098 30.383C10.0098 41.6529 19.1354 50.789 30.3924 50.789Z" fill="#8AAFDB"/>
<path d="M30.3927 52.1393C18.4093 52.1393 8.66669 42.3801 8.66669 30.3884C8.66669 18.3966 18.4147 8.63745 30.3927 8.63745C42.3708 8.63745 52.1187 18.3966 52.1187 30.3884C52.1187 42.3801 42.3708 52.1393 30.3927 52.1393ZM30.3927 11.322C19.8924 11.322 11.3536 19.876 11.3536 30.383C11.3536 40.8899 19.8978 49.4439 30.3927 49.4439C40.8876 49.4439 49.4319 40.8899 49.4319 30.383C49.4319 19.876 40.8876 11.322 30.3927 11.322Z" fill="#3E3A39"/>
<path d="M24.933 28.8173C26.0875 28.8173 27.0234 27.8804 27.0234 26.7246C27.0234 25.5688 26.0875 24.6318 24.933 24.6318C23.7785 24.6318 22.8427 25.5688 22.8427 26.7246C22.8427 27.8804 23.7785 28.8173 24.933 28.8173Z" fill="#3E3A39"/>
<path d="M35.8523 28.8173C37.0068 28.8173 37.9427 27.8804 37.9427 26.7246C37.9427 25.5688 37.0068 24.6318 35.8523 24.6318C34.6978 24.6318 33.7619 25.5688 33.7619 26.7246C33.7619 27.8804 34.6978 28.8173 35.8523 28.8173Z" fill="#3E3A39"/>
<path d="M30.3925 40.3412C26.3729 40.3412 22.5952 38.7757 19.7525 35.9297C19.2258 35.4025 19.2258 34.5525 19.7525 34.0252C20.2791 33.498 21.1281 33.498 21.6548 34.0252C23.9923 36.3601 27.093 37.6513 30.3978 37.6513C33.7027 37.6513 36.8033 36.3655 39.1409 34.0252C39.6675 33.498 40.5166 33.498 41.0432 34.0252C41.5698 34.5525 41.5698 35.4025 41.0432 35.9297C38.2005 38.7757 34.4228 40.3412 30.4032 40.3412H30.3925Z" fill="#3E3A39"/>
</svg>
