<svg width="72" height="72" viewBox="0 0 72 72" fill="none" xmlns="http://www.w3.org/2000/svg">
<path opacity="0.6" d="M18.165 14.5H34.9258C37.2985 14.5001 39.3484 15.8887 40.2881 17.8838L40.4238 18.1709H62.1641C66.2264 18.1709 69.5 21.3469 69.5 25.2109V43.9648C69.5 44.0712 69.4942 44.1784 69.4834 44.29L69.4824 44.3027C69.2259 47.8325 66.2736 50.6338 62.5928 50.8369L62.2461 50.8564L62.1436 51.1875C61.0059 54.8364 57.5565 57.4998 53.4951 57.5C49.4335 57.5 45.9907 54.8418 44.8496 51.1992L44.7393 50.8486H30.3057L30.1963 51.1992C29.0553 54.8434 25.6125 57.5 21.5508 57.5C17.4892 57.5 14.0463 54.8418 12.9053 51.1992L12.7959 50.8486H9.83594C5.77358 50.8486 2.5 47.6727 2.5 43.8086V25.2109C2.5 21.3485 5.77366 18.1709 9.83594 18.1709H12.668L12.8027 17.8838C13.7423 15.8887 15.7924 14.5001 18.165 14.5Z" fill="white" stroke="#7D8181"/>
<path d="M18.1671 17.7725H34.9273C36.3598 17.7725 37.5235 18.923 37.5235 20.3394V23.167H15.5708V20.3394C15.5708 18.923 16.7345 17.7725 18.1671 17.7725Z" fill="#1F9EFF"/>
<path d="M37.5227 23.5101H15.57C15.3792 23.5101 15.2231 23.3558 15.2231 23.1672V20.3396C15.2231 18.7346 16.543 17.4297 18.1663 17.4297H34.9265C36.5498 17.4297 37.8696 18.7346 37.8696 20.3396V23.1672C37.8696 23.3558 37.7135 23.5101 37.5227 23.5101ZM15.9169 22.8242H37.1759V20.3396C37.1759 19.1135 36.1665 18.1156 34.9265 18.1156H18.1663C16.9262 18.1156 15.9169 19.1135 15.9169 20.3396V22.8242Z" fill="black"/>
<path d="M62.1647 47.5759H9.83407C7.61417 47.5759 5.81396 45.8886 5.81396 43.8086V25.2106C5.81396 23.1289 7.61417 21.4434 9.83407 21.4434H62.1647C64.3846 21.4434 66.1848 23.1307 66.1848 25.2106V43.8086C66.1848 45.8903 64.3846 47.5759 62.1647 47.5759Z" fill="#1F9EFF"/>
<path d="M66.185 35.3467H5.81592V39.9833H66.185V35.3467Z" fill="#0055FF"/>
<path d="M5.98486 39.2119H66.354V44.1212C66.354 46.028 64.7879 47.5764 62.8593 47.5764H9.47945C7.55092 47.5764 5.98486 46.028 5.98486 44.1212V39.2119Z" fill="white"/>
<path d="M62.1634 47.919H9.83279C7.42558 47.919 5.46582 46.0756 5.46582 43.8088V25.2108C5.46582 22.9439 7.42385 21.1006 9.83279 21.1006H62.1634C64.5706 21.1006 66.5304 22.9439 66.5304 25.2108V43.8088C66.5304 46.0756 64.5724 47.919 62.1634 47.919ZM9.83452 21.7865C7.80886 21.7865 6.16127 23.3229 6.16127 25.2108V43.8088C6.16127 45.6967 7.80886 47.2331 9.83452 47.2331H62.1652C64.1908 47.2331 65.8384 45.6967 65.8384 43.8088V25.2108C65.8384 23.3229 64.1908 21.7865 62.1652 21.7865H9.83452Z" fill="black"/>
<path d="M27.1227 49.8468C27.8499 46.8006 25.9418 43.7483 22.8608 43.0293C19.7799 42.3104 16.6928 44.1969 15.9656 47.2431C15.2384 50.2893 17.1465 53.3416 20.2275 54.0606C23.3085 54.7796 26.3956 52.893 27.1227 49.8468Z" fill="#545454"/>
<path d="M21.548 54.5701C18.1956 54.5701 15.4692 51.8728 15.4692 48.5599C15.4692 45.2471 18.1956 42.5498 21.548 42.5498C24.9003 42.5498 27.6266 45.2454 27.6266 48.5599C27.6266 51.8745 24.8986 54.5701 21.548 54.5701ZM21.548 43.234C18.5788 43.234 16.163 45.6226 16.163 48.5582C16.163 51.4939 18.5788 53.8825 21.548 53.8825C24.5171 53.8825 26.9329 51.4939 26.9329 48.5582C26.9329 45.6226 24.5171 43.234 21.548 43.234Z" fill="black"/>
<path d="M23.6381 49.0324C23.9109 47.8895 23.195 46.7444 22.039 46.4746C20.8831 46.2049 19.7248 46.9127 19.452 48.0556C19.1792 49.1985 19.8951 50.3437 21.051 50.6134C22.207 50.8832 23.3652 50.1753 23.6381 49.0324Z" fill="#DEDEDE"/>
<path d="M21.5503 51.0283C20.1733 51.0283 19.0547 49.9206 19.0547 48.5591C19.0547 47.1976 20.175 46.0898 21.5503 46.0898C22.9256 46.0898 24.0477 47.1976 24.0477 48.5591C24.0477 49.9206 22.9274 51.0283 21.5503 51.0283ZM21.5503 46.7775C20.5566 46.7775 19.7484 47.5765 19.7484 48.5608C19.7484 49.545 20.5566 50.3441 21.5503 50.3441C22.5441 50.3441 23.354 49.545 23.354 48.5608C23.354 47.5765 22.5458 46.7775 21.5503 46.7775Z" fill="black"/>
<path d="M59.0646 49.8438C59.7918 46.7976 57.8837 43.7453 54.8027 43.0264C51.7218 42.3074 48.6347 44.194 47.9075 47.2402C47.1803 50.2864 49.0884 53.3387 52.1694 54.0577C55.2504 54.7766 58.3375 52.89 59.0646 49.8438Z" fill="#545454"/>
<path d="M53.4962 54.5701C50.1438 54.5701 47.4175 51.8728 47.4175 48.5599C47.4175 45.2471 50.1438 42.5498 53.4962 42.5498C56.8486 42.5498 59.5749 45.2454 59.5749 48.5599C59.5749 51.8745 56.8469 54.5701 53.4962 54.5701ZM53.4962 43.234C50.5271 43.234 48.1112 45.6226 48.1112 48.5582C48.1112 51.4939 50.5271 53.8825 53.4962 53.8825C56.4653 53.8825 58.8812 51.4939 58.8812 48.5582C58.8812 45.6226 56.4653 43.234 53.4962 43.234Z" fill="black"/>
<path d="M55.5795 49.0305C55.8523 47.8876 55.1364 46.7424 53.9804 46.4726C52.8245 46.2029 51.6662 46.9107 51.3934 48.0536C51.1206 49.1965 51.8365 50.3417 52.9924 50.6115C54.1484 50.8812 55.3066 50.1734 55.5795 49.0305Z" fill="#DEDEDE"/>
<path d="M53.4954 51.0283C52.1184 51.0283 50.998 49.9206 50.998 48.5591C50.998 47.1976 52.1184 46.0898 53.4954 46.0898C54.8725 46.0898 55.9928 47.1976 55.9928 48.5591C55.9928 49.9206 54.8725 51.0283 53.4954 51.0283ZM53.4954 46.7775C52.5017 46.7775 51.6918 47.5765 51.6918 48.5608C51.6918 49.545 52.5 50.3441 53.4954 50.3441C54.4909 50.3441 55.2991 49.545 55.2991 48.5608C55.2991 47.5765 54.4909 46.7775 53.4954 46.7775Z" fill="black"/>
<path d="M16.546 26.1885H5.81592V37.6103H16.546V26.1885Z" fill="white"/>
<path d="M31.0407 26.1885H22.9189V37.6103H31.0407V26.1885Z" fill="white"/>
<path d="M39.1632 26.1885H31.0415V37.6103H39.1632V26.1885Z" fill="white"/>
<path d="M53.339 26.1885H45.2173V37.6103H53.339V26.1885Z" fill="white"/>
<path d="M61.4586 26.1885H53.3369V37.6103H61.4586V26.1885Z" fill="white"/>
<path d="M16.5452 37.9534H5.81512C5.62435 37.9534 5.46826 37.7991 5.46826 37.6105V26.1886C5.46826 26 5.62435 25.8457 5.81512 25.8457H16.5452C16.736 25.8457 16.8921 26 16.8921 26.1886V37.6105C16.8921 37.7991 16.736 37.9534 16.5452 37.9534ZM6.16198 37.2675H16.1983V26.5316H6.16198V37.2675Z" fill="black"/>
<path d="M31.0408 37.9534H22.9191C22.7284 37.9534 22.5723 37.7991 22.5723 37.6105V26.1886C22.5723 26 22.7284 25.8457 22.9191 25.8457H31.0408C31.2316 25.8457 31.3877 26 31.3877 26.1886V37.6105C31.3877 37.7991 31.2316 37.9534 31.0408 37.9534ZM23.266 37.2675H30.694V26.5316H23.266V37.2675Z" fill="black"/>
<path d="M39.1624 37.9534H31.0407C30.8499 37.9534 30.6938 37.7991 30.6938 37.6105V26.1886C30.6938 26 30.8499 25.8457 31.0407 25.8457H39.1624C39.3532 25.8457 39.5093 26 39.5093 26.1886V37.6105C39.5093 37.7991 39.3532 37.9534 39.1624 37.9534ZM31.3893 37.2675H38.8173V26.5316H31.3893V37.2675Z" fill="black"/>
<path d="M53.3382 37.9534H45.2165C45.0257 37.9534 44.8696 37.7991 44.8696 37.6105V26.1886C44.8696 26 45.0257 25.8457 45.2165 25.8457H53.3382C53.529 25.8457 53.685 26 53.685 26.1886V37.6105C53.685 37.7991 53.529 37.9534 53.3382 37.9534ZM45.5633 37.2675H52.9913V26.5316H45.5633V37.2675Z" fill="black"/>
<path d="M61.4598 37.9534H53.3381C53.1473 37.9534 52.9912 37.7991 52.9912 37.6105V26.1886C52.9912 26 53.1473 25.8457 53.3381 25.8457H61.4598C61.6506 25.8457 61.8066 26 61.8066 26.1886V37.6105C61.8066 37.7991 61.6506 37.9534 61.4598 37.9534ZM53.6849 37.2675H61.1129V26.5316H53.6849V37.2675Z" fill="black"/>
<path d="M8.58954 40.5186H5.95166V43.9652H8.58954V40.5186Z" fill="#FF5252"/>
<path d="M66.1857 40.5186H63.5479V43.9652H66.1857V40.5186Z" fill="#FF5252"/>
<path d="M8.58728 44.3083H5.9494C5.75863 44.3083 5.60254 44.154 5.60254 43.9653V40.5187C5.60254 40.3301 5.75863 40.1758 5.9494 40.1758H8.58728C8.77805 40.1758 8.93414 40.3301 8.93414 40.5187V43.9653C8.93414 44.154 8.77805 44.3083 8.58728 44.3083ZM6.29626 43.6224H8.24042V40.8617H6.29626V43.6224Z" fill="black"/>
<path d="M66.1854 44.3083H63.5475C63.3568 44.3083 63.2007 44.154 63.2007 43.9653V40.5187C63.2007 40.3301 63.3568 40.1758 63.5475 40.1758H66.1854C66.3762 40.1758 66.5323 40.3301 66.5323 40.5187V43.9653C66.5323 44.154 66.3762 44.3083 66.1854 44.3083ZM63.8944 43.6224H65.8386V40.8617H63.8944V43.6224Z" fill="black"/>
<path d="M19.7052 33.6924H18.0767V37.6654H19.7052V33.6924Z" fill="#FFC94A"/>
<path d="M19.7053 38.0076H18.0768C17.8861 38.0076 17.73 37.8532 17.73 37.6646V33.6916C17.73 33.503 17.8861 33.3486 18.0768 33.3486H19.7053C19.8961 33.3486 20.0522 33.503 20.0522 33.6916V37.6646C20.0522 37.8532 19.8961 38.0076 19.7053 38.0076ZM18.4237 37.3217H19.3585V34.0345H18.4237V37.3217Z" fill="black"/>
</svg>
