<svg width="72" height="73" viewBox="0 0 72 73" fill="none" xmlns="http://www.w3.org/2000/svg">
<path d="M9.34476 64.6952C8.99015 64.6952 8.65165 64.5554 8.39376 64.3026C8.0875 63.996 7.94782 63.5602 8.01767 63.1353L10.4892 48.101C10.5321 47.8213 10.6665 47.5685 10.8653 47.3695L44.5207 13.6755C45.0472 13.1484 45.8961 13.1484 46.4227 13.6755L58.9682 26.2355C59.4948 26.7626 59.4948 27.6125 58.9682 28.1396L25.3128 61.8336C25.114 62.0326 24.8561 62.1617 24.5821 62.2101L9.56503 64.6845C9.48981 64.6952 9.41998 64.7006 9.34476 64.7006V64.6952ZM13.0735 48.9617L10.9781 61.7206L23.7225 59.6228L56.1207 27.1876L45.4771 16.5264L13.0789 48.9617H13.0735Z" fill="#3E3A39"/>
<path d="M52.6076 9.98247L46.7227 15.8741L56.7677 25.9306L62.6526 20.039L52.6076 9.98247Z" fill="#C9CACA"/>
<path d="M56.7708 27.2736C56.427 27.2736 56.0831 27.1445 55.8199 26.881L45.7726 16.8223C45.2461 16.2951 45.2461 15.4452 45.7726 14.9181L51.6559 9.02811C52.1824 8.50097 53.0313 8.50097 53.5579 9.02811L63.6051 19.0868C64.1316 19.614 64.1316 20.4638 63.6051 20.991L57.7218 26.881C57.4586 27.1445 57.1147 27.2736 56.7708 27.2736ZM48.6256 15.8755L56.7708 24.0301L60.7521 20.0389L52.6069 11.8843L48.6256 15.8755Z" fill="#3E3A39"/>
<path d="M9.34485 63.3505L17.4578 62.0165L10.6827 55.2282L9.34485 63.3505Z" fill="#3E3A39"/>
<path d="M40.0691 20.0346L12.3351 47.8003L24.88 60.3595L52.6139 32.5938L40.0691 20.0346Z" fill="#8AAFDB"/>
<path d="M24.8832 61.7045C24.5393 61.7045 24.1954 61.5754 23.9322 61.3118L11.3866 48.7519C11.1341 48.4991 10.9944 48.1602 10.9944 47.7998C10.9944 47.4394 11.1341 47.1005 11.3866 46.8477L39.1212 19.0814C39.3737 18.8286 39.7122 18.6887 40.0722 18.6887C40.4268 18.6887 40.7706 18.8286 41.0232 19.0814L53.5687 31.6413C54.0953 32.1685 54.0953 33.0183 53.5687 33.5455L25.8342 61.3118C25.5709 61.5754 25.227 61.7045 24.8832 61.7045ZM14.2342 47.7998L24.8778 58.4609L50.7104 32.5988L40.0668 21.9376L14.2342 47.7998Z" fill="#3E3A39"/>
<path d="M19.3652 54.6688C19.0213 54.6688 18.6775 54.5397 18.4142 54.2761C17.8877 53.749 17.8877 52.8991 18.4142 52.372L45.1387 25.6169C45.6652 25.0897 46.5141 25.0897 47.0407 25.6169C47.5672 26.144 47.5672 26.9939 47.0407 27.5211L20.3162 54.2761C20.0529 54.5397 19.7091 54.6688 19.3652 54.6688Z" fill="#3E3A39"/>
</svg>
