<svg width="24" height="25" viewBox="0 0 24 25" fill="none" xmlns="http://www.w3.org/2000/svg">
<path d="M18.3612 23.2803L10.9215 16.6687L22.6869 13.8481V9.80441L10.4476 12.7379L1.12605 4.26465V5.89612L8.89065 13.1125L0.825928 15.044V19.0877L8.65146 17.2126L16.1002 23.2803H18.3612Z" fill="#C9CACA"/>
<path d="M18.3611 24.2574H5.15383C2.3129 24.2574 0 21.9444 0 19.1035V5.89608C0 3.05512 2.3129 0.742188 5.15383 0.742188H18.3611C21.2021 0.742188 23.515 3.05512 23.515 5.89608V19.1035C23.515 21.9444 21.2021 24.2574 18.3611 24.2574ZM5.15383 1.87045C2.93344 1.87045 1.12825 3.67567 1.12825 5.89608V19.1035C1.12825 21.3239 2.93344 23.1291 5.15383 23.1291H18.3611C20.5815 23.1291 22.3867 21.3239 22.3867 19.1035V5.89608C22.3867 3.67567 20.5815 1.87045 18.3611 1.87045H5.15383Z" fill="#323333"/>
<path d="M18.4808 17.4407L12.9321 5.36835C12.4695 4.3642 11.0434 4.3642 10.5809 5.36835L5.03212 17.4407C4.56954 18.4471 5.50598 19.5325 6.56879 19.2234L11.7542 17.7092L16.9397 19.2234C18.0047 19.5348 18.9389 18.4494 18.4763 17.4407H18.4808Z" fill="#6494CE"/>
<path d="M6.1986 19.8387C5.67058 19.8387 5.16286 19.6108 4.80182 19.1933C4.32119 18.6359 4.21288 17.8732 4.51976 17.203L10.0685 5.13067C10.3754 4.46274 11.0207 4.0498 11.7564 4.0498C12.492 4.0498 13.1373 4.465 13.4442 5.13067L18.9929 17.203C19.2998 17.8732 19.1915 18.6337 18.7109 19.1933C18.2302 19.7507 17.4924 19.9695 16.7838 19.7619L11.7564 18.2952L6.72888 19.7619C6.55287 19.8138 6.3746 19.8387 6.1986 19.8387ZM11.7564 5.17806C11.463 5.17806 11.217 5.33602 11.0929 5.60229L5.54422 17.6747C5.42237 17.9409 5.46298 18.2343 5.65479 18.4554C5.84659 18.6765 6.12864 18.76 6.41071 18.6788L11.5961 17.1647C11.6999 17.1354 11.8083 17.1354 11.912 17.1647L17.0975 18.6788C17.3796 18.7623 17.6616 18.6788 17.8534 18.4554C18.0452 18.232 18.0858 17.9409 17.964 17.6747L12.4153 5.60229C12.2934 5.33602 12.0452 5.17806 11.7518 5.17806H11.7564Z" fill="#323333"/>
</svg>
