<svg width="72" height="73" viewBox="0 0 72 73" fill="none" xmlns="http://www.w3.org/2000/svg">
<path d="M39.2398 43.47C35.6993 46.0016 29.1274 46.0016 24.5734 41.9752C19.0104 43.9745 11.9341 47.0799 11.9341 59.1871V63.7411L39.2398 63.718V43.47Z" fill="#8AAFDB"/>
<path d="M20.9587 57.5742C21.4257 57.5743 21.8025 57.952 21.8025 58.4189V63.0469C21.8025 63.5138 21.4257 63.8915 20.9587 63.8916C20.4918 63.8916 20.114 63.5138 20.114 63.0469V58.4189C20.114 57.952 20.4918 57.5742 20.9587 57.5742Z" fill="#3E3A39" stroke="#3E3A39" stroke-width="0.3"/>
<path d="M24.6849 41.3452C24.9635 41.3118 25.2504 41.4166 25.433 41.6382L25.6537 41.8843C26.7973 43.0952 28.5485 43.9525 30.4838 44.355C32.5465 44.784 34.7996 44.6922 36.7152 43.9771C37.1489 43.8138 37.6388 44.0339 37.8021 44.4731C37.9648 44.9111 37.7452 45.3948 37.306 45.5581L37.307 45.5591C35.1163 46.38 32.6043 46.5048 30.2875 46.0483C28.0021 45.598 25.8944 44.5781 24.4662 43.0854C20.0556 43.8318 12.9666 47.9388 12.5463 59.1792V63.0513C12.5463 63.5182 12.1694 63.8959 11.7025 63.896H11.5521V63.8765C11.1574 63.8057 10.858 63.4627 10.8578 63.0474V59.1401H10.8588C11.0984 52.781 13.3192 48.4825 16.1039 45.6978C18.8855 42.9161 22.2218 41.6522 24.684 41.3452H24.6849Z" fill="#3E3A39" stroke="#3E3A39" stroke-width="0.3"/>
<path d="M30.2144 27.9543C30.6813 27.9543 31.0591 28.332 31.0591 28.799C31.059 29.2659 30.6813 29.6428 30.2144 29.6428H27.9009C27.4339 29.6428 27.0562 29.2659 27.0562 28.799C27.0562 28.332 27.4339 27.9543 27.9009 27.9543H30.2144Z" fill="#3E3A39" stroke="#3E3A39" stroke-width="0.3"/>
<path d="M38.5449 27.9543C39.0119 27.9543 39.3896 28.332 39.3896 28.799C39.3896 29.2659 39.0119 29.6428 38.5449 29.6428H36.2314C35.7645 29.6428 35.3868 29.2659 35.3867 28.799C35.3867 28.332 35.7645 27.9543 36.2314 27.9543H38.5449Z" fill="#3E3A39" stroke="#3E3A39" stroke-width="0.3"/>
<path d="M35.6451 35.1311C36.0167 34.8496 36.5464 34.9228 36.8278 35.2942C37.1089 35.6656 37.0357 36.1944 36.6647 36.4758C35.5986 37.2824 34.4258 37.7119 33.2604 37.7131V37.7141H33.2555V37.7131C32.0946 37.712 30.9175 37.2826 29.8512 36.4758C29.4798 36.1944 29.4066 35.6657 29.6881 35.2942C29.9695 34.9228 30.4982 34.8496 30.8698 35.1311C31.6614 35.731 32.4635 36.0236 33.2574 36.0237C34.0513 36.0237 34.8535 35.731 35.6451 35.1311Z" fill="#3E3A39" stroke="#3E3A39" stroke-width="0.3"/>
<path d="M22.7312 25.1776C23.2407 25.1776 23.6538 25.5909 23.6541 26.1004V32.4227C23.6541 32.9324 23.2409 33.3455 22.7312 33.3455H21.0369C20.5274 33.3453 20.114 32.9322 20.114 32.4227V26.1004C20.1143 25.591 20.5275 25.1778 21.0369 25.1776H22.7312Z" fill="#C9CACA" stroke="#3E3A39" stroke-width="0.3"/>
<path d="M19.4888 26.5659V31.9575H16.8745V26.5659H19.4888Z" fill="#8AAFDB" stroke="#3E3A39" stroke-width="0.3"/>
<path d="M45.4089 25.1776C45.9185 25.1776 46.3316 25.5909 46.3318 26.1004V32.4227C46.3318 32.9324 45.9186 33.3455 45.4089 33.3455H43.7146C43.2051 33.3453 42.7917 32.9322 42.7917 32.4227V26.1004C42.792 25.591 43.2052 25.1778 43.7146 25.1776H45.4089Z" fill="#C9CACA" stroke="#3E3A39" stroke-width="0.3"/>
<path d="M49.1088 26.5659V31.9575H46.4945V26.5659H49.1088Z" fill="#8AAFDB" stroke="#3E3A39" stroke-width="0.3"/>
<path d="M33.6171 9.17828C37.2631 9.30691 39.8566 10.7147 41.538 12.0914C42.3782 12.7794 42.9906 13.4603 43.3934 13.9693C43.5948 14.2238 43.7445 14.4357 43.8436 14.5845C43.893 14.6586 43.9301 14.717 43.955 14.7574C43.9674 14.7776 43.9769 14.7935 43.9833 14.8043C43.9865 14.8096 43.9894 14.8141 43.9911 14.817C43.9918 14.8182 43.9926 14.8191 43.993 14.8199V14.8218L44.0604 14.939L43.951 15.0181L42.2294 16.2623C41.5966 16.7215 40.7149 16.6525 40.1844 16.0757C38.4573 14.2029 36.0158 13.024 33.2323 13.024C30.6229 13.024 28.2614 14.0841 26.5497 15.7974L26.2167 16.149C25.7339 16.6874 24.9514 16.8538 24.3036 16.5093L22.2401 15.4127L22.2196 15.4019L22.1132 15.2955L22.1805 15.1929L22.1815 15.191L22.1932 15.1734C22.2016 15.1611 22.2141 15.1429 22.2303 15.1197C22.2628 15.0732 22.3112 15.0059 22.3749 14.9205C22.5027 14.7489 22.6936 14.5041 22.9442 14.2125C23.4453 13.6294 24.1888 12.8548 25.16 12.0884C27.1026 10.5558 29.9632 9.04944 33.6171 9.17828Z" fill="#8AAFDB" stroke="#3E3A39" stroke-width="0.3"/>
<path d="M22.8884 24.2565C23.8231 24.2565 24.5798 25.0185 24.5798 25.9479V33.0427C24.5798 33.9774 23.8179 34.7341 22.8884 34.7341H20.8845C19.9499 34.734 19.1931 33.9721 19.1931 33.0427V25.9479C19.1932 25.0133 19.9551 24.2566 20.8845 24.2565H22.8884ZM20.8777 25.9431V33.0388L20.8796 33.0407H22.8835C22.8835 33.0407 22.8843 33.0409 22.8855 33.0397L22.8865 33.0388V25.9431L22.8855 25.9421C22.8843 25.9409 22.8835 25.9411 22.8835 25.9411H20.8796L20.8777 25.9431Z" fill="#3E3A39" stroke="#3E3A39" stroke-width="0.3"/>
<path d="M20.0323 25.6402C20.4993 25.6402 20.8771 26.0179 20.8771 26.4849C20.877 26.9518 20.4993 27.3287 20.0323 27.3287H17.6368V31.1939H20.0323C20.4993 31.1939 20.8771 31.5717 20.8771 32.0386C20.877 32.5056 20.4993 32.8824 20.0323 32.8824H17.5519C16.6685 32.8823 15.9485 32.1632 15.9484 31.2798V27.2437C15.9484 26.3603 16.6685 25.6402 17.5519 25.6402H20.0323Z" fill="#3E3A39" stroke="#3E3A39" stroke-width="0.3"/>
<path d="M45.5659 24.2565C46.5006 24.2565 47.2573 25.0185 47.2573 25.9479V33.0427C47.2573 33.9774 46.4954 34.7341 45.5659 34.7341H43.562C42.6274 34.734 41.8706 33.9721 41.8706 33.0427V25.9479C41.8707 25.0133 42.6326 24.2566 43.562 24.2565H45.5659ZM43.5552 25.9431V33.0388L43.5571 33.0407H45.561C45.561 33.0407 45.5618 33.0409 45.563 33.0397L45.564 33.0388V25.9431L45.563 25.9421C45.5618 25.9409 45.561 25.9411 45.561 25.9411H43.5571L43.5552 25.9431Z" fill="#3E3A39" stroke="#3E3A39" stroke-width="0.3"/>
<path d="M48.8938 25.6402C49.7773 25.6402 50.4973 26.3603 50.4973 27.2437V31.2798C50.4971 32.1632 49.7772 32.8824 48.8938 32.8824H46.4133C45.9464 32.8824 45.5687 32.5056 45.5686 32.0386C45.5686 31.5717 45.9464 31.1939 46.4133 31.1939H48.8088V27.3287H46.4133C45.9464 27.3287 45.5687 26.9518 45.5686 26.4849C45.5686 26.0179 45.9464 25.6402 46.4133 25.6402H48.8938Z" fill="#3E3A39" stroke="#3E3A39" stroke-width="0.3"/>
<path d="M33.2509 8.5163C40.9746 8.51633 47.2576 14.7994 47.2577 22.5231V25.0964C47.2577 25.5633 46.8799 25.9411 46.413 25.9411C45.946 25.941 45.5692 25.5633 45.5692 25.0964V22.5231C45.5692 15.7333 40.0453 10.2048 33.2509 10.2048H33.1952C26.4053 10.2048 20.8769 15.7287 20.8768 22.5231V25.0964C20.8768 25.5633 20.5 25.941 20.0331 25.9411C19.5661 25.9411 19.1884 25.5633 19.1884 25.0964V22.5231C19.1884 14.7994 25.4714 8.51633 33.1952 8.5163H33.2509Z" fill="#3E3A39" stroke="#3E3A39" stroke-width="0.3"/>
<path d="M33.2416 12.0336C36.1899 12.0336 38.9504 13.2643 40.9222 15.4047C41.1044 15.6011 41.4181 15.6348 41.6556 15.4642L43.3763 14.2191C43.7529 13.9439 44.2818 14.0276 44.5531 14.4047C44.829 14.7819 44.7453 15.3125 44.3617 15.5834L42.641 16.8275L42.64 16.8265C41.7189 17.4946 40.4452 17.3779 39.6801 16.5482C38.0237 14.7508 35.6752 13.7181 33.2367 13.7181C30.7984 13.7182 28.3954 14.7736 26.7347 16.6117L26.7338 16.6127C26.3157 17.0714 25.754 17.3317 25.1722 17.3705V17.3832H25.0219C24.665 17.3832 24.3076 17.2991 23.9799 17.1254L21.9154 16.0277C21.5051 15.8085 21.3469 15.2966 21.5668 14.8851C21.7861 14.475 22.298 14.3168 22.7094 14.5365L24.7728 15.6332C25.002 15.7549 25.2851 15.7033 25.4847 15.4847L25.8656 15.0853C27.8196 13.1402 30.4767 12.0336 33.2416 12.0336Z" fill="#3E3A39" stroke="#3E3A39" stroke-width="0.3"/>
<path d="M24.7603 19.7067C25.1181 19.5342 25.5504 19.6387 25.7944 19.9528L25.8433 20.0231L25.8442 20.024C25.9227 20.1524 28.2799 23.7897 35.769 23.7897C36.2359 23.7898 36.6127 24.1666 36.6128 24.6334C36.6128 25.1003 36.2359 25.478 35.769 25.4781C27.3177 25.4781 24.5367 21.1298 24.4028 20.9069L24.4038 20.9059C24.163 20.5075 24.2852 19.9901 24.6851 19.7477L24.7603 19.7067Z" fill="#3E3A39" stroke="#3E3A39" stroke-width="0.3"/>
<path d="M32.8928 21.6848C33.2394 21.3774 33.7635 21.4039 34.0784 21.7463H34.0793C34.1196 21.7874 36.9095 24.8344 42.6614 26.7502H42.6604C43.0784 26.8878 43.3119 27.3173 43.219 27.7355L43.1956 27.8185C43.0777 28.1723 42.7509 28.3986 42.3958 28.3986H42.3918C42.3083 28.3986 42.2166 28.3874 42.1262 28.3527C35.9164 26.2826 32.961 23.0298 32.8245 22.8781V22.8771C32.5158 22.5292 32.543 21.9951 32.8928 21.6848Z" fill="#3E3A39" stroke="#3E3A39" stroke-width="0.3"/>
<path d="M25.4171 21.2995C25.6986 20.9806 26.1839 20.9168 26.5382 21.1696H26.5392C26.8986 21.4234 26.9949 21.9045 26.7833 22.2741L26.7365 22.3464L24.3068 25.7663C24.1433 25.9972 23.8842 26.1208 23.6202 26.1208C23.4506 26.1208 23.2812 26.0703 23.131 25.9645V25.9636C22.7716 25.7097 22.675 25.2287 22.8868 24.8591L22.9337 24.7868L25.3634 21.3669L25.4171 21.2995Z" fill="#3E3A39" stroke="#3E3A39" stroke-width="0.3"/>
<path d="M42.2905 33.2949C42.4597 32.8932 42.905 32.6912 43.3159 32.8154L43.3979 32.8447C43.8265 33.0251 44.0286 33.5202 43.8491 33.9521L43.8481 33.9531C41.7273 38.9527 37.7005 42.0929 33.3062 42.1103L33.2954 42.1161H33.2603C28.8563 42.1161 24.8128 38.9713 22.686 33.9579L22.6851 33.957C22.5053 33.5294 22.7032 33.0347 23.1353 32.8495H23.1362C23.5367 32.6811 23.9957 32.8429 24.2046 33.2158L24.2437 33.2929V33.2949C26.1167 37.7109 29.5814 40.4228 33.2651 40.4228C36.9488 40.4226 40.4176 37.7107 42.2905 33.2949Z" fill="#3E3A39" stroke="#3E3A39" stroke-width="0.3"/>
<path d="M54.5125 41.989H39.7026V44.303H54.5125V41.989Z" fill="#8AAFDB"/>
<path d="M54.5125 61.4269H39.7026V63.741H54.5125V61.4269Z" fill="#8AAFDB"/>
<path d="M53.559 40.913C54.6785 40.913 55.5882 41.8228 55.5883 42.9423V62.788C55.5881 63.9074 54.6784 64.8163 53.559 64.8163H40.6605C39.5411 64.8163 38.6314 63.9074 38.6312 62.788V42.9423C38.6313 41.8229 39.5411 40.9131 40.6605 40.913H53.559ZM40.6556 42.6015C40.4665 42.6017 40.3159 42.756 40.3158 42.9423V62.788C40.316 62.9771 40.4694 63.1277 40.6556 63.1279H53.5541C53.7433 63.1279 53.8947 62.9744 53.8949 62.788V42.9423C53.8948 42.7531 53.7406 42.6015 53.5541 42.6015H40.6556Z" fill="#3E3A39" stroke="#3E3A39" stroke-width="0.3"/>
<path d="M50.4444 53.5085L45.3396 56.7342C44.8999 57.0119 44.3307 56.6972 44.3307 56.1789V49.7319C44.3307 49.2136 44.8999 48.8989 45.3396 49.1766L50.4444 52.4023C50.8517 52.6615 50.8517 53.2539 50.4444 53.5131V53.5085Z" fill="#C9CACA"/>
<path d="M49.9302 36.748C50.3972 36.748 50.7749 37.1258 50.7749 37.5928C50.7747 38.0595 50.397 38.4365 49.9302 38.4365H48.9126C48.4458 38.4365 48.0681 38.0595 48.0679 37.5928C48.0679 37.1258 48.4456 36.748 48.9126 36.748H49.9302ZM54.3364 36.748C54.8034 36.748 55.1812 37.1258 55.1812 37.5928C55.1809 38.0595 54.8033 38.4365 54.3364 38.4365H53.3188C52.852 38.4365 52.4744 38.0595 52.4741 37.5928C52.4741 37.1258 52.8519 36.748 53.3188 36.748H54.3364ZM58.272 36.4619C58.6775 36.2367 59.1951 36.3828 59.4204 36.7939C59.6306 37.1779 59.5156 37.652 59.1616 37.8955L59.0874 37.9414C58.7109 38.1463 58.304 38.2943 57.8813 38.3672L57.8823 38.3682C57.8799 38.3687 57.8769 38.3686 57.8745 38.3691V38.3857H57.7241C57.3237 38.3856 56.9691 38.0983 56.896 37.6885V37.6875C56.8121 37.2249 57.1232 36.793 57.5767 36.709H57.5776C57.8207 36.6656 58.0547 36.583 58.271 36.4619H58.272ZM60.2974 32.5547C60.7643 32.5547 61.1421 32.9324 61.1421 33.3994V34.417C61.1421 34.884 60.7643 35.2617 60.2974 35.2617C59.8305 35.2616 59.4536 34.8839 59.4536 34.417V33.3994C59.4536 32.9325 59.8305 32.5548 60.2974 32.5547ZM56.9243 30.0889C57.014 29.6346 57.4531 29.3297 57.9155 29.4199L57.9146 29.4209C58.3378 29.5027 58.7416 29.6512 59.1206 29.8623H59.1226C59.5261 30.0922 59.6735 30.6049 59.4419 31.0117C59.2846 31.2868 59.0026 31.4385 58.7056 31.4385C58.5651 31.4385 58.4247 31.4051 58.2915 31.333L58.2896 31.332C58.0718 31.2101 57.8366 31.123 57.5933 31.0752C57.1398 30.9855 56.8337 30.5475 56.9243 30.0889ZM54.3735 29.3428C54.8405 29.3428 55.2183 29.7205 55.2183 30.1875C55.2182 30.6544 54.8405 31.0312 54.3735 31.0312H53.355C52.8883 31.031 52.5113 30.6543 52.5112 30.1875C52.5112 29.7207 52.8882 29.343 53.355 29.3428H54.3735Z" fill="#3E3A39" stroke="#3E3A39" stroke-width="0.3"/>
</svg>
