<svg width="24" height="25" viewBox="0 0 24 25" fill="none" xmlns="http://www.w3.org/2000/svg">
<path d="M8.17013 2.38851C6.43354 0.638727 3.61677 0.638727 1.87788 2.38851C0.141293 4.13829 0.141293 6.97644 1.87788 8.72854L5.024 11.8986L8.17013 8.72854C9.90671 6.97876 9.90671 4.14061 8.17013 2.38851ZM3.98067 6.60979C3.40488 6.02963 3.40488 5.08744 3.98067 4.50727C4.55646 3.92711 5.49155 3.92711 6.06734 4.50727C6.64313 5.08744 6.64313 6.02963 6.06734 6.60979C5.49155 7.18996 4.55646 7.18996 3.98067 6.60979Z" fill="#6494CE"/>
<path d="M5.02378 12.479C4.87177 12.479 4.72438 12.4186 4.61613 12.3096L1.47 9.13953C-0.489998 7.16465 -0.489998 3.95518 1.47 1.98029C3.42999 0.005409 6.61527 0.00772974 8.57527 1.98029C9.52417 2.93641 10.047 4.20813 10.047 5.56107C10.047 6.91402 9.52417 8.18342 8.57527 9.13953L5.42914 12.3096C5.32089 12.4186 5.1758 12.479 5.02149 12.479H5.02378ZM5.02378 1.65772C4.03111 1.65772 3.04076 2.0383 2.28532 2.79948C0.774441 4.32183 0.774441 6.79567 2.28532 8.31802L5.02378 11.0773L7.76224 8.31802C8.49465 7.58005 8.8977 6.60073 8.8977 5.55875C8.8977 4.51677 8.49465 3.53745 7.76224 2.79948C7.00681 2.0383 6.01644 1.65772 5.02378 1.65772ZM5.02378 7.62645C4.47562 7.62645 3.95972 7.41063 3.57279 7.02076C2.77359 6.21549 2.77359 4.90433 3.57279 4.09674C4.37198 3.29147 5.67328 3.29147 6.47478 4.09674C7.27398 4.90201 7.27398 6.21549 6.47478 7.02076C6.08785 7.41063 5.57193 7.62645 5.02378 7.62645ZM5.02378 4.65369C4.79346 4.65369 4.56316 4.74187 4.38812 4.91824C4.21308 5.09461 4.12555 5.3174 4.12555 5.55875C4.12555 5.8001 4.21998 6.02985 4.38812 6.19925C4.72668 6.54271 5.32089 6.54271 5.66176 6.19925C5.83219 6.02753 5.92432 5.8001 5.92432 5.55875C5.92432 5.3174 5.82989 5.08765 5.66176 4.91824C5.49363 4.74884 5.2564 4.65369 5.02608 4.65369H5.02378Z" fill="#323333"/>
<path d="M22.1225 14.4119C20.3859 12.6622 17.5692 12.6622 15.8303 14.4119C14.0937 16.1617 14.0937 18.9999 15.8303 20.752L18.9764 23.922L22.1225 20.752C23.8591 19.0022 23.8591 16.164 22.1225 14.4119ZM17.9354 18.6332C17.3596 18.0531 17.3596 17.1109 17.9354 16.5307C18.5111 15.9505 19.4462 15.9505 20.022 16.5307C20.5978 17.1109 20.5978 18.0531 20.022 18.6332C19.4462 19.2134 18.5111 19.2134 17.9354 18.6332Z" fill="#C9CACA"/>
<path d="M18.9786 24.5001C18.8266 24.5001 18.6792 24.4398 18.571 24.3307L15.4249 21.1607C14.4759 20.2046 13.9531 18.9329 13.9531 17.5799C13.9531 16.227 14.4759 14.9576 15.4249 14.0015C16.3738 13.0453 17.6359 12.5186 18.9763 12.5186C20.3191 12.5186 21.5812 13.0453 22.5301 14.0015C24.4901 15.9763 24.4901 19.1858 22.5301 21.1607L19.384 24.3307C19.2757 24.4398 19.1306 24.5001 18.9763 24.5001H18.9786ZM18.9786 13.6789C17.9445 13.6789 16.9726 14.085 16.2402 14.8206C15.5078 15.5563 15.107 16.5379 15.107 17.5799C15.107 18.6219 15.5101 19.6012 16.2402 20.3392L18.9786 23.0985L21.7171 20.3392C23.228 18.8168 23.228 16.343 21.7171 14.8206C20.9847 14.0827 20.0128 13.6789 18.9786 13.6789ZM18.9786 19.6476C18.4535 19.6476 17.9284 19.4457 17.5276 19.0443C16.7284 18.239 16.7284 16.9255 17.5276 16.1202C18.3268 15.3126 19.6304 15.315 20.4296 16.1202C21.2288 16.9255 21.2288 18.2367 20.4296 19.0443C20.0289 19.4481 19.5038 19.6476 18.9786 19.6476ZM18.3407 18.2227C18.693 18.5755 19.2642 18.5755 19.6143 18.2227C19.9644 17.87 19.9644 17.2945 19.6143 16.9394C19.2642 16.5867 18.693 16.5867 18.3407 16.9394C18.1702 17.1111 18.0781 17.3386 18.0781 17.5799C18.0781 17.8213 18.1725 18.051 18.3407 18.2204V18.2227Z" fill="#323333"/>
<path d="M18.9788 24.4997H5.4431C3.39098 24.4997 1.72119 22.8172 1.72119 20.7495C1.72119 18.6818 3.39098 16.9993 5.4431 16.9993H9.25945C10.4962 16.9993 11.5027 15.9852 11.5027 14.739C11.5027 13.4928 10.4962 12.4787 9.25945 12.4787H5.02623C4.70839 12.4787 4.45044 12.2188 4.45044 11.8985C4.45044 11.5783 4.70839 11.3184 5.02623 11.3184H9.25945C11.1319 11.3184 12.6543 12.8523 12.6543 14.739C12.6543 16.6257 11.1319 18.1597 9.25945 18.1597H5.4431C4.02665 18.1597 2.87277 19.3223 2.87277 20.7495C2.87277 22.1767 4.02665 23.3394 5.4431 23.3394H18.9788C19.2966 23.3394 19.5546 23.5993 19.5546 23.9196C19.5546 24.2398 19.2966 24.4997 18.9788 24.4997Z" fill="#323333"/>
</svg>
