<svg width="73" height="73" viewBox="0 0 73 73" fill="none" xmlns="http://www.w3.org/2000/svg">
<path d="M58.1325 10.835H15.1961C13.052 10.835 11.3163 12.5688 11.3163 14.7104V47.1739C11.3163 49.3156 13.052 51.0494 15.1961 51.0494H58.1325C60.2767 51.0494 62.0124 49.3156 62.0124 47.1739V14.7104C62.0124 12.5688 60.2767 10.835 58.1325 10.835ZM42.5594 33.1268L33.9613 37.1901C32.3546 37.947 30.506 36.7822 30.506 35.0055V26.8735C30.506 25.1022 32.3546 23.9321 33.9613 24.6889L42.5594 28.7522C44.4026 29.6271 44.4026 32.2465 42.5594 33.1161V33.1268Z" fill="#B1CAE7"/>
<path d="M58.132 52.3912H15.1956C12.3153 52.3912 9.97229 50.0509 9.97229 47.1739V14.7104C9.97229 11.8333 12.3153 9.49304 15.1956 9.49304H58.132C61.0123 9.49304 63.3553 11.8333 63.3553 14.7104V47.1739C63.3553 50.0509 61.0123 52.3912 58.132 52.3912ZM15.1956 12.1769C13.7984 12.1769 12.6592 13.3148 12.6592 14.7104V47.1739C12.6592 48.5694 13.7984 49.7074 15.1956 49.7074H58.132C59.5292 49.7074 60.6684 48.5694 60.6684 47.1739V14.7104C60.6684 13.3148 59.5292 12.1769 58.132 12.1769H15.1956ZM32.9236 38.7681C32.2251 38.7681 31.5265 38.5695 30.9138 38.1831C29.8176 37.4906 29.162 36.3044 29.162 35.0054V26.8735C29.162 25.5799 29.8176 24.3936 30.9138 23.6958C32.0101 23.0034 33.3643 22.9229 34.5358 23.4757L43.1338 27.539C44.4611 28.1671 45.2833 29.466 45.2833 30.9367C45.2833 32.4075 44.4611 33.7065 43.1338 34.3345L34.5358 38.3978C34.0199 38.6393 33.4718 38.7628 32.9236 38.7628V38.7681ZM32.929 25.7999C32.6603 25.7999 32.4508 25.9073 32.354 25.9717C32.2036 26.0683 31.8543 26.3474 31.8543 26.8788V35.0108C31.8543 35.5422 32.2036 35.8213 32.354 35.9179C32.5045 36.0145 32.9075 36.2078 33.3912 35.9823L41.9892 31.919C42.5427 31.656 42.6018 31.1515 42.6018 30.9475C42.6018 30.7435 42.5427 30.239 41.9892 29.976L33.3912 25.9126C33.2246 25.8321 33.0741 25.8053 32.9344 25.8053L32.929 25.7999Z" fill="#3E3A39"/>
<path d="M25.1268 38.2582C24.7828 38.2582 24.4389 38.1294 24.1756 37.8664C20.3549 34.05 20.3549 27.8396 24.1756 24.0232C24.7022 23.4972 25.5513 23.4972 26.0779 24.0232C26.6045 24.5493 26.6045 25.3973 26.0779 25.9234C23.3051 28.6931 23.3051 33.2019 26.0779 35.9716C26.6045 36.4976 26.6045 37.3457 26.0779 37.8717C25.8146 38.1348 25.4707 38.2636 25.1268 38.2636V38.2582Z" fill="#3E3A39"/>
<path d="M21.0584 42.3216C20.7145 42.3216 20.3706 42.1927 20.1072 41.9297C14.0456 35.875 14.0456 26.02 20.1072 19.96C20.6339 19.434 21.4829 19.434 22.0096 19.96C22.5362 20.486 22.5362 21.3341 22.0096 21.8601C16.9958 26.8681 16.9958 35.0216 22.0096 40.0296C22.5362 40.5556 22.5362 41.4037 22.0096 41.9297C21.7462 42.1927 21.4023 42.3216 21.0584 42.3216Z" fill="#3E3A39"/>
<path d="M48.2017 38.2583C47.8578 38.2583 47.5139 38.1295 47.2506 37.8665C46.7239 37.3404 46.7239 36.4924 47.2506 35.9663C50.0234 33.1966 50.0234 28.6878 47.2506 25.9181C46.7239 25.3921 46.7239 24.544 47.2506 24.018C47.7772 23.4919 48.6262 23.4919 49.1529 24.018C52.9736 27.8344 52.9736 34.0447 49.1529 37.8611C48.8895 38.1241 48.5456 38.2529 48.2017 38.2529V38.2583Z" fill="#3E3A39"/>
<path d="M52.2695 42.3215C51.9256 42.3215 51.5816 42.1927 51.3183 41.9297C50.7917 41.4037 50.7917 40.5556 51.3183 40.0295C53.7473 37.6034 55.0853 34.3774 55.0853 30.9421C55.0853 27.5068 53.7473 24.2809 51.3183 21.8547C50.7917 21.3287 50.7917 20.4806 51.3183 19.9546C51.8449 19.4286 52.694 19.4286 53.2206 19.9546C56.1601 22.8907 57.7776 26.7876 57.7776 30.9368C57.7776 35.0859 56.1601 38.9882 53.2206 41.919C52.9573 42.182 52.6134 42.3108 52.2695 42.3108V42.3215Z" fill="#3E3A39"/>
<path d="M63.3232 60.4856H10.0101C9.26849 60.4856 8.66663 59.8844 8.66663 59.1437C8.66663 58.4029 9.26849 57.8018 10.0101 57.8018H63.3232C64.0648 57.8018 64.6666 58.4029 64.6666 59.1437C64.6666 59.8844 64.0648 60.4856 63.3232 60.4856Z" fill="#3E3A39"/>
<path d="M24.5517 59.1437C24.5517 57.2919 23.047 55.7943 21.1984 55.7943C19.3499 55.7943 17.8452 57.2972 17.8452 59.1437C17.8452 60.9902 19.3499 62.4931 21.1984 62.4931C23.047 62.4931 24.5517 60.9902 24.5517 59.1437Z" fill="#C9CACA"/>
<path d="M21.1986 63.8403C18.6085 63.8403 16.502 61.7362 16.502 59.149C16.502 56.5618 18.6085 54.4577 21.1986 54.4577C23.7888 54.4577 25.8953 56.5618 25.8953 59.149C25.8953 61.7362 23.7888 63.8403 21.1986 63.8403ZM21.1986 57.1361C20.0916 57.1361 19.1888 58.0379 19.1888 59.1437C19.1888 60.2494 20.0916 61.1511 21.1986 61.1511C22.3056 61.1511 23.2084 60.2494 23.2084 59.1437C23.2084 58.0379 22.3056 57.1361 21.1986 57.1361Z" fill="#3E3A39"/>
</svg>
