<svg width="72" height="72" viewBox="0 0 72 72" fill="none" xmlns="http://www.w3.org/2000/svg">
<path d="M43.2356 56.9487C43.2356 60.0827 40.7583 62.6263 37.706 62.6263H34.2936C31.2413 62.6263 28.764 60.0827 28.764 56.9487" fill="#C9CACA"/>
<path d="M37.7064 64H34.2941C30.5056 64 27.421 60.8329 27.421 56.9429C27.421 56.1815 28.0229 55.5635 28.7645 55.5635C29.506 55.5635 30.1079 56.1815 30.1079 56.9429C30.1079 59.31 31.9833 61.2412 34.2941 61.2412H37.7064C40.0118 61.2412 41.8926 59.3155 41.8926 56.9429C41.8926 56.1815 42.4944 55.5635 43.236 55.5635C43.9776 55.5635 44.5795 56.1815 44.5795 56.9429C44.5795 60.8329 41.4949 64 37.7064 64Z" fill="#3E3A39"/>
<path d="M51.7965 25.5972C51.7965 16.4711 44.4559 9.105 35.5032 9.3864C27.2921 9.64573 20.5587 16.4821 20.2202 24.9131C20.016 29.9507 22.058 34.5027 25.3951 37.6092C26.7278 38.8506 27.4425 40.6383 27.4425 42.4867V44.7876H44.5526V42.4867C44.5526 40.6438 45.2673 38.8506 46.6 37.6092C49.7867 34.6407 51.7911 30.359 51.7911 25.5972H51.7965Z" fill="#D8E4F3"/>
<path d="M44.5575 46.1616H27.4474C26.7058 46.1616 26.1039 45.5436 26.1039 44.7822V42.4813C26.1039 40.9805 25.5182 39.579 24.4972 38.6245C20.7194 35.1097 18.672 30.0887 18.8816 24.8525C19.247 15.6877 26.5339 8.28848 35.4651 8.00708C40.1671 7.87466 44.579 9.61826 47.9322 12.9619C51.2908 16.3056 53.1394 20.7915 53.1394 25.5973C53.1394 30.4032 51.0866 35.3029 47.5077 38.63C46.4867 39.579 45.9009 40.986 45.9009 42.4868V44.7877C45.9009 45.5491 45.2991 46.1671 44.5575 46.1671V46.1616ZM28.7908 43.4028H43.214V42.4813C43.214 40.2026 44.1222 38.0562 45.7021 36.583C48.7222 33.7745 50.4525 29.7687 50.4525 25.5918C50.4525 21.415 48.8941 17.7568 46.0621 14.9372C43.2302 12.1177 39.4954 10.6335 35.5457 10.7604C28.017 10.9976 21.8748 17.2381 21.5631 24.9628C21.3858 29.3769 23.1108 33.6145 26.2974 36.5775C27.8827 38.0507 28.7854 40.2025 28.7854 42.4758V43.3973L28.7908 43.4028Z" fill="#3E3A39"/>
<path d="M45.2136 52.1097H26.7869C24.4493 52.1097 22.547 50.1564 22.547 47.7563C22.547 45.3561 24.4493 43.4028 26.7869 43.4028H45.2136C47.5511 43.4028 49.4535 45.3561 49.4535 47.7563C49.4535 50.1564 47.5511 52.1097 45.2136 52.1097ZM26.7869 46.1617C25.9325 46.1617 25.2339 46.879 25.2339 47.7563C25.2339 48.6336 25.9325 49.3508 26.7869 49.3508H45.2136C46.068 49.3508 46.7666 48.6336 46.7666 47.7563C46.7666 46.879 46.068 46.1617 45.2136 46.1617H26.7869Z" fill="#3E3A39"/>
<path d="M45.2136 58.0578H26.7869C24.4493 58.0578 22.547 56.1046 22.547 53.7044C22.547 51.3042 24.4493 49.351 26.7869 49.351H45.2136C47.5511 49.351 49.4535 51.3042 49.4535 53.7044C49.4535 56.1046 47.5511 58.0578 45.2136 58.0578ZM26.7869 52.1098C25.9325 52.1098 25.2339 52.8271 25.2339 53.7044C25.2339 54.5817 25.9325 55.299 26.7869 55.299H45.2136C46.068 55.299 46.7666 54.5817 46.7666 53.7044C46.7666 52.8271 46.068 52.1098 45.2136 52.1098H26.7869Z" fill="#3E3A39"/>
<path d="M34.0195 33.6089H29.9999C27.0443 33.6089 24.6368 31.137 24.6368 28.1023C24.6368 25.0676 27.0443 22.5957 29.9999 22.5957C32.9554 22.5957 35.3629 25.0676 35.3629 28.1023V32.2295C35.3629 32.991 34.761 33.6089 34.0195 33.6089ZM29.9999 25.3545C28.5221 25.3545 27.3237 26.5905 27.3237 28.1023C27.3237 29.6142 28.5274 30.8501 29.9999 30.8501H32.676V28.1023C32.676 26.585 31.4723 25.3545 29.9999 25.3545Z" fill="#3E3A39"/>
<path d="M41.9996 33.6089H37.98C37.2385 33.6089 36.6366 32.991 36.6366 32.2295V28.1023C36.6366 25.0676 39.044 22.5957 41.9996 22.5957C44.9552 22.5957 47.3626 25.0676 47.3626 28.1023C47.3626 31.137 44.9552 33.6089 41.9996 33.6089ZM39.3235 30.8501H41.9996C43.4774 30.8501 44.6757 29.6142 44.6757 28.1023C44.6757 26.5905 43.472 25.3545 41.9996 25.3545C40.5272 25.3545 39.3235 26.5905 39.3235 28.1023V30.8501Z" fill="#3E3A39"/>
<path d="M37.9801 44.9476C37.2385 44.9476 36.6366 44.3296 36.6366 43.5682V33.6089H35.363V43.5682C35.363 44.3296 34.7612 44.9476 34.0196 44.9476C33.278 44.9476 32.6761 44.3296 32.6761 43.5682V32.2294C32.6761 31.468 33.278 30.85 34.0196 30.85H37.9801C38.7216 30.85 39.3235 31.468 39.3235 32.2294V43.5682C39.3235 44.3296 38.7216 44.9476 37.9801 44.9476Z" fill="#3E3A39"/>
<path d="M14.0991 26.767H9.34332C8.60174 26.767 7.99988 26.149 7.99988 25.3876C7.99988 24.6262 8.60174 24.0082 9.34332 24.0082H14.0991C14.8407 24.0082 15.4425 24.6262 15.4425 25.3876C15.4425 26.149 14.8407 26.767 14.0991 26.767Z" fill="#3E3A39"/>
<path d="M62.6562 26.767H57.9004C57.1589 26.767 56.557 26.149 56.557 25.3876C56.557 24.6262 57.1589 24.0082 57.9004 24.0082H62.6562C63.3978 24.0082 63.9997 24.6262 63.9997 25.3876C63.9997 26.149 63.3978 26.767 62.6562 26.767Z" fill="#3E3A39"/>
<path d="M16.9205 15.7263C16.6948 15.7263 16.4691 15.6712 16.2595 15.5498L12.1163 13.1496C11.4715 12.7744 11.2404 11.9358 11.6058 11.2681C11.9712 10.606 12.788 10.3687 13.4383 10.7439L17.5814 13.1441C18.2263 13.5193 18.4574 14.358 18.0919 15.0256C17.8448 15.4726 17.388 15.7263 16.9205 15.7263Z" fill="#3E3A39"/>
<path d="M59.2227 40.208C58.997 40.208 58.7713 40.1528 58.5618 40.0314L54.4186 37.6312C53.7737 37.256 53.5426 36.4174 53.908 35.7497C54.2735 35.0876 55.0903 34.8504 55.7405 35.2256L59.8837 37.6257C60.5286 38.0009 60.7596 38.8396 60.3942 39.5073C60.147 39.9542 59.6902 40.208 59.2227 40.208Z" fill="#3E3A39"/>
<path d="M55.0796 15.7263C54.612 15.7263 54.1552 15.4726 53.908 15.0256C53.5426 14.3635 53.7737 13.5193 54.4186 13.1441L58.5618 10.7439C59.2066 10.3687 60.0288 10.606 60.3942 11.2681C60.7596 11.9302 60.5286 12.7744 59.8837 13.1496L55.7405 15.5498C55.5309 15.6712 55.3053 15.7263 55.0796 15.7263Z" fill="#3E3A39"/>
<path d="M12.7773 40.208C12.3098 40.208 11.853 39.9542 11.6058 39.5073C11.2404 38.8451 11.4715 38.0009 12.1163 37.6257L16.2595 35.2256C16.9043 34.8504 17.7265 35.0876 18.0919 35.7497C18.4574 36.4119 18.2263 37.256 17.5814 37.6312L13.4383 40.0314C13.2287 40.1528 13.003 40.208 12.7773 40.208Z" fill="#3E3A39"/>
</svg>
