<svg width="100" height="110" viewBox="0 0 100 110" fill="none" xmlns="http://www.w3.org/2000/svg">
<path fill-rule="evenodd" clip-rule="evenodd" d="M24.7438 12.5562C24.7438 8.40217 28.1132 5.03439 32.2694 5.03439H64.8804V20.0781C64.8804 27.0018 70.496 32.6145 77.4231 32.6145H94.9829V92.7891C94.9829 96.9432 91.6135 100.311 87.4573 100.311H59.8633C58.4778 100.311 57.3548 101.433 57.3548 102.818C57.3548 104.203 58.4778 105.326 59.8633 105.326H87.4573C94.3841 105.326 100 99.7128 100 92.7891V30.1072C100 29.442 99.7355 28.8046 99.2651 28.3344L71.6712 0.754369C71.2008 0.284204 70.5626 0.0198364 69.8975 0.0198364H32.2694C25.3422 0.0198364 19.7267 5.63253 19.7267 12.5562V45.1509C19.7267 46.5357 20.8497 47.6581 22.2352 47.6581C23.6207 47.6581 24.7438 46.5357 24.7438 45.1509V12.5562Z" fill="#6494CE"/>
<path fill-rule="evenodd" clip-rule="evenodd" d="M32.2686 59.928C41.7781 59.928 49.4872 67.6332 49.4872 77.1376C49.4872 86.642 41.7781 94.3475 32.2686 94.3475C22.759 94.3475 15.0503 86.6424 15.0503 77.1376C15.0503 67.6328 22.7594 59.928 32.2686 59.928ZM54.5043 77.1376C54.5043 64.8635 44.5492 54.9135 32.2686 54.9135C19.988 54.9135 10.0333 64.8635 10.0333 77.1376C10.0333 89.4116 19.9884 99.3621 32.2686 99.3621C44.5488 99.3621 54.5043 89.412 54.5043 77.1376Z" fill="#4B4D4D"/>
<path fill-rule="evenodd" clip-rule="evenodd" d="M19.3337 90.676C18.354 89.6968 16.7658 89.6968 15.7861 90.676L0.734802 105.72C-0.244934 106.699 -0.244934 108.286 0.734802 109.266C1.71454 110.245 3.30275 110.245 4.28248 109.266L19.3337 94.2219C20.3135 93.2427 20.3135 91.6553 19.3337 90.676Z" fill="#4B4D4D"/>
<path fill-rule="evenodd" clip-rule="evenodd" d="M32.2694 5.01456C28.1128 5.01456 24.7438 8.38233 24.7438 12.5364V45.131C24.7438 46.5158 23.6207 47.6383 22.2352 47.6383C20.8497 47.6383 19.7267 46.5158 19.7267 45.131V12.5364C19.7267 5.61269 25.3422 0 32.2694 0H69.8975C70.5626 0 71.2008 0.264367 71.6712 0.734532L99.2651 28.3146C99.7355 28.7848 100 29.4226 100 30.0873V92.7693C100 99.693 94.3841 105.306 87.4573 105.306H59.8633C58.4778 105.306 57.3548 104.183 57.3548 102.798C57.3548 101.414 58.4778 100.291 59.8633 100.291H87.4573C91.6135 100.291 94.9829 96.9234 94.9829 92.7693V32.5946H77.4231C70.496 32.5946 64.8804 26.9819 64.8804 20.0582V5.01456H32.2694ZM69.8975 6.05317V20.0582C69.8975 24.2123 73.2666 27.5801 77.4231 27.5801H91.4353L69.8975 6.05317Z" fill="#646767"/>
</svg>
