<svg width="36" height="36" viewBox="0 0 36 36" fill="none" xmlns="http://www.w3.org/2000/svg">
<g clip-path="url(#clip0_13367_87516)">
<path d="M27.7039 26.0869H27.1965V16.591C27.1965 11.5203 23.0713 7.3938 17.9994 7.3938C12.9274 7.3938 8.80217 11.519 8.80217 16.591V26.0869H8.29485C6.22607 26.0869 4.54364 27.7693 4.54364 29.8381V34.7657C4.54364 35.447 5.09663 36 5.778 36H30.2207C30.9021 36 31.4551 35.447 31.4551 34.7657V29.8381C31.4551 27.7693 29.7714 26.0869 27.7026 26.0869H27.7039ZM11.2721 16.5898C11.2721 12.8793 14.2901 9.86128 18.0006 9.86128C21.7111 9.86128 24.7291 12.8793 24.7291 16.5898V26.0857H11.2734V16.5898H11.2721ZM28.9864 33.5313H7.01235V29.8381C7.01235 29.1308 7.58756 28.5556 8.29485 28.5556H27.7026C28.4099 28.5556 28.9851 29.1308 28.9851 29.8381V33.5313H28.9864Z" fill="#FFAC21"/>
<path d="M17.9994 4.93743C18.6807 4.93743 19.2337 4.38443 19.2337 3.70307V1.23436C19.2337 0.552992 18.6807 0 17.9994 0C17.318 0 16.765 0.552992 16.765 1.23436V3.70307C16.765 4.38443 17.318 4.93743 17.9994 4.93743Z" fill="#FFAC21"/>
<path d="M7.00499 8.7688C7.24569 9.0095 7.56168 9.13047 7.87768 9.13047C8.19367 9.13047 8.50967 9.0095 8.75037 8.7688C9.23177 8.2874 9.23177 7.50482 8.75037 7.02342L7.00499 5.27804C6.52359 4.79664 5.74101 4.79664 5.25961 5.27804C4.77821 5.75944 4.77821 6.54202 5.25961 7.02342L7.00499 8.7688Z" fill="#FFAC21"/>
<path d="M28.1224 9.13047C28.4383 9.13047 28.7543 9.0095 28.995 8.7688L30.7404 7.02342C31.2218 6.54202 31.2218 5.75944 30.7404 5.27804C30.259 4.79664 29.4764 4.79664 28.995 5.27804L27.2497 7.02342C26.7683 7.50482 26.7683 8.2874 27.2497 8.7688C27.4904 9.0095 27.8064 9.13047 28.1224 9.13047Z" fill="#FFAC21"/>
<path d="M17.9994 11.2117C15.0332 11.2117 12.6213 13.6248 12.6213 16.591C12.6213 17.2724 13.1743 17.8254 13.8556 17.8254C14.537 17.8254 15.09 17.2724 15.09 16.591C15.09 14.9863 16.3959 13.6816 17.9994 13.6816C18.6807 13.6816 19.2337 13.1286 19.2337 12.4473C19.2337 11.7659 18.6807 11.2129 17.9994 11.2129V11.2117Z" fill="#FFAC21"/>
</g>
<defs>
<clipPath id="clip0_13367_87516">
<rect width="36" height="36" fill="white"/>
</clipPath>
</defs>
</svg>
