<svg width="20" height="20" viewBox="0 0 20 20" fill="none" xmlns="http://www.w3.org/2000/svg">
<path d="M1.66602 10.0002C1.66602 14.6025 5.39698 18.3335 9.99935 18.3335C14.6017 18.3335 18.3327 14.6025 18.3327 10.0002C18.3327 5.39779 14.6017 1.66683 9.99935 1.66683C5.39698 1.66683 1.66602 5.39779 1.66602 10.0002Z" fill="#DE3412"/>
<path fill-rule="evenodd" clip-rule="evenodd" d="M7.9701 7.02876C7.70975 6.76841 7.28764 6.76841 7.02729 7.02876C6.76694 7.28911 6.76694 7.71122 7.02729 7.97157L9.05654 10.0008L7.0286 12.0288C6.76825 12.2891 6.76825 12.7112 7.0286 12.9716C7.28894 13.2319 7.71105 13.2319 7.9714 12.9716L9.99935 10.9436L12.0273 12.9716C12.2876 13.2319 12.7098 13.2319 12.9701 12.9716C13.2305 12.7112 13.2305 12.2891 12.9701 12.0288L10.9422 10.0008L12.9714 7.97157C13.2318 7.71122 13.2318 7.28911 12.9714 7.02876C12.7111 6.76841 12.2889 6.76841 12.0286 7.02876L9.99935 9.058L7.9701 7.02876Z" fill="white"/>
</svg>
