<svg width="72" height="73" viewBox="0 0 72 73" fill="none" xmlns="http://www.w3.org/2000/svg">
<path d="M48.0346 26.4242C47.293 26.4242 46.6912 25.8224 46.6912 25.0808V20.9322C46.6912 15.9991 42.677 11.9849 37.7439 11.9849H34.2563C29.3232 11.9849 25.309 15.9991 25.309 20.9322V25.0808C25.309 25.8224 24.7071 26.4242 23.9655 26.4242C23.2239 26.4242 22.6221 25.8224 22.6221 25.0808V20.9322C22.6221 14.516 27.84 9.298 34.2563 9.298H37.7439C44.1601 9.298 49.378 14.516 49.378 20.9322V25.0808C49.378 25.8224 48.7762 26.4242 48.0346 26.4242Z" fill="#3E3A39"/>
<path d="M62.6566 64.0354H9.34344C8.60186 64.0354 8 63.4335 8 62.6919V36.4571C8 36.0219 8.20957 35.6134 8.56424 35.3609C8.91891 35.1083 9.37567 35.0438 9.78408 35.1889L35.9973 44.3942L62.2105 35.1889C62.6189 35.0438 63.0757 35.1083 63.4304 35.3609C63.785 35.6134 63.9946 36.0219 63.9946 36.4571V62.6919C63.9946 63.4335 63.3928 64.0354 62.6512 64.0354H62.6566ZM10.6869 61.3485H61.3131V38.3541L36.4433 47.0864C36.1531 47.1885 35.8415 47.1885 35.5513 47.0864L10.6815 38.3541V61.3485H10.6869Z" fill="#3E3A39"/>
<path d="M9.34326 21.1687V36.4571L36.0025 45.8182L62.6564 36.4571V21.1687H9.34326Z" fill="#8AAFDB"/>
<path d="M36.0027 47.1616C35.8522 47.1616 35.7018 47.1347 35.5567 47.0864L8.89741 37.7253C8.36003 37.5372 8 37.0267 8 36.4571V21.1633C8 20.4217 8.60186 19.8198 9.34344 19.8198H62.6566C63.3981 19.8198 64 20.4217 64 21.1633V36.4571C64 37.0267 63.64 37.5372 63.1026 37.7253L36.4433 47.0864C36.2982 47.1347 36.1478 47.1616 35.9973 47.1616H36.0027ZM10.6869 35.5059L36.0027 44.3941L61.3185 35.5059V22.5121H10.6922V35.5059H10.6869Z" fill="#3E3A39"/>
<path d="M23.1646 47.8119C21.3912 47.8119 19.9564 46.3771 19.9564 44.6037V38.7195C19.9564 36.9461 21.3912 35.5113 23.1646 35.5113C24.9379 35.5113 26.3727 36.9461 26.3727 38.7195V44.6037C26.3727 46.3771 24.9379 47.8119 23.1646 47.8119Z" fill="#C9CACA"/>
<path d="M23.1648 49.1553C20.6552 49.1553 18.6132 47.1133 18.6132 44.6037V38.7194C18.6132 36.2099 20.6552 34.1678 23.1648 34.1678C25.6743 34.1678 27.7163 36.2099 27.7163 38.7194V44.6037C27.7163 47.1133 25.6743 49.1553 23.1648 49.1553ZM23.1648 36.8547C22.1384 36.8547 21.3 37.693 21.3 38.7194V44.6037C21.3 45.6301 22.1384 46.4684 23.1648 46.4684C24.1911 46.4684 25.0294 45.6301 25.0294 44.6037V38.7194C25.0294 37.6877 24.1911 36.8547 23.1648 36.8547Z" fill="#3E3A39"/>
<path d="M48.8401 47.8119C47.0667 47.8119 45.632 46.3771 45.632 44.6037V38.7195C45.632 36.9461 47.0667 35.5113 48.8401 35.5113C50.6134 35.5113 52.0482 36.9461 52.0482 38.7195V44.6037C52.0482 46.3771 50.6134 47.8119 48.8401 47.8119Z" fill="#C9CACA"/>
<path d="M48.8403 49.1553C46.3307 49.1553 44.2887 47.1133 44.2887 44.6037V38.7194C44.2887 36.2099 46.3307 34.1678 48.8403 34.1678C51.3498 34.1678 53.3919 36.2099 53.3919 38.7194V44.6037C53.3919 47.1133 51.3498 49.1553 48.8403 49.1553ZM48.8403 36.8547C47.8085 36.8547 46.9756 37.693 46.9756 38.7194V44.6037C46.9756 45.6301 47.8139 46.4684 48.8403 46.4684C49.8666 46.4684 50.705 45.6301 50.705 44.6037V38.7194C50.705 37.6877 49.8666 36.8547 48.8403 36.8547Z" fill="#3E3A39"/>
</svg>
