<svg width="32" height="32" viewBox="0 0 32 32" fill="none" xmlns="http://www.w3.org/2000/svg">
<path d="M23.332 17.2002C23.4671 17.2002 23.6144 17.2247 23.7334 17.2705L22.3438 19.333H6.40039C6.2532 19.333 6.13393 19.4525 6.13379 19.5996V25.5996C6.13379 25.7469 6.25311 25.8662 6.40039 25.8662H15.8662L18 28H6.40039C5.07491 28 4 26.9251 4 25.5996V19.5996C4.00014 18.2742 5.07499 17.2002 6.40039 17.2002H23.332ZM22.2402 6.13379H6.40039C6.25311 6.13379 6.13379 6.25311 6.13379 6.40039V12.4004C6.134 12.5475 6.25324 12.667 6.40039 12.667H16L18.1738 14.7998H6.40039C5.07504 14.7998 4.00021 13.7257 4 12.4004V6.40039C4 5.07491 5.07491 4 6.40039 4H23.6934L22.2402 6.13379Z" fill="#323333"/>
<path fill-rule="evenodd" clip-rule="evenodd" d="M27.2641 4.4513C27.7511 4.78275 27.8772 5.44624 27.5458 5.93326L22.1013 13.9333C21.9225 14.1959 21.636 14.3652 21.3197 14.3951C21.0033 14.4249 20.6902 14.3122 20.4654 14.0876L17.1304 10.7542C16.7137 10.3378 16.7135 9.66241 17.13 9.24574C17.5464 8.82908 18.2218 8.8289 18.6385 9.24535L21.0624 11.668L25.7821 4.733C26.1135 4.24598 26.777 4.11986 27.2641 4.4513Z" fill="#3396D6"/>
<path fill-rule="evenodd" clip-rule="evenodd" d="M27.2641 17.7846C27.7511 18.116 27.8772 18.7795 27.5458 19.2665L22.1013 27.2665C21.9225 27.5292 21.636 27.6985 21.3197 27.7283C21.0033 27.7582 20.6902 27.6454 20.4654 27.4208L17.1304 24.0875C16.7137 23.671 16.7135 22.9957 17.13 22.579C17.5464 22.1623 18.2218 22.1622 18.6385 22.5786L21.0624 25.0013L25.7821 18.0662C26.1135 17.5792 26.777 17.4531 27.2641 17.7846Z" fill="#3396D6"/>
</svg>
