<svg width="72" height="73" viewBox="0 0 72 73" fill="none" xmlns="http://www.w3.org/2000/svg">
<path d="M35.9999 37.4833C35.8521 37.4833 35.6992 37.4578 35.5565 37.4017L8.8306 27.4624C8.33115 27.2787 7.99988 26.7991 7.99988 26.2685C7.99988 25.7378 8.33115 25.2582 8.8306 25.0745L35.5565 15.1352C35.8419 15.0281 36.1579 15.0281 36.4433 15.1352L63.1692 25.0745C63.6686 25.2582 63.9999 25.7378 63.9999 26.2685C63.9999 26.7991 63.6686 27.2787 63.1692 27.4624L36.4433 37.4017C36.3006 37.4527 36.1477 37.4833 35.9999 37.4833ZM12.9333 26.2685L35.9999 34.8454L59.0665 26.2685L35.9999 17.6915L12.9333 26.2685Z" fill="#3E3A39"/>
<path d="M36 36.2078L20.8228 30.5646H20.415V49.5554C24.6961 51.5504 30.1085 52.7444 36 52.7444C41.8916 52.7444 47.304 51.5504 51.585 49.5554V30.5646H51.1773L36 36.2078Z" fill="#B1CAE7"/>
<path d="M35.9997 54.0198C30.098 54.0198 24.5225 52.8769 19.8796 50.7135C19.4311 50.5043 19.1406 50.0553 19.1406 49.5553V30.5645C19.1406 29.8604 19.7114 29.2889 20.4147 29.2889H20.8225C20.9753 29.2889 21.1231 29.3145 21.2658 29.3706L35.9997 34.8505L50.7336 29.3706C50.8763 29.3196 51.0241 29.2889 51.177 29.2889H51.5847C52.288 29.2889 52.8588 29.8604 52.8588 30.5645V49.5553C52.8588 50.0502 52.5735 50.5043 52.1199 50.7135C47.4719 52.8769 41.8964 54.0198 35.9997 54.0198ZM21.6889 48.7287C25.8527 50.5196 30.781 51.4687 35.9997 51.4687C41.2185 51.4687 46.1468 50.5247 50.3106 48.7287V32.2483L36.4431 37.4067C36.1577 37.5139 35.8417 37.5139 35.5563 37.4067L21.6889 32.2483V48.7287Z" fill="#3E3A39"/>
<path d="M58.5671 50.0962C57.8638 50.0962 57.293 49.5248 57.293 48.8207V28.0594C57.293 27.3553 57.8638 26.7838 58.5671 26.7838C59.2704 26.7838 59.8412 27.3553 59.8412 28.0594V48.8207C59.8412 49.5248 59.2704 50.0962 58.5671 50.0962Z" fill="#3E3A39"/>
<path d="M58.5668 56.3363C60.3429 56.3363 61.7827 54.8948 61.7827 53.1167C61.7827 51.3386 60.3429 49.8972 58.5668 49.8972C56.7907 49.8972 55.351 51.3386 55.351 53.1167C55.351 54.8948 56.7907 56.3363 58.5668 56.3363Z" fill="#C9CACA"/>
<path d="M58.5673 57.6119C56.0904 57.6119 54.0773 55.5964 54.0773 53.1167C54.0773 50.637 56.0904 48.6216 58.5673 48.6216C61.0441 48.6216 63.0572 50.637 63.0572 53.1167C63.0572 55.5964 61.0441 57.6119 58.5673 57.6119ZM58.5673 51.1677C57.497 51.1677 56.6255 52.0402 56.6255 53.1116C56.6255 54.1831 57.497 55.0556 58.5673 55.0556C59.6375 55.0556 60.509 54.1831 60.509 53.1116C60.509 52.0402 59.6375 51.1677 58.5673 51.1677Z" fill="#3E3A39"/>
</svg>
