<svg width="73" height="73" viewBox="0 0 73 73" fill="none" xmlns="http://www.w3.org/2000/svg">
<path d="M47.6474 35.7406C47.6474 29.5938 42.5799 24.6097 36.3302 24.6097C30.0805 24.6097 25.0131 29.5938 25.0131 35.7406" fill="#B1CAE7"/>
<path d="M47.6479 37.0619C46.9063 37.0619 46.3045 36.47 46.3045 35.7406C46.3045 30.3337 41.8281 25.931 36.3308 25.931C30.8334 25.931 26.357 30.3337 26.357 35.7406C26.357 36.47 25.7552 37.0619 25.0136 37.0619C24.272 37.0619 23.6702 36.47 23.6702 35.7406C23.6702 28.8749 29.3502 23.2883 36.3308 23.2883C43.3113 23.2883 48.9913 28.8749 48.9913 35.7406C48.9913 36.47 48.3895 37.0619 47.6479 37.0619Z" fill="#3E3A39"/>
<path d="M42.835 21.8141C44.337 18.2808 42.6424 14.2189 39.0499 12.7416C35.4575 11.2643 31.3276 12.931 29.8255 16.4643C28.3235 19.9977 30.0182 24.0596 33.6106 25.5369C37.2031 27.0142 41.333 25.3475 42.835 21.8141Z" fill="#D8E4F3"/>
<path d="M36.3306 27.4056C31.7038 27.4056 27.9368 23.7005 27.9368 19.1499C27.9368 14.5992 31.7038 10.8942 36.3306 10.8942C40.9574 10.8942 44.7244 14.5992 44.7244 19.1499C44.7244 23.7005 40.9574 27.4056 36.3306 27.4056ZM36.3306 13.5368C33.1816 13.5368 30.6236 16.0527 30.6236 19.1499C30.6236 22.2471 33.1816 24.7629 36.3306 24.7629C39.4796 24.7629 42.0375 22.2471 42.0375 19.1499C42.0375 16.0527 39.4796 13.5368 36.3306 13.5368Z" fill="#3E3A39"/>
<path d="M29.3665 61.9453C29.3665 56.5965 24.96 52.2625 19.5217 52.2625C14.0835 52.2625 9.677 56.5965 9.677 61.9453" fill="#C9CACA"/>
<path d="M29.3663 63.2666C28.6247 63.2666 28.0229 62.6747 28.0229 61.9453C28.0229 57.3365 24.2075 53.5839 19.5216 53.5839C14.8356 53.5839 11.0203 57.3365 11.0203 61.9453C11.0203 62.6747 10.4184 63.2666 9.67682 63.2666C8.93524 63.2666 8.33337 62.6747 8.33337 61.9453C8.33337 55.8777 13.3525 50.9412 19.5216 50.9412C25.6906 50.9412 30.7097 55.8777 30.7097 61.9453C30.7097 62.6747 30.1079 63.2666 29.3663 63.2666Z" fill="#3E3A39"/>
<path d="M23.5071 52.1143C26.0706 49.938 26.3549 46.13 24.1422 43.6087C21.9295 41.0875 18.0577 40.8078 15.4943 42.9841C12.9309 45.1604 12.6465 48.9685 14.8592 51.4897C17.0719 54.011 20.9437 54.2906 23.5071 52.1143Z" fill="#C9CACA"/>
<path d="M19.5215 54.8682C15.3999 54.8682 12.0466 51.5702 12.0466 47.5163C12.0466 43.4624 15.3999 40.1644 19.5215 40.1644C23.6432 40.1644 26.9965 43.4624 26.9965 47.5163C26.9965 51.5702 23.6432 54.8682 19.5215 54.8682ZM19.5215 42.8017C16.8776 42.8017 14.7335 44.9159 14.7335 47.511C14.7335 50.1061 16.883 52.2202 19.5215 52.2202C22.1601 52.2202 24.3096 50.1061 24.3096 47.511C24.3096 44.9159 22.1601 42.8017 19.5215 42.8017Z" fill="#3E3A39"/>
<path d="M62.99 61.9453C62.99 56.5965 58.5835 52.2625 53.1453 52.2625C47.707 52.2625 43.3005 56.5965 43.3005 61.9453" fill="#C9CACA"/>
<path d="M62.9898 63.2666C62.2482 63.2666 61.6464 62.6747 61.6464 61.9453C61.6464 57.3365 57.831 53.5839 53.1451 53.5839C48.4592 53.5839 44.6438 57.3365 44.6438 61.9453C44.6438 62.6747 44.0419 63.2666 43.3004 63.2666C42.5588 63.2666 41.9569 62.6747 41.9569 61.9453C41.9569 55.8777 46.976 50.9412 53.1451 50.9412C59.3142 50.9412 64.3333 55.8777 64.3333 61.9453C64.3333 62.6747 63.7314 63.2666 62.9898 63.2666Z" fill="#3E3A39"/>
<path d="M54.4841 53.4094C57.7863 52.6715 59.8551 49.4405 59.1048 46.1926C58.3546 42.9448 55.0695 40.9101 51.7673 41.648C48.4651 42.3859 46.3964 45.6169 47.1466 48.8648C47.8969 52.1126 51.182 54.1473 54.4841 53.4094Z" fill="#C9CACA"/>
<path d="M53.1452 54.8682C49.0235 54.8682 45.6703 51.5702 45.6703 47.5163C45.6703 43.4624 49.0235 40.1644 53.1452 40.1644C57.2669 40.1644 60.6201 43.4624 60.6201 47.5163C60.6201 51.5702 57.2669 54.8682 53.1452 54.8682ZM53.1452 42.8017C50.5013 42.8017 48.3572 44.9159 48.3572 47.511C48.3572 50.1061 50.5067 52.2202 53.1452 52.2202C55.7837 52.2202 57.9332 50.1061 57.9332 47.511C57.9332 44.9159 55.7837 42.8017 53.1452 42.8017Z" fill="#3E3A39"/>
<path d="M36.3309 48.3356C35.5893 48.3356 34.9874 47.7437 34.9874 47.0143V40.0799C34.9874 39.3505 35.5893 38.7586 36.3309 38.7586C37.0724 38.7586 37.6743 39.3505 37.6743 40.0799V47.0143C37.6743 47.7437 37.0724 48.3356 36.3309 48.3356Z" fill="#3E3A39"/>
<path d="M41.3233 49.1337H31.3389C30.5973 49.1337 29.9954 48.5417 29.9954 47.8124C29.9954 47.083 30.5973 46.491 31.3389 46.491H41.3233C42.0649 46.491 42.6668 47.083 42.6668 47.8124C42.6668 48.5417 42.0649 49.1337 41.3233 49.1337Z" fill="#3E3A39"/>
</svg>
