<svg width="73" height="72" viewBox="0 0 73 72" fill="none" xmlns="http://www.w3.org/2000/svg">
<path d="M51.3715 42.1234H21.3029C20.7467 42.1234 20.2382 41.8493 19.981 41.4087C19.7238 40.968 19.7537 40.4361 20.0648 40.0223L26.1299 31.9993V16.4745C26.1299 15.7329 26.7998 15.131 27.6253 15.131H45.0432C45.8686 15.131 46.5385 15.7329 46.5385 16.4745V31.9993L52.6037 40.0223C52.9147 40.4361 52.9506 40.968 52.6874 41.4087C52.4302 41.8493 51.9218 42.1234 51.3655 42.1234H51.3715ZM24.1261 39.4365H48.5483L43.811 33.1707C43.6435 32.945 43.5538 32.6871 43.5538 32.413V17.8179H29.1266V32.413C29.1266 32.6817 29.0369 32.945 28.8694 33.1707L24.1321 39.4365H24.1261Z" fill="#3E3A39"/>
<path d="M51.3714 40.7799H21.3029L10.8235 54.6388C8.24549 58.0512 10.9611 62.6619 15.5488 62.6619H57.1256C61.7133 62.6619 64.4349 58.0512 61.8509 54.6388L51.3714 40.7799Z" fill="#B1CAE7"/>
<path d="M57.1255 64H15.5487C12.869 64 10.4286 62.6781 9.1725 60.5501C7.92239 58.4221 8.0779 55.8695 9.57924 53.8759L20.0587 40.017C20.3338 39.6516 20.8004 39.4312 21.2968 39.4312H51.3654C51.8618 39.4312 52.3224 39.6516 52.6035 40.017L63.083 53.8759C64.5903 55.8642 64.7458 58.4221 63.4897 60.5501C62.2336 62.6781 59.7932 64 57.1135 64H57.1255ZM22.0983 42.1235L12.0615 55.3913C11.1643 56.5735 11.0806 58.0352 11.8223 59.298C12.5699 60.5608 13.9636 61.3132 15.5547 61.3132H57.1314C58.7225 61.3132 60.1162 60.5608 60.8639 59.298C61.6116 58.0352 61.5218 56.5735 60.6246 55.3913L50.5878 42.1235H22.1043H22.0983Z" fill="#3E3A39"/>
<path d="M45.755 16.4584H26.9195C24.7303 16.4584 22.9598 14.8677 22.9598 12.9009C22.9598 10.9341 24.7303 9.34351 26.9195 9.34351H45.755C47.9442 9.34351 49.7147 10.9341 49.7147 12.9009C49.7147 14.8677 47.9442 16.4584 45.755 16.4584Z" fill="#C9CACA"/>
<path d="M45.7549 17.8018H26.9194C23.9108 17.8018 21.4644 15.6039 21.4644 12.9009C21.4644 10.1979 23.9108 8.00006 26.9194 8.00006H45.7549C48.7635 8.00006 51.2099 10.1979 51.2099 12.9009C51.2099 15.6039 48.7635 17.8018 45.7549 17.8018ZM26.9194 10.6869C25.5617 10.6869 24.4551 11.6811 24.4551 12.9009C24.4551 14.1208 25.5617 15.1149 26.9194 15.1149H45.7549C47.1127 15.1149 48.2192 14.1208 48.2192 12.9009C48.2192 11.6811 47.1127 10.6869 45.7549 10.6869H26.9194Z" fill="#3E3A39"/>
<path d="M31.8483 22.1116H28.6722C27.8467 22.1116 27.1768 21.5098 27.1768 20.7682C27.1768 20.0266 27.8467 19.4247 28.6722 19.4247H31.8483C32.6737 19.4247 33.3437 20.0266 33.3437 20.7682C33.3437 21.5098 32.6737 22.1116 31.8483 22.1116Z" fill="#3E3A39"/>
<path d="M31.8483 26.9264H28.6722C27.8467 26.9264 27.1768 26.3246 27.1768 25.583C27.1768 24.8414 27.8467 24.2396 28.6722 24.2396H31.8483C32.6737 24.2396 33.3437 24.8414 33.3437 25.583C33.3437 26.3246 32.6737 26.9264 31.8483 26.9264Z" fill="#3E3A39"/>
<path d="M31.8483 31.7414H28.6722C27.8467 31.7414 27.1768 31.1395 27.1768 30.3979C27.1768 29.6564 27.8467 29.0545 28.6722 29.0545H31.8483C32.6737 29.0545 33.3437 29.6564 33.3437 30.3979C33.3437 31.1395 32.6737 31.7414 31.8483 31.7414Z" fill="#3E3A39"/>
</svg>
