<svg width="24" height="24" viewBox="0 0 24 24" fill="none" xmlns="http://www.w3.org/2000/svg">
<path d="M7.00215 9.99999H11.3431C11.8149 8.66556 12.7433 7.54088 13.9641 6.82473C15.1849 6.10857 16.6196 5.84705 18.0146 6.0864C19.4096 6.32574 20.6751 7.05053 21.5874 8.13267C22.4996 9.21481 23 10.5846 23 12C23 13.4154 22.4996 14.7852 21.5874 15.8673C20.6751 16.9494 19.4096 17.6742 18.0146 17.9136C16.6196 18.1529 15.1849 17.8914 13.9641 17.1753C12.7433 16.4591 11.8149 15.3344 11.3431 14H1.00215V9.99999H3.00215V5.99999H7.00215V9.99999ZM17.0021 9.99999C16.4717 9.99999 15.963 10.2107 15.5879 10.5858C15.2129 10.9608 15.0021 11.4696 15.0021 12C15.0021 12.5304 15.2129 13.0391 15.5879 13.4142C15.963 13.7893 16.4717 14 17.0021 14C17.5326 14 18.0413 13.7893 18.4164 13.4142C18.7914 13.0391 19.0021 12.5304 19.0021 12C19.0021 11.4696 18.7914 10.9608 18.4164 10.5858C18.0413 10.2107 17.5326 9.99999 17.0021 9.99999Z" fill="#979A9A"/>
</svg>
