<svg width="25" height="25" viewBox="0 0 25 25" fill="none" xmlns="http://www.w3.org/2000/svg">
<path d="M20.7 3.5C20.9121 3.5 21.1154 3.58441 21.2654 3.73438C21.4154 3.88436 21.4997 4.0877 21.4998 4.2998V20.7031C21.4996 21.1448 21.1417 21.5029 20.7 21.5029H13.3005C12.8589 21.5028 12.5009 21.1447 12.5007 20.7031C12.5007 20.2614 12.8588 19.9025 13.3005 19.9023H19.9001V5.09961L13.3005 5.10059C12.8588 5.10048 12.5007 4.74156 12.5007 4.2998C12.5009 3.85822 12.8589 3.50011 13.3005 3.5H20.7ZM9.72437 6.94531C10.0306 6.62718 10.5369 6.61771 10.8552 6.92383L16.0554 11.9238C16.2121 12.0746 16.3005 12.2826 16.3005 12.5C16.3005 12.7176 16.2123 12.9263 16.0554 13.0771L10.8552 18.0771C10.5368 18.3832 10.0306 18.373 9.72437 18.0547C9.41824 17.7363 9.42771 17.2301 9.74585 16.9238L13.5144 13.2998H3.9021C3.46036 13.2997 3.10229 12.9418 3.10229 12.5C3.1024 12.0583 3.46043 11.7003 3.9021 11.7002H13.5144L9.74585 8.07715C9.42743 7.77091 9.41815 7.26378 9.72437 6.94531Z" fill="#4B4D4D"/>
</svg>
