<svg width="32" height="32" viewBox="0 0 32 32" fill="none" xmlns="http://www.w3.org/2000/svg">
<path d="M11.3333 18.6666C11.7753 18.6666 12.1992 18.491 12.5118 18.1784C12.8244 17.8659 13 17.4419 13 16.9999C13 16.5579 12.8244 16.134 12.5118 15.8214C12.1992 15.5088 11.7753 15.3333 11.3333 15.3333C10.8913 15.3333 10.4673 15.5088 10.1548 15.8214C9.84222 16.134 9.66663 16.5579 9.66663 16.9999C9.66663 17.4419 9.84222 17.8659 10.1548 18.1784C10.4673 18.491 10.8913 18.6666 11.3333 18.6666ZM11.3333 23.3333C11.7753 23.3333 12.1992 23.1577 12.5118 22.8451C12.8244 22.5325 13 22.1086 13 21.6666C13 21.2246 12.8244 20.8006 12.5118 20.4881C12.1992 20.1755 11.7753 19.9999 11.3333 19.9999C10.8913 19.9999 10.4673 20.1755 10.1548 20.4881C9.84222 20.8006 9.66663 21.2246 9.66663 21.6666C9.66663 22.1086 9.84222 22.5325 10.1548 22.8451C10.4673 23.1577 10.8913 23.3333 11.3333 23.3333ZM17.6666 16.9999C17.6666 17.4419 17.491 17.8659 17.1785 18.1784C16.8659 18.491 16.442 18.6666 16 18.6666C15.5579 18.6666 15.134 18.491 14.8214 18.1784C14.5089 17.8659 14.3333 17.4419 14.3333 16.9999C14.3333 16.5579 14.5089 16.134 14.8214 15.8214C15.134 15.5088 15.5579 15.3333 16 15.3333C16.442 15.3333 16.8659 15.5088 17.1785 15.8214C17.491 16.134 17.6666 16.5579 17.6666 16.9999ZM16 23.3333C16.442 23.3333 16.8659 23.1577 17.1785 22.8451C17.491 22.5325 17.6666 22.1086 17.6666 21.6666C17.6666 21.2246 17.491 20.8006 17.1785 20.4881C16.8659 20.1755 16.442 19.9999 16 19.9999C15.5579 19.9999 15.134 20.1755 14.8214 20.4881C14.5089 20.8006 14.3333 21.2246 14.3333 21.6666C14.3333 22.1086 14.5089 22.5325 14.8214 22.8451C15.134 23.1577 15.5579 23.3333 16 23.3333ZM22.3333 16.9999C22.3333 17.4419 22.1577 17.8659 21.8451 18.1784C21.5326 18.491 21.1087 18.6666 20.6666 18.6666C20.2246 18.6666 19.8007 18.491 19.4881 18.1784C19.1756 17.8659 19 17.4419 19 16.9999C19 16.5579 19.1756 16.134 19.4881 15.8214C19.8007 15.5088 20.2246 15.3333 20.6666 15.3333C21.1087 15.3333 21.5326 15.5088 21.8451 15.8214C22.1577 16.134 22.3333 16.5579 22.3333 16.9999Z" fill="#6494CE"/>
<path fill-rule="evenodd" clip-rule="evenodd" d="M10.6666 4.33325C10.9318 4.33325 11.1862 4.43861 11.3737 4.62615C11.5613 4.81368 11.6666 5.06804 11.6666 5.33325V6.33325H20.3333V5.33325C20.3333 5.06804 20.4386 4.81368 20.6262 4.62615C20.8137 4.43861 21.0681 4.33325 21.3333 4.33325C21.5985 4.33325 21.8529 4.43861 22.0404 4.62615C22.2279 4.81368 22.3333 5.06804 22.3333 5.33325V6.34392C22.536 6.34925 22.7248 6.35903 22.9 6.37325C23.4066 6.41325 23.8813 6.50392 24.3306 6.73325C25.0207 7.08481 25.5817 7.64585 25.9333 8.33592C26.1626 8.78525 26.2533 9.25992 26.2933 9.76658C26.3333 10.2533 26.3333 10.8466 26.3333 11.5599V21.7733C26.3333 22.4866 26.3333 23.0799 26.2933 23.5666C26.2533 24.0732 26.1626 24.5479 25.9333 24.9972C25.5821 25.6871 25.0215 26.2481 24.332 26.5999C23.8813 26.8293 23.4066 26.9199 22.9 26.9599C22.4133 26.9999 21.82 26.9999 21.108 26.9999H10.8933C10.18 26.9999 9.58663 26.9999 9.09996 26.9599C8.59329 26.9199 8.11863 26.8293 7.66929 26.5999C6.97963 26.2491 6.41864 25.689 6.06663 24.9999C5.83729 24.5493 5.74663 24.0746 5.70663 23.5679C5.66663 23.0813 5.66663 22.4879 5.66663 21.7759V11.5599C5.66663 10.8466 5.66663 10.2533 5.70663 9.76658C5.74663 9.25992 5.83729 8.78525 6.06663 8.33592C6.41819 7.64585 6.97922 7.08481 7.66929 6.73325C8.11863 6.50392 8.59329 6.41325 9.09996 6.37325C9.27507 6.35903 9.46396 6.34925 9.66663 6.34392V5.33325C9.66663 5.20193 9.69249 5.07189 9.74275 4.95057C9.793 4.82924 9.86666 4.719 9.95952 4.62615C10.0524 4.53329 10.1626 4.45963 10.2839 4.40937C10.4053 4.35912 10.5353 4.33325 10.6666 4.33325ZM9.66663 8.66658V8.34392C9.53179 8.34807 9.39708 8.35562 9.26263 8.36659C8.87996 8.39725 8.69729 8.45325 8.57729 8.51459C8.26318 8.67446 8.00784 8.9298 7.84796 9.24392C7.78663 9.36392 7.73063 9.54659 7.69996 9.92925C7.66796 10.3239 7.66663 10.8359 7.66663 11.5999V12.3333H24.3333V11.5999C24.3333 10.8373 24.3333 10.3239 24.3 9.92925C24.2693 9.54659 24.2133 9.36392 24.152 9.24392C23.9921 8.9298 23.7367 8.67446 23.4226 8.51459C23.3026 8.45325 23.12 8.39725 22.736 8.36659C22.6019 8.35565 22.4677 8.34809 22.3333 8.34392V8.66658C22.3333 8.9318 22.2279 9.18616 22.0404 9.37369C21.8529 9.56123 21.5985 9.66658 21.3333 9.66658C21.0681 9.66658 20.8137 9.56123 20.6262 9.37369C20.4386 9.18616 20.3333 8.9318 20.3333 8.66658V8.33325H11.6666V8.66658C11.6666 8.9318 11.5613 9.18616 11.3737 9.37369C11.1862 9.56123 10.9318 9.66658 10.6666 9.66658C10.4014 9.66658 10.1471 9.56123 9.95952 9.37369C9.77198 9.18616 9.66663 8.9318 9.66663 8.66658ZM24.3333 13.6666H7.66663V21.7332C7.66663 22.4959 7.66663 23.0093 7.69996 23.4026C7.73063 23.7866 7.78663 23.9692 7.84796 24.0893C8.00796 24.4039 8.26263 24.6586 8.57729 24.8186C8.69729 24.8799 8.87996 24.9359 9.26263 24.9666C9.65729 24.9986 10.1693 24.9999 10.9333 24.9999H21.0666C21.8293 24.9999 22.3426 24.9999 22.736 24.9666C23.12 24.9359 23.3026 24.8799 23.4226 24.8186C23.7367 24.6587 23.9921 24.4034 24.152 24.0893C24.2133 23.9692 24.2693 23.7866 24.3 23.4026C24.332 23.0093 24.3333 22.4959 24.3333 21.7332V13.6666Z" fill="#6494CE"/>
<path fill-rule="evenodd" clip-rule="evenodd" d="M13 10.3333C13 10.068 13.1054 9.81368 13.2929 9.62615C13.4804 9.43861 13.7348 9.33325 14 9.33325H18C18.2652 9.33325 18.5196 9.43861 18.7071 9.62615C18.8946 9.81368 19 10.068 19 10.3333C19 10.5985 18.8946 10.8528 18.7071 11.0404C18.5196 11.2279 18.2652 11.3333 18 11.3333H14C13.7348 11.3333 13.4804 11.2279 13.2929 11.0404C13.1054 10.8528 13 10.5985 13 10.3333Z" fill="#6494CE"/>
</svg>
