<svg width="24" height="24" viewBox="0 0 24 24" fill="none" xmlns="http://www.w3.org/2000/svg">
<path d="M11.9537 18.1903C8.4702 18.1903 5.63637 15.3565 5.63637 11.873C5.63637 11.8623 5.63752 11.8512 5.63752 11.8405H7.87277L3.93638 6.76196L0 11.8405H1.82742C1.82742 11.8512 1.82703 11.8623 1.82703 11.873C1.82703 17.4571 6.37001 22 11.9541 22C14.2561 22 16.4258 21.2469 18.2288 19.8224L15.8669 16.8337C14.7433 17.7214 13.3905 18.1907 11.9541 18.1907L11.9537 18.1903Z" fill="#191A1A"/>
<path d="M22.1562 12.1595C22.1562 12.1488 22.1566 12.1377 22.1566 12.127C22.1566 6.54296 17.6136 2 12.0295 2C9.72751 2 7.55788 2.75309 5.75488 4.17763L8.11679 7.16633C9.24032 6.27857 10.5931 5.80932 12.0295 5.80932C15.5131 5.80932 18.3469 8.64314 18.3469 12.1267C18.3469 12.1373 18.3457 12.1484 18.3457 12.1591H16.1105L20.0469 17.2377L23.9833 12.1591H22.1558L22.1562 12.1595Z" fill="#191A1A"/>
</svg>
