<svg width="20" height="20" viewBox="0 0 20 20" fill="none" xmlns="http://www.w3.org/2000/svg">
<mask id="mask0_13212_23999" style="mask-type:alpha" maskUnits="userSpaceOnUse" x="0" y="0" width="20" height="20">
<rect width="20" height="20" fill="#D9D9D9"/>
</mask>
<g mask="url(#mask0_13212_23999)">
<path d="M16.3 18.8949H5.163C3.98934 18.8949 3 17.9121 3 16.7494C3 16.3619 3.31267 16.049 3.7 16.049C4.08733 16.049 4.4 16.3619 4.4 16.7494C4.4 17.137 4.757 17.4942 5.163 17.4942H15.6V15.1129C15.6 14.7253 15.9127 14.4125 16.3 14.4125C16.6873 14.4125 17 14.7253 17 15.1129V18.1945C17 18.5821 16.6873 18.8949 16.3 18.8949Z" fill="#33363D"/>
<path d="M3.7 17.5386C3.31267 17.5386 3 17.2258 3 16.8382C3 15.6756 3.99167 14.6927 5.163 14.6927H16.3C16.6873 14.6927 17 15.0056 17 15.3931C17 15.7807 16.6873 16.0935 16.3 16.0935H5.163C4.757 16.0935 4.4 16.4414 4.4 16.8382C4.4 17.2351 4.08733 17.5386 3.7 17.5386Z" fill="#244874"/>
<path d="M3.7 17.4498C3.31267 17.4498 3 17.137 3 16.7494V4.32692C3 3.09191 4.008 2.08569 5.24467 2.08569H16.3C16.6873 2.08569 17 2.39853 17 2.78608V15.1129C17 15.5004 16.6873 15.8132 16.3 15.8132C15.9127 15.8132 15.6 15.5004 15.6 15.1129V3.48646H5.24467C4.778 3.48646 4.4 3.86466 4.4 4.32692V16.7494C4.4 17.137 4.08733 17.4498 3.7 17.4498Z" fill="#244874"/>
<path d="M6.50005 15.8597C6.11272 15.8597 5.80005 15.5469 5.80005 15.1594V3.01935C5.80005 2.63181 6.11272 2.31897 6.50005 2.31897C6.88738 2.31897 7.20005 2.63181 7.20005 3.01935V15.1594C7.20005 15.5469 6.88738 15.8597 6.50005 15.8597Z" fill="#244874"/>
<path d="M13.5769 1.69812V6.94167L12.0626 5.64828L10.5786 6.94167L10.5459 1.69812H13.5769Z" fill="white"/>
<path d="M10.5763 7.63966C10.4783 7.63966 10.3803 7.61864 10.2893 7.57662C10.0396 7.46456 9.8786 7.2171 9.8786 6.94395L9.84595 1.70272C9.84595 1.51595 9.91828 1.33619 10.0489 1.20545C10.1796 1.07237 10.3593 1 10.5459 1H13.5769C13.9643 1 14.2769 1.31284 14.2769 1.70038V6.94161C14.2769 7.21476 14.1183 7.46222 13.8709 7.57662C13.6236 7.69102 13.3319 7.65131 13.1243 7.47388L12.0673 6.57272L11.0383 7.46924C10.9076 7.5813 10.7443 7.642 10.5786 7.642L10.5763 7.63966ZM12.0626 4.94784C12.2236 4.94784 12.3846 5.00387 12.5153 5.11593L12.8769 5.42411V2.39845H11.2506L11.2693 5.41009L11.6029 5.1206C11.7336 5.00621 11.8993 4.94784 12.0626 4.94784Z" fill="#244874"/>
</g>
</svg>
