<svg width="72" height="73" viewBox="0 0 72 73" fill="none" xmlns="http://www.w3.org/2000/svg">
<path d="M62.5051 67.8596H17.0952C12.0782 67.8596 8 63.7708 8 58.7541V14.5793C8 9.55654 12.0782 5.47369 17.0952 5.47369H62.5051C63.3303 5.47369 64 6.14419 64 6.97033V66.363C64 67.1891 63.3303 67.8596 62.5051 67.8596ZM17.0952 8.46697C13.7286 8.46697 10.9899 11.2088 10.9899 14.5793V58.7541C10.9899 62.1245 13.7286 64.8664 17.0952 64.8664H61.0101V8.46697H17.0952Z" fill="#3E3A39"/>
<path d="M62.5054 66.363H17.0955C12.8978 66.363 9.4953 62.9566 9.4953 58.7541V58.8139C9.4953 54.6114 12.8978 51.205 17.0955 51.205H62.5054V66.369V66.363Z" fill="#8AAFDB"/>
<path d="M62.5051 67.8596H17.0952C12.1141 67.8596 8.04784 63.8247 8 58.8498C8 58.8378 8 58.8259 8 58.8079V58.748C8 58.748 8 58.7241 8 58.7061C8.05382 53.7313 12.1141 49.6964 17.0952 49.6964H62.5051C63.3303 49.6964 64 50.3668 64 51.193V66.357C64 67.1831 63.3303 67.8536 62.5051 67.8536V67.8596ZM10.9839 58.7839C11.0018 62.1424 13.7346 64.8723 17.0892 64.8723H61.0042V52.7016H17.0892C13.7286 52.7016 10.9958 55.4315 10.9839 58.7899V58.7839Z" fill="#3E3A39"/>
<path d="M52.8242 16.2374H27.1593V29.7192H52.8242V16.2374Z" fill="#C9CACA"/>
<path d="M52.8299 31.2158H27.165C26.3398 31.2158 25.67 30.5453 25.67 29.7192V16.2374C25.67 15.4113 26.3398 14.7408 27.165 14.7408H52.8299C53.6551 14.7408 54.3248 15.4113 54.3248 16.2374V29.7192C54.3248 30.5453 53.6551 31.2158 52.8299 31.2158ZM28.6539 28.2225H51.329V17.7341H28.6539V28.2225Z" fill="#3E3A39"/>
<path d="M17.0954 52.6956C16.2702 52.6956 15.6005 52.0251 15.6005 51.199V14.6211C15.6005 13.7949 16.2702 13.1245 17.0954 13.1245C17.9206 13.1245 18.5903 13.7949 18.5903 14.6211V51.199C18.5903 52.0251 17.9206 52.6956 17.0954 52.6956Z" fill="#3E3A39"/>
<path d="M62.505 60.2148H17.7469C16.9217 60.2148 16.252 59.5443 16.252 58.7181C16.252 57.892 16.9217 57.2215 17.7469 57.2215H62.505C63.3302 57.2215 63.9999 57.892 63.9999 58.7181C63.9999 59.5443 63.3302 60.2148 62.505 60.2148Z" fill="#3E3A39"/>
</svg>
