<svg width="20" height="20" viewBox="0 0 20 20" fill="none" xmlns="http://www.w3.org/2000/svg">
<rect width="16.6667" height="16.6667" rx="8.33333" transform="matrix(1 0 0 -1 1.66663 18.3333)" fill="#323333"/>
<path d="M9.91606 7.86743C10.4683 7.86743 10.9161 7.41972 10.9161 6.86743C10.9161 6.31515 10.4683 5.86743 9.91606 5.86743C9.36377 5.86743 8.91606 6.31515 8.91606 6.86743C8.91606 7.41972 9.36377 7.86743 9.91606 7.86743Z" fill="white"/>
<path d="M8.69939 8.69255C8.58893 8.69255 8.49939 8.78209 8.49939 8.89255V9.49254C8.49939 9.603 8.58893 9.69254 8.69939 9.69254H9.21736C9.32782 9.69254 9.41736 9.78209 9.41736 9.89254V12.9947H8.53337C8.42292 12.9947 8.33337 13.0843 8.33337 13.1947V13.7947C8.33337 13.9052 8.42292 13.9947 8.53337 13.9947H11.4667C11.5772 13.9947 11.6667 13.9052 11.6667 13.7947V13.1947C11.6667 13.0843 11.5772 12.9947 11.4667 12.9947H10.9174V8.89254C10.9174 8.78209 10.8278 8.69255 10.7174 8.69255H8.69939Z" fill="white"/>
</svg>
