<svg width="41" height="40" viewBox="0 0 41 40" fill="none" xmlns="http://www.w3.org/2000/svg">
<path d="M3.83337 20C3.83337 29.2048 11.2953 36.6667 20.5 36.6667C29.7048 36.6667 37.1667 29.2048 37.1667 20C37.1667 10.7953 29.7048 3.33335 20.5 3.33335C11.2953 3.33335 3.83337 10.7953 3.83337 20Z" fill="#6494CE"/>
<path fill-rule="evenodd" clip-rule="evenodd" d="M26.7548 13.8992C27.3628 14.3146 27.5189 15.1443 27.1034 15.7523L20.2701 25.7523C20.0463 26.0798 19.6882 26.2907 19.2932 26.3276C18.8982 26.3645 18.5073 26.2236 18.2267 25.9431L14.0574 21.7765C13.5366 21.2559 13.5363 20.4117 14.0569 19.8908C14.5774 19.37 15.4216 19.3697 15.9425 19.8903L18.975 22.9209L24.9017 14.2478C25.3172 13.6398 26.1468 13.4837 26.7548 13.8992Z" fill="white"/>
</svg>
