<svg width="73" height="73" viewBox="0 0 73 73" fill="none" xmlns="http://www.w3.org/2000/svg">
<path d="M36.6667 58.8333C34.3427 58.8333 32.4009 57.2449 31.8811 55.0691C24.7002 53.496 17.2746 53.9097 10.3536 56.2847C9.96628 56.4175 9.5331 56.3562 9.20183 56.1161C8.86546 55.8761 8.66669 55.4879 8.66669 55.0793V22.6567C8.66669 22.1102 9.01325 21.625 9.52799 21.4462C18.2735 18.443 27.8957 18.397 36.6667 21.3083C45.4377 18.4022 55.0598 18.4481 63.8054 21.4462C64.3201 21.625 64.6667 22.1102 64.6667 22.6567V55.0793C64.6667 55.493 64.4679 55.8761 64.1315 56.1161C63.7952 56.3562 63.3671 56.4175 62.9797 56.2847C56.0587 53.9097 48.6332 53.4909 41.4523 55.0691C40.9273 57.2449 38.9907 58.8333 36.6667 58.8333ZM23.263 51.5807C26.6266 51.5807 29.9954 51.979 33.3132 52.7809C33.8687 52.9137 34.2662 53.404 34.2866 53.9812C34.3325 55.2734 35.3722 56.2847 36.6616 56.2847C37.951 56.2847 38.9907 55.2734 39.0365 53.9812C39.0569 53.4092 39.4545 52.9188 40.01 52.7809C47.3438 51.0086 54.9477 51.2027 62.1133 53.3325V23.5812C53.9947 21.0019 45.137 21.0989 37.0744 23.8672C36.8043 23.9591 36.5189 23.9591 36.2488 23.8672C28.1811 21.0989 19.3285 21.007 11.2098 23.5812V53.3325C15.1341 52.168 19.1909 51.5807 23.263 51.5807Z" fill="#3E3A39"/>
<path d="M14.3185 17.825V50.074C21.5198 47.3466 29.4652 47.3466 36.6665 50.074V17.825C29.4652 15.0976 21.5198 15.0976 14.3185 17.825Z" fill="#B1CAE7"/>
<path d="M36.6667 51.3508C36.5138 51.3508 36.3609 51.3253 36.2182 51.2691C29.3023 48.6489 21.6882 48.6489 14.7723 51.2691C14.3799 51.4172 13.9416 51.3661 13.6001 51.1261C13.2535 50.886 13.0497 50.4927 13.0497 50.0739V17.825C13.0497 17.2938 13.3759 16.8188 13.8753 16.6298C21.3722 13.7901 29.6285 13.7901 37.1203 16.6298C37.6146 16.8188 37.9459 17.2938 37.9459 17.825V50.0739C37.9459 50.4927 37.7421 50.886 37.3955 51.1261C37.1815 51.2742 36.9266 51.3508 36.6718 51.3508H36.6667ZM25.4901 46.7489C28.8283 46.7489 32.1665 47.2597 35.3875 48.2812V18.7239C28.9711 16.5021 22.0042 16.5021 15.5877 18.7239V48.2812C18.8087 47.2597 22.1469 46.7489 25.4851 46.7489H25.4901Z" fill="#3E3A39"/>
<path d="M59.0096 17.825C51.8082 15.0976 43.8629 15.0976 36.6616 17.825V50.074C43.8629 47.3466 51.8082 47.3466 59.0096 50.074V17.825Z" fill="#B1CAE7"/>
<path d="M59.0092 51.3508C58.8563 51.3508 58.7034 51.3253 58.5607 51.2691C51.6448 48.6489 44.0307 48.6489 37.1148 51.2691C36.7223 51.4172 36.284 51.3661 35.9375 51.1261C35.5909 50.886 35.3871 50.4927 35.3871 50.0739V17.825C35.3871 17.2938 35.7133 16.8188 36.2127 16.6298C43.7096 13.7901 51.9659 13.7901 59.4577 16.6298C59.952 16.8188 60.2833 17.2938 60.2833 17.825V50.0739C60.2833 50.4927 60.0794 50.886 59.7329 51.1261C59.5188 51.2742 59.264 51.3508 59.0092 51.3508ZM47.8378 46.7489C51.1759 46.7489 54.5141 47.2597 57.7351 48.2812V18.7239C51.3186 16.5021 44.3518 16.5021 37.9353 18.7239V48.2812C41.1563 47.2597 44.4945 46.7489 47.8326 46.7489H47.8378Z" fill="#3E3A39"/>
</svg>
