<svg width="36" height="36" viewBox="0 0 36 36" fill="none" xmlns="http://www.w3.org/2000/svg">
<circle cx="18" cy="18" r="18" fill="#6494CE"/>
<path d="M27.6749 18.5673C28.803 17.3813 28.7723 15.5098 27.6057 14.3615C26.4391 13.2134 24.5674 13.2122 23.3994 14.3591C22.2314 15.5059 22.1982 17.3773 23.3251 18.5647C23.0438 18.7231 22.7809 18.9117 22.5405 19.1272C22.04 18.2692 21.3083 17.5693 20.4289 17.1077C21.627 16.0897 22.0629 14.4324 21.5206 12.9565C20.9784 11.4807 19.5731 10.5 18.0007 10.5C16.4284 10.5 15.0233 11.4807 14.4809 12.9565C13.9385 14.4324 14.3745 16.0897 15.5726 17.1077C14.6931 17.5693 13.9614 18.2692 13.461 19.1272C13.2206 18.9117 12.9576 18.7231 12.6766 18.5647C13.8032 17.3773 13.7701 15.5059 12.6021 14.3591C11.434 13.2122 9.5625 13.2134 8.39594 14.3615C7.22919 15.5098 7.19843 17.3813 8.32654 18.5673C6.89246 19.3588 6.00165 20.8667 6 22.5048C6 22.9189 6.33582 23.2548 6.75 23.2548H29.25C29.6642 23.2548 30 22.9189 30 22.5048C29.9987 20.8671 29.1085 19.3592 27.6749 18.5673ZM24 16.5048C24 15.6764 24.6716 15.0048 25.5 15.0048C26.3284 15.0048 27 15.6764 27 16.5048C27 17.3331 26.3284 18.0048 25.5 18.0048C24.6716 18.0048 24 17.3331 24 16.5048ZM15.75 14.2548C15.75 13.012 16.7574 12.0048 18 12.0048C19.2426 12.0048 20.25 13.012 20.25 14.2548C20.25 15.4973 19.2426 16.5048 18 16.5048C16.7578 16.5035 15.7513 15.4969 15.75 14.2548ZM18 18.0048C20.0682 18.0115 21.7432 19.6866 21.75 21.7548H14.25C14.2568 19.6866 15.9318 18.0115 18 18.0048ZM9 16.5048C9 15.6764 9.67163 15.0048 10.5 15.0048C11.3284 15.0048 12 15.6764 12 16.5048C12 17.3331 11.3284 18.0048 10.5 18.0048C9.67163 18.0048 9 17.3331 9 16.5048ZM7.59485 21.7548C7.88013 20.647 8.77112 19.7981 9.89136 19.567C11.0118 19.3359 12.1659 19.7628 12.8663 20.6673C12.8322 20.8281 12.8077 20.9901 12.7883 21.1522C12.7841 21.1897 12.7797 21.2305 12.7758 21.2695C12.7604 21.4316 12.75 21.5931 12.75 21.7548H7.59485ZM23.25 21.7548C23.25 21.5931 23.2396 21.431 23.2242 21.2673C23.2203 21.2298 23.2159 21.1897 23.2114 21.1507C23.1923 20.9886 23.1678 20.8262 23.1334 20.6653C23.8339 19.7607 24.9886 19.3339 26.109 19.5656C27.2296 19.797 28.1206 20.6464 28.4052 21.7548H23.25Z" fill="white"/>
<path d="M25.5 24.0048H10.5C10.0858 24.0048 9.75 24.3406 9.75 24.7548C9.75 25.1689 10.0858 25.5048 10.5 25.5048H25.5C25.9142 25.5048 26.25 25.1689 26.25 24.7548C26.25 24.3406 25.9142 24.0048 25.5 24.0048Z" fill="white"/>
</svg>
