<svg width="24" height="25" viewBox="0 0 24 25" fill="none" xmlns="http://www.w3.org/2000/svg">
<path d="M11.7998 6.5C12.0204 6.5 12.2316 6.59128 12.3828 6.75195L17.3828 12.0654C17.6855 12.3871 17.6701 12.8935 17.3486 13.1963C17.0269 13.499 16.5206 13.4837 16.2178 13.1621L12.5996 9.31738V21.2998C12.5996 21.7416 12.2416 22.0996 11.7998 22.0996C11.3581 22.0995 11 21.7416 11 21.2998V9.31738L7.38281 13.1621C7.08004 13.4839 6.57373 13.4991 6.25195 13.1963C5.93019 12.8935 5.91501 12.3872 6.21777 12.0654L11.2178 6.75195C11.3689 6.59139 11.5793 6.50005 11.7998 6.5ZM18.2002 3.5C18.6419 3.50011 18.9999 3.85813 19 4.2998C19 4.74157 18.6419 5.0995 18.2002 5.09961H5.7998C5.35807 5.0995 5 4.74157 5 4.2998C5.00011 3.85813 5.35813 3.50011 5.7998 3.5H18.2002Z" fill="#4B4D4D"/>
</svg>
