<svg width="73" height="73" viewBox="0 0 73 73" fill="none" xmlns="http://www.w3.org/2000/svg">
<path d="M59.2822 46.9936H13.3795C12.6379 46.9936 12.0361 46.391 12.0361 45.6486V14.7786C12.0361 14.0362 12.6379 13.4337 13.3795 13.4337H59.2822C60.0238 13.4337 60.6256 14.0362 60.6256 14.7786V45.6486C60.6256 46.391 60.0238 46.9936 59.2822 46.9936ZM14.7283 44.3036H57.9441V16.1236H14.7283V44.3036Z" fill="#3E3A39"/>
<path d="M52.9306 21.5682H19.7368V45.6488H52.9306V21.5682Z" fill="#B1CAE7"/>
<path d="M52.9303 46.9936H19.7365C18.9949 46.9936 18.3931 46.391 18.3931 45.6486V21.5681C18.3931 20.8256 18.9949 20.2231 19.7365 20.2231H52.9303C53.6718 20.2231 54.2737 20.8256 54.2737 21.5681V45.6486C54.2737 46.391 53.6718 46.9936 52.9303 46.9936ZM21.0799 44.3036H51.5868V22.913H21.0799V44.3036Z" fill="#3E3A39"/>
<path d="M62.9902 45.6486H9.67706V51.8731H62.9902V45.6486Z" fill="#C9CACA"/>
<path d="M62.9899 53.2183H9.67675C8.93517 53.2183 8.33331 52.6158 8.33331 51.8733V45.6488C8.33331 44.9064 8.93517 44.3038 9.67675 44.3038H62.9899C63.7314 44.3038 64.3333 44.9064 64.3333 45.6488V51.8733C64.3333 52.6158 63.7314 53.2183 62.9899 53.2183ZM11.0202 50.5284H61.6464V46.9938H11.0202V50.5284Z" fill="#3E3A39"/>
<path d="M36.3361 64.2471C35.5945 64.2471 34.9927 63.6446 34.9927 62.9022V52.5889C34.9927 51.8464 35.5945 51.2439 36.3361 51.2439C37.0777 51.2439 37.6796 51.8464 37.6796 52.5889V62.9022C37.6796 63.6446 37.0777 64.2471 36.3361 64.2471Z" fill="#3E3A39"/>
<path d="M36.3361 15.6664C35.5945 15.6664 34.9927 15.0639 34.9927 14.3215V9.75929C34.9927 9.01686 35.5945 8.41431 36.3361 8.41431C37.0777 8.41431 37.6796 9.01686 37.6796 9.75929V14.3215C37.6796 15.0639 37.0777 15.6664 36.3361 15.6664Z" fill="#3E3A39"/>
<path d="M25.7335 64.2471C25.5723 64.2471 25.4111 64.2202 25.2499 64.1556C24.5566 63.8866 24.2127 63.1119 24.476 62.4179L28.4365 52.1046C28.7052 51.4106 29.479 51.0663 30.1722 51.3299C30.8654 51.5989 31.2094 52.3736 30.946 53.0676L26.9856 63.3809C26.7814 63.9135 26.2709 64.2417 25.7335 64.2417V64.2471Z" fill="#3E3A39"/>
<path d="M46.9331 64.247C46.3957 64.247 45.8852 63.9188 45.681 63.3862L41.7205 53.0729C41.4519 52.3789 41.8011 51.5988 42.4944 51.3352C43.1876 51.0716 43.9668 51.4159 44.2301 52.1099L48.1905 62.4232C48.4592 63.1173 48.1099 63.8973 47.4167 64.1609C47.2609 64.2201 47.0943 64.2524 46.9331 64.2524V64.247Z" fill="#3E3A39"/>
<path d="M29.3449 35.9596H26.0884L25.5026 37.6435H23.5627L26.8192 28.9711H28.7699L32.0264 37.6435H29.9306L29.3449 35.9596ZM28.7699 34.281L27.7166 31.2575L26.6633 34.281H28.7645H28.7699Z" fill="#3E3A39"/>
<path d="M32.752 28.9656H36.4007C37.3196 28.9656 38.0397 29.197 38.5502 29.6596C39.0607 30.1223 39.3187 30.7518 39.3187 31.5534C39.3187 31.8708 39.2273 32.1828 39.0393 32.4841C38.8512 32.7854 38.6201 32.9898 38.3407 33.0974C38.7383 33.2319 39.0661 33.4794 39.3241 33.8345C39.582 34.1949 39.711 34.5823 39.711 35.0127C39.711 35.5453 39.5928 36.0079 39.3563 36.4061C39.1199 36.8042 38.7759 37.1108 38.3192 37.3206C37.8678 37.5358 37.3304 37.6381 36.7124 37.6381H32.752V28.9656ZM36.3201 32.4787C36.6748 32.4787 36.9542 32.398 37.1477 32.242C37.3411 32.0806 37.4432 31.8547 37.4432 31.5534C37.4432 31.2521 37.3465 31.0154 37.1477 30.854C36.9542 30.6926 36.6748 30.6119 36.3201 30.6119H34.6274V32.4733H36.3201V32.4787ZM36.6318 35.9918C37.008 35.9918 37.3035 35.9057 37.5185 35.739C37.7334 35.5668 37.8355 35.3301 37.8355 35.0127C37.8355 34.6952 37.7281 34.4585 37.5185 34.2918C37.3035 34.1196 37.008 34.0389 36.6318 34.0389H34.6328V35.9972H36.6318V35.9918Z" fill="#3E3A39"/>
<path d="M42.5215 37.2613C41.839 36.8686 41.3016 36.3252 40.9147 35.6312C40.5278 34.9372 40.3344 34.1625 40.3344 33.2963C40.3344 32.4301 40.5278 31.65 40.9147 30.9614C41.3016 30.2674 41.839 29.7294 42.5215 29.3313C43.2039 28.9386 43.9724 28.7395 44.8268 28.7395C45.5738 28.7395 46.2455 28.8794 46.842 29.1645C47.4385 29.4497 47.9221 29.837 48.2929 30.3373C48.6637 30.8323 48.9055 31.3918 49.0237 32.0105H47.1268C47.0247 31.5855 46.7667 31.2304 46.3583 30.9453C45.9499 30.6601 45.4502 30.5203 44.8698 30.5203C44.37 30.5203 43.9133 30.6386 43.5102 30.8753C43.1072 31.112 42.7848 31.4456 42.5591 31.8652C42.328 32.2849 42.2152 32.7637 42.2152 33.2963C42.2152 33.8289 42.328 34.297 42.5591 34.722C42.7902 35.147 43.1072 35.4805 43.5102 35.7173C43.9133 35.954 44.37 36.0723 44.8698 36.0723C45.2567 36.0723 45.6168 35.9916 45.9553 35.8356C46.2939 35.6796 46.5787 35.4752 46.799 35.2277C47.0247 34.9802 47.159 34.722 47.2074 34.4637H49.1043C49.013 35.0501 48.7765 35.6043 48.395 36.1261C48.0081 36.6426 47.5083 37.0622 46.885 37.3743C46.2616 37.6917 45.5791 37.8477 44.8268 37.8477C43.9724 37.8477 43.2039 37.6486 42.5215 37.2559V37.2613Z" fill="#3E3A39"/>
</svg>
