<svg width="48" height="48" viewBox="0 0 48 48" fill="none" xmlns="http://www.w3.org/2000/svg">
<path d="M0 24C0 10.7452 10.7452 0 24 0C37.2548 0 48 10.7452 48 24C48 37.2548 37.2548 48 24 48C10.7452 48 0 37.2548 0 24Z" fill="white"/>
<path fill-rule="evenodd" clip-rule="evenodd" d="M19.6864 33.2822C20.041 33.6763 20.648 33.7083 21.0421 33.3536L30.6421 24.7139C30.8444 24.5319 30.9599 24.2725 30.96 24.0004C30.96 23.7283 30.8445 23.4689 30.6422 23.2868L21.0422 14.6462C20.6481 14.2916 20.0411 14.3235 19.6864 14.7176C19.3317 15.1116 19.3636 15.7186 19.7577 16.0733L28.5649 24.0003L19.7578 31.9264C19.3637 32.2811 19.3317 32.8881 19.6864 33.2822Z" fill="#323333"/>
</svg>
