<svg width="48" height="48" viewBox="0 0 48 48" fill="none" xmlns="http://www.w3.org/2000/svg">
<path d="M0 24C0 10.7452 10.7452 0 24 0C37.2548 0 48 10.7452 48 24C48 37.2548 37.2548 48 24 48C10.7452 48 0 37.2548 0 24Z" fill="white"/>
<path fill-rule="evenodd" clip-rule="evenodd" d="M19.6859 33.2822C20.0406 33.6763 20.6476 33.7083 21.0417 33.3536L30.6417 24.7139C30.8439 24.5319 30.9595 24.2725 30.9595 24.0004C30.9595 23.7283 30.844 23.4689 30.6417 23.2868L21.0417 14.6462C20.6476 14.2916 20.0406 14.3235 19.6859 14.7176C19.3312 15.1116 19.3632 15.7186 19.7572 16.0733L28.5644 24.0003L19.7573 31.9264C19.3632 32.2811 19.3312 32.8881 19.6859 33.2822Z" fill="#33363D"/>
</svg>
