<svg width="73" height="73" viewBox="0 0 73 73" fill="none" xmlns="http://www.w3.org/2000/svg">
<path d="M50.3333 50.3173C58.0652 42.5942 58.0652 30.0725 50.3333 22.3493C42.6013 14.6261 30.0652 14.6261 22.3333 22.3493C14.6013 30.0725 14.6013 42.5942 22.3333 50.3173C30.0652 58.0405 42.6013 58.0405 50.3333 50.3173Z" fill="#8AAFDB"/>
<path d="M36.3299 62.0555C22.1306 62.0555 10.5754 50.5135 10.5754 36.3304C10.5754 22.1473 22.1257 10.6053 36.3299 10.6053C50.5342 10.6053 62.0844 22.1473 62.0844 36.3304C62.0844 50.5135 50.5293 62.0555 36.3299 62.0555ZM36.3299 13.0786C23.4947 13.0786 13.0466 23.5098 13.0466 36.3354C13.0466 49.1609 23.4898 59.5921 36.3299 59.5921C49.1701 59.5921 59.6133 49.1609 59.6133 36.3354C59.6133 23.5098 49.1701 13.0786 36.3299 13.0786Z" fill="#3E3A39"/>
<path d="M35.7962 61.8926C35.6578 61.8926 35.5194 61.8679 35.386 61.8235C25.8967 58.4962 19.269 48.0847 19.269 36.5032C19.269 24.2799 26.3662 13.7203 36.5227 10.8225C36.7698 10.7534 37.0318 10.7583 37.269 10.8472C46.7583 14.1745 53.386 24.586 53.386 36.1675C53.386 48.3908 46.2888 58.9504 36.1323 61.8482C36.0236 61.8778 35.9049 61.8976 35.7913 61.8976L35.7962 61.8926ZM36.8242 13.3057C27.9231 16.0554 21.7402 25.524 21.7402 36.4983C21.7402 46.8949 27.5178 56.2302 35.8357 59.3552C44.7369 56.6054 50.9197 47.1368 50.9197 36.1626C50.9197 25.7659 45.1422 16.4306 36.8242 13.3057Z" fill="#3E3A39"/>
<path d="M35.7965 61.8927C35.7965 61.8927 35.7767 61.8927 35.7669 61.8927C35.0848 61.8779 34.5412 61.3151 34.5609 60.6338L35.6235 11.9876C35.6384 11.3064 36.2067 10.7683 36.8838 10.7831C37.5659 10.7979 38.1095 11.3607 38.0898 12.0419L37.0272 60.6881C37.0123 61.3595 36.4637 61.8976 35.7916 61.8976L35.7965 61.8927Z" fill="#3E3A39"/>
<path d="M60.6809 38.0978C60.6809 38.0978 60.6611 38.0978 60.6512 38.0978L11.9495 37.0364C11.2675 37.0216 10.7238 36.4588 10.7436 35.7776C10.7633 35.0963 11.3169 34.5384 12.0039 34.573L60.7056 35.6344C61.3877 35.6492 61.9313 36.212 61.9115 36.8932C61.8967 37.5646 61.3481 38.1027 60.676 38.1027L60.6809 38.0978Z" fill="#3E3A39"/>
<path d="M26.4898 46.979C26.4898 45.1721 25.0219 43.701 23.2081 43.701C21.3943 43.701 19.9264 45.1672 19.9264 46.979C19.9264 48.7907 21.3943 50.2569 23.2081 50.2569C25.0219 50.2569 26.4898 48.7907 26.4898 46.979Z" fill="#C9CACA"/>
<path d="M23.2135 51.4911C20.7225 51.4911 18.6962 49.4671 18.6962 46.979C18.6962 44.4909 20.7225 42.4669 23.2135 42.4669C25.7044 42.4669 27.7308 44.4909 27.7308 46.979C27.7308 49.4671 25.7044 51.4911 23.2135 51.4911ZM23.2135 44.9401C22.0866 44.9401 21.1673 45.8584 21.1673 46.9839C21.1673 48.1095 22.0866 49.0277 23.2135 49.0277C24.3403 49.0277 25.2596 48.1095 25.2596 46.9839C25.2596 45.8584 24.3403 44.9401 23.2135 44.9401Z" fill="#3E3A39"/>
<path d="M49.4471 28.965C51.2596 28.965 52.7288 27.4974 52.7288 25.687C52.7288 23.8767 51.2596 22.4091 49.4471 22.4091C47.6347 22.4091 46.1654 23.8767 46.1654 25.687C46.1654 27.4974 47.6347 28.965 49.4471 28.965Z" fill="#C9CACA"/>
<path d="M49.4469 30.1942C46.9559 30.1942 44.9296 28.1701 44.9296 25.6821C44.9296 23.194 46.9559 21.1699 49.4469 21.1699C51.9378 21.1699 53.9642 23.194 53.9642 25.6821C53.9642 28.1701 51.9378 30.1942 49.4469 30.1942ZM49.4469 23.6432C48.32 23.6432 47.4007 24.5614 47.4007 25.687C47.4007 26.8126 48.32 27.7308 49.4469 27.7308C50.5737 27.7308 51.493 26.8126 51.493 25.687C51.493 24.5614 50.5737 23.6432 49.4469 23.6432Z" fill="#3E3A39"/>
</svg>
