<svg width="73" height="73" viewBox="0 0 73 73" fill="none" xmlns="http://www.w3.org/2000/svg">
<path d="M36.6016 47.1352C35.6779 46.6089 35.3579 45.4375 35.8791 44.5138C36.4055 43.5901 37.5768 43.2702 38.5005 43.7914L46.437 48.3066L47.2008 46.9804C46.6847 43.8327 42.8455 41.1803 37.5201 39.9831C35.6211 41.0616 33.2525 41.7015 30.6776 41.7015C28.1026 41.7015 25.9765 41.1235 24.1292 40.1431C21.7193 40.7571 19.6449 41.6705 18.0865 42.8006C23.2261 47.4707 28.0303 49.8754 40.5234 49.8754C40.8381 49.8754 41.1374 49.8753 41.4264 49.8857L36.5912 47.1352H36.6016Z" fill="#8AAFDB"/>
<path d="M50.3931 34.2534C52.3329 30.8375 56.6823 29.6405 60.0981 31.5854L60.4116 31.7749C63.5856 33.7969 64.6495 37.9814 62.7651 41.2905C61.5042 43.51 59.2292 44.7787 56.8569 44.8745L52.8315 51.9517L52.7573 52.0815L52.6274 52.0073L46.3628 48.4419L46.2329 48.3677L46.3062 48.2378L50.3325 41.1597C49.203 39.0749 49.1329 36.472 50.3931 34.2534Z" fill="#8AAFDB" stroke="#3E3A39" stroke-width="0.3"/>
<path d="M42.1986 32.5217C42.3839 32.0919 42.8668 31.8625 43.3236 32.007C43.8096 32.1608 44.0813 32.678 43.9271 33.1652C42.1369 38.869 36.856 42.6974 30.7855 42.6974H30.6351V42.6896C24.7413 42.6273 19.5644 38.911 17.722 33.3947V33.3937C17.5624 32.9088 17.8202 32.3843 18.308 32.2238C18.7928 32.0645 19.3174 32.3221 19.4779 32.8098H19.4769C21.0816 37.618 25.6263 40.8497 30.7904 40.8498C35.9546 40.8498 40.6221 37.5357 42.1654 32.6105L42.1986 32.5217Z" fill="#3E3A39" stroke="#3E3A39" stroke-width="0.3"/>
<path d="M30.7862 15.6361C37.7586 15.6362 43.6821 20.8873 44.4483 27.6586L44.4815 27.9828L44.4844 28.0785C44.4766 28.548 44.1168 28.9395 43.6446 28.9857L43.6368 28.9867H43.5626C43.0874 28.9866 42.6876 28.6225 42.6446 28.1429C42.1201 22.17 36.9135 17.4849 30.7862 17.4847C24.6579 17.4847 19.5646 21.996 18.9483 27.9701L18.9473 27.9711C18.8916 28.4774 18.4363 28.838 17.9346 28.7953H17.9327C17.4252 28.7458 17.0575 28.2884 17.1065 27.7797V27.7787C17.8218 20.8525 23.704 15.6361 30.7862 15.6361Z" fill="#3E3A39" stroke="#3E3A39" stroke-width="0.3"/>
<path d="M18.1409 27.1525L18.1418 27.1515C18.6408 27.2503 18.967 27.7372 18.8684 28.2365C18.7698 28.7355 18.2836 29.0614 17.7844 28.963V28.964C17.6388 28.9358 17.4258 28.9216 17.2219 28.9386C17.0102 28.9562 16.844 29.0045 16.7629 29.0714L16.7571 29.0753C16.7487 29.0816 16.7323 29.0942 16.7151 29.13C16.6962 29.1693 16.6731 29.2453 16.6731 29.3839C16.6731 31.7567 18.6262 32.4608 18.7043 32.4884H18.7034C19.1828 32.6546 19.4424 33.1775 19.2756 33.6593C19.1629 33.9909 18.8783 34.2194 18.551 34.2736V34.2921H18.4016C18.3072 34.2921 18.2036 34.2797 18.1028 34.2394V34.2384C16.9603 33.8535 14.8245 32.3494 14.8245 29.3839C14.8245 28.47 15.2384 27.9288 15.593 27.6417C16.0766 27.2449 16.6803 27.1182 17.1702 27.0909C17.6608 27.0636 18.0552 27.1354 18.1409 27.1525Z" fill="#3E3A39" stroke="#3E3A39" stroke-width="0.3"/>
<path d="M44.4069 27.0909C44.8969 27.1182 45.5014 27.2446 45.985 27.6417L46.1198 27.7618C46.4363 28.0702 46.7526 28.5845 46.7526 29.3839C46.7525 32.3575 44.6057 33.8572 43.4664 34.2423L43.4635 34.2433C43.371 34.2722 43.2729 34.2921 43.1764 34.2921H43.1656C42.8255 34.2921 42.5094 34.1027 42.3492 33.796L42.2906 33.6573C42.1317 33.1743 42.3866 32.6521 42.8707 32.4894L42.9791 32.4445C43.4038 32.2582 44.899 31.4603 44.899 29.3839C44.899 29.2453 44.8759 29.1693 44.8571 29.13C44.8399 29.0942 44.8234 29.0816 44.8151 29.0753L44.8102 29.0714C44.7224 28.9998 44.5469 28.9538 44.3317 28.9386C44.1245 28.924 43.9151 28.9407 43.7916 28.964L43.7906 28.963C43.2932 29.0599 42.8073 28.741 42.7086 28.2365C42.6102 27.738 42.9306 27.2501 43.4362 27.1515V27.1525C43.5214 27.1355 43.916 27.0636 44.4069 27.0909Z" fill="#3E3A39" stroke="#3E3A39" stroke-width="0.3"/>
<path d="M25.9193 27.2466C26.8586 27.2466 27.6174 28.0055 27.6175 28.9449C27.6175 29.8843 26.8587 30.6431 25.9193 30.6431C24.9799 30.643 24.221 29.8843 24.221 28.9449C24.2211 28.0056 24.98 27.2468 25.9193 27.2466Z" fill="#3E3A39" stroke="#3E3A39" stroke-width="0.3"/>
<path d="M35.6519 27.2466C36.5912 27.2466 37.35 28.0055 37.3501 28.9449C37.3501 29.8843 36.5913 30.6431 35.6519 30.6431C34.7125 30.643 33.9536 29.8843 33.9536 28.9449C33.9537 28.0056 34.7126 27.2468 35.6519 27.2466Z" fill="#3E3A39" stroke="#3E3A39" stroke-width="0.3"/>
<path d="M33.6674 34.4843C34.0293 34.1224 34.6143 34.1204 34.973 34.4833L35.0365 34.5536C35.335 34.9146 35.3136 35.4542 34.973 35.7899C33.9171 36.8458 32.3792 37.4893 30.766 37.5526H30.6469V37.5585H30.4965C28.8326 37.5584 27.2974 36.9342 26.1488 35.7909C25.7863 35.4284 25.785 34.8418 26.1498 34.4833C26.5121 34.122 27.0971 34.1207 27.4554 34.4843L27.6156 34.6366C28.4342 35.3734 29.5104 35.7565 30.6918 35.705L30.9066 35.6913C31.9783 35.6008 32.9987 35.1529 33.6674 34.4843Z" fill="#3E3A39" stroke="#3E3A39" stroke-width="0.3"/>
<path d="M25.4825 14.0524C25.643 13.5647 26.1675 13.3069 26.6524 13.4665H26.6534C26.7745 13.5069 27.355 13.7072 28.0059 14.0651C28.6533 14.4211 29.3907 14.9443 29.8038 15.6364H29.8047C30.0694 16.0737 29.9266 16.6382 29.4913 16.903L29.4922 16.904C29.3879 16.9692 29.2758 17.0051 29.1651 17.0222V17.0407H29.0157C28.7023 17.0407 28.3936 16.8807 28.2208 16.5905C28.0555 16.3129 27.6919 16.027 27.2667 15.777C26.8472 15.5304 26.3912 15.3318 26.0674 15.2214V15.2204C25.5871 15.0598 25.3229 14.538 25.4825 14.0524Z" fill="#3E3A39" stroke="#3E3A39" stroke-width="0.3"/>
<path d="M34.4742 13.9155C34.9256 13.7651 35.4133 13.9838 35.609 14.4116L35.6442 14.4995V14.5005C35.8044 14.9813 35.5458 15.5043 35.066 15.6704H35.0641C34.7411 15.7781 34.2854 15.9768 33.8658 16.2241C33.4408 16.4747 33.0771 16.7618 32.9117 17.0396C32.7389 17.3298 32.4302 17.4897 32.1168 17.4897H32.0553L32.0455 17.48C31.9065 17.4698 31.7659 17.4298 31.6393 17.356L31.6364 17.354C31.2002 17.0894 31.0579 16.5231 31.3229 16.0854L31.4049 15.9585C31.8306 15.3316 32.5162 14.8506 33.1227 14.5161C33.7734 14.1573 34.3533 13.9559 34.4742 13.9155Z" fill="#3E3A39" stroke="#3E3A39" stroke-width="0.3"/>
<path d="M29.4363 11.5092C29.5359 11.0091 30.0233 10.6918 30.5193 10.7836H30.5203C31.0194 10.8822 31.3463 11.3684 31.2479 11.8676V11.8686C31.1049 12.5887 31.0035 13.4176 30.9774 14.1293C30.9643 14.4854 30.9702 14.8095 30.9979 15.0737C31.0261 15.3436 31.076 15.531 31.1365 15.6313H31.1356C31.4007 16.0691 31.2587 16.6364 30.8221 16.9008L30.8211 16.8998C30.7002 16.9749 30.5696 17.0116 30.4422 17.0239L30.4344 17.0405H30.3416C30.0676 17.0403 29.797 16.9187 29.618 16.6938L29.5477 16.5912C29.337 16.2409 29.2228 15.7814 29.1668 15.2924C29.1106 14.8011 29.1118 14.2672 29.1414 13.7592C29.2007 12.7429 29.3737 11.8147 29.4363 11.5092Z" fill="#3E3A39" stroke="#3E3A39" stroke-width="0.3"/>
<path d="M12.4245 28.5316C12.9214 28.5432 13.3064 28.9163 13.3425 29.3851L13.3444 29.4798C13.3369 29.8422 13.3023 34.3114 16.1169 38.8577C18.9255 43.3943 24.5869 48.0327 36.0222 48.7191C36.5012 48.7479 36.8723 49.1344 36.8913 49.6038L36.8903 49.6985C36.8595 50.191 36.4527 50.5667 35.9665 50.5667H35.8171V50.554C23.5884 49.7949 17.4954 44.5906 14.4684 39.5228C11.44 34.4524 11.4938 29.5427 11.4968 29.431C11.5095 28.9256 11.9226 28.5316 12.4206 28.5316H12.4245Z" fill="#3E3A39" stroke="#3E3A39" stroke-width="0.3"/>
<path d="M54.4995 30.1529C56.5297 29.5955 58.6605 29.8635 60.4907 30.9048C62.3207 31.9461 63.6411 33.6401 64.1987 35.6754C64.7563 37.7057 64.4881 39.8373 63.4468 41.6675C62.1608 43.927 59.8997 45.3694 57.3296 45.6129L54.7827 50.0884V50.0894C54.6226 50.3693 54.3438 50.531 54.0474 50.5523L54.0386 50.5621H53.9761C53.8237 50.562 53.6615 50.5256 53.5161 50.4371V50.4361C53.0756 50.1821 52.9238 49.618 53.1753 49.1763L55.9663 44.2691C56.1271 43.9849 56.4235 43.8136 56.7417 43.8013H56.7427C58.8786 43.7409 60.7821 42.6034 61.8345 40.7554C62.6351 39.3505 62.8359 37.7242 62.4077 36.1627C62.0063 34.7036 61.0964 33.4714 59.8267 32.6675L59.5679 32.5123C58.1631 31.7117 56.5375 31.51 54.9761 31.938C53.4198 32.3662 52.1212 33.3732 51.3257 34.7779C50.2734 36.6256 50.2674 38.8406 51.3101 40.7095L51.311 40.7115C51.4639 40.993 51.4644 41.3359 51.3101 41.6138V41.6158L47.2437 48.7623C46.9909 49.2061 46.4241 49.3603 45.981 49.108C45.5371 48.8552 45.3839 48.2884 45.6362 47.8453L49.4575 41.1304C48.3532 38.7967 48.4423 36.12 49.728 33.8609C50.7694 32.0307 52.464 30.7104 54.4995 30.1529Z" fill="#3E3A39" stroke="#3E3A39" stroke-width="0.3"/>
<path d="M35.0728 44.0571C35.8466 42.6953 37.5898 42.2162 38.9517 42.9897L61.5073 55.8237L61.7456 55.9751C62.2807 56.3538 62.666 56.9023 62.8423 57.5454C63.0184 58.1884 62.9653 58.8572 62.6978 59.4556L62.5698 59.7075C62.0475 60.6271 61.0851 61.1433 60.0962 61.145V61.146H60.0913V61.145C59.6188 61.1442 59.1361 61.025 58.6919 60.7759L58.6909 60.7749L36.1353 47.9419C35.4763 47.5661 35.0017 46.9551 34.8003 46.2202C34.5988 45.4851 34.697 44.716 35.0728 44.0571ZM37.5513 44.4673C37.1998 44.4673 36.8637 44.648 36.6802 44.9702C36.5497 45.2052 36.5152 45.4734 36.5864 45.7271C36.6586 45.984 36.8244 46.199 37.0522 46.3286L59.606 59.1616H59.6069C59.8423 59.2929 60.1115 59.3277 60.3657 59.2563C60.6223 59.1843 60.8367 59.0188 60.9663 58.7866C61.0976 58.5513 61.1324 58.2821 61.061 58.0278C60.989 57.7711 60.8238 57.5559 60.5913 57.4263H60.5903L38.0396 44.5923C37.9072 44.5166 37.7685 44.4781 37.6255 44.4673H37.5513Z" fill="#3E3A39" stroke="#3E3A39" stroke-width="0.3"/>
<path d="M43.7499 52.45C45.1811 52.0578 46.6876 52.2432 47.9764 52.9803L48.2216 53.1277C50.7002 54.7093 51.5295 57.99 50.0604 60.574C49.3696 61.7868 48.2774 62.6791 46.9637 63.1092L46.6981 63.1893C46.2127 63.3212 45.7159 63.389 45.2186 63.3895V63.3904H45.2137V63.3895C44.2602 63.3886 43.3228 63.1401 42.4716 62.659C39.8037 61.1421 38.8709 57.7317 40.3876 55.0643C41.1245 53.7708 42.3181 52.8424 43.7499 52.45ZM45.2343 54.1014C43.939 54.1014 42.6793 54.7766 41.995 55.9813C40.9832 57.7618 41.6084 60.0388 43.3885 61.0506C45.1693 62.0625 47.4459 61.4425 48.4628 59.657C49.4745 57.8765 48.85 55.5997 47.0692 54.5828V54.5818C46.5338 54.2801 45.9566 54.1243 45.3807 54.1014H45.2343Z" fill="#3E3A39" stroke="#3E3A39" stroke-width="0.3"/>
<path d="M41.7906 49.3545C42.2408 49.2242 42.723 49.4521 42.902 49.8965C43.0928 50.3706 42.8645 50.9067 42.3903 51.0977C40.8579 51.7147 39.6153 52.7969 38.8014 54.2275C36.8249 57.7005 38.0432 62.1287 41.5162 64.1055C44.9893 66.0821 49.4184 64.8638 51.3951 61.3906C52.2089 59.96 52.5072 58.3381 52.2545 56.7051L52.2438 56.6113C52.2174 56.143 52.55 55.7202 53.025 55.6504C53.5229 55.5766 53.9976 55.915 54.0778 56.4209L54.1295 56.8057C54.3485 58.726 53.9618 60.6214 53.0026 62.3037L53.0016 62.3027C51.3385 65.2274 48.2883 66.8712 45.1471 66.8926L45.1422 66.8994H45.0797C43.5581 66.8994 42.0155 66.5164 40.5992 65.7139C36.2445 63.2322 34.7121 57.6706 37.194 53.3154C38.217 51.5159 39.7755 50.1559 41.7008 49.3848L41.7906 49.3545Z" fill="#3E3A39" stroke="#3E3A39" stroke-width="0.3"/>
<path d="M29.9026 6.45392C35.9634 6.17762 41.7449 8.23966 46.2435 12.3055C50.892 16.5022 53.5571 22.2582 53.7493 28.5067L53.7474 28.6014C53.7166 29.0699 53.3346 29.4443 52.8568 29.4617L52.8558 29.4608C52.3459 29.4894 51.9195 29.0751 51.9066 28.5682L51.8831 28.0311C51.587 22.6739 49.3046 17.7448 45.4056 14.0447L45.0101 13.6785C40.742 9.82555 35.2194 7.92486 29.4495 8.33478C18.9318 9.07727 10.0366 18.8189 10.0364 29.6053V43.7449C10.0365 54.5516 18.9621 64.2877 29.5159 65.0047C31.9345 65.1687 34.3218 64.928 36.6165 64.2879L36.7083 64.2664C37.1376 64.1885 37.5635 64.4317 37.7259 64.8377L37.7571 64.9276V64.9295C37.8924 65.4217 37.6091 65.9269 37.1175 66.0682H37.1165C35.1218 66.624 33.0646 66.9041 30.9818 66.9041H30.9466L30.9349 66.8983C30.4169 66.8973 29.8992 66.8778 29.3831 66.8475H29.3821C17.8866 66.0679 8.18316 55.4888 8.18292 43.7401V29.6004C8.18294 17.8827 17.8552 7.29786 29.3148 6.48712L29.9026 6.45392Z" fill="#3E3A39" stroke="#3E3A39" stroke-width="0.3"/>
</svg>
