<svg width="16" height="16" viewBox="0 0 16 16" fill="none" xmlns="http://www.w3.org/2000/svg">
<path d="M8.03027 1.73389C10.2563 1.73389 12.2127 2.88289 13.333 4.61768V2.6665C13.3332 2.37224 13.572 2.13355 13.8662 2.1333C14.1607 2.1333 14.4002 2.37209 14.4004 2.6665V6.00049C14.4002 6.29488 14.1606 6.53369 13.8662 6.53369H10.5332C10.2388 6.53362 10.0002 6.29483 10 6.00049C10 5.70598 10.2387 5.46736 10.5332 5.46729H12.5986C11.7038 3.87683 9.99456 2.80029 8.03027 2.80029C5.13796 2.80049 2.79883 5.13154 2.79883 8.00049C2.79906 10.8692 5.1381 13.1995 8.03027 13.1997C10.6549 13.1997 12.8258 11.2799 13.2041 8.78076C13.2482 8.48954 13.5203 8.28849 13.8115 8.33252C14.1028 8.37658 14.3028 8.6487 14.2588 8.93994C13.8022 11.9574 11.186 14.2671 8.03027 14.2671C4.55463 14.2669 1.73167 11.4639 1.73145 8.00049C1.73145 4.53681 4.55449 1.73408 8.03027 1.73389Z" fill="#33363D"/>
</svg>
