<svg width="73" height="72" viewBox="0 0 73 72" fill="none" xmlns="http://www.w3.org/2000/svg">
<path d="M50.1207 16.1988H22.5559V21.4415H50.1207V16.1988Z" fill="#C9CACA"/>
<path d="M60.04 17.2985H12.6265C10.2622 17.2985 8.33325 15.2154 8.33325 12.6493C8.33325 10.0832 10.2569 8.00006 12.6265 8.00006H60.04C62.4043 8.00006 64.3333 10.0832 64.3333 12.6493C64.3333 15.2154 62.4096 17.2985 60.04 17.2985ZM12.6319 10.9095C11.7453 10.9095 11.0252 11.6892 11.0252 12.6493C11.0252 13.6094 11.7453 14.3891 12.6319 14.3891H60.0454C60.932 14.3891 61.652 13.6094 61.652 12.6493C61.652 11.6892 60.932 10.9095 60.0454 10.9095H12.6319Z" fill="#3E3A39"/>
<path d="M60.04 64H12.6265C10.2622 64 8.33325 61.9169 8.33325 59.3508C8.33325 56.7847 10.2569 54.7015 12.6265 54.7015H60.04C62.4043 54.7015 64.3333 56.7847 64.3333 59.3508C64.3333 61.9169 62.4096 64 60.04 64ZM12.6319 57.6168C11.7453 57.6168 11.0252 58.3965 11.0252 59.3566C11.0252 60.3167 11.7453 61.0964 12.6319 61.0964H60.0454C60.932 61.0964 61.652 60.3167 61.652 59.3566C61.652 58.3965 60.932 57.6168 60.0454 57.6168H12.6319Z" fill="#3E3A39"/>
<path d="M50.3038 56.8197C49.5623 56.8197 48.9605 56.168 48.9605 55.365V46.3168C48.9605 42.4357 47.2518 38.8862 44.6082 37.2744C44.1837 37.0184 43.9258 36.5296 43.9258 36.0059C43.9258 35.4822 44.1891 34.9934 44.6082 34.7374C47.2518 33.1256 48.9605 29.5761 48.9605 25.695V16.6468C48.9605 15.8438 49.5623 15.1921 50.3038 15.1921C51.0453 15.1921 51.6471 15.8438 51.6471 16.6468V25.695C51.6471 29.7798 50.0943 33.6144 47.5742 36.0059C50.0943 38.3974 51.6471 42.2262 51.6471 46.3168V55.365C51.6471 56.168 51.0453 56.8197 50.3038 56.8197Z" fill="#3E3A39"/>
<path d="M22.368 56.8197C21.6265 56.8197 21.0247 56.168 21.0247 55.365V46.3168C21.0247 42.232 22.5775 38.3974 25.0976 36.0059C22.5775 33.6144 21.0247 29.7798 21.0247 25.695V16.6468C21.0247 15.8438 21.6265 15.1921 22.368 15.1921C23.1095 15.1921 23.7113 15.8438 23.7113 16.6468V25.695C23.7113 29.5761 25.42 33.1256 28.0636 34.7374C28.4881 34.9934 28.746 35.4822 28.746 36.0059C28.746 36.5296 28.4827 37.0184 28.0636 37.2744C25.42 38.8862 23.7113 42.4357 23.7113 46.3168V55.365C23.7113 56.168 23.1095 56.8197 22.368 56.8197Z" fill="#3E3A39"/>
<path d="M15.2918 57.1805C14.5503 57.1805 13.9485 56.5288 13.9485 55.7258V16.6002C13.9485 15.7972 14.5503 15.1455 15.2918 15.1455C16.0333 15.1455 16.6351 15.7972 16.6351 16.6002V55.7258C16.6351 56.5288 16.0333 57.1805 15.2918 57.1805Z" fill="#3E3A39"/>
<path d="M57.3804 57.1805C56.6389 57.1805 56.0371 56.5288 56.0371 55.7258V16.6002C56.0371 15.7972 56.6389 15.1455 57.3804 15.1455C58.1219 15.1455 58.7237 15.7972 58.7237 16.6002V55.7258C58.7237 56.5288 58.1219 57.1805 57.3804 57.1805Z" fill="#3E3A39"/>
<path d="M38.6763 33.9053C38.6763 32.5786 37.6823 31.5021 36.4572 31.5021C35.2321 31.5021 34.238 32.5786 34.238 33.9053C34.238 35.232 35.2321 36.3085 36.4572 36.3085C37.6823 36.3085 38.6763 35.232 38.6763 33.9053Z" fill="#FFDD33"/>
<path d="M36.4621 37.7632C34.5009 37.7632 32.8997 36.035 32.8997 33.9053C32.8997 31.7757 34.4955 30.0475 36.4621 30.0475C38.4287 30.0475 40.0246 31.7757 40.0246 33.9053C40.0246 36.035 38.4287 37.7632 36.4621 37.7632ZM36.4621 32.9627C35.9785 32.9627 35.5863 33.3875 35.5863 33.9112C35.5863 34.4349 35.9785 34.8596 36.4621 34.8596C36.9457 34.8596 37.338 34.4349 37.338 33.9112C37.338 33.3875 36.9457 32.9627 36.4621 32.9627Z" fill="#3E3A39"/>
<path d="M38.6603 42.3599C38.5797 41.1147 37.6286 40.1313 36.4572 40.1313C35.2859 40.1313 34.3778 41.0798 34.2649 42.2901C30.3425 43.3025 27.4194 47.1139 27.4194 51.67H45.2479C45.2479 47.2128 42.4538 43.4713 38.6603 42.3599Z" fill="#B1CAE7"/>
<path d="M45.2474 53.1248H27.419C26.6775 53.1248 26.0757 52.4731 26.0757 51.6701C26.0757 46.8114 28.9504 42.5927 33.1576 41.1148C33.6788 39.6717 34.9684 38.6767 36.4622 38.6767C37.9559 38.6767 39.3046 39.7357 39.799 41.2253C43.8396 42.7906 46.5907 46.9685 46.5907 51.6701C46.5907 52.4731 45.9889 53.1248 45.2474 53.1248ZM28.8859 50.2154H43.7859C43.2701 47.1489 41.1638 44.6002 38.3106 43.7623C37.7571 43.5994 37.3595 43.0815 37.3219 42.4647C37.2896 41.9701 36.9081 41.5861 36.4622 41.5861C36.0162 41.5861 35.6508 41.9527 35.6025 42.4357C35.5433 43.0524 35.135 43.5587 34.5762 43.7041C31.5994 44.4722 29.4017 47.05 28.8805 50.2154H28.8859Z" fill="#3E3A39"/>
</svg>
