<svg width="41" height="40" viewBox="0 0 41 40" fill="none" xmlns="http://www.w3.org/2000/svg">
<path d="M3.83337 20C3.83337 29.2048 11.2953 36.6667 20.5 36.6667C29.7048 36.6667 37.1667 29.2048 37.1667 20C37.1667 10.7953 29.7048 3.33335 20.5 3.33335C11.2953 3.33335 3.83337 10.7953 3.83337 20Z" fill="#DF6871"/>
<path d="M24.5587 14.0577C25.0794 13.5371 25.9238 13.5371 26.4445 14.0577C26.9648 14.5784 26.965 15.4229 26.4445 15.9435L22.3859 20.0021L26.4415 24.0577C26.9621 24.5784 26.9622 25.4228 26.4415 25.9435C25.9209 26.464 25.0765 26.464 24.5558 25.9435L20.5001 21.8878L16.4445 25.9435C15.9239 26.4641 15.0794 26.4639 14.5587 25.9435C14.038 25.4228 14.038 24.5784 14.5587 24.0577L18.6144 20.0021L14.5558 15.9435C14.0351 15.4228 14.0352 14.5784 14.5558 14.0577C15.0765 13.537 15.9208 13.537 16.4415 14.0577L20.5001 18.1163L24.5587 14.0577Z" fill="white"/>
</svg>
