<svg width="20" height="20" viewBox="0 0 20 20" fill="none" xmlns="http://www.w3.org/2000/svg">
<path d="M14.333 1.66699C14.7009 1.66717 14.9988 1.96508 14.999 2.33301V5.83301H16.8359C17.6643 5.83301 18.3358 6.50473 18.3359 7.33301V15.167C18.3358 15.5351 18.0371 15.833 17.6689 15.833H14.999V17.667C14.9989 18.035 14.701 18.3328 14.333 18.333H5.83301C5.46487 18.333 5.1661 18.0351 5.16602 17.667V15.833H2.33301C2.15628 15.8329 1.98726 15.7627 1.8623 15.6377C1.73737 15.5127 1.66704 15.3437 1.66699 15.167L1.66895 7.33301C1.66919 6.50478 2.34073 5.83305 3.16895 5.83301H5V2.33301C5.00018 1.96497 5.29891 1.66699 5.66699 1.66699H14.333ZM6.49902 17H13.666V12.334H6.49902V17ZM3.16895 7.16699C3.07704 7.16703 3.00213 7.24113 3.00195 7.33301L3 14.5H5.16602V11.667C5.16602 11.2988 5.46482 11 5.83301 11H14.333C14.5096 11.0001 14.6788 11.0705 14.8037 11.1953C14.9287 11.3203 14.999 11.4902 14.999 11.667V14.5H17.0029V7.33301C17.0028 7.24111 16.9279 7.16699 16.8359 7.16699H3.16895ZM6.33301 5.83301H13.666V3H6.33301V5.83301Z" fill="#256EF4"/>
</svg>
