<svg width="20" height="20" viewBox="0 0 20 20" fill="none" xmlns="http://www.w3.org/2000/svg">
<path d="M2.314 16.4859L2.81983 13.0175C2.85066 12.7909 2.954 12.58 3.11566 12.4175L12.9165 2.60335C13.0434 2.47465 13.2013 2.38087 13.375 2.33109C13.5488 2.28131 13.7324 2.27721 13.9082 2.31919C14.8079 2.5679 15.6235 3.05574 16.2682 3.73085C16.9414 4.37998 17.4259 5.19967 17.6698 6.10252C17.7118 6.27829 17.7077 6.46193 17.6579 6.63565C17.6081 6.80938 17.5144 6.96732 17.3857 7.09418L7.574 16.8959C7.41126 17.0571 7.20026 17.1607 6.97316 17.1909L3.50566 17.6967C3.34187 17.7206 3.17474 17.7055 3.01785 17.6528C2.86096 17.6 2.7187 17.511 2.60264 17.393C2.48657 17.275 2.39994 17.1312 2.3498 16.9735C2.29965 16.8157 2.28738 16.6484 2.314 16.485M11.0623 4.47002L15.5315 8.93919" stroke="#30619B" stroke-width="1.5" stroke-linecap="round" stroke-linejoin="round"/>
</svg>
