<svg width="20" height="20" viewBox="0 0 20 20" fill="none" xmlns="http://www.w3.org/2000/svg">
<path d="M15.5254 3.5293C15.7857 3.26918 16.2075 3.26919 16.4678 3.5293C16.7281 3.78964 16.7281 4.2123 16.4678 4.47266L10.9404 9.99902L16.4717 15.5303C16.7316 15.7905 16.7316 16.2124 16.4717 16.4727C16.2113 16.733 15.7887 16.733 15.5283 16.4727L9.99805 10.9424L4.46777 16.4727C4.20743 16.733 3.78575 16.733 3.52539 16.4727C3.26511 16.2123 3.26507 15.7906 3.52539 15.5303L9.05469 9.99902L3.52832 4.47266C3.26798 4.2123 3.26798 3.78964 3.52832 3.5293C3.78868 3.26896 4.21134 3.26894 4.47168 3.5293L9.99805 9.05566L15.5254 3.5293Z" fill="#33363D"/>
</svg>
