<svg width="73" height="72" viewBox="0 0 73 72" fill="none" xmlns="http://www.w3.org/2000/svg">
<path d="M40.1476 58.0517C31.7392 58.0517 23.8346 54.7584 17.8865 48.771C11.9384 42.7837 8.66663 34.827 8.66663 26.363C8.66663 17.8991 11.9384 9.94229 17.8865 3.95495C18.5277 3.30945 19.5616 3.30945 20.2029 3.95495C20.8442 4.60045 20.8442 5.64114 20.2029 6.28664C14.8765 11.6482 11.9384 18.7817 11.9384 26.3696C11.9384 33.9575 14.8699 41.0843 20.2029 46.4525C25.5294 51.8141 32.616 54.7716 40.1542 54.7716C47.6924 54.7716 54.7725 51.8141 60.1055 46.4525C60.7467 45.807 61.7806 45.807 62.4219 46.4525C63.0632 47.098 63.0632 48.1387 62.4219 48.7842C56.4738 54.7716 48.5692 58.0649 40.1607 58.0649L40.1476 58.0517Z" fill="#3E3A39"/>
<path d="M40.1477 49.3967C52.7855 49.3967 63.0305 39.0842 63.0305 26.363C63.0305 13.6418 52.7855 3.32916 40.1477 3.32916C27.5098 3.32916 17.2649 13.6418 17.2649 26.363C17.2649 39.0842 27.5098 49.3967 40.1477 49.3967Z" fill="#B1CAE7"/>
<path d="M40.1478 51.0435C26.6288 51.0435 15.6292 39.9712 15.6292 26.363C15.6292 12.7549 26.6288 1.68256 40.1478 1.68256C53.6668 1.68256 64.6665 12.7549 64.6665 26.363C64.6665 39.9712 53.6668 51.0435 40.1478 51.0435ZM40.1478 4.97592C28.4349 4.97592 18.9009 14.5728 18.9009 26.363C18.9009 38.1533 28.4349 47.7501 40.1478 47.7501C51.8608 47.7501 61.3947 38.1533 61.3947 26.363C61.3947 14.5728 51.8608 4.97592 40.1478 4.97592Z" fill="#3E3A39"/>
<path d="M40.154 37.6857C29.9919 37.6857 20.5888 33.6941 15.9429 27.3379C15.5176 26.7583 15.5176 25.9679 15.9429 25.3883C20.6019 19.0057 29.8807 15.0339 40.1475 15.0339C50.4143 15.0339 59.6865 18.9992 64.3455 25.3817C64.7708 25.9613 64.7708 26.7517 64.3455 27.3313C59.9286 33.378 51.1537 37.3366 41.4496 37.6593C41.0178 37.6725 40.5794 37.6791 40.1475 37.6791L40.154 37.6857ZM19.3586 26.3631C23.8344 31.56 32.2952 34.6755 41.345 34.3726C49.5179 34.0959 56.8859 31.0594 60.9364 26.3565C56.6896 21.4428 48.6999 18.3207 40.1475 18.3207C31.5951 18.3207 23.6054 21.4428 19.3586 26.3565V26.3631Z" fill="#3E3A39"/>
<path d="M40.1477 51.0433C39.8074 51.0433 39.4671 50.938 39.1792 50.7206C33.1722 46.2746 29.2396 37.4418 28.9189 27.6736C28.5656 16.9504 32.5964 6.86618 39.1792 1.99859C39.7551 1.57046 40.5403 1.57046 41.1161 1.99859C47.4568 6.68834 51.4026 16.0283 51.4026 26.3629C51.4026 36.6975 47.4633 46.0308 41.1226 50.7206C40.8347 50.9314 40.4945 51.0433 40.1542 51.0433H40.1477ZM40.1477 5.43685C34.9848 9.94217 31.8897 18.4522 32.1907 27.5682C32.4655 35.7951 35.4821 43.2117 40.1542 47.2889C45.0357 43.0075 48.1373 34.9717 48.1373 26.3629C48.1373 17.754 45.0357 9.71163 40.1542 5.43685H40.1477Z" fill="#3E3A39"/>
<path d="M36.6663 63.4529C35.7633 63.4529 35.0304 62.7152 35.0304 61.8062V56.8003C35.0304 55.8913 35.7633 55.1536 36.6663 55.1536C37.5693 55.1536 38.3022 55.8913 38.3022 56.8003V61.8062C38.3022 62.7152 37.5693 63.4529 36.6663 63.4529Z" fill="#3E3A39"/>
<path d="M52.0238 70.3227H21.315C20.412 70.3227 19.6791 69.585 19.6791 68.676V66.5221C19.6791 63.5647 22.0674 61.1605 25.0055 61.1605H48.3333C51.2713 61.1605 53.6597 63.5647 53.6597 66.5221V68.676C53.6597 69.585 52.9268 70.3227 52.0238 70.3227ZM22.9443 67.0293H50.3814V66.5221C50.3814 65.3826 49.4587 64.4539 48.3267 64.4539H24.999C23.867 64.4539 22.9443 65.3826 22.9443 66.5221V67.0293Z" fill="#3E3A39"/>
</svg>
