<svg width="120" height="120" viewBox="0 0 120 120" fill="none" xmlns="http://www.w3.org/2000/svg">
<g clip-path="url(#clip0_13963_113797)">
<rect width="120" height="120" fill="white"/>
<path d="M24 12H12V24H24V12Z" fill="black"/>
<path d="M84 0V6H78V12H84V36H90V42H84V48H96V36H114V42H120V0H84ZM114 30H90V6H114V30Z" fill="black"/>
<path d="M108 12H96V24H108V12Z" fill="black"/>
<path d="M24 96H12V108H24V96Z" fill="black"/>
<path d="M90 84H84V90H90V84Z" fill="black"/>
<path d="M60 114H54V120H60V114Z" fill="black"/>
<path d="M66 90H60V96H66V90Z" fill="black"/>
<path d="M66 102H60V108H66V102Z" fill="black"/>
<path d="M120 72H114V78H120V72Z" fill="black"/>
<path d="M6 72H0V78H6V72Z" fill="black"/>
<path d="M6 42H0V48H6V42Z" fill="black"/>
<path d="M66 6V12H54V18H72V12V6H66Z" fill="black"/>
<path d="M114 48V54H102V60H84V54H78V60H66V66H84V72H66V66H60V72H54V66H48V72H42V78H54V84H60V78H72V84H66V90H72V102H78V108H84V102H102V90H108V84H102V72H90V66H102V72H108V66H114V60H120V48H114ZM96 78V96H78V78H96Z" fill="black"/>
<path d="M78 36H72V42H66V48V54H72V48H78V42H84V36H78Z" fill="black"/>
<path d="M78 114H66V120H78V114Z" fill="black"/>
<path d="M54 6H48V12H54V6Z" fill="black"/>
<path d="M102 48H96V54H102V48Z" fill="black"/>
<path d="M108 42H102V48H108V42Z" fill="black"/>
<path d="M30 72H24V78H30V72Z" fill="black"/>
<path d="M36 114V90H42V78H36V84H18V78H6V84H0V120H48V114H36ZM30 114H6V90H30V114Z" fill="black"/>
<path d="M42 36H36V42H42V36Z" fill="black"/>
<path d="M42 0H0V36H6V42H12V36H18V42H24V36H36V24H42V18H36V6H48V0H42ZM30 30H6V6H30V30Z" fill="black"/>
<path d="M78 18H72V24H78V18Z" fill="black"/>
<path d="M66 0H60V6H66V0Z" fill="black"/>
<path d="M72 36V30H66V24H60V30H48V24H42V36H48V48H30V42H24V48H6V54H18V60H0V66H18V72H24V66H30V72H36V66H48V60H42V54H54V60H66V54H60V48H54V36H72ZM36 60H24V54H36V60Z" fill="black"/>
<path d="M54 96V90V84H48V90H42V96H48V102H42V108H54V102H60V96H54Z" fill="black"/>
<path d="M108 108V102H102V108H84V114H96V120H102V114H114V120H120V114V108H108Z" fill="black"/>
<path d="M114 84V90H108V96H120V90V84H114Z" fill="black"/>
</g>
<defs>
<clipPath id="clip0_13963_113797">
<rect width="120" height="120" fill="white"/>
</clipPath>
</defs>
</svg>
