<svg width="20" height="21" viewBox="0 0 20 21" fill="none" xmlns="http://www.w3.org/2000/svg">
<rect width="16.6667" height="16.6667" rx="8.33333" transform="matrix(1 0 0 -1 1.66699 18.8333)" fill="#323333"/>
<path d="M9.91569 8.36749C10.468 8.36749 10.9157 7.91978 10.9157 7.36749C10.9157 6.81521 10.468 6.36749 9.91569 6.36749C9.36341 6.36749 8.91569 6.81521 8.91569 7.36749C8.91569 7.91978 9.36341 8.36749 9.91569 8.36749Z" fill="white"/>
<path d="M8.69902 9.19261C8.58857 9.19261 8.49902 9.28215 8.49902 9.39261V9.99261C8.49902 10.1031 8.58857 10.1926 8.69902 10.1926H9.21699C9.32745 10.1926 9.41699 10.2821 9.41699 10.3926V13.4948H8.53301C8.42255 13.4948 8.33301 13.5843 8.33301 13.6948V14.2948C8.33301 14.4052 8.42255 14.4948 8.53301 14.4948H11.4663C11.5768 14.4948 11.6663 14.4052 11.6663 14.2948V13.6948C11.6663 13.5843 11.5768 13.4948 11.4663 13.4948H10.917V9.39261C10.917 9.28215 10.8274 9.19261 10.717 9.19261H8.69902Z" fill="white"/>
</svg>
