<svg width="72" height="72" viewBox="0 0 72 72" fill="none" xmlns="http://www.w3.org/2000/svg">
<path d="M62.6669 25.532C62.6669 22.1854 59.9583 19.479 56.6209 19.479H47.4309L42.4758 10.8811H29.5452L24.5902 19.479H15.4001C12.0573 19.479 9.35406 22.1908 9.35406 25.532" fill="#C9CACA"/>
<path d="M62.6672 26.8771C61.9255 26.8771 61.3236 26.2745 61.3236 25.532C61.3236 22.9333 59.2115 20.8242 56.6211 20.8242H47.4311C46.9528 20.8242 46.5067 20.5659 46.2649 20.1516L41.6967 12.2262H30.314L25.7459 20.1516C25.504 20.5659 25.0633 20.8242 24.5797 20.8242H15.3896C12.7939 20.8242 10.6871 22.9387 10.6871 25.532C10.6871 26.2745 10.0852 26.8771 9.34357 26.8771C8.60192 26.8771 8 26.2745 8 25.532C8 21.4537 11.3159 18.1339 15.3896 18.1339H23.8004L28.3685 10.2086C28.6104 9.79427 29.051 9.53601 29.5347 9.53601H42.4653C42.9436 9.53601 43.3897 9.79427 43.6315 10.2086L48.1996 18.1339H56.6104C60.6841 18.1339 64 21.4537 64 25.532C64 26.2745 63.3981 26.8771 62.6564 26.8771H62.6672Z" fill="#3E3A39"/>
<path d="M56.3673 62.4641H15.3519C11.299 62.4641 8 59.1761 8 55.1367V25.3793C8 21.3398 11.299 18.0518 15.3519 18.0518H23.7196L28.2644 10.2021C28.505 9.79181 28.9435 9.53601 29.4247 9.53601H42.2891C42.765 9.53601 43.2088 9.79181 43.4494 10.2021L47.9942 18.0518H56.3619C60.4148 18.0518 63.7138 21.3398 63.7138 25.3793V55.1367C63.7138 59.1761 60.4148 62.4641 56.3619 62.4641H56.3673ZM15.3519 20.711C12.7694 20.711 10.6734 22.8053 10.6734 25.3739V55.1313C10.6734 57.7053 12.7747 59.7943 15.3519 59.7943H56.3673C58.9498 59.7943 61.0457 57.6999 61.0457 55.1313V25.3739C61.0457 22.8 58.9444 20.711 56.3673 20.711H47.2242C46.7484 20.711 46.3046 20.4552 46.064 20.0449L41.5192 12.1952H30.1946L25.6498 20.0449C25.4092 20.4552 24.9708 20.711 24.4896 20.711H15.3465H15.3519Z" fill="#3E3A39"/>
<path d="M46.3112 50.7112C52.001 45.0149 52.001 35.7793 46.3112 30.083C40.6214 24.3866 31.3964 24.3866 25.7066 30.083C20.0168 35.7793 20.0167 45.0149 25.7066 50.7112C31.3964 56.4075 40.6214 56.4075 46.3112 50.7112Z" fill="#B1CAE7"/>
<path d="M36.0109 56.3351C27.2347 56.3351 20.0976 49.1898 20.0976 40.4036C20.0976 31.6173 27.24 24.4721 36.0109 24.4721C44.7817 24.4721 51.9241 31.6227 51.9241 40.4036C51.9241 49.1844 44.7817 56.3351 36.0109 56.3351ZM36.0109 27.157C28.718 27.157 22.7847 33.097 22.7847 40.3982C22.7847 47.6995 28.718 53.6395 36.0109 53.6395C43.3038 53.6395 49.237 47.6995 49.237 40.3982C49.237 33.097 43.3038 27.157 36.0109 27.157Z" fill="#3E3A39"/>
<path d="M42.8376 47.2338C46.6091 43.458 46.6091 37.3362 42.8376 33.5603C39.0661 29.7845 32.9512 29.7845 29.1797 33.5603C25.4082 37.3362 25.4082 43.458 29.1797 47.2339C32.9512 51.0097 39.0661 51.0097 42.8376 47.2338Z" fill="#B1CAE7"/>
<path d="M36.0112 51.4173C29.9436 51.4173 25.01 46.4781 25.01 40.4036C25.01 34.3291 29.9436 29.3898 36.0112 29.3898C42.0787 29.3898 47.0123 34.3291 47.0123 40.4036C47.0123 46.4781 42.0787 51.4173 36.0112 51.4173ZM36.0112 32.0747C31.4269 32.0747 27.6972 35.8087 27.6972 40.3982C27.6972 44.9877 31.4269 48.7217 36.0112 48.7217C40.5954 48.7217 44.3252 44.9877 44.3252 40.3982C44.3252 35.8087 40.5954 32.0747 36.0112 32.0747Z" fill="#3E3A39"/>
<path d="M38.9829 18.403H33.0389C32.2973 18.403 31.6954 17.8004 31.6954 17.0579C31.6954 16.3154 32.2973 15.7128 33.0389 15.7128H38.9829C39.7245 15.7128 40.3265 16.3154 40.3265 17.0579C40.3265 17.8004 39.7245 18.403 38.9829 18.403Z" fill="#3E3A39"/>
<path d="M18.8991 26.5813C18.8991 25.5321 18.05 24.6766 16.9966 24.6766C15.9432 24.6766 15.0941 25.5267 15.0941 26.5813C15.0941 27.6358 15.9432 28.4859 16.9966 28.4859C18.05 28.4859 18.8991 27.6358 18.8991 26.5813Z" fill="#B1CAE7"/>
<path d="M16.9963 29.8311C15.2067 29.8311 13.7502 28.373 13.7502 26.5813C13.7502 24.7896 15.2067 23.3315 16.9963 23.3315C18.7859 23.3315 20.2424 24.7896 20.2424 26.5813C20.2424 28.373 18.7859 29.8311 16.9963 29.8311ZM16.9963 26.0217C16.69 26.0217 16.4374 26.2746 16.4374 26.5813C16.4374 26.888 16.69 27.1408 16.9963 27.1408C17.3026 27.1408 17.5552 26.888 17.5552 26.5813C17.5552 26.2746 17.3026 26.0217 16.9963 26.0217Z" fill="#3E3A39"/>
<path d="M30.7871 41.7433C30.0455 41.7433 29.4435 41.1407 29.4435 40.3982C29.4435 36.7772 32.3887 33.8287 36.0056 33.8287C36.7472 33.8287 37.3491 34.4313 37.3491 35.1738C37.3491 35.9163 36.7472 36.5189 36.0056 36.5189C33.8666 36.5189 32.1307 38.2622 32.1307 40.3982C32.1307 41.1407 31.5288 41.7433 30.7871 41.7433Z" fill="#3E3A39"/>
</svg>
