<svg width="73" height="73" viewBox="0 0 73 73" fill="none" xmlns="http://www.w3.org/2000/svg">
<path d="M36.664 53.7536C27.0718 53.7536 19.2637 45.9366 19.2637 36.3334C19.2637 26.7302 27.0718 18.9132 36.664 18.9132C46.2562 18.9132 54.0643 26.7302 54.0643 36.3334C54.0643 45.9366 46.2562 53.7536 36.664 53.7536ZM36.664 21.6032C28.5496 21.6032 21.9506 28.2097 21.9506 36.3334C21.9506 44.4571 28.5496 51.0637 36.664 51.0637C44.7784 51.0637 51.3774 44.4571 51.3774 36.3334C51.3774 28.2097 44.7784 21.6032 36.664 21.6032Z" fill="#3E3A39"/>
<path d="M37.8859 37.2381C40.804 36.5518 42.6139 33.6271 41.9284 30.7057C41.2429 27.7842 38.3216 25.9723 35.4035 26.6586C32.4854 27.3449 30.6755 30.2695 31.361 33.191C32.0465 36.1124 34.9678 37.9244 37.8859 37.2381Z" fill="#B1CAE7"/>
<path d="M36.6643 38.6898C32.9295 38.6898 29.8933 35.6501 29.8933 31.911C29.8933 28.172 32.9295 25.1323 36.6643 25.1323C40.399 25.1323 43.4352 28.172 43.4352 31.911C43.4352 35.6501 40.399 38.6898 36.6643 38.6898ZM36.6643 27.8223C34.4126 27.8223 32.5802 29.6568 32.5802 31.911C32.5802 34.1652 34.4126 35.9998 36.6643 35.9998C38.9159 35.9998 40.7483 34.1652 40.7483 31.911C40.7483 29.6568 38.9159 27.8223 36.6643 27.8223Z" fill="#3E3A39"/>
<path d="M36.6646 52.4086C41.2753 52.4086 45.4292 50.4611 48.3579 47.3461C46.1225 43.1713 41.7267 40.3361 36.6646 40.3361C31.6025 40.3361 27.2067 43.1766 24.9713 47.3461C27.9 50.4611 32.0539 52.4086 36.6646 52.4086Z" fill="#B1CAE7"/>
<path d="M36.6641 53.7536C31.817 53.7536 27.3191 51.806 23.9928 48.266C23.5951 47.8464 23.5145 47.2169 23.7886 46.7058C26.3411 41.9446 31.2742 38.9857 36.6641 38.9857C42.054 38.9857 46.9925 41.9446 49.5397 46.7058C49.8138 47.2169 49.7278 47.841 49.3355 48.266C46.0091 51.806 41.5113 53.7536 36.6641 53.7536ZM26.6582 47.1309C29.388 49.6756 32.9025 51.069 36.6641 51.069C40.4258 51.069 43.9456 49.681 46.6701 47.1309C44.483 43.7469 40.7321 41.681 36.6641 41.681C32.5962 41.681 28.8453 43.7469 26.6582 47.1309Z" fill="#3E3A39"/>
<path d="M36.6641 21.4417C35.9225 21.4417 35.3207 20.8391 35.3207 20.0967V16.6696C35.3207 15.9272 35.9225 15.3246 36.6641 15.3246C37.4057 15.3246 38.0076 15.9272 38.0076 16.6696V20.0967C38.0076 20.8391 37.4057 21.4417 36.6641 21.4417Z" fill="#3E3A39"/>
<path d="M36.6641 57.3474C35.9225 57.3474 35.3207 56.7448 35.3207 56.0024V52.5754C35.3207 51.833 35.9225 51.2304 36.6641 51.2304C37.4057 51.2304 38.0076 51.833 38.0076 52.5754V56.0024C38.0076 56.7448 37.4057 57.3474 36.6641 57.3474Z" fill="#3E3A39"/>
<path d="M40.2539 13.2373C40.2539 11.2521 38.6471 9.64349 36.6642 9.64349C34.6813 9.64349 33.0745 11.2521 33.0745 13.2373C33.0745 15.2225 34.6813 16.8311 36.6642 16.8311C38.6471 16.8311 40.2539 15.2225 40.2539 13.2373Z" fill="#C9CACA"/>
<path d="M36.664 18.1761C33.9448 18.1761 31.7362 15.9596 31.7362 13.2373C31.7362 10.5151 33.9502 8.29852 36.664 8.29852C39.3777 8.29852 41.5971 10.5151 41.5971 13.2373C41.5971 15.9596 39.3831 18.1761 36.664 18.1761ZM36.664 10.9939C35.428 10.9939 34.4231 11.9999 34.4231 13.2427C34.4231 14.4854 35.428 15.4915 36.664 15.4915C37.8999 15.4915 38.9102 14.4854 38.9102 13.2427C38.9102 11.9999 37.9053 10.9939 36.664 10.9939Z" fill="#3E3A39"/>
<path d="M40.2539 59.4294C40.2539 57.4442 38.6471 55.8356 36.6642 55.8356C34.6813 55.8356 33.0745 57.4442 33.0745 59.4294C33.0745 61.4146 34.6813 63.0232 36.6642 63.0232C38.6471 63.0232 40.2539 61.4146 40.2539 59.4294Z" fill="#C9CACA"/>
<path d="M36.664 64.3682C33.9448 64.3682 31.7362 62.1517 31.7362 59.4294C31.7362 56.7072 33.9502 54.4907 36.664 54.4907C39.3777 54.4907 41.5971 56.7072 41.5971 59.4294C41.5971 62.1517 39.3831 64.3682 36.664 64.3682ZM36.664 57.186C35.428 57.186 34.4231 58.1921 34.4231 59.4348C34.4231 60.6776 35.428 61.6836 36.664 61.6836C37.8999 61.6836 38.9102 60.6776 38.9102 59.4348C38.9102 58.1921 37.9053 57.186 36.664 57.186Z" fill="#3E3A39"/>
<path d="M20.4457 37.6784H17.0226C16.2811 37.6784 15.6792 37.0758 15.6792 36.3334C15.6792 35.591 16.2811 34.9884 17.0226 34.9884H20.4457C21.1873 34.9884 21.7892 35.591 21.7892 36.3334C21.7892 37.0758 21.1873 37.6784 20.4457 37.6784Z" fill="#3E3A39"/>
<path d="M56.3108 37.6784H52.8878C52.1462 37.6784 51.5443 37.0758 51.5443 36.3334C51.5443 35.591 52.1462 34.9884 52.8878 34.9884H56.3108C57.0524 34.9884 57.6543 35.591 57.6543 36.3334C57.6543 37.0758 57.0524 37.6784 56.3108 37.6784Z" fill="#3E3A39"/>
<path d="M13.5947 32.745C11.6118 32.745 10.005 34.3536 10.005 36.3388C10.005 38.324 11.6118 39.9326 13.5947 39.9326C15.5776 39.9326 17.1844 38.324 17.1844 36.3388C17.1844 34.3536 15.5776 32.745 13.5947 32.745Z" fill="#C9CACA"/>
<path d="M13.5944 41.2721C10.8753 41.2721 8.66669 39.0556 8.66669 36.3334C8.66669 33.6111 10.8807 31.3946 13.5944 31.3946C16.3082 31.3946 18.5276 33.6111 18.5276 36.3334C18.5276 39.0556 16.3136 41.2721 13.5944 41.2721ZM13.5944 34.0899C12.3585 34.0899 11.3536 35.096 11.3536 36.3387C11.3536 37.5815 12.3585 38.5876 13.5944 38.5876C14.8304 38.5876 15.8407 37.5815 15.8407 36.3387C15.8407 35.096 14.8358 34.0899 13.5944 34.0899Z" fill="#3E3A39"/>
<path d="M59.7338 32.745C57.7509 32.745 56.1441 34.3536 56.1441 36.3388C56.1441 38.324 57.7509 39.9326 59.7338 39.9326C61.7167 39.9326 63.3235 38.324 63.3235 36.3388C63.3235 34.3536 61.7167 32.745 59.7338 32.745Z" fill="#C9CACA"/>
<path d="M59.7335 41.2721C57.0144 41.2721 54.8058 39.0556 54.8058 36.3334C54.8058 33.6111 57.0198 31.3946 59.7335 31.3946C62.4473 31.3946 64.6667 33.6111 64.6667 36.3334C64.6667 39.0556 62.4527 41.2721 59.7335 41.2721ZM59.7335 34.0899C58.4976 34.0899 57.4927 35.096 57.4927 36.3387C57.4927 37.5815 58.4976 38.5876 59.7335 38.5876C60.9695 38.5876 61.9798 37.5815 61.9798 36.3387C61.9798 35.096 60.9749 34.0899 59.7335 34.0899Z" fill="#3E3A39"/>
<path d="M48.1316 26.1976C47.7877 26.1976 47.4437 26.0685 47.1804 25.8049C46.6538 25.2776 46.6538 24.4276 47.1804 23.9004L49.604 21.474C50.1306 20.9468 50.9797 20.9468 51.5063 21.474C52.0329 22.0013 52.0329 22.8513 51.5063 23.3785L49.0828 25.8049C48.8195 26.0685 48.4755 26.1976 48.1316 26.1976Z" fill="#3E3A39"/>
<path d="M22.773 51.5855C22.4291 51.5855 22.0852 51.4564 21.8219 51.1928C21.2952 50.6656 21.2952 49.8155 21.8219 49.2883L24.2454 46.862C24.7721 46.3347 25.6211 46.3347 26.1477 46.862C26.6744 47.3892 26.6744 48.2392 26.1477 48.7665L23.7242 51.1928C23.4609 51.4564 23.1169 51.5855 22.773 51.5855Z" fill="#3E3A39"/>
<path d="M52.979 23.5991C54.9615 23.5991 56.5687 21.9901 56.5687 20.0053C56.5687 18.0205 54.9615 16.4115 52.979 16.4115C50.9965 16.4115 49.3893 18.0205 49.3893 20.0053C49.3893 21.9901 50.9965 23.5991 52.979 23.5991Z" fill="#C9CACA"/>
<path d="M52.9794 24.9387C51.6628 24.9387 50.4214 24.4276 49.4918 23.4915C48.5621 22.5554 48.0462 21.318 48.0462 19.9999C48.0462 18.6818 48.5567 17.4445 49.4918 16.5084C50.4268 15.5723 51.6628 15.0612 52.9794 15.0612C54.2959 15.0612 55.5319 15.5776 56.4669 16.5084C57.402 17.4391 57.9125 18.6818 57.9125 19.9999C57.9125 21.318 57.3966 22.5608 56.4669 23.4915C55.5373 24.4223 54.2959 24.9387 52.9794 24.9387ZM52.9794 17.7565C52.3775 17.7565 51.8186 17.9879 51.3941 18.4129C50.9696 18.8379 50.7385 19.4028 50.7385 19.9999C50.7385 20.5971 50.9696 21.162 51.3941 21.587C51.8186 22.012 52.3829 22.2434 52.9794 22.2434C53.5759 22.2434 54.1401 22.012 54.5646 21.587C54.9891 21.162 55.2202 20.5971 55.2202 19.9999C55.2202 19.4028 54.9891 18.8379 54.5646 18.4129C54.1401 17.9879 53.5759 17.7565 52.9794 17.7565Z" fill="#3E3A39"/>
<path d="M20.3495 56.2606C22.332 56.2606 23.9392 54.6516 23.9392 52.6668C23.9392 50.682 22.332 49.073 20.3495 49.073C18.367 49.073 16.7598 50.682 16.7598 52.6668C16.7598 54.6516 18.367 56.2606 20.3495 56.2606Z" fill="#C9CACA"/>
<path d="M20.3492 57.6056C19.0326 57.6056 17.7967 57.0945 16.8616 56.1584C15.9266 55.2223 15.4161 53.9849 15.4161 52.6669C15.4161 51.3488 15.9266 50.1114 16.8616 49.1753C18.7854 47.2493 21.913 47.2493 23.8368 49.1753C24.7664 50.106 25.2823 51.3488 25.2823 52.6669C25.2823 53.9849 24.7664 55.2223 23.8368 56.1584C22.9071 57.0892 21.6658 57.6056 20.3492 57.6056ZM20.3492 50.4234C19.7742 50.4234 19.1992 50.644 18.7639 51.0798C18.3394 51.5048 18.1083 52.0697 18.1083 52.6669C18.1083 53.264 18.3394 53.8289 18.7639 54.2539C19.1885 54.679 19.7527 54.9103 20.3492 54.9103C20.9457 54.9103 21.5099 54.679 21.9345 54.2539C22.359 53.8289 22.5901 53.264 22.5901 52.6669C22.5901 52.0697 22.359 51.5048 21.9345 51.0798C21.4992 50.644 20.9242 50.4234 20.3492 50.4234Z" fill="#3E3A39"/>
<path d="M25.1966 26.1976C24.8527 26.1976 24.5087 26.0685 24.2454 25.8049L21.8219 23.3785C21.2952 22.8513 21.2952 22.0013 21.8219 21.474C22.3485 20.9468 23.1976 20.9468 23.7242 21.474L26.1477 23.9004C26.6744 24.4276 26.6744 25.2776 26.1477 25.8049C25.8844 26.0685 25.5405 26.1976 25.1966 26.1976Z" fill="#3E3A39"/>
<path d="M50.5552 51.5855C50.2113 51.5855 49.8673 51.4564 49.604 51.1928L47.1804 48.7665C46.6538 48.2392 46.6538 47.3892 47.1804 46.862C47.7071 46.3347 48.5561 46.3347 49.0828 46.862L51.5063 49.2883C52.0329 49.8155 52.0329 50.6656 51.5063 51.1928C51.243 51.4564 50.8991 51.5855 50.5552 51.5855Z" fill="#3E3A39"/>
<path d="M20.3495 23.5991C22.332 23.5991 23.9392 21.9901 23.9392 20.0053C23.9392 18.0205 22.332 16.4115 20.3495 16.4115C18.367 16.4115 16.7598 18.0205 16.7598 20.0053C16.7598 21.9901 18.367 23.5991 20.3495 23.5991Z" fill="#C9CACA"/>
<path d="M20.3492 24.9387C19.0326 24.9387 17.7967 24.4276 16.8616 23.4915C15.9266 22.5554 15.4161 21.318 15.4161 19.9999C15.4161 18.6818 15.9266 17.4445 16.8616 16.5084C17.7967 15.5723 19.0326 15.0612 20.3492 15.0612C21.6658 15.0612 22.9017 15.5776 23.8368 16.5084C24.7664 17.4391 25.2823 18.6818 25.2823 19.9999C25.2823 21.318 24.7664 22.5608 23.8368 23.4915C22.9071 24.4223 21.6658 24.9387 20.3492 24.9387ZM20.3492 17.7565C19.7473 17.7565 19.1885 17.9879 18.7639 18.4129C18.3394 18.8379 18.1083 19.4028 18.1083 19.9999C18.1083 20.5971 18.3394 21.162 18.7639 21.587C19.1885 22.012 19.7527 22.2434 20.3492 22.2434C20.9457 22.2434 21.5099 22.012 21.9345 21.587C22.359 21.162 22.5901 20.5971 22.5901 19.9999C22.5901 19.4028 22.359 18.8379 21.9345 18.4129C21.5099 17.9879 20.9457 17.7565 20.3492 17.7565Z" fill="#3E3A39"/>
<path d="M52.979 56.2606C54.9615 56.2606 56.5687 54.6516 56.5687 52.6668C56.5687 50.682 54.9615 49.073 52.979 49.073C50.9965 49.073 49.3893 50.682 49.3893 52.6668C49.3893 54.6516 50.9965 56.2606 52.979 56.2606Z" fill="#C9CACA"/>
<path d="M52.9794 57.6056C51.6628 57.6056 50.4214 57.0945 49.4918 56.1584C48.5621 55.2223 48.0462 53.9849 48.0462 52.6669C48.0462 51.3488 48.5567 50.1114 49.4918 49.1753C51.4156 47.2493 54.5431 47.2493 56.4669 49.1753C57.3966 50.106 57.9125 51.3488 57.9125 52.6669C57.9125 53.9849 57.3966 55.2223 56.4669 56.1584C55.5373 57.0945 54.2959 57.6056 52.9794 57.6056ZM52.9794 50.4234C52.4044 50.4234 51.8294 50.644 51.3941 51.0798C50.9696 51.5048 50.7385 52.0697 50.7385 52.6669C50.7385 53.264 50.9696 53.8289 51.3941 54.2539C51.8186 54.679 52.3829 54.9103 52.9794 54.9103C53.5759 54.9103 54.1401 54.679 54.5646 54.2539C54.9891 53.8289 55.2202 53.264 55.2202 52.6669C55.2202 52.0697 54.9891 51.5048 54.5646 51.0798C54.1293 50.644 53.5544 50.4234 52.9794 50.4234Z" fill="#3E3A39"/>
</svg>
