<svg width="20" height="20" viewBox="0 0 20 20" fill="none" xmlns="http://www.w3.org/2000/svg">
<mask id="mask0_13212_24011" style="mask-type:alpha" maskUnits="userSpaceOnUse" x="0" y="0" width="20" height="20">
<rect width="20" height="20" fill="#D9D9D9"/>
</mask>
<g mask="url(#mask0_13212_24011)">
<path d="M10.0843 17C9.7617 17 9.5013 16.7394 9.5013 16.4167C9.5013 15.8392 8.88525 15.7925 8.69675 15.7925H2.583C2.26041 15.7925 2 15.532 2 15.2092V3.58333C2 3.26056 2.26041 3 2.583 3H8.69675C9.78308 3 10.6673 3.89056 10.6673 4.98528V16.4167C10.6673 16.7394 10.4069 17 10.0843 17ZM3.166 14.6258H8.69675C8.99019 14.6258 9.26032 14.6725 9.5013 14.76V4.98334C9.5013 4.53222 9.13983 4.16472 8.69675 4.16472H3.166V14.6239V14.6258Z" fill="#244874"/>
<path d="M10.0847 17C9.76212 17 9.50171 16.7394 9.50171 16.4167V4.98528C9.50171 3.89056 10.3859 3 11.4723 3H17.586C17.9086 3 18.169 3.26056 18.169 3.58333V15.2092C18.169 15.532 17.9086 15.7925 17.586 15.7925H11.4723C11.2838 15.7925 10.6677 15.8372 10.6677 16.4167C10.6677 16.7394 10.4073 17 10.0847 17ZM11.4723 4.16667C11.0292 4.16667 10.6677 4.53417 10.6677 4.98528V14.7619C10.9087 14.6744 11.1788 14.6278 11.4723 14.6278H17.003V4.16861H11.4723V4.16667Z" fill="#244874"/>
<path d="M7.98944 7.08311H4.73046C4.40787 7.08311 4.14746 6.82255 4.14746 6.49978C4.14746 6.177 4.40787 5.91644 4.73046 5.91644H7.98944C8.31204 5.91644 8.57245 6.177 8.57245 6.49978C8.57245 6.82255 8.31204 7.08311 7.98944 7.08311Z" fill="#244874"/>
<path d="M7.98944 9.99992H4.73046C4.40787 9.99992 4.14746 9.73936 4.14746 9.41659C4.14746 9.09381 4.40787 8.83325 4.73046 8.83325H7.98944C8.31204 8.83325 8.57245 9.09381 8.57245 9.41659C8.57245 9.73936 8.31204 9.99992 7.98944 9.99992Z" fill="#244874"/>
<path d="M7.99095 12.9167H4.73974C4.41715 12.9167 4.15674 12.6561 4.15674 12.3333C4.15674 12.0106 4.41715 11.75 4.73974 11.75H7.99095C8.31355 11.75 8.57395 12.0106 8.57395 12.3333C8.57395 12.6561 8.31355 12.9167 7.99095 12.9167Z" fill="#244874"/>
<path d="M15.4382 7.08311H12.1792C11.8566 7.08311 11.5962 6.82255 11.5962 6.49978C11.5962 6.177 11.8566 5.91644 12.1792 5.91644H15.4382C15.7608 5.91644 16.0212 6.177 16.0212 6.49978C16.0212 6.82255 15.7608 7.08311 15.4382 7.08311Z" fill="#244874"/>
<path d="M15.4382 9.99992H12.1792C11.8566 9.99992 11.5962 9.73936 11.5962 9.41659C11.5962 9.09381 11.8566 8.83325 12.1792 8.83325H15.4382C15.7608 8.83325 16.0212 9.09381 16.0212 9.41659C16.0212 9.73936 15.7608 9.99992 15.4382 9.99992Z" fill="#244874"/>
<path d="M15.4285 12.9167H12.1772C11.8546 12.9167 11.5942 12.6561 11.5942 12.3333C11.5942 12.0106 11.8546 11.75 12.1772 11.75H15.4285C15.751 11.75 16.0115 12.0106 16.0115 12.3333C16.0115 12.6561 15.751 12.9167 15.4285 12.9167Z" fill="#244874"/>
</g>
</svg>
