<svg width="24" height="25" viewBox="0 0 24 25" fill="none" xmlns="http://www.w3.org/2000/svg">
<path d="M5.97658 23.9102H0.575928V11.9893H5.97658" fill="#C9CACA"/>
<path d="M5.97642 24.4996H0.575763C0.257942 24.4996 0 24.2353 0 23.9097V11.9864C0 11.6608 0.257942 11.3965 0.575763 11.3965H5.97642C6.29424 11.3965 6.55218 11.6608 6.55218 11.9864C6.55218 12.312 6.29424 12.5763 5.97642 12.5763H1.15153V23.3198H5.97642C6.29424 23.3198 6.55218 23.5841 6.55218 23.9097C6.55218 24.2353 6.29424 24.4996 5.97642 24.4996Z" fill="#323333"/>
<path d="M18.0261 23.9102H23.4245V11.9893H18.0261" fill="#C9CACA"/>
<path d="M23.4242 24.4996H18.0235C17.7057 24.4996 17.4478 24.2353 17.4478 23.9097C17.4478 23.5841 17.7057 23.3198 18.0235 23.3198H22.8484V12.5763H18.0235C17.7057 12.5763 17.4478 12.312 17.4478 11.9864C17.4478 11.6608 17.7057 11.3965 18.0235 11.3965H23.4242C23.742 11.3965 23.9999 11.6608 23.9999 11.9864V23.9097C23.9999 24.2353 23.742 24.4996 23.4242 24.4996Z" fill="#323333"/>
<path d="M17.7957 24.5002H6.20443C5.8866 24.5002 5.62866 24.2359 5.62866 23.9103V9.58959C5.62866 9.37958 5.73921 9.18373 5.91654 9.07755L11.711 5.64897C11.8884 5.54279 12.1095 5.54279 12.2868 5.64897L18.0813 9.07755C18.2586 9.18373 18.3692 9.37722 18.3692 9.58959V23.9103C18.3692 24.2359 18.1112 24.5002 17.7934 24.5002H17.7957ZM6.78019 23.3204H17.2199V9.92938L12.0012 6.84296L6.78249 9.92938V23.3204H6.78019Z" fill="#323333"/>
<path d="M12.0013 6.75071C11.6835 6.75071 11.4255 6.48643 11.4255 6.1608V1.08991C11.4255 0.764281 11.6835 0.5 12.0013 0.5H16.2689C16.5867 0.5 16.8446 0.764281 16.8446 1.08991V3.99228C16.8446 4.31791 16.5867 4.58219 16.2689 4.58219H12.5771V6.1608C12.5771 6.48643 12.3191 6.75071 12.0013 6.75071ZM12.5771 3.40473H15.6931V1.68219H12.5771V3.40473Z" fill="#323333"/>
<path d="M14.675 23.9102H9.32495V18.3509C9.32495 16.8383 10.5225 15.6113 11.9988 15.6113C13.4751 15.6113 14.6726 16.8383 14.6726 18.3509V23.9102H14.675Z" fill="#6494CE"/>
<path d="M14.6753 24.5002H9.32528C9.00745 24.5002 8.74951 24.2359 8.74951 23.9103V18.3509C8.74951 16.5151 10.2074 15.0215 11.9991 15.0215C13.7909 15.0215 15.2487 16.5151 15.2487 18.3509V23.9103C15.2487 24.2359 14.9908 24.5002 14.673 24.5002H14.6753ZM9.90104 23.3204H14.0995V18.3509C14.0995 17.1664 13.1576 16.2013 12.0014 16.2013C10.8453 16.2013 9.90334 17.1664 9.90334 18.3509V23.3204H9.90104Z" fill="#323333"/>
<path d="M13.222 11.626C13.222 10.9346 12.6738 10.373 11.999 10.373C11.3242 10.373 10.7761 10.9346 10.7761 11.626C10.7761 12.3174 11.3242 12.879 11.999 12.879C12.6738 12.879 13.222 12.3174 13.222 11.626Z" fill="#6494CE"/>
<path d="M12.0013 13.469C11.0087 13.469 10.2026 12.6431 10.2026 11.6261C10.2026 10.6091 11.0087 9.7832 12.0013 9.7832C12.9939 9.7832 13.8 10.6091 13.8 11.6261C13.8 12.6431 12.9939 13.469 12.0013 13.469ZM12.0013 10.963C11.6443 10.963 11.3542 11.2603 11.3542 11.6261C11.3542 11.9918 11.6443 12.2892 12.0013 12.2892C12.3583 12.2892 12.6485 11.9918 12.6485 11.6261C12.6485 11.2603 12.3583 10.963 12.0013 10.963Z" fill="#323333"/>
<path d="M5.65856 15.8185H3.36702C3.0492 15.8185 2.79126 15.5542 2.79126 15.2286C2.79126 14.903 3.0492 14.6387 3.36702 14.6387H5.65856C5.97638 14.6387 6.23432 14.903 6.23432 15.2286C6.23432 15.5542 5.97638 15.8185 5.65856 15.8185Z" fill="#323333"/>
<path d="M5.65856 18.4806H3.36702C3.0492 18.4806 2.79126 18.2163 2.79126 17.8907C2.79126 17.5651 3.0492 17.3008 3.36702 17.3008H5.65856C5.97638 17.3008 6.23432 17.5651 6.23432 17.8907C6.23432 18.2163 5.97638 18.4806 5.65856 18.4806Z" fill="#323333"/>
<path d="M5.65856 21.1417H3.36702C3.0492 21.1417 2.79126 20.8775 2.79126 20.5518C2.79126 20.2262 3.0492 19.9619 3.36702 19.9619H5.65856C5.97638 19.9619 6.23432 20.2262 6.23432 20.5518C6.23432 20.8775 5.97638 21.1417 5.65856 21.1417Z" fill="#323333"/>
<path d="M20.6356 15.8185H18.3441C18.0263 15.8185 17.7683 15.5542 17.7683 15.2286C17.7683 14.903 18.0263 14.6387 18.3441 14.6387H20.6356C20.9534 14.6387 21.2114 14.903 21.2114 15.2286C21.2114 15.5542 20.9534 15.8185 20.6356 15.8185Z" fill="#323333"/>
<path d="M20.6356 18.4806H18.3441C18.0263 18.4806 17.7683 18.2163 17.7683 17.8907C17.7683 17.5651 18.0263 17.3008 18.3441 17.3008H20.6356C20.9534 17.3008 21.2114 17.5651 21.2114 17.8907C21.2114 18.2163 20.9534 18.4806 20.6356 18.4806Z" fill="#323333"/>
<path d="M20.6356 21.1417H18.3441C18.0263 21.1417 17.7683 20.8775 17.7683 20.5518C17.7683 20.2262 18.0263 19.9619 18.3441 19.9619H20.6356C20.9534 19.9619 21.2114 20.2262 21.2114 20.5518C21.2114 20.8775 20.9534 21.1417 20.6356 21.1417Z" fill="#323333"/>
</svg>
