<svg width="32" height="32" viewBox="0 0 32 32" fill="none" xmlns="http://www.w3.org/2000/svg">
<path fill-rule="evenodd" clip-rule="evenodd" d="M6.4 4C5.07452 4 4 5.07452 4 6.4V12.4C4 13.7255 5.07452 14.8 6.4 14.8H18.1743L16 12.6667H6.4C6.25272 12.6667 6.13333 12.5473 6.13333 12.4V6.4C6.13333 6.25272 6.25272 6.13333 6.4 6.13333H22.24L23.6933 4H6.4ZM6.4 17.1999C5.07452 17.1999 4 18.2744 4 19.5999V25.5999C4 26.9254 5.07452 27.9999 6.4 27.9999L18 28L15.8667 25.8665H6.4C6.25272 25.8665 6.13333 25.7471 6.13333 25.5999V19.5999C6.13333 19.4526 6.25272 19.3332 6.4 19.3332H22.3438L23.7333 17.2708C23.6144 17.225 23.4674 17.1999 23.3323 17.1999H6.4Z" fill="#323333"/>
<path fill-rule="evenodd" clip-rule="evenodd" d="M27.2642 4.45121C27.7512 4.78265 27.8773 5.44615 27.5459 5.93317L22.1014 13.9332C21.9227 14.1958 21.6361 14.3652 21.3198 14.395C21.0035 14.4248 20.6903 14.3121 20.4656 14.0875L17.1305 10.7541C16.7138 10.3377 16.7136 9.66232 17.1301 9.24565C17.5465 8.82899 18.2219 8.82881 18.6386 9.24526L21.0625 11.6679L25.7822 4.7329C26.1137 4.24588 26.7772 4.11977 27.2642 4.45121Z" fill="#3C79C2"/>
<path fill-rule="evenodd" clip-rule="evenodd" d="M27.2642 17.7846C27.7512 18.116 27.8773 18.7795 27.5459 19.2665L22.1014 27.2665C21.9227 27.5292 21.6361 27.6985 21.3198 27.7283C21.0035 27.7582 20.6903 27.6454 20.4656 27.4208L17.1305 24.0875C16.7138 23.671 16.7136 22.9957 17.1301 22.579C17.5465 22.1623 18.2219 22.1622 18.6386 22.5786L21.0625 25.0013L25.7822 18.0662C26.1137 17.5792 26.7772 17.4531 27.2642 17.7846Z" fill="#3C79C2"/>
</svg>
