<svg width="20" height="20" viewBox="0 0 20 20" fill="none" xmlns="http://www.w3.org/2000/svg">
<path fill-rule="evenodd" clip-rule="evenodd" d="M9.99922 0.200195C4.58683 0.200195 0.199219 4.58781 0.199219 10.0002C0.199219 15.4126 4.58683 19.8002 9.99922 19.8002H19.7992V10.0002C19.7992 4.58781 15.4116 0.200195 9.99922 0.200195ZM1.79922 10.0002C1.79922 5.47146 5.47048 1.8002 9.99922 1.8002C14.528 1.8002 18.1992 5.47146 18.1992 10.0002V18.2002H9.99922C5.47048 18.2002 1.79922 14.5289 1.79922 10.0002ZM5.59766 9.53125C5.04537 9.53125 4.59766 9.97897 4.59766 10.5312C4.59766 11.0835 5.04537 11.5312 5.59766 11.5312C6.14994 11.5312 6.59766 11.0835 6.59766 10.5312C6.59766 9.97897 6.14994 9.53125 5.59766 9.53125ZM8.99609 10.5312C8.99609 9.97897 9.44381 9.53125 9.99609 9.53125C10.5484 9.53125 10.9961 9.97897 10.9961 10.5312C10.9961 11.0835 10.5484 11.5312 9.99609 11.5312C9.44381 11.5312 8.99609 11.0835 8.99609 10.5312ZM14.3945 9.53125C13.8422 9.53125 13.3945 9.97897 13.3945 10.5312C13.3945 11.0835 13.8422 11.5312 14.3945 11.5312C14.9468 11.5312 15.3945 11.0835 15.3945 10.5312C15.3945 9.97897 14.9468 9.53125 14.3945 9.53125Z" fill="white"/>
</svg>
