<svg width="72" height="73" viewBox="0 0 72 73" fill="none" xmlns="http://www.w3.org/2000/svg">
<path d="M56.4287 9.86414H55.1766V41.5841C55.1766 45.0327 52.3876 47.8248 48.9431 47.8248H9.34918V48.465C9.34918 51.9136 12.1382 54.7057 15.5827 54.7057H28.195C28.023 57.1805 27.405 60.8442 25.2985 62.6896C25.2985 62.6896 35.3958 64.4864 41.221 54.7057H56.4287C59.8733 54.7057 62.6623 51.9136 62.6623 48.465V16.1048C62.6623 12.6563 59.8733 9.86414 56.4287 9.86414Z" fill="#C9CACA"/>
<path d="M27.093 64.1476C25.8624 64.1476 25.0939 64.0184 25.0617 64.0131C24.5512 63.9216 24.1428 63.5504 24.0031 63.0501C23.8634 62.5497 24.0246 62.0171 24.4115 61.6782C25.5561 60.6775 26.3568 58.7031 26.7061 56.0508H15.577C11.4016 56.0508 8 52.6453 8 48.4651V16.1049C8 11.9247 11.4016 8.51923 15.577 8.51923H56.423C60.6038 8.51923 64 11.9247 64 16.1049V48.4651C64 52.6453 60.5984 56.0508 56.423 56.0508H41.9622C37.3569 63.1846 30.4731 64.1476 27.0876 64.1476H27.093ZM15.5824 11.2092C12.8847 11.2092 10.6923 13.4042 10.6923 16.1049V48.4651C10.6923 51.1658 12.8847 53.3608 15.5824 53.3608H28.1946C28.5654 53.3608 28.92 53.5168 29.178 53.7858C29.4359 54.0548 29.5595 54.4261 29.5381 54.7973C29.3983 56.8524 28.9846 59.4079 27.8937 61.4737C30.9782 61.3446 36.4057 60.1664 40.0652 54.0172C40.3071 53.6083 40.7477 53.3608 41.2206 53.3608H56.4284C59.126 53.3608 61.3185 51.1658 61.3185 48.4651V16.1049C61.3185 13.4042 59.126 11.2092 56.4284 11.2092H15.5824Z" fill="#3E3A39"/>
<path d="M39.5978 39.6796L51.2266 46.9748V32.3791L39.5978 39.6796Z" fill="#B1CAE7"/>
<path d="M51.2269 48.3197C50.9797 48.3197 50.7325 48.2498 50.5122 48.1153L38.878 40.8201C38.4857 40.5726 38.2493 40.1422 38.2493 39.6796C38.2493 39.2169 38.4857 38.7865 38.878 38.539L50.5122 31.2439C50.926 30.9856 51.4473 30.9695 51.8772 31.2062C52.3017 31.4429 52.5704 31.8948 52.5704 32.3844V46.9801C52.5704 47.4697 52.3071 47.9216 51.8772 48.1583C51.673 48.2713 51.4526 48.3251 51.2269 48.3251V48.3197ZM42.1238 39.6796L49.8835 44.5484V34.8161L42.1238 39.685V39.6796Z" fill="#3E3A39"/>
<path d="M44.5149 32.4706H23.5034V46.8834H44.5149V32.4706Z" fill="#B1CAE7"/>
<path d="M44.5097 48.2284H23.4983C22.7568 48.2284 22.1549 47.6258 22.1549 46.8834V32.4706C22.1549 31.7282 22.7568 31.1256 23.4983 31.1256H44.5097C45.2513 31.1256 45.8532 31.7282 45.8532 32.4706V46.8834C45.8532 47.6258 45.2513 48.2284 44.5097 48.2284ZM24.8471 45.5384H43.1717V33.8156H24.8471V45.5384Z" fill="#3E3A39"/>
<path d="M27.2117 31.7874C30.7612 31.7874 33.6387 28.9066 33.6387 25.353C33.6387 21.7994 30.7612 18.9186 27.2117 18.9186C23.6622 18.9186 20.7847 21.7994 20.7847 25.353C20.7847 28.9066 23.6622 31.7874 27.2117 31.7874Z" fill="#B1CAE7"/>
<path d="M27.2114 33.1377C22.9231 33.1377 19.4409 29.6461 19.4409 25.3583C19.4409 21.0705 22.9285 17.579 27.2114 17.579C31.4943 17.579 34.9819 21.0705 34.9819 25.3583C34.9819 29.6461 31.4943 33.1377 27.2114 33.1377ZM27.2114 20.2636C24.4063 20.2636 22.1278 22.55 22.1278 25.3529C22.1278 28.1559 24.4117 30.4424 27.2114 30.4424C30.0111 30.4424 32.295 28.1559 32.295 25.3529C32.295 22.55 30.0111 20.2636 27.2114 20.2636Z" fill="#3E3A39"/>
<path d="M40.4363 31.7874C43.9858 31.7874 46.8633 28.9066 46.8633 25.353C46.8633 21.7994 43.9858 18.9186 40.4363 18.9186C36.8867 18.9186 34.0093 21.7994 34.0093 25.353C34.0093 28.9066 36.8867 31.7874 40.4363 31.7874Z" fill="#B1CAE7"/>
<path d="M40.4366 33.1377C36.1484 33.1377 32.6662 29.6461 32.6662 25.3583C32.6662 21.0705 36.1538 17.579 40.4366 17.579C44.7195 17.579 48.2071 21.0705 48.2071 25.3583C48.2071 29.6461 44.7195 33.1377 40.4366 33.1377ZM40.4366 20.2636C37.6315 20.2636 35.3531 22.55 35.3531 25.3529C35.3531 28.1559 37.6369 30.4424 40.4366 30.4424C43.2364 30.4424 45.5202 28.1559 45.5202 25.3529C45.5202 22.55 43.2364 20.2636 40.4366 20.2636Z" fill="#3E3A39"/>
</svg>
