<svg width="40" height="40" viewBox="0 0 40 40" fill="none" xmlns="http://www.w3.org/2000/svg">
<circle cx="20" cy="20" r="20" fill="#DF6871"/>
<path fill-rule="evenodd" clip-rule="evenodd" d="M11.5999 8C12.2626 8 12.7999 8.53726 12.7999 9.2V9.97126C13.9061 9.32292 14.9854 9.00705 16.0606 8.95831C17.7302 8.88262 19.214 9.4656 20.4963 10.0482C20.7651 10.1704 21.0266 10.2922 21.2822 10.4113C23.5859 11.485 25.4133 12.3366 27.8991 11.1952C28.2707 11.0246 28.7035 11.0549 29.0477 11.2755C29.3918 11.4962 29.5999 11.8769 29.5999 12.2857V23.0857C29.5999 23.5546 29.3268 23.9805 28.9007 24.1762C25.3503 25.8064 22.4978 24.451 20.2535 23.3846C19.9955 23.262 19.7456 23.1432 19.5035 23.0332C18.2658 22.4708 17.2296 22.1078 16.1692 22.1558C15.2432 22.1978 14.15 22.5645 12.7999 23.7193V30.8C12.7999 31.4628 12.2626 32 11.5999 32C10.9372 32 10.3999 31.4628 10.3999 30.8V9.2C10.3999 8.53726 10.9372 8 11.5999 8ZM12.7999 20.7712C13.9061 20.1229 14.9854 19.8071 16.0606 19.7583C17.7302 19.6826 19.214 20.2656 20.4963 20.8482C20.7651 20.9703 21.0266 21.0922 21.2822 21.2113C23.3646 22.1818 25.0578 22.971 27.1999 22.2705V13.9541C24.4256 14.5671 22.1275 13.4751 20.2535 12.5846C19.9955 12.462 19.7456 12.3432 19.5035 12.2332C18.2658 11.6709 17.2296 11.3078 16.1692 11.3558C15.2432 11.3978 14.15 11.7645 12.7999 12.9193V20.7712Z" fill="white"/>
</svg>
