<svg width="73" height="73" viewBox="0 0 73 73" fill="none" xmlns="http://www.w3.org/2000/svg">
<path d="M59.1531 52.5434H14.1801C13.4385 52.5434 12.8367 51.9415 12.8367 51.1999V18.119C12.8367 15.0022 15.3731 12.4658 18.4898 12.4658H54.8434C57.9601 12.4658 60.4966 15.0022 60.4966 18.119V51.1999C60.4966 51.9415 59.8947 52.5434 59.1531 52.5434ZM15.5236 49.8565H57.8097V18.119C57.8097 16.4853 56.477 15.1526 54.8434 15.1526H18.4898C16.8562 15.1526 15.5236 16.4853 15.5236 18.119V49.8565Z" fill="#3E3A39"/>
<path d="M58.2127 60.201H15.1205C11.5631 60.201 8.66663 57.3046 8.66663 53.7471V51.2C8.66663 50.4584 9.26849 49.8565 10.0101 49.8565H63.3232C64.0648 49.8565 64.6666 50.4584 64.6666 51.2V53.7471C64.6666 57.3046 61.7702 60.201 58.2127 60.201ZM11.3535 52.5434V53.7471C11.3535 55.8268 13.0409 57.5141 15.1205 57.5141H58.2127C60.2924 57.5141 61.9797 55.8268 61.9797 53.7471V52.5434H11.3535Z" fill="#3E3A39"/>
<path d="M54.4884 22.3321H18.8442V51.2H54.4884V22.3321Z" fill="#B1CAE7"/>
<path d="M54.4833 52.5434H18.8392C18.0976 52.5434 17.4957 51.9416 17.4957 51.2V22.3321C17.4957 21.5905 18.0976 20.9886 18.8392 20.9886H54.4833C55.2249 20.9886 55.8268 21.5905 55.8268 22.3321V51.2C55.8268 51.9416 55.2249 52.5434 54.4833 52.5434ZM20.188 49.8566H53.1453V23.6755H20.188V49.8566Z" fill="#3E3A39"/>
<path d="M38.0932 18.275C38.0932 17.4851 37.4537 16.851 36.6691 16.851C35.8846 16.851 35.2451 17.4904 35.2451 18.275C35.2451 19.0596 35.8846 19.699 36.6691 19.699C37.4537 19.699 38.0932 19.0596 38.0932 18.275Z" fill="#3E3A39"/>
<path d="M43.7305 45.2834C43.5048 45.2834 43.2737 45.2243 43.0587 45.1007C42.4139 44.7299 42.1936 43.9077 42.5644 43.2629L46.1164 37.1099L42.5644 30.9569C42.1936 30.3121 42.4139 29.4953 43.0587 29.1191C43.6982 28.7483 44.5204 28.9686 44.8965 29.6135L48.8355 36.4382C49.0773 36.852 49.0773 37.3679 48.8355 37.7816L44.8965 44.6063C44.6494 45.0362 44.198 45.278 43.7305 45.278V45.2834Z" fill="#3E3A39"/>
<path d="M29.5975 45.2835C29.1353 45.2835 28.6839 45.0417 28.4313 44.6117L24.4924 37.787C24.2506 37.3733 24.2506 36.8574 24.4924 36.4436L28.4313 29.6189C28.8021 28.9741 29.6243 28.7591 30.2692 29.1245C30.914 29.4953 31.1344 30.3175 30.7636 30.9624L27.2115 37.1153L30.7636 43.2683C31.1344 43.9132 30.914 44.73 30.2692 45.1061C30.0596 45.2297 29.8285 45.2888 29.5975 45.2888V45.2835Z" fill="#3E3A39"/>
<path d="M33.6601 47.2072C33.515 47.2072 33.3699 47.1857 33.2248 47.132C32.5209 46.8902 32.1501 46.1271 32.3919 45.4231L38.3998 27.9315C38.6416 27.2275 39.4047 26.8567 40.1086 27.0986C40.8126 27.3404 41.1834 28.1035 40.9416 28.8074L34.9337 46.299C34.7402 46.8579 34.219 47.2072 33.6655 47.2072H33.6601Z" fill="#3E3A39"/>
</svg>
