<svg width="20" height="20" viewBox="0 0 20 20" fill="none" xmlns="http://www.w3.org/2000/svg">
<path d="M1.6665 9.99967C1.6665 14.602 5.39747 18.333 9.99984 18.333C14.6022 18.333 18.3332 14.602 18.3332 9.99967C18.3332 5.3973 14.6022 1.66634 9.99984 1.66634C5.39747 1.66634 1.6665 5.3973 1.6665 9.99967Z" fill="#244874"/>
<path fill-rule="evenodd" clip-rule="evenodd" d="M13.1276 6.94931C13.4316 7.15704 13.5096 7.57187 13.3019 7.87587L9.88523 12.8759C9.77332 13.0396 9.59429 13.1451 9.39679 13.1635C9.1993 13.182 9.00384 13.1115 8.86354 12.9713L6.77891 10.888C6.51847 10.6277 6.51834 10.2056 6.77861 9.94515C7.03888 9.68472 7.46099 9.68459 7.72142 9.94485L9.23771 11.4602L12.201 7.12361C12.4088 6.81962 12.8236 6.74158 13.1276 6.94931Z" fill="white"/>
</svg>
