<svg width="48" height="48" viewBox="0 0 48 48" fill="none" xmlns="http://www.w3.org/2000/svg">
<circle cx="24" cy="24" r="24" fill="#6494CE"/>
<path fill-rule="evenodd" clip-rule="evenodd" d="M19.5 13.5C17.0147 13.5 15 15.5147 15 18C15 20.4853 17.0147 22.5 19.5 22.5C21.9853 22.5 24 20.4853 24 18C24 15.5147 21.9853 13.5 19.5 13.5ZM12 18C12 13.8579 15.3579 10.5 19.5 10.5C23.6421 10.5 27 13.8579 27 18C27 22.1421 23.6421 25.5 19.5 25.5C15.3579 25.5 12 22.1421 12 18ZM38.5606 19.9393C39.1464 20.5251 39.1464 21.4749 38.5606 22.0607L32.5606 28.0607C31.9749 28.6464 31.0251 28.6464 30.4394 28.0607L27.4394 25.0607C26.8536 24.4749 26.8536 23.5251 27.4394 22.9394C28.0251 22.3536 28.9749 22.3536 29.5606 22.9394L31.5 24.8787L36.4394 19.9393C37.0251 19.3536 37.9749 19.3536 38.5606 19.9393ZM12.304 29.0093C14.2113 27.7377 16.7599 27 19.5 27C22.2401 27 24.7887 27.7377 26.6959 29.0093C28.5928 30.2739 30 32.1855 30 34.5C30 35.3285 29.3284 36 28.5 36C27.6716 36 27 35.3285 27 34.5C27 33.5007 26.3923 32.4125 25.0318 31.5054C23.6818 30.6054 21.7305 30 19.5 30C17.2695 30 15.3181 30.6054 13.9681 31.5054C12.6076 32.4125 12 33.5007 12 34.5C12 35.3285 11.3284 36 10.5 36C9.67158 36 9 35.3285 9 34.5C9 32.1855 10.4071 30.2739 12.304 29.0093Z" fill="white"/>
</svg>
