<svg width="48" height="48" viewBox="0 0 48 48" fill="none" xmlns="http://www.w3.org/2000/svg">
<ellipse cx="24" cy="24" rx="23.5" ry="24" fill="#6494CE"/>
<path fill-rule="evenodd" clip-rule="evenodd" d="M34.9334 12C35.2163 12 35.4876 12.1124 35.6876 12.3124C35.8877 12.5124 36.0001 12.7838 36.0001 13.0667V34.9371C36.0001 35.5262 35.5225 36.0038 34.9334 36.0038H25.0678C24.4787 36.0038 24.0011 35.5262 24.0011 34.9371C24.0011 34.348 24.4787 33.8704 25.0678 33.8704H33.8667V14.1334L25.0678 14.1336C24.4787 14.1336 24.0011 13.6561 24.0011 13.067C24.0011 12.4779 24.4786 12.0003 25.0677 12.0003L34.9334 12ZM28.7404 24.7692C28.9496 24.568 29.0678 24.2904 29.0678 24.0003C29.0678 23.7101 28.9496 23.4325 28.7404 23.2314L21.8071 16.5647C21.3824 16.1564 20.7072 16.1696 20.2989 16.5943C19.8906 17.0189 19.9038 17.6942 20.3284 18.1025L25.3528 22.9336H12.5365C11.9474 22.9336 11.4698 23.4112 11.4698 24.0003C11.4698 24.5894 11.9474 25.0669 12.5365 25.0669H25.3528L20.3284 29.898C19.9038 30.3064 19.8906 30.9816 20.2989 31.4062C20.7072 31.8309 21.3824 31.8441 21.8071 31.4358L28.7404 24.7692Z" fill="white"/>
</svg>
