<svg width="73" height="73" viewBox="0 0 73 73" fill="none" xmlns="http://www.w3.org/2000/svg">
<path d="M16.3402 34.8012C11.923 34.8012 8.33337 31.1946 8.33337 26.7564V12.0653C8.33337 11.3202 8.93523 10.7155 9.6768 10.7155H23.0036C23.7452 10.7155 24.3471 11.3202 24.3471 12.0653V26.7564C24.3471 31.1946 20.752 34.8012 16.3402 34.8012ZM11.0202 13.415V26.7564C11.0202 29.7044 13.4062 32.1016 16.3402 32.1016C19.2743 32.1016 21.6602 29.7044 21.6602 26.7564V13.415H11.0202Z" fill="#3E3A39"/>
<path d="M29.6671 33.4515C25.9861 33.4515 23.0037 30.4549 23.0037 26.7565V12.0653H36.3305V26.7565C36.3305 30.4549 33.3481 33.4515 29.6671 33.4515Z" fill="#B1CAE7"/>
<path d="M29.667 34.8012C25.2498 34.8012 21.6602 31.1946 21.6602 26.7564V12.0653C21.6602 11.3202 22.262 10.7155 23.0036 10.7155H36.3304C37.072 10.7155 37.6738 11.3202 37.6738 12.0653V26.7564C37.6738 31.1946 34.0842 34.8012 29.667 34.8012ZM24.347 13.415V26.7564C24.347 29.7044 26.7329 32.1016 29.667 32.1016C32.601 32.1016 34.987 29.7044 34.987 26.7564V13.415H24.347Z" fill="#3E3A39"/>
<path d="M42.9994 34.8012C38.5822 34.8012 34.9926 31.1946 34.9926 26.7564V12.0653C34.9926 11.3202 35.5944 10.7155 36.336 10.7155H49.6628C50.4044 10.7155 51.0062 11.3202 51.0062 12.0653V26.7564C51.0062 31.1946 47.4166 34.8012 42.9994 34.8012ZM37.6794 13.415V26.7564C37.6794 29.7044 40.0653 32.1016 42.9994 32.1016C45.9334 32.1016 48.3194 29.7044 48.3194 26.7564V13.415H37.6794Z" fill="#3E3A39"/>
<path d="M56.3265 33.4515C52.6455 33.4515 49.6631 30.4549 49.6631 26.7565V12.0653H62.9899V26.7565C62.9899 30.4549 60.0075 33.4515 56.3265 33.4515Z" fill="#B1CAE7"/>
<path d="M56.3264 34.8012C51.9092 34.8012 48.3196 31.1946 48.3196 26.7564V12.0653C48.3196 11.3202 48.9214 10.7155 49.663 10.7155H62.9898C63.7314 10.7155 64.3333 11.3202 64.3333 12.0653V26.7564C64.3333 31.1946 60.7436 34.8012 56.3264 34.8012ZM51.0064 13.415V26.7564C51.0064 29.7044 53.3924 32.1016 56.3264 32.1016C59.2605 32.1016 61.6464 29.7044 61.6464 26.7564V13.415H51.0064Z" fill="#3E3A39"/>
<path d="M58.9751 62.6179H13.6853C12.9438 62.6179 12.3419 62.0132 12.3419 61.2681V33.0844C12.3419 32.3393 12.9438 31.7346 13.6853 31.7346C14.4269 31.7346 15.0288 32.3393 15.0288 33.0844V59.9183H57.6316V33.0844C57.6316 32.3393 58.2335 31.7346 58.9751 31.7346C59.7166 31.7346 60.3185 32.3393 60.3185 33.0844V61.2681C60.3185 62.0132 59.7166 62.6179 58.9751 62.6179Z" fill="#3E3A39"/>
<path d="M36.3352 38.8669C40.919 38.8669 44.6376 42.6031 44.6376 47.2086V61.2681H28.0328V47.2086C28.0328 42.6031 31.7515 38.8669 36.3352 38.8669Z" fill="#C9CACA"/>
<path d="M44.6383 62.6178H28.0335C27.2919 62.6178 26.6901 62.0131 26.6901 61.268V47.2085C26.6901 41.8633 31.0159 37.517 36.3359 37.517C41.6559 37.517 45.9817 41.8633 45.9817 47.2085V61.268C45.9817 62.0131 45.3798 62.6178 44.6383 62.6178ZM29.3769 59.9182H43.2948V47.2085C43.2948 43.3535 40.1727 40.2166 36.3359 40.2166C32.4991 40.2166 29.3769 43.3535 29.3769 47.2085V59.9182Z" fill="#3E3A39"/>
</svg>
