<svg width="72" height="72" viewBox="0 0 72 72" fill="none" xmlns="http://www.w3.org/2000/svg">
<path d="M30.4712 6.03809H42.9116C45.6642 6.0381 47.996 7.8528 48.7554 10.333L48.8345 10.5908L49.0923 10.667C51.0277 11.2367 52.7953 12.2908 54.2378 13.7637V13.7627C56.4015 15.9735 57.5913 18.8819 57.5913 21.9521V48.5469C57.5912 50.2119 56.8554 51.7141 55.687 52.7471L55.3804 53.0186L55.5854 53.3721L59.98 60.9756V60.9766C60.5731 62.001 60.5705 63.2744 59.9731 64.2959C59.3711 65.321 58.254 65.959 57.0581 65.959H52.2808C51.1502 65.959 50.0962 65.3928 49.4771 64.4717L49.3589 64.2832L49.1958 64.001L49.0513 63.752H24.3354L24.1909 64.001L24.0269 64.2832C23.43 65.3163 22.3099 65.9608 21.106 65.9609H16.3276C15.1292 65.9609 14.0136 65.3237 13.4155 64.3018L13.3989 64.2744C12.8509 63.3177 12.8185 62.1502 13.2993 61.1709L13.4028 60.9756L17.7974 53.3721L18.0024 53.0186L17.6958 52.7471C16.5259 51.7143 15.7916 50.2124 15.7915 48.5469V21.9521C15.7915 18.8804 16.9806 15.9735 19.144 13.7627L19.145 13.7637C20.5877 12.2907 22.3547 11.2349 24.2896 10.667L24.5483 10.5908L24.6274 10.333C25.3867 7.85125 27.7184 6.03809 30.4712 6.03809Z" fill="white" stroke="#7D8181"/>
<path d="M54.226 21.9538C54.226 17.2927 50.413 13.5127 45.7073 13.5127H27.6773C22.9734 13.5127 19.1587 17.291 19.1587 21.9538V37.5668H54.2242V21.9538H54.226Z" fill="#FF5252"/>
<path d="M19.1606 37.5664V48.5479C19.1606 49.8189 20.2009 50.8497 21.4836 50.8497H51.905C53.1877 50.8497 54.2279 49.8189 54.2279 48.5479V37.5664H19.1624H19.1606Z" fill="#1F9EFF"/>
<path d="M51.9024 51.1979H21.481C20.0068 51.1979 18.8066 50.0087 18.8066 48.5478V21.9534C18.8066 17.1078 22.7848 13.1641 27.6767 13.1641H45.7067C50.5968 13.1641 54.5768 17.106 54.5768 21.9534V48.5478C54.5768 50.0087 53.3766 51.1979 51.9024 51.1979ZM27.6767 13.8605C23.1731 13.8605 19.5095 17.4908 19.5095 21.9534V48.5478C19.5095 49.6256 20.3933 50.5014 21.481 50.5014H51.9024C52.9901 50.5014 53.8739 49.6256 53.8739 48.5478V21.9534C53.8739 17.4908 50.2103 13.8605 45.7067 13.8605H27.6767Z" fill="black"/>
<path d="M25.7377 47.519C27.5563 47.519 29.0306 46.0582 29.0306 44.2561C29.0306 42.454 27.5563 40.9932 25.7377 40.9932C23.9191 40.9932 22.4448 42.454 22.4448 44.2561C22.4448 46.0582 23.9191 47.519 25.7377 47.519Z" fill="#FFE987"/>
<path d="M47.6493 47.519C49.4679 47.519 50.9422 46.0582 50.9422 44.2561C50.9422 42.454 49.4679 40.9932 47.6493 40.9932C45.8307 40.9932 44.3564 42.454 44.3564 44.2561C44.3564 46.0582 45.8307 47.519 47.6493 47.519Z" fill="#FFE987"/>
<path d="M25.7376 47.8688C23.7274 47.8688 22.0933 46.2478 22.0933 44.2576C22.0933 42.2675 23.7292 40.6465 25.7376 40.6465C27.746 40.6465 29.3819 42.2675 29.3819 44.2576C29.3819 46.2478 27.746 47.8688 25.7376 47.8688ZM25.7376 41.3412C24.1157 41.3412 22.7961 42.6488 22.7961 44.2559C22.7961 45.863 24.1157 47.1706 25.7376 47.1706C27.3594 47.1706 28.679 45.863 28.679 44.2559C28.679 42.6488 27.3594 41.3412 25.7376 41.3412Z" fill="black"/>
<path d="M47.6492 47.8688C45.639 47.8688 44.0049 46.2478 44.0049 44.2576C44.0049 42.2675 45.6408 40.6465 47.6492 40.6465C49.6576 40.6465 51.2935 42.2675 51.2935 44.2576C51.2935 46.2478 49.6576 47.8688 47.6492 47.8688ZM47.6492 41.3412C46.0274 41.3412 44.7077 42.6488 44.7077 44.2559C44.7077 45.863 46.0274 47.1706 47.6492 47.1706C49.271 47.1706 50.5907 45.863 50.5907 44.2559C50.5907 42.6488 49.271 41.3412 47.6492 41.3412Z" fill="black"/>
<path d="M28.0717 17.3428H45.3162C48.1786 17.3428 50.5033 19.6463 50.5033 22.4827V34.1397H22.8828V22.4827C22.8828 19.6463 25.2075 17.3428 28.0699 17.3428H28.0717Z" fill="white"/>
<path d="M50.5022 34.4885H22.8817C22.6884 34.4885 22.5303 34.3318 22.5303 34.1403V22.4832C22.5303 19.4571 25.0149 16.9951 28.0688 16.9951H45.3134C48.3673 16.9951 50.8519 19.4571 50.8519 22.4832V34.1403C50.8519 34.3318 50.6937 34.4885 50.5004 34.4885H50.5022ZM23.2349 33.7921H50.1525V22.4832C50.1525 19.8401 47.9825 17.6916 45.3169 17.6916H28.0723C25.405 17.6916 23.2366 19.8419 23.2366 22.4832V33.7921H23.2349Z" fill="black"/>
<path d="M36.6927 34.1209C36.4995 34.1209 36.3413 33.9642 36.3413 33.7727V17.7105C36.3413 17.519 36.4995 17.3623 36.6927 17.3623C36.886 17.3623 37.0442 17.519 37.0442 17.7105V33.7727C37.0442 33.9642 36.886 34.1209 36.6927 34.1209Z" fill="black"/>
<path d="M30.4728 9.37207H42.9133C44.4245 9.37207 45.651 10.5874 45.651 12.0848V13.5125H27.7334V12.0848C27.7334 10.5874 28.9599 9.37207 30.471 9.37207H30.4728Z" fill="#BF3D3D"/>
<path d="M45.6518 13.8604H27.7342C27.541 13.8604 27.3828 13.7037 27.3828 13.5121V12.0844C27.3828 10.3955 28.7692 9.02344 30.4719 9.02344H42.9124C44.6169 9.02344 46.0015 10.3972 46.0015 12.0844V13.5121C46.0015 13.7037 45.8433 13.8604 45.6501 13.8604H45.6518ZM28.0857 13.1639H45.3004V12.0844C45.3004 10.7803 44.2303 9.7199 42.9142 9.7199H30.4736C29.1575 9.7199 28.0874 10.7803 28.0874 12.0844V13.1639H28.0857Z" fill="black"/>
<path d="M54.2255 37.9142H19.16C18.9667 37.9142 18.8086 37.7575 18.8086 37.566C18.8086 37.3745 18.9667 37.2178 19.16 37.2178H54.2255C54.4188 37.2178 54.577 37.3745 54.577 37.566C54.577 37.7575 54.4188 37.9142 54.2255 37.9142Z" fill="black"/>
<path d="M41.9887 42.5605H31.3984V45.9541H41.9887V42.5605Z" fill="white"/>
<path d="M41.9881 46.3019H31.3978C31.2045 46.3019 31.0464 46.1452 31.0464 45.9537V42.5601C31.0464 42.3686 31.2045 42.2119 31.3978 42.2119H41.9881C42.1814 42.2119 42.3395 42.3686 42.3395 42.5601V45.9537C42.3395 46.1452 42.1814 46.3019 41.9881 46.3019ZM31.751 45.6054H41.6384V42.9084H31.751V45.6054Z" fill="black"/>
<path d="M27.9147 50.8496H23.137L16.3281 62.6303H21.1058L27.9147 50.8496Z" fill="#B5B5B5"/>
<path d="M45.4722 50.8496H50.2498L57.0588 62.6303H52.2811L45.4722 50.8496Z" fill="#B5B5B5"/>
<path d="M21.1057 62.9787H16.328C16.2032 62.9787 16.0873 62.9125 16.024 62.8046C15.9607 62.6966 15.9607 62.5643 16.024 62.4563L22.8329 50.6739C22.8962 50.566 23.0122 50.498 23.1387 50.498H27.9163C28.0411 50.498 28.1571 50.5642 28.2203 50.6722C28.2836 50.7801 28.2836 50.9124 28.2203 51.0204L21.4114 62.8028C21.3481 62.9108 21.2322 62.9787 21.1057 62.9787ZM16.9342 62.2822H20.9018L27.3084 51.1963H23.3407L16.9342 62.2822Z" fill="black"/>
<path d="M57.0581 62.9787H52.2804C52.1539 62.9787 52.0379 62.9125 51.9747 62.8028L45.1658 51.0204C45.1043 50.9124 45.1043 50.7801 45.1658 50.6722C45.229 50.5642 45.345 50.498 45.4697 50.498H50.2474C50.3739 50.498 50.4899 50.5642 50.5531 50.6739L57.3621 62.4563C57.4236 62.5643 57.4236 62.6966 57.3621 62.8046C57.2988 62.9125 57.1828 62.9787 57.0581 62.9787ZM52.4842 62.2822H56.4519L50.0453 51.1963H46.0777L52.4842 62.2822Z" fill="black"/>
<path d="M48.0464 55.4047H25.3389L26.6954 53.0576H46.6916L48.0464 55.4047Z" fill="#808080"/>
<path d="M50.9215 60.4232H22.4663L23.8211 58.0762H49.5649L50.9215 60.4232Z" fill="#808080"/>
<path d="M48.0463 55.7533H25.3387C25.214 55.7533 25.098 55.6871 25.0347 55.5792C24.9715 55.4712 24.9715 55.3389 25.0347 55.2309L26.3913 52.8839C26.4545 52.7759 26.5705 52.708 26.697 52.708H46.6933C46.8198 52.708 46.9358 52.7742 46.999 52.8839L48.3555 55.2309C48.417 55.3389 48.417 55.4712 48.3555 55.5792C48.2923 55.6871 48.1763 55.7533 48.0515 55.7533H48.0463ZM25.945 55.0568H47.4401L46.4859 53.4062H26.8973L25.9432 55.0568H25.945Z" fill="black"/>
<path d="M50.9216 60.7709H22.4647C22.34 60.7709 22.224 60.7047 22.1607 60.5968C22.0975 60.4888 22.0975 60.3565 22.1607 60.2485L23.5172 57.9014C23.5805 57.7935 23.6965 57.7256 23.823 57.7256H49.5669C49.6934 57.7256 49.8093 57.7918 49.8726 57.9014L51.2291 60.2485C51.2906 60.3565 51.2906 60.4888 51.2291 60.5968C51.1659 60.7047 51.0499 60.7709 50.9251 60.7709H50.9216ZM23.0727 60.0744H50.3172L49.363 58.4238H24.0268L23.0727 60.0744Z" fill="black"/>
</svg>
