<svg width="73" height="73" viewBox="0 0 73 73" fill="none" xmlns="http://www.w3.org/2000/svg">
<path d="M32.7878 36.9755C33.124 36.6505 33.6514 36.6621 33.9753 36.9969C34.3002 37.333 34.2886 37.8605 33.9539 38.1844C33.0923 39.0178 32.1191 39.4674 31.1384 39.4686V39.4696H31.1345V39.4686C30.1536 39.4673 29.1811 39.0134 28.3201 38.1854V38.1844C27.9842 37.8598 27.9779 37.3278 28.2976 36.9969C28.6222 36.6613 29.1543 36.6558 29.4851 36.9755C30.0576 37.5278 30.6057 37.786 31.1365 37.786C31.6673 37.786 32.2153 37.5278 32.7878 36.9755Z" fill="#3E3A39" stroke="#3E3A39" stroke-width="0.3"/>
<path d="M22.7911 57.8047H39.3573C37.0979 55.3612 37.2405 52.0894 37.2405 48.4955C37.2405 47.6764 38.2989 45.6976 38.437 44.9199C36.5963 46.3004 34.2954 47.2208 31.5344 47.2208C27.6552 47.2208 25.092 45.3801 22.7911 42.6191V57.8047Z" fill="#8AAFDB"/>
<path d="M17.7293 44.6805C13.1276 47.3679 9.94318 52.1951 9.51062 57.8046H17.7293V44.6805Z" fill="#8AAFDB"/>
<path d="M33.0651 12.6526L36.8824 11.5882L37.1198 11.5218L37.0699 11.763L36.4967 14.5169L40.3756 13.5794L40.6276 13.5179L40.5553 13.7669L39.9586 15.7991C39.9892 15.831 40.0302 15.8744 40.0797 15.929C40.1947 16.0559 40.3561 16.2439 40.5446 16.4876C40.9212 16.9748 41.4061 17.6878 41.8395 18.5941C42.7067 20.4077 43.3696 22.9977 42.5485 26.0911L42.5182 26.2044L42.402 26.2025L40.5885 26.1849L40.5065 26.1839L40.4635 26.1136L37.7438 21.7689C32.3672 24.7366 25.8673 26.9549 19.6071 25.7903V25.7913C18.8528 25.6532 18.2127 24.9331 18.1256 24.1751L18.1178 24.1683L18.1129 24.1126C17.9845 22.3731 18.2869 19.2245 20.3219 16.2259C22.3605 13.2222 26.1263 10.3862 32.8903 9.26007L33.0651 9.23175V12.6526Z" fill="#C9CACA" stroke="#C9CACA" stroke-width="0.3"/>
<path d="M61.2689 41.9373C63.0605 44.2268 64.1263 47.1081 64.1263 50.2351C64.1263 50.3025 64.1237 50.3695 64.1215 50.4333C64.1191 50.4982 64.1176 50.5605 64.1176 50.6218V50.9158L63.8793 50.7429L59.3851 47.4763H59.224L59.2875 47.28L61.0082 41.9841L61.0951 41.7156L61.2689 41.9373Z" fill="#8AAFDB" stroke="#3E3A39" stroke-width="0.3"/>
<path d="M40.1938 41.9164L40.2271 42.0209L41.9341 47.2806L41.9683 47.3842L41.8804 47.4476L37.3843 50.7152L37.1567 50.8802L37.146 50.6C37.1414 50.4808 37.1362 50.3577 37.1362 50.2347C37.1362 47.1216 38.1933 44.2596 39.9614 41.975L40.0063 41.9164H40.1938Z" fill="#8AAFDB" stroke="#3E3A39" stroke-width="0.3"/>
<path d="M61.8796 57.6542L61.7166 57.8905C60.0321 60.3194 57.5699 62.1666 54.6892 63.0741L54.4119 63.161L54.5017 62.8846L56.1677 57.7587L56.2009 57.6542H61.8796Z" fill="#8AAFDB" stroke="#3E3A39" stroke-width="0.3"/>
<path d="M44.9117 57.6542V57.8036L45.0494 57.7587L46.7106 62.871L46.8014 63.1493L46.5221 63.0594C43.665 62.1427 41.2222 60.3051 39.5426 57.8905L39.3785 57.6542H44.9117Z" fill="#8AAFDB" stroke="#3E3A39" stroke-width="0.3"/>
<path d="M50.6316 36.7395C51.9631 36.7395 53.245 36.9357 54.4578 37.2932L54.9734 37.4563L55.0447 37.4807L55.0681 37.552L55.1228 37.7229L55.157 37.8264L55.0681 37.8899L50.5769 41.1526L50.489 41.217L50.4011 41.1526L45.9099 37.8899L45.823 37.8274L45.8542 37.7249L45.8728 37.6653L45.8943 37.594L45.9646 37.5686C47.4211 37.0335 48.9892 36.7395 50.6316 36.7395Z" fill="#8AAFDB" stroke="#3E3A39" stroke-width="0.3"/>
<path d="M50.6882 45.71L55.2849 49.0557L55.3728 49.1192L55.3396 49.2227L53.5857 54.6299L53.5525 54.7335H47.6462L47.613 54.6299L45.8552 49.2227L45.821 49.1192L45.9099 49.0557L50.5115 45.71L50.5994 45.6456L50.6882 45.71Z" fill="#8AAFDB" stroke="#3E3A39" stroke-width="0.3"/>
<path d="M40.0667 25.3196C40.7645 24.5637 41.8688 24.3639 42.7502 24.8343L42.7512 24.8353C42.9736 24.9553 43.4255 25.2585 43.7395 25.8734C44.0548 26.4912 44.2223 27.4061 43.9026 28.7298C43.721 29.4889 43.4507 30.0003 43.1614 30.3655C42.8725 30.7301 42.5682 30.9411 42.3372 31.1028L42.3381 31.1038C42.2098 31.1948 42.1533 31.2388 42.1262 31.265C42.1227 31.2683 42.12 31.271 42.1184 31.2728L42.0764 31.4163C41.9695 31.689 41.7264 31.8838 41.4446 31.9359V31.9554H41.2942C41.253 31.9554 41.1964 31.9538 41.1321 31.9368V31.9388C40.6782 31.8491 40.3814 31.4065 40.4709 30.9525L40.4993 30.8294C40.6605 30.2321 41.0889 29.9345 41.3743 29.7357L41.6292 29.5443C41.7107 29.4754 41.7895 29.3976 41.8645 29.2991C42.0143 29.1025 42.1579 28.815 42.2717 28.3421V28.3411C42.5804 27.0605 42.2551 26.4789 41.9592 26.3187V26.3177C41.7553 26.2117 41.4883 26.2589 41.2991 26.4632L41.2981 26.4622C40.9844 26.8036 40.4533 26.8266 40.1116 26.5081C39.7698 26.1942 39.7474 25.6613 40.0667 25.3196Z" fill="#3E3A39" stroke="#3E3A39" stroke-width="0.3"/>
<path d="M22.9186 41.5601C23.216 41.5114 23.5184 41.6241 23.7096 41.8521L23.7848 41.9576L23.7858 41.9586C26.2561 46.1387 31.4755 47.2751 35.0856 45.9527L35.1676 45.9273C35.5822 45.8198 36.0146 46.0472 36.1617 46.4517L36.1627 46.4527C36.3187 46.8881 36.0956 47.3705 35.6627 47.5279V47.5269C31.5555 49.0288 25.6939 47.8389 22.6608 43.317C16.0408 44.7189 11.0555 50.1941 10.2584 56.9195L10.194 57.5767C10.1644 57.9666 9.87347 58.2733 9.50842 58.3404V58.3599H9.2926V58.3589C8.82632 58.3252 8.48572 57.9203 8.51917 57.4576L8.55139 57.0845C9.31683 49.2761 15.1721 42.9219 22.9166 41.5601H22.9186Z" fill="#3E3A39" stroke="#3E3A39" stroke-width="0.3"/>
<path d="M19.5071 24.7634C20.3607 24.401 21.3715 24.6203 22.0217 25.3298H22.0227C22.3362 25.6713 22.314 26.2035 21.9778 26.5173H21.9768C21.6353 26.8308 21.1041 26.8086 20.7903 26.4724H20.7893C20.5997 26.2676 20.3357 26.2206 20.1262 26.3289L20.1252 26.3279C19.9782 26.4065 19.8262 26.5881 19.7473 26.9167C19.6681 27.2467 19.6661 27.7176 19.8167 28.3513C19.932 28.8349 20.0978 29.1619 20.2834 29.4109C20.4705 29.6618 20.6819 29.8394 20.9036 30.0242H20.9045C21.2549 30.3199 21.698 30.6872 21.8245 31.3298C21.914 31.7838 21.6171 32.2265 21.1633 32.3162V32.3152C21.109 32.3261 21.0573 32.3328 21.0002 32.3328H20.8508V32.3132C20.5216 32.2525 20.2454 31.9967 20.177 31.6501V31.6482C20.1773 31.6495 20.1757 31.642 20.1633 31.6238C20.1503 31.6046 20.1289 31.5801 20.0979 31.5486C20.0353 31.4849 19.946 31.4073 19.8274 31.3074C19.3214 30.8857 18.5467 30.2298 18.1858 28.739V28.738C17.8686 27.4149 18.0353 26.4998 18.3499 25.8816C18.6632 25.2658 19.1144 24.9617 19.3381 24.8435L19.5071 24.7634Z" fill="#3E3A39" stroke="#3E3A39" stroke-width="0.3"/>
<path d="M40.4862 30.9031C40.59 30.4899 40.9917 30.213 41.4276 30.281L41.4266 30.282C41.8589 30.3453 42.1605 30.7277 42.1415 31.1521L42.1327 31.238C41.1048 38.063 36.4956 43.0777 31.1249 43.0779H31.1151C25.9077 43.0777 21.4233 38.3759 20.2137 31.8728L20.1073 31.238C20.0402 30.7793 20.3533 30.3538 20.8114 30.281H20.8134C21.2435 30.2181 21.6445 30.4894 21.7528 30.9011L21.7704 30.9851V30.9871C22.6851 37.0507 26.6373 41.3923 31.12 41.3923C35.6027 41.3923 39.5549 37.0507 40.4696 30.9871L40.4862 30.9031Z" fill="#3E3A39" stroke="#3E3A39" stroke-width="0.3"/>
<path d="M39.1675 15.2548C39.4417 14.8857 39.9685 14.8015 40.3442 15.0819H40.3433C41.4689 15.9173 42.3667 17.2449 42.9663 18.6493C43.5658 20.0536 43.875 21.5526 43.8091 22.743C43.7877 23.1642 43.4565 23.4943 43.0513 23.5341L42.9692 23.538H42.9253C42.4878 23.5169 42.1514 23.1652 42.1294 22.7401V22.6532C42.1807 21.7214 41.9139 20.483 41.4136 19.3124C40.9133 18.142 40.1891 17.062 39.3423 16.4325L39.2749 16.3778C38.9569 16.0911 38.9108 15.6054 39.1665 15.2557L39.1675 15.2548Z" fill="#3E3A39" stroke="#3E3A39" stroke-width="0.3"/>
<path d="M32.9147 8.93591C33.3795 8.93591 33.7555 9.31195 33.7555 9.77673C33.7554 10.2414 33.3794 10.6166 32.9147 10.6166C28.7105 10.6166 25.2448 12.4183 22.7584 14.8461C20.2692 17.2765 18.771 20.3252 18.4948 22.8021C18.4494 23.2335 18.0862 23.544 17.6647 23.5463V23.5472H17.5787L17.5699 23.5463C17.1106 23.4957 16.7755 23.0819 16.8258 22.6176L16.9 22.0834C17.3526 19.3846 18.9914 16.2221 21.5846 13.6771C24.3538 10.9596 28.2213 8.93595 32.9147 8.93591Z" fill="#3E3A39" stroke="#3E3A39" stroke-width="0.3"/>
<path d="M37.1116 11.0527C37.3802 11.0527 37.6323 11.1815 37.7893 11.3945C37.9458 11.607 37.9967 11.8874 37.9124 12.1465L37.6155 13.0898C38.4411 12.8863 39.4793 12.7326 40.4211 12.8975L40.6292 12.9395L40.718 12.9648C40.9204 13.0364 41.0906 13.1847 41.1887 13.376C41.3008 13.5946 41.312 13.8567 41.217 14.0859L41.2161 14.0869L40.4846 15.8174C40.3501 16.1365 40.0367 16.332 39.7112 16.332H39.6497L39.6409 16.3232C39.554 16.3159 39.4659 16.296 39.3821 16.2607C38.9556 16.0812 38.7552 15.5881 38.9338 15.1582L39.2043 14.5117C38.6225 14.554 38.0316 14.696 37.5627 14.8369C37.037 14.9949 36.6773 15.1486 36.6682 15.1523L36.6594 15.1562C36.3578 15.2846 36.0107 15.2287 35.7649 15.0107L35.7639 15.0098C35.5231 14.7913 35.4276 14.4499 35.5227 14.1367L35.5237 14.1357L35.9377 12.8105C35.1096 12.9176 34.3625 13.1169 33.8059 13.2969C33.5027 13.3949 33.2562 13.4867 33.0852 13.5547C32.9138 13.6229 32.8206 13.6661 32.8206 13.666L32.8176 13.668C32.3964 13.8645 31.898 13.678 31.7024 13.2588C31.5183 12.8641 31.6697 12.4021 32.0344 12.1846L32.1106 12.1436C32.23 12.087 34.5019 11.0527 37.1116 11.0527Z" fill="#3E3A39" stroke="#3E3A39" stroke-width="0.3"/>
<path d="M50.6313 36.0262C58.4543 36.0262 64.8169 42.3889 64.8169 50.2118C64.8169 58.0347 58.4543 64.3973 50.6313 64.3973C42.8085 64.3973 36.4458 58.0347 36.4458 50.2118C36.4458 42.3889 42.8085 36.0263 50.6313 36.0262ZM50.6313 37.7069C43.738 37.707 38.1265 43.3185 38.1265 50.2118C38.1265 57.1051 43.738 62.7166 50.6313 62.7167C57.5247 62.7167 63.1362 57.1051 63.1362 50.2118C63.1362 43.3185 57.5247 37.7069 50.6313 37.7069Z" fill="#3E3A39" stroke="#3E3A39" stroke-width="0.3"/>
<path d="M17.4988 43.8491C17.9636 43.8491 18.3396 44.2251 18.3396 44.6899L18.3162 57.5746L18.3123 57.6606C18.2693 58.0847 17.912 58.4144 17.4763 58.4145C17.0116 58.4145 16.6356 58.0394 16.6355 57.5746L16.6589 44.6899C16.6589 44.2252 17.0342 43.8493 17.4988 43.8491Z" fill="#3E3A39" stroke="#3E3A39" stroke-width="0.3"/>
<path d="M22.5608 42.0084C23.0255 42.0085 23.4006 42.3845 23.4006 42.8492V57.5748C23.4005 58.0394 23.0254 58.4146 22.5608 58.4147C22.0961 58.4147 21.7201 58.0395 21.72 57.5748V42.8492C21.72 42.3845 22.096 42.0084 22.5608 42.0084Z" fill="#3E3A39" stroke="#3E3A39" stroke-width="0.3"/>
<path d="M22.1011 53.0526C22.5658 53.0527 22.9409 53.4287 22.9409 53.8934C22.9408 54.358 22.5657 54.7331 22.1011 54.7332H17.9595C17.4947 54.7332 17.1187 54.3581 17.1187 53.8934C17.1187 53.4286 17.4947 53.0526 17.9595 53.0526H22.1011Z" fill="#3E3A39" stroke="#3E3A39" stroke-width="0.3"/>
<path d="M22.1011 48.9111C22.5658 48.9113 22.9409 49.2872 22.9409 49.752C22.9408 50.2166 22.5657 50.5917 22.1011 50.5918H17.9595C17.4947 50.5918 17.1187 50.2167 17.1187 49.752C17.1187 49.2872 17.4947 48.9111 17.9595 48.9111H22.1011Z" fill="#3E3A39" stroke="#3E3A39" stroke-width="0.3"/>
<path d="M28.0831 29.1236C28.5479 29.1236 28.923 29.4997 28.923 29.9644C28.9229 30.4291 28.5478 30.8042 28.0831 30.8043H25.7823C25.3176 30.8043 24.9416 30.4291 24.9415 29.9644C24.9415 29.4996 25.3176 29.1236 25.7823 29.1236H28.0831Z" fill="#3E3A39" stroke="#3E3A39" stroke-width="0.3"/>
<path d="M36.3663 29.1236C36.8311 29.1236 37.2062 29.4997 37.2062 29.9644C37.2061 30.4291 36.831 30.8042 36.3663 30.8043H34.0656C33.6008 30.8043 33.2248 30.4291 33.2247 29.9644C33.2247 29.4996 33.6008 29.1236 34.0656 29.1236H36.3663Z" fill="#3E3A39" stroke="#3E3A39" stroke-width="0.3"/>
<path d="M49.9774 45.1519C50.273 44.94 50.6712 44.9392 50.9637 45.1529H50.9628L55.4393 48.4058H55.4403C55.7369 48.6186 55.8595 48.999 55.743 49.3463L54.0321 54.6119C53.9213 54.9547 53.6031 55.1861 53.245 55.192V55.1939H47.7089C47.3452 55.1938 47.0203 54.959 46.9081 54.6119L45.1962 49.3472C45.0845 49.001 45.2071 48.6202 45.4989 48.4068H45.4999L49.9774 45.1529V45.1519ZM46.9833 49.4088L48.3153 53.5132H52.6337L53.9657 49.4088L50.4745 46.8716L46.9833 49.4088Z" fill="#3E3A39" stroke="#3E3A39" stroke-width="0.3"/>
<path d="M50.6313 40.1678C51.0961 40.1679 51.4712 40.5439 51.4712 41.0087V45.6102C51.4712 46.0749 51.096 46.45 50.6313 46.4501C50.1666 46.4501 49.7905 46.075 49.7905 45.6102V41.0087C49.7905 40.5439 50.1666 40.1678 50.6313 40.1678Z" fill="#3E3A39" stroke="#3E3A39" stroke-width="0.3"/>
<path d="M40.876 46.9897C41.0212 46.5486 41.4915 46.3069 41.9346 46.4526L46.3105 47.8745H46.3115C46.7525 48.0198 46.9942 48.4901 46.8486 48.933V48.934C46.7316 49.2851 46.407 49.5151 46.0479 49.5151H45.8984V49.4955C45.8624 49.4893 45.8259 49.4821 45.79 49.4702V49.4711L41.4141 48.0493H41.4131C40.9718 47.904 40.7301 47.4329 40.876 46.9897Z" fill="#3E3A39" stroke="#3E3A39" stroke-width="0.3"/>
<path d="M46.8784 53.6409C47.1441 53.3452 47.58 53.2754 47.9263 53.4759L47.9995 53.5228V53.5237C48.3506 53.7805 48.4474 54.2588 48.2319 54.6273L48.1841 54.6995L45.5659 58.3021C45.4035 58.526 45.1466 58.6497 44.8882 58.6497H44.8833C44.7105 58.6497 44.5411 58.5991 44.3901 58.4876C44.039 58.2308 43.942 57.7516 44.1577 57.3831L44.2056 57.3109L46.8237 53.7083L46.8784 53.6409Z" fill="#3E3A39" stroke="#3E3A39" stroke-width="0.3"/>
<path d="M59.293 46.4478C59.7333 46.3085 60.2037 46.5422 60.3496 46.9849C60.4958 47.4291 60.2485 47.8994 59.8135 48.0444H59.8125L55.4355 49.4653L55.4365 49.4663C55.4008 49.4782 55.364 49.4845 55.3281 49.4907V49.5103H55.1777C54.825 49.5102 54.4945 49.2868 54.377 48.9292L54.3545 48.8452C54.2629 48.4271 54.5062 48.0056 54.9141 47.8696H54.915L59.291 46.4478H59.293Z" fill="#3E3A39" stroke="#3E3A39" stroke-width="0.3"/>
<path d="M53.2212 53.5237C53.597 53.249 54.1231 53.3338 54.397 53.7083L56.813 57.0306L56.8599 57.1028C57.0756 57.4713 56.9796 57.9495 56.6284 58.2064L56.6265 58.2083C56.4788 58.3122 56.3062 58.3684 56.1353 58.3685H56.1304C55.8737 58.3685 55.6143 58.2512 55.4507 58.0198V58.0189L53.0366 54.6995C52.7619 54.3237 52.8466 53.7977 53.2212 53.5237Z" fill="#3E3A39" stroke="#3E3A39" stroke-width="0.3"/>
<path d="M60.3599 41.7668C60.5052 41.3257 60.9754 41.0839 61.4185 41.2297C61.8594 41.3748 62.1007 41.8445 61.9556 42.2874L60.4243 47.0022L64.4644 49.9387H64.4653C64.8399 50.2127 64.9247 50.7397 64.6499 51.1155L64.6489 51.1145C64.4865 51.3382 64.2295 51.4622 63.9712 51.4622H63.9673C63.7944 51.4622 63.6252 51.4106 63.4741 51.2991V51.3L58.9409 48.0051V48.0042C58.6447 47.7909 58.5222 47.4108 58.6392 47.0637L60.3589 41.7678L60.3599 41.7668Z" fill="#3E3A39" stroke="#3E3A39" stroke-width="0.3"/>
<path d="M39.8228 41.2657C40.2368 41.1348 40.676 41.3378 40.8491 41.7237L40.8804 41.8028V41.8038L42.5874 47.0635V47.0645C42.6851 47.3675 42.6037 47.6966 42.3862 47.9171L42.2847 48.0049L37.7886 51.2715L37.7866 51.2735C37.6389 51.3774 37.4664 51.4337 37.2954 51.4337C37.0392 51.4336 36.7814 51.3166 36.6177 51.086V51.087C36.343 50.7112 36.4277 50.1851 36.8022 49.9112L40.8042 47.002L39.2837 42.3253C39.1376 41.8811 39.3858 41.4117 39.8208 41.2667L39.8228 41.2657Z" fill="#3E3A39" stroke="#3E3A39" stroke-width="0.3"/>
<path d="M61.6804 56.7339C62.1451 56.734 62.5203 57.11 62.5203 57.5747C62.5202 58.0393 62.145 58.4144 61.6804 58.4146H56.9255L55.45 62.9585L55.449 62.9595C55.332 63.3104 55.0082 63.5413 54.6492 63.5415H54.6443C54.6033 63.5415 54.5602 63.5381 54.5164 63.5317L54.3855 63.5015C53.9443 63.3562 53.7025 62.885 53.8484 62.4419L55.5134 57.3169C55.6255 56.9695 55.9504 56.7341 56.3142 56.7339H61.6804Z" fill="#3E3A39" stroke="#3E3A39" stroke-width="0.3"/>
<path d="M44.912 56.7339C45.2758 56.734 45.6007 56.9694 45.7128 57.3169L47.3739 62.4282L47.3964 62.5122C47.4881 62.9295 47.2494 63.3507 46.8358 63.4868L46.8368 63.4878C46.7496 63.5169 46.6595 63.5268 46.578 63.5269H46.5731C46.2204 63.5269 45.8898 63.3035 45.7723 62.9458V62.9448L44.3007 58.4146H39.5878C39.123 58.4146 38.747 58.0394 38.7469 57.5747C38.7469 57.1099 39.123 56.7339 39.5878 56.7339H44.912Z" fill="#3E3A39" stroke="#3E3A39" stroke-width="0.3"/>
<path d="M54.666 36.8022C55.1102 36.6561 55.5795 36.9044 55.7246 37.3393L55.7256 37.3403L55.7803 37.5112C55.8924 37.8586 55.769 38.2335 55.4795 38.4506L55.4775 38.4516L50.9863 41.7143C50.8413 41.8202 50.6677 41.8764 50.4932 41.8764H50.4307L50.4199 41.8657C50.3126 41.8566 50.2067 41.8295 50.1094 41.7797L49.9951 41.7094L45.5049 38.4477L45.4014 38.3598C45.1812 38.1393 45.0999 37.8078 45.2012 37.5082L45.2188 37.4487L45.2197 37.4457C45.3655 37.0028 45.8421 36.7678 46.2793 36.9135C46.4655 36.9756 46.6167 37.0975 46.7188 37.2543L50.4883 39.9946L54.123 37.3549C54.2022 37.102 54.3948 36.8909 54.666 36.8022Z" fill="#3E3A39" stroke="#3E3A39" stroke-width="0.3"/>
</svg>
