<svg width="20" height="20" viewBox="0 0 20 20" fill="none" xmlns="http://www.w3.org/2000/svg">
<rect width="16.6667" height="16.6667" rx="8.33333" transform="matrix(1 0 0 -1 1.66669 18.3333)" fill="#244874"/>
<path d="M9.916 7.86743C10.4683 7.86743 10.916 7.41972 10.916 6.86743C10.916 6.31515 10.4683 5.86743 9.916 5.86743C9.36371 5.86743 8.916 6.31515 8.916 6.86743C8.916 7.41972 9.36371 7.86743 9.916 7.86743Z" fill="white"/>
<path d="M8.69933 8.69255C8.58887 8.69255 8.49933 8.78209 8.49933 8.89254V9.49254C8.49933 9.603 8.58887 9.69254 8.69933 9.69254H9.2173C9.32775 9.69254 9.4173 9.78209 9.4173 9.89254V12.9947H8.53331C8.42286 12.9947 8.33331 13.0843 8.33331 13.1947V13.7947C8.33331 13.9052 8.42286 13.9947 8.53331 13.9947H11.4666C11.5771 13.9947 11.6666 13.9052 11.6666 13.7947V13.1947C11.6666 13.0843 11.5771 12.9947 11.4666 12.9947H10.9173V8.89254C10.9173 8.78209 10.8278 8.69255 10.7173 8.69255H8.69933Z" fill="white"/>
</svg>
