<svg width="36" height="36" viewBox="0 0 36 36" fill="none" xmlns="http://www.w3.org/2000/svg">
<g clip-path="url(#clip0_13367_87536)">
<path d="M18 0C8.07491 0 0 8.07491 0 18C0 27.9251 8.07491 36 18 36C27.9251 36 36 27.9251 36 18C36 8.07491 27.9251 0 18 0ZM18 32.7273C9.87927 32.7273 3.27273 26.1207 3.27273 18C3.27273 9.87927 9.87927 3.27273 18 3.27273C26.1207 3.27273 32.7273 9.87927 32.7273 18C32.7273 26.1207 26.1207 32.7273 18 32.7273Z" fill="#54A7DD"/>
<path d="M18.0002 7.63647C16.7969 7.63647 15.8184 8.61611 15.8184 9.81938C15.8184 11.0227 16.7969 12.0001 18.0002 12.0001C19.2035 12.0001 20.182 11.0216 20.182 9.81938C20.182 8.6172 19.2035 7.63647 18.0002 7.63647Z" fill="#54A7DD"/>
<path d="M18.0001 15.2727C17.0969 15.2727 16.3638 16.0058 16.3638 16.9091V26.7273C16.3638 27.6305 17.0969 28.3636 18.0001 28.3636C18.9034 28.3636 19.6365 27.6305 19.6365 26.7273V16.9091C19.6365 16.0058 18.9034 15.2727 18.0001 15.2727Z" fill="#54A7DD"/>
</g>
<defs>
<clipPath id="clip0_13367_87536">
<rect width="36" height="36" fill="white"/>
</clipPath>
</defs>
</svg>
