<svg width="36" height="36" viewBox="0 0 36 36" fill="none" xmlns="http://www.w3.org/2000/svg">
<g clip-path="url(#clip0_13367_87527)">
<path d="M18 0C8.05922 0 0 8.05922 0 18C0 27.9408 8.05922 36 18 36C27.9408 36 36 27.9408 36 18C35.9895 8.06344 27.9366 0.0105469 18 0ZM18 32.9998C9.71578 32.9998 3.00023 26.2842 3.00023 18C3.00023 9.71578 9.71578 3.00023 18 3.00023C26.2842 3.00023 32.9998 9.71578 32.9998 18C32.9906 26.2807 26.28 32.9906 18 32.9998Z" fill="#D7424E"/>
<path d="M24.3633 11.6353C23.7776 11.0496 22.8284 11.0496 22.242 11.6353L18 15.8786L13.7581 11.6353C13.1822 11.0397 12.233 11.0229 11.6367 11.5987C11.0412 12.1746 11.0243 13.1238 11.6002 13.72C11.6121 13.7327 11.6248 13.7447 11.6367 13.7566L15.8787 18L11.6367 22.2433C11.051 22.829 11.051 23.7782 11.6367 24.3647C12.2309 24.9286 13.1632 24.9286 13.7581 24.3647L18 20.1213L22.242 24.3647C22.8326 24.9384 23.772 24.9384 24.3633 24.3647C24.949 23.7789 24.949 22.8297 24.3633 22.2433L20.1214 18L24.3633 13.7566C24.949 13.1709 24.949 12.2217 24.3633 11.6353Z" fill="#D7424E"/>
</g>
<defs>
<clipPath id="clip0_13367_87527">
<rect width="36" height="36" fill="white"/>
</clipPath>
</defs>
</svg>
