<svg width="37" height="36" viewBox="0 0 37 36" fill="none" xmlns="http://www.w3.org/2000/svg">
<g clip-path="url(#clip0_13473_57474)">
<path d="M35.4092 24.9992L24.4044 4.62263C23.2136 2.41763 21.0058 1.10081 18.4999 1.10081C15.9934 1.10081 13.7867 2.41763 12.5953 4.62319L1.59113 24.9992C0.457133 27.099 0.510008 29.5768 1.73232 31.626C2.95463 33.6752 5.10901 34.8986 7.4957 34.8986H29.5041C31.8902 34.8986 34.0446 33.6752 35.2669 31.626C36.4898 29.5768 36.5426 27.0996 35.4092 24.9992ZM32.3689 29.8969C31.7614 30.9161 30.6904 31.5242 29.5041 31.5242H7.4957C6.30938 31.5242 5.23838 30.9161 4.63088 29.8969C4.02282 28.8782 3.99695 27.6469 4.56057 26.6034L15.5648 6.22632C16.1565 5.13057 17.2539 4.47638 18.4999 4.47581C19.7458 4.47581 20.8433 5.13056 21.435 6.22688L32.4392 26.6034C33.0028 27.6469 32.9764 28.8788 32.3689 29.8969Z" fill="#DF6871"/>
<path d="M18.4999 24.4671C17.5459 24.4671 16.7725 25.2405 16.7725 26.1945C16.7725 27.1485 17.5459 27.9219 18.4999 27.9219C19.4539 27.9219 20.2273 27.1485 20.2273 26.1945C20.2273 25.2405 19.4539 24.4671 18.4999 24.4671Z" fill="#DF6871"/>
<path d="M18.5 22.3628C19.4321 22.3628 20.1875 21.6073 20.1875 20.6753V15.3253C20.1875 14.3933 19.4321 13.6378 18.5 13.6378C17.5679 13.6378 16.8125 14.3933 16.8125 15.3253V20.6753C16.8125 21.6073 17.5679 22.3628 18.5 22.3628Z" fill="#DF6871"/>
</g>
<defs>
<clipPath id="clip0_13473_57474">
<rect width="36" height="36" fill="white" transform="translate(0.5)"/>
</clipPath>
</defs>
</svg>
