<svg width="40" height="40" viewBox="0 0 40 40" fill="none" xmlns="http://www.w3.org/2000/svg">
<path d="M20 0.5C30.7696 0.5 39.5 9.23045 39.5 20C39.5 30.7696 30.7696 39.5 20 39.5C9.23045 39.5 0.5 30.7696 0.5 20C0.5 9.23045 9.23045 0.5 20 0.5Z" fill="white"/>
<path d="M20 0.5C30.7696 0.5 39.5 9.23045 39.5 20C39.5 30.7696 30.7696 39.5 20 39.5C9.23045 39.5 0.5 30.7696 0.5 20C0.5 9.23045 9.23045 0.5 20 0.5Z" stroke="#CDD1D5"/>
<path fill-rule="evenodd" clip-rule="evenodd" d="M23.5947 27.7352C23.2991 28.0636 22.7933 28.0902 22.4649 27.7946L14.4649 20.5945C14.2963 20.4427 14.2 20.2266 14.2 19.9998C14.2 19.773 14.2963 19.5569 14.4649 19.4052L22.4649 12.2052C22.7933 11.9096 23.2991 11.9362 23.5947 12.2647C23.8902 12.5931 23.8636 13.0989 23.5352 13.3945L16.1959 19.9998L23.5352 26.6054C23.8636 26.901 23.8902 27.4068 23.5947 27.7352Z" fill="#33363D"/>
</svg>
