<svg width="36" height="36" viewBox="0 0 36 36" fill="none" xmlns="http://www.w3.org/2000/svg">
<g clip-path="url(#clip0_13367_87545)">
<path fill-rule="evenodd" clip-rule="evenodd" d="M3.27273 18C3.27273 9.87273 9.87273 3.27273 18 3.27273C26.1273 3.27273 32.7273 9.87273 32.7273 18C32.7273 26.1273 26.1273 32.7273 18 32.7273C9.87273 32.7273 3.27273 26.1273 3.27273 18ZM18 0C8.05455 0 0 8.05455 0 18C0 27.9455 8.05455 36 18 36C27.9455 36 36 27.9455 36 18C36 8.05455 27.9455 0 18 0ZM19.4182 25.2C19.4182 24.1818 18.6 23.3636 17.5818 23.3636H17.5091C16.4909 23.3636 15.6727 24.1818 15.6727 25.2C15.6727 26.2182 16.4909 27.0364 17.5091 27.0364H17.5818C18.6 27.0364 19.4182 26.2182 19.4182 25.2ZM12.0727 13.1091C11.8182 14.0545 12.6364 14.8545 13.6 14.8545H14.1273C14.8 14.8545 15.3091 14.3091 15.4727 13.6545C15.5636 13.2727 15.7091 12.9455 15.9091 12.6727C16.1091 12.3818 16.3636 12.1636 16.6727 12C16.9818 11.8182 17.3636 11.7455 17.8 11.7455C18.4364 11.7455 18.9273 11.9273 19.2727 12.2727C19.6364 12.6182 19.8182 13.1636 19.8182 13.8909C19.8182 14.3273 19.7636 14.6727 19.5818 14.9636C19.4182 15.2545 19.2 15.5091 18.9455 15.7455C18.6909 15.9818 18.3818 16.2182 18.0545 16.4545C17.7273 16.6909 17.4364 16.9818 17.1455 17.3091C16.8545 17.6182 16.6 18.0182 16.3818 18.4727C16.1818 18.9273 16.0545 19.5091 16 20.1818C16 20.7818 16.4727 21.2545 17.0727 21.2545H18.3091C18.8182 21.2545 19.2182 20.8545 19.2182 20.3455C19.2727 19.8727 19.4364 19.4727 19.6727 19.1455C19.9273 18.8364 20.2182 18.5455 20.5273 18.3091C20.8364 18.0545 21.1818 17.8 21.5273 17.5636C21.8909 17.3091 22.2182 17 22.5091 16.6545C22.8182 16.3091 23.0545 15.8909 23.2545 15.4C23.4545 14.9091 23.5636 14.2727 23.5636 13.5091C23.5636 13.0545 23.4545 12.5636 23.2545 12.0364C23.0727 11.4909 22.7455 11 22.2727 10.5273C21.8182 10.0727 21.2 9.69091 20.4364 9.38182C19.6909 9.07273 18.7455 8.90909 17.6182 8.90909C16.7455 8.90909 15.9455 9.05455 15.2364 9.36364C14.5455 9.65455 13.9273 10.0545 13.4182 10.5818C12.9273 11.1091 12.5273 11.7273 12.2545 12.4364C12.1818 12.6364 12.1091 12.8364 12.0545 13.0545L12.0727 13.1091Z" fill="#992F37"/>
</g>
<defs>
<clipPath id="clip0_13367_87545">
<rect width="36" height="36" fill="white"/>
</clipPath>
</defs>
</svg>
