<svg width="36" height="36" viewBox="0 0 36 36" fill="none" xmlns="http://www.w3.org/2000/svg">
<path d="M15.529 24.1232C15.1693 24.1232 14.8091 23.9861 14.5344 23.7114L10.0436 19.2205C9.4946 18.6716 9.4946 17.7809 10.0436 17.2319C10.5925 16.683 11.4832 16.683 12.0322 17.2319L15.529 20.7287L23.9685 12.2892C24.5175 11.7402 25.4082 11.7402 25.9571 12.2892C26.5061 12.8381 26.5061 13.7288 25.9571 14.2778L16.523 23.7119C16.2483 23.9866 15.8886 24.1238 15.5284 24.1238L15.529 24.1232Z" fill="#7FB95E"/>
<mask id="mask0_13678_5734" style="mask-type:luminance" maskUnits="userSpaceOnUse" x="0" y="0" width="36" height="36">
<path d="M36 0H0V36H36V0Z" fill="white"/>
</mask>
<g mask="url(#mask0_13678_5734)">
<path d="M17.9997 36C15.5703 36 13.2131 35.5238 10.993 34.5851C8.84931 33.6786 6.92452 32.3809 5.27183 30.7282C3.61914 29.0755 2.32136 27.1507 1.41486 25.007C0.476189 22.7869 0 20.4292 0 17.9997C0 15.5703 0.476189 13.2131 1.41486 10.993C2.32136 8.84931 3.61914 6.92452 5.27183 5.27183C6.92452 3.61914 8.84931 2.32136 10.993 1.41486C13.2131 0.476189 15.5708 0 17.9997 0C20.4287 0 22.7864 0.476189 25.0065 1.41486C27.1502 2.32136 29.075 3.61914 30.7276 5.27183C32.3803 6.92452 33.6781 8.84931 34.5846 10.993C35.5238 13.2131 35.9995 15.5703 35.9995 17.9997C35.9995 20.4292 35.5233 22.7864 34.5846 25.0065C33.6781 27.1502 32.3803 29.075 30.7276 30.7276C29.075 32.3803 27.1502 33.6781 25.0065 34.5846C22.7864 35.5238 20.4292 35.9995 17.9997 35.9995V36ZM17.9997 2.81231C9.62556 2.81231 2.81231 9.62556 2.81231 17.9997C2.81231 26.3739 9.62556 33.1872 17.9997 33.1872C26.3739 33.1872 33.1872 26.3739 33.1872 17.9997C33.1872 9.62556 26.3744 2.81231 17.9997 2.81231Z" fill="#7FB95E"/>
</g>
</svg>
