<svg width="81" height="80" viewBox="0 0 81 80" fill="none" xmlns="http://www.w3.org/2000/svg">
<circle cx="40.5715" cy="40" r="40" fill="#7D8181"/>
<circle cx="40.5715" cy="40" r="40" fill="#7D8181"/>
<circle cx="40.5715" cy="40" r="35.5" fill="#B1B3B3" stroke="white" stroke-width="3"/>
<path d="M38.4387 29.8281V40.5625H35.4622V38.9219H30.5872V36.6484H35.4622V34.7734H30.8215C29.4973 37.9844 26.4504 40.0352 21.7278 41.0547L20.72 38.6172C25.6067 37.6445 27.8684 35.6289 28.2668 33.0625H21.9153V30.6484H31.5715C31.5715 31.293 31.5247 31.9141 31.4309 32.5H35.4622V29.8281H38.4387ZM38.4387 41.3359V47.1719H27.2825V48.5781H38.9075V50.9453H24.2825V44.9688H35.4387V43.6797H24.259V41.3359H38.4387ZM49.1965 33.1562C49.1731 35.8047 50.6731 38.3828 54.0481 39.4609L52.4543 41.8281C50.1575 41.0547 48.5989 39.5195 47.6965 37.5859C46.7473 39.6953 45.095 41.3477 42.6809 42.2031L41.0637 39.8125C44.6262 38.6641 46.1497 35.875 46.1731 32.9688V30.9297H49.1965V33.1562ZM59.1809 43.4922V51.1562H56.2043V45.8594H44.5325V43.4922H59.1809ZM59.1809 29.8281V42.5312H56.2043V36.25H52.1965V33.7891H56.2043V29.8281H59.1809Z" fill="#F1F2F2"/>
</svg>
