<svg width="81" height="80" viewBox="0 0 81 80" fill="none" xmlns="http://www.w3.org/2000/svg">
<circle cx="40.5713" cy="40" r="40" fill="#244874"/>
<circle cx="40.5713" cy="40" r="40" fill="#244874"/>
<circle cx="40.5713" cy="40" r="35.5" fill="#3C79C2" stroke="white" stroke-width="3"/>
<path d="M39.8682 38.9219V41.1016H31.665V42.4375H37.5479V47.6406H25.665V48.8125H38.1104V51.0156H22.7354V45.625H34.5947V44.5703H22.7119V42.4375H28.6885V41.1016H20.5088V38.9219H39.8682ZM31.6416 29.8047V31.4922H38.04V33.6953H32.0166C32.6025 34.9375 34.7822 35.957 39.0947 36.1328L38.2275 38.3359C34.2666 38.1484 31.5244 37.1406 30.165 35.5234C28.8174 37.1406 26.0635 38.1484 22.0791 38.3359L21.2588 36.1328C25.5361 35.957 27.7041 34.9375 28.3135 33.6953H22.3369V31.4922H28.6885V29.8047H31.6416ZM49.1963 33.1562C49.1729 35.8047 50.6729 38.3828 54.0479 39.4609L52.4541 41.8281C50.1572 41.0547 48.5986 39.5195 47.6963 37.5859C46.7471 39.6953 45.0947 41.3477 42.6807 42.2031L41.0635 39.8125C44.626 38.6641 46.1494 35.875 46.1729 32.9688V30.9297H49.1963V33.1562ZM59.1807 43.4922V51.1562H56.2041V45.8594H44.5322V43.4922H59.1807ZM59.1807 29.8281V42.5312H56.2041V36.25H52.1963V33.7891H56.2041V29.8281H59.1807Z" fill="white"/>
</svg>
