<svg width="51" height="50" viewBox="0 0 51 50" fill="none" xmlns="http://www.w3.org/2000/svg">
<g clip-path="url(#clip0_11273_27341)">
<path d="M40.1674 23.5697V15.2563H8.44012C7.47899 15.2563 6.56791 15.0675 5.73694 14.7199C4.90596 14.3723 4.15507 13.8657 3.53434 13.24C2.9036 12.6142 2.40301 11.8792 2.04259 11.0548C1.69218 10.2304 1.50195 9.32658 1.50195 8.37306C1.50195 7.41955 1.69218 6.51569 2.04259 5.6913C2.393 4.8669 2.9036 4.12197 3.53434 3.50616C4.16509 2.88041 4.90596 2.38379 5.73694 2.02622C6.56791 1.67858 7.47899 1.48987 8.44012 1.48987H40.1674" stroke="#6494CE" stroke-width="3" stroke-linecap="round" stroke-linejoin="round"/>
<path d="M1.50195 41.6269C1.50195 41.7063 1.50195 41.7858 1.50195 41.8653C1.50195 41.9447 1.50195 42.0242 1.51196 42.1036C1.51196 42.1831 1.52198 42.2626 1.53199 42.342C1.53199 42.4215 1.55201 42.5009 1.56202 42.5705C1.68217 43.4048 1.94247 44.1994 2.34294 44.9145C2.7334 45.6297 3.25401 46.2653 3.86473 46.8017C4.47545 47.338 5.18629 47.7651 5.95719 48.0631C6.7281 48.3611 7.56909 48.52 8.45013 48.52H40.1775V40.2065" stroke="#6494CE" stroke-width="3" stroke-linecap="round" stroke-linejoin="round"/>
<path d="M1.50195 8.37305V42.5705" stroke="#6494CE" stroke-width="3" stroke-linecap="round" stroke-linejoin="round"/>
<path d="M9.46143 8.86963H39.677" stroke="#FBBC53" stroke-width="3" stroke-linecap="round" stroke-linejoin="round"/>
<path d="M23.9783 23.2321L16.5996 30.5622H49.4983" stroke="#6494CE" stroke-width="3" stroke-linecap="round" stroke-linejoin="round"/>
</g>
<defs>
<clipPath id="clip0_11273_27341">
<rect width="51" height="50" fill="white"/>
</clipPath>
</defs>
</svg>
