<svg width="43" height="50" viewBox="0 0 43 50" fill="none" xmlns="http://www.w3.org/2000/svg">
<g clip-path="url(#clip0_11273_27378)">
<path d="M8.46777 48.7288H30.7299" stroke="#6494CE" stroke-width="3" stroke-linecap="round" stroke-linejoin="round"/>
<path d="M19.1373 10.7119H6.50318C3.60716 10.7119 1.27002 13.0594 1.27002 15.9492V36.3899C1.27002 39.2797 3.61563 41.6272 6.50318 41.6272H32.6859C35.582 41.6272 37.9191 39.2797 37.9191 36.3899V20.4916" stroke="#6494CE" stroke-width="3" stroke-linejoin="round"/>
<path d="M41.7298 12.1611C41.7298 18.1695 36.8607 23.0509 30.8485 23.0509C24.8363 23.0509 19.9673 18.178 19.9673 12.1611C19.9673 6.14412 24.8363 1.27124 30.8485 1.27124C36.8607 1.27124 41.7298 6.14412 41.7298 12.1611Z" stroke="#FBBC53" stroke-width="3" stroke-linecap="round" stroke-linejoin="round"/>
<path d="M26.1147 12.2458L29.7983 15.9323L35.5819 8.38989" stroke="#FBBC53" stroke-width="3" stroke-linecap="round" stroke-linejoin="round"/>
</g>
<defs>
<clipPath id="clip0_11273_27378">
<rect width="43" height="50" fill="white"/>
</clipPath>
</defs>
</svg>
