<svg width="67" height="50" viewBox="0 0 67 50" fill="none" xmlns="http://www.w3.org/2000/svg">
<g clip-path="url(#clip0_11273_27306)">
<path d="M21.2527 9.16513C21.2527 13.2579 17.9063 16.5812 13.7848 16.5812C9.66337 16.5812 6.31689 13.2579 6.31689 9.16513C6.31689 5.07231 9.66337 1.74908 13.7848 1.74908C17.9063 1.74908 21.2527 5.07231 21.2527 9.16513Z" stroke="#6494CE" stroke-width="3" stroke-linecap="round" stroke-linejoin="round"/>
<path d="M60.6829 9.16513C60.6829 13.2579 57.3365 16.5812 53.215 16.5812C49.0935 16.5812 45.7471 13.2579 45.7471 9.16513C45.7471 5.07231 49.0935 1.74908 53.215 1.74908C57.3365 1.74908 60.6829 5.07231 60.6829 9.16513Z" stroke="#6494CE" stroke-width="3" stroke-linecap="round" stroke-linejoin="round"/>
<path d="M24.8578 28.4048C23.026 24.1255 18.7637 21.1171 13.7851 21.1171C7.15082 21.1171 1.76123 26.4692 1.76123 33.0574V44.6129H14.8771" stroke="#6494CE" stroke-width="3" stroke-linecap="round" stroke-linejoin="round"/>
<path d="M52.1345 44.6129H65.2504V33.0574C65.2504 26.4692 59.8725 21.1171 53.2265 21.1171C48.2479 21.1171 43.9738 24.1255 42.1538 28.4048" stroke="#6494CE" stroke-width="3" stroke-linecap="round" stroke-linejoin="round"/>
<path d="M40.9681 12.8032C40.9681 16.896 37.6333 20.2192 33.5002 20.2192C29.367 20.2192 26.0322 16.896 26.0322 12.8032C26.0322 8.71037 29.3787 5.38715 33.5002 5.38715C37.6216 5.38715 40.9681 8.71037 40.9681 12.8032Z" stroke="#FBBC53" stroke-width="3" stroke-linecap="round" stroke-linejoin="round"/>
<path d="M42.142 28.4048C39.958 26.1544 36.8934 24.7551 33.4999 24.7551C30.1065 24.7551 27.0418 26.1544 24.8578 28.4048C22.7677 30.5504 21.4761 33.4771 21.4761 36.6954V48.2509H45.5237V36.6954C45.5237 33.4771 44.2321 30.5504 42.142 28.4048Z" stroke="#FBBC53" stroke-width="3" stroke-linecap="round" stroke-linejoin="round"/>
</g>
<defs>
<clipPath id="clip0_11273_27306">
<rect width="67" height="50" fill="white"/>
</clipPath>
</defs>
</svg>
