<svg width="41" height="50" viewBox="0 0 41 50" fill="none" xmlns="http://www.w3.org/2000/svg">
<g clip-path="url(#clip0_11273_27394)">
<path d="M30.9808 26.9063C36.7665 21.0522 36.7665 11.56 30.9808 5.69711C25.1864 -0.157013 15.8052 -0.157013 10.0195 5.69711C4.23375 11.5512 4.23375 21.0435 10.0195 26.9063L20.4958 37.5066L30.9721 26.9063H30.9808Z" stroke="#6494CE" stroke-width="3" stroke-linecap="round" stroke-linejoin="round"/>
<path d="M25.1691 15.451C25.1691 18.0509 23.0824 20.1535 20.5129 20.1535C17.9434 20.1535 15.8481 18.0509 15.8481 15.451C15.8481 12.8511 17.9348 10.7485 20.5129 10.7485C23.091 10.7485 25.1691 12.8511 25.1691 15.451Z" stroke="#FBBC53" stroke-width="3" stroke-linecap="round" stroke-linejoin="round"/>
<path d="M26.9799 31.9229H28.0404C28.4457 31.9229 28.8768 31.9926 29.3079 32.1235C29.7391 32.2544 30.1702 32.4463 30.5754 32.6732C30.9807 32.9087 31.3601 33.1792 31.6877 33.4933C32.0154 33.7986 32.2999 34.1389 32.5069 34.4878L34.2141 37.3931L35.9214 40.2984L37.6286 43.2036L39.3359 46.1089C39.5428 46.4666 39.6636 46.7981 39.6894 47.1034C39.7239 47.4088 39.6636 47.688 39.5342 47.9235C39.4049 48.1591 39.1979 48.3423 38.922 48.4732C38.6461 48.6041 38.3012 48.6739 37.8959 48.6739H3.10415C2.69889 48.6739 2.35399 48.6041 2.07807 48.4732C1.80215 48.3423 1.59521 48.1504 1.46587 47.9235C1.33653 47.688 1.2848 47.4175 1.31067 47.1034C1.34516 46.7981 1.45725 46.4578 1.66419 46.1089L3.37144 43.2036L5.0787 40.2984L6.78595 37.3931L8.49321 34.4878C8.70015 34.1301 8.98469 33.7986 9.31235 33.4933C9.64 33.1879 10.028 32.9087 10.4247 32.6732C10.8299 32.4376 11.261 32.2544 11.6922 32.1235C12.1233 31.9926 12.5544 31.9229 12.9597 31.9229H14.0202" stroke="#6494CE" stroke-width="3" stroke-linecap="round" stroke-linejoin="round"/>
<path d="M15.2793 41.895H25.7211" stroke="#FBBC53" stroke-width="3" stroke-linecap="round" stroke-linejoin="round"/>
</g>
<defs>
<clipPath id="clip0_11273_27394">
<rect width="41" height="50" fill="white"/>
</clipPath>
</defs>
</svg>
