<svg width="51" height="50" viewBox="0 0 51 50" fill="none" xmlns="http://www.w3.org/2000/svg">
<g clip-path="url(#clip0_11273_27206)">
<path d="M42.9624 8.03247H39.7975V11.3016C39.7975 13.1067 38.3306 14.5708 36.5321 14.5708C34.7337 14.5708 33.2668 13.1067 33.2668 11.3016V8.03247H17.7538V11.3016C17.7538 13.1067 16.2869 14.5708 14.4784 14.5708C12.6699 14.5708 11.213 13.1067 11.213 11.3016V8.03247H8.04811C4.44113 8.03247 1.50732 10.9607 1.50732 14.5608V41.9775C1.50732 45.5776 4.43108 48.5058 8.04811 48.5058H42.9624C46.5794 48.5058 49.5032 45.5876 49.5032 41.9775V14.5608C49.5032 10.9506 46.5794 8.03247 42.9624 8.03247Z" stroke="#6494CE" stroke-width="3" stroke-linecap="round" stroke-linejoin="round"/>
<path d="M14.4783 1.50421C12.6697 1.50421 11.2129 2.96831 11.2129 4.77337V11.3016C11.2129 13.1067 12.6798 14.5708 14.4783 14.5708C16.2767 14.5708 17.7537 13.1067 17.7537 11.3016V4.77337C17.7537 2.96831 16.2868 1.50421 14.4783 1.50421Z" stroke="#6494CE" stroke-width="3" stroke-linecap="round" stroke-linejoin="round"/>
<path d="M36.532 1.50421C34.7235 1.50421 33.2666 2.96831 33.2666 4.77337V11.3016C33.2666 13.1067 34.7335 14.5708 36.532 14.5708C38.3304 14.5708 39.7973 13.1067 39.7973 11.3016V4.77337C39.7973 2.96831 38.3304 1.50421 36.532 1.50421Z" stroke="#6494CE" stroke-width="3" stroke-linecap="round" stroke-linejoin="round"/>
<path d="M17.7534 28.56L24.8769 35.6599L33.7788 23.225" stroke="#FBBC53" stroke-width="3" stroke-linejoin="round"/>
</g>
<defs>
<clipPath id="clip0_11273_27206">
<rect width="51" height="50" fill="white"/>
</clipPath>
</defs>
</svg>
