<svg width="16" height="16" viewBox="0 0 16 16" fill="none" xmlns="http://www.w3.org/2000/svg">
<path d="M12.5 2C13.6 2 14.5 2.4 15.2 3.2C15.9 4 16.2333 5.06667 15.8 6.4C15.3667 7.73333 14.6333 8.86667 13.6 9.8C12.5667 10.7333 11.3333 11.3667 9.9 11.7L9.3 10.1C10.2333 9.9 11.0667 9.46667 11.8 8.8C12.5333 8.13333 13.0333 7.36667 13.3 6.5C12.9667 6.63333 12.6 6.7 12.2 6.7C11.4667 6.7 10.8667 6.43333 10.4 5.9C9.93333 5.36667 9.7 4.7 9.7 3.9C9.7 3.03333 9.96667 2.3 10.5 1.7C11.0333 1.1 11.7 0.8 12.5 0.8V2ZM4.5 2C5.6 2 6.5 2.4 7.2 3.2C7.9 4 8.23333 5.06667 7.8 6.4C7.36667 7.73333 6.63333 8.86667 5.6 9.8C4.56667 10.7333 3.33333 11.3667 1.9 11.7L1.3 10.1C2.23333 9.9 3.06667 9.46667 3.8 8.8C4.53333 8.13333 5.03333 7.36667 5.3 6.5C4.96667 6.63333 4.6 6.7 4.2 6.7C3.46667 6.7 2.86667 6.43333 2.4 5.9C1.93333 5.36667 1.7 4.7 1.7 3.9C1.7 3.03333 1.96667 2.3 2.5 1.7C3.03333 1.1 3.7 0.8 4.5 0.8V2Z" fill="#191A1A"/>
</svg>
