<svg width="16" height="16" viewBox="0 0 16 16" fill="none" xmlns="http://www.w3.org/2000/svg">
<path d="M3.5 14C2.4 14 1.5 13.6 0.8 12.8C0.1 12 -0.233333 10.9333 0.2 9.6C0.633333 8.26667 1.36667 7.13333 2.4 6.2C3.43333 5.26667 4.66667 4.63333 6.1 4.3L6.7 5.9C5.76667 6.1 4.93333 6.53333 4.2 7.2C3.46667 7.86667 2.96667 8.63333 2.7 9.5C3.03333 9.36667 3.4 9.3 3.8 9.3C4.53333 9.3 5.13333 9.56667 5.6 10.1C6.06667 10.6333 6.3 11.3 6.3 12.1C6.3 12.9667 6.03333 13.7 5.5 14.3C4.96667 14.9 4.3 15.2 3.5 15.2V14ZM11.5 14C10.4 14 9.5 13.6 8.8 12.8C8.1 12 7.76667 10.9333 8.2 9.6C8.63333 8.26667 9.36667 7.13333 10.4 6.2C11.4333 5.26667 12.6667 4.63333 14.1 4.3L14.7 5.9C13.7667 6.1 12.9333 6.53333 12.2 7.2C11.4667 7.86667 10.9667 8.63333 10.7 9.5C11.0333 9.36667 11.4 9.3 11.8 9.3C12.5333 9.3 13.1333 9.56667 13.6 10.1C14.0667 10.6333 14.3 11.3 14.3 12.1C14.3 12.9667 14.0333 13.7 13.5 14.3C12.9667 14.9 12.3 15.2 11.5 15.2V14Z" fill="#191A1A"/>
</svg>
