<svg width="25" height="24" viewBox="0 0 25 24" fill="none" xmlns="http://www.w3.org/2000/svg">
<path fill-rule="evenodd" clip-rule="evenodd" d="M10.1791 22.8781C6.40638 20.5726 2.99122 21.9364 1.82009 22.8318C1.57008 23.0229 1.2356 23.0537 0.95608 22.9112C0.676564 22.7687 0.5 22.4775 0.5 22.1589V9.54298C0.5 9.27825 0.622269 9.02897 0.830023 8.87013C2.35459 7.70453 6.27351 6.19164 10.5721 8.5551C12.4025 7.42448 16.2198 6.31799 20.3133 8.82178C20.5618 8.97378 20.7139 9.24755 20.7139 9.54298V22.1589C20.7139 22.4619 20.554 22.7415 20.2953 22.8908C20.0367 23.0401 19.7192 23.036 19.4643 22.8801C15.6942 20.5742 12.2804 21.9333 11.1056 22.829C11.091 22.8403 11.0759 22.8512 11.0605 22.8615C11.0075 22.8971 10.9512 22.926 10.8929 22.9479C10.7973 22.9839 10.6968 23.0012 10.5965 22.9999C10.5125 22.9989 10.4287 22.9847 10.348 22.9575C10.3027 22.9423 10.2583 22.9229 10.2155 22.8993C10.2032 22.8925 10.191 22.8854 10.1791 22.8781ZM2.15011 20.7169V9.98983C3.49656 9.15578 6.47384 8.21938 9.78189 10.032V20.7772C6.72608 19.408 3.93148 19.9134 2.15011 20.7169ZM11.432 20.7169C13.2134 19.9134 16.008 19.408 19.0638 20.7772V10.032C15.7557 8.21938 12.7784 9.15578 11.432 9.98983V20.7169Z" fill="white"/>
<path d="M15.6346 3.41666C16.0457 2.19011 17.7082 2.15296 18.1957 3.30522L18.2369 3.41736L18.7918 5.07145C18.9189 5.45079 19.1244 5.79792 19.3944 6.08943C19.6643 6.38094 19.9925 6.61004 20.3566 6.76129L20.5058 6.81806L22.1285 7.38297C23.3317 7.8021 23.3681 9.49685 22.2385 9.99377L22.1285 10.0358L20.5058 10.6014C20.1336 10.731 19.7929 10.9404 19.5069 11.2156C19.2208 11.4908 18.9959 11.8253 18.8475 12.1967L18.7918 12.3481L18.2376 14.0028C17.8265 15.2294 16.164 15.2665 15.6772 14.115L15.6346 14.0028L15.0804 12.3488C14.9533 11.9693 14.7479 11.622 14.4779 11.3304C14.208 11.0387 13.8798 10.8095 13.5156 10.6582L13.367 10.6014L11.7444 10.0365C10.5405 9.6174 10.5041 7.92265 11.6344 7.42643L11.7444 7.38297L13.367 6.81806C13.7392 6.68843 14.0797 6.47897 14.3657 6.20378C14.6516 5.9286 14.8764 5.59409 15.0247 5.22284L15.0804 5.07145L15.6346 3.41666ZM22.4365 1C22.5651 1 22.6912 1.03678 22.8003 1.10616C22.9094 1.17555 22.9973 1.27475 23.0539 1.3925L23.0869 1.4745L23.3275 2.19361L24.0337 2.43892C24.1626 2.48356 24.2756 2.56621 24.3583 2.67639C24.4411 2.78657 24.4899 2.91932 24.4986 3.05782C24.5073 3.19631 24.4755 3.33432 24.4071 3.45436C24.3388 3.57439 24.2371 3.67104 24.1148 3.73205L24.0337 3.7657L23.3282 4.01101L23.0876 4.73082C23.0437 4.86218 22.9626 4.97732 22.8545 5.06163C22.7463 5.14594 22.6161 5.19564 22.4802 5.20442C22.3444 5.2132 22.209 5.18068 22.0913 5.11096C21.9736 5.04125 21.8789 4.93749 21.8191 4.81282L21.7861 4.73082L21.5454 4.01171L20.8393 3.7664C20.7104 3.72176 20.5974 3.63911 20.5146 3.52893C20.4318 3.41875 20.383 3.286 20.3743 3.1475C20.3656 3.009 20.3975 2.87099 20.4658 2.75096C20.5342 2.63093 20.6359 2.53428 20.7582 2.47326L20.8393 2.43962L21.5447 2.19431L21.7854 1.4745C21.8317 1.33602 21.9194 1.21581 22.0362 1.13071C22.153 1.04562 22.2929 0.999912 22.4365 1Z" fill="#54A7DD"/>
</svg>
