<svg width="32" height="32" viewBox="0 0 32 32" fill="none" xmlns="http://www.w3.org/2000/svg">
<rect x="29.3335" y="2.66669" width="26.6667" height="26.6667" rx="13.3333" transform="rotate(90 29.3335 2.66669)" fill="#CDD1D5"/>
<path d="M21.247 9.24607C21.6635 8.82966 22.3383 8.8297 22.7548 9.24607C23.1714 9.66263 23.1714 10.3383 22.7548 10.7549L17.5077 16.0009L22.7528 21.2461C23.1694 21.6626 23.1694 22.3383 22.7528 22.7549C22.3364 23.171 21.6615 23.1709 21.245 22.7549L15.9999 17.5097L10.7548 22.7549C10.3383 23.1709 9.66344 23.171 9.24699 22.7549C8.83043 22.3383 8.83043 21.6626 9.24699 21.2461L14.4911 16.0009L9.24504 10.7549C8.82848 10.3383 8.82848 9.66263 9.24504 9.24607C9.66158 8.8297 10.3363 8.82966 10.7528 9.24607L15.9999 14.4931L21.247 9.24607Z" fill="#33363D"/>
</svg>
