<svg width="750" height="375" viewBox="0 0 750 375" fill="none" xmlns="http://www.w3.org/2000/svg">
<g clip-path="url(#clip0_13473_57586)">
<path d="M732.462 129.926C707.616 56.6385 625.353 38.5641 561.33 32.3063C466.473 23.0343 367.692 30.3108 275.637 56.687C213.785 74.4108 136.07 104.022 120.075 184.385C112.515 222.36 114.772 250.522 143.594 274.093C187.713 310.176 219.185 330.665 274.731 330.665C330.277 330.665 410.337 329.739 465.856 330.4C507.851 330.901 553.669 331.366 595.068 323.798C669.962 310.112 754.748 232.342 735.689 141.736C734.833 137.672 733.752 133.736 732.459 129.924L732.462 129.926Z" fill="#EEEDF7"/>
<path d="M609.911 315.437H315.05C308.87 315.437 304.233 309.795 305.449 303.748L345.127 106.097H659.963L619.513 307.585C618.596 312.152 614.577 315.437 609.911 315.437Z" fill="white"/>
<path d="M659.963 106.097H345.127L348.144 91.0718C349.061 86.5052 353.08 83.2198 357.746 83.2198H652.607C658.789 83.2198 663.424 88.8624 662.211 94.9085L659.965 106.097H659.963Z" fill="#8682A1"/>
<path d="M631.517 94.6593C630.991 97.281 628.557 99.4067 626.082 99.4067C623.606 99.4067 622.026 97.281 622.554 94.6593C623.08 92.0376 625.514 89.9119 627.989 89.9119C630.465 89.9119 632.045 92.0376 631.517 94.6593Z" fill="white"/>
<path d="M648.611 94.6593C648.085 97.281 645.651 99.4067 643.176 99.4067C640.7 99.4067 639.12 97.281 639.648 94.6593C640.174 92.0376 642.608 89.9119 645.083 89.9119C647.559 89.9119 649.139 92.0376 648.613 94.6593H648.611Z" fill="white"/>
<path d="M673.101 267.026H522.942C516.76 267.026 512.126 261.384 513.339 255.338L537.351 135.732H707.483L682.702 259.174C681.785 263.739 677.767 267.026 673.098 267.026H673.101Z" fill="#1E203D"/>
<path d="M573.056 160.309C572.609 162.536 570.543 164.342 568.438 164.342C566.334 164.342 564.995 162.536 565.441 160.309C565.888 158.082 567.954 156.276 570.059 156.276C572.163 156.276 573.502 158.082 573.056 160.309Z" fill="#9F7BD1"/>
<path d="M591.363 159.974H626.665C627.494 159.974 627.494 158.688 626.665 158.688H591.363C590.534 158.688 590.532 159.974 591.363 159.974Z" fill="#F5C069"/>
<path d="M569.988 175.585C569.541 177.812 567.475 179.618 565.371 179.618C563.266 179.618 561.927 177.812 562.373 175.585C562.82 173.358 564.886 171.552 566.991 171.552C569.095 171.552 570.434 173.358 569.988 175.585Z" fill="#9F7BD1"/>
<path d="M566.922 190.861C566.476 193.088 564.409 194.894 562.305 194.894C560.201 194.894 558.861 193.088 559.308 190.861C559.754 188.634 561.821 186.828 563.925 186.828C566.029 186.828 567.369 188.634 566.922 190.861Z" fill="#9F7BD1"/>
<path d="M585.23 190.526H620.532C621.361 190.526 621.363 189.241 620.532 189.241H585.23C584.401 189.241 584.401 190.526 585.23 190.526Z" fill="#F5C069"/>
<path d="M563.854 206.137C563.408 208.365 561.341 210.17 559.237 210.17C557.133 210.17 555.793 208.365 556.24 206.137C556.686 203.91 558.753 202.105 560.857 202.105C562.961 202.105 564.301 203.91 563.854 206.137Z" fill="#9F7BD1"/>
<path d="M596.584 205.802H631.886C632.715 205.802 632.717 204.517 631.886 204.517H596.584C595.755 204.517 595.753 205.802 596.584 205.802Z" fill="#9F7BD1"/>
<path d="M560.789 221.414C560.342 223.641 558.275 225.447 556.171 225.447C554.067 225.447 552.728 223.641 553.174 221.414C553.621 219.187 555.687 217.381 557.791 217.381C559.896 217.381 561.235 219.187 560.789 221.414Z" fill="#9F7BD1"/>
<path d="M593.516 221.079H628.818C629.647 221.079 629.649 219.793 628.818 219.793H593.516C592.687 219.793 592.685 221.079 593.516 221.079Z" fill="#9F7BD1"/>
<path d="M557.721 236.69C557.274 238.917 555.208 240.723 553.103 240.723C550.999 240.723 549.66 238.917 550.106 236.69C550.553 234.463 552.619 232.657 554.724 232.657C556.828 232.657 558.167 234.463 557.721 236.69Z" fill="#9F7BD1"/>
<path d="M590.45 236.355H625.752C626.581 236.355 626.581 235.069 625.752 235.069H590.45C589.621 235.069 589.621 236.355 590.45 236.355Z" fill="#9F7BD1"/>
<path d="M602.717 175.25H638.019C638.848 175.25 638.848 173.964 638.019 173.964H602.717C601.888 173.964 601.888 175.25 602.717 175.25Z" fill="#9F7BD1"/>
<path d="M648.92 175.25H666.571C667.4 175.25 667.4 173.964 666.571 173.964H648.92C648.091 173.964 648.089 175.25 648.92 175.25Z" fill="white"/>
<path d="M642.787 205.802H660.438C661.267 205.802 661.269 204.517 660.438 204.517H642.787C641.958 204.517 641.956 205.802 642.787 205.802Z" fill="white"/>
<path d="M639.719 221.079H657.37C658.199 221.079 658.199 219.793 657.37 219.793H639.719C638.89 219.793 638.89 221.079 639.719 221.079Z" fill="white"/>
<path d="M636.653 236.355H648.92C649.749 236.355 649.751 235.069 648.92 235.069H636.653C635.825 235.069 635.825 236.355 636.653 236.355Z" fill="#F5C069"/>
<path d="M707.486 135.73H537.353L539.106 127.002C540.023 122.438 544.041 119.15 548.71 119.15H698.868C705.05 119.15 709.685 124.793 708.469 130.839L707.488 135.73H707.486Z" fill="#667CFF"/>
<path d="M698.455 127.441C698.008 129.668 695.942 131.474 693.837 131.474C691.733 131.474 690.394 129.668 690.84 127.441C691.287 125.214 693.353 123.408 695.457 123.408C697.562 123.408 698.901 125.214 698.455 127.441Z" fill="white"/>
<path d="M683.688 127.441C683.241 129.668 681.175 131.474 679.07 131.474C676.966 131.474 675.627 129.668 676.073 127.441C676.52 125.214 678.586 123.408 680.691 123.408C682.795 123.408 684.134 125.214 683.688 127.441Z" fill="white"/>
<path d="M550.02 308.328H493.692C486.933 308.328 481.865 302.159 483.193 295.548L489.338 264.936C490.339 259.944 494.733 256.352 499.836 256.352H556.165C562.924 256.352 567.992 262.522 566.664 269.132L560.519 299.744C559.518 304.736 555.124 308.328 550.02 308.328Z" fill="#61C98E"/>
<path d="M518.584 271.216C512.163 274.854 505.742 278.492 499.323 282.131C498.603 282.539 499.251 283.65 499.973 283.24C506.394 279.601 512.815 275.963 519.233 272.325C519.954 271.917 519.306 270.806 518.584 271.216Z" fill="white"/>
<path d="M499.321 283.24C503.121 285.978 506.92 288.719 510.72 291.458C511.392 291.943 512.035 290.829 511.369 290.349C507.57 287.61 503.771 284.869 499.971 282.131C499.299 281.645 498.656 282.759 499.321 283.24Z" fill="white"/>
<path d="M538.967 272.226C542.762 275.163 546.559 278.102 550.354 281.039C551.002 281.54 551.919 280.638 551.265 280.131C547.47 277.194 543.672 274.254 539.877 271.317C539.23 270.817 538.312 271.719 538.967 272.226Z" fill="white"/>
<path d="M550.484 280.029C544.075 283.476 537.656 286.902 531.248 290.346C530.519 290.739 531.169 291.848 531.898 291.456C538.308 288.009 544.727 284.583 551.134 281.138C551.863 280.746 551.214 279.637 550.484 280.029Z" fill="white"/>
<path d="M518.791 298.214C523.179 287.793 527.564 277.374 531.951 266.954C532.272 266.193 531.025 265.86 530.709 266.612C526.322 277.03 521.937 287.451 517.549 297.872C517.229 298.633 518.475 298.966 518.791 298.214Z" fill="white"/>
<path d="M357.664 151.687H406.307C407.136 151.687 407.136 150.402 406.307 150.402H357.664C356.835 150.402 356.833 151.687 357.664 151.687Z" fill="#1E203D"/>
<path d="M359.839 140.455H425.581C426.409 140.455 426.412 139.169 425.581 139.169H359.839C359.01 139.169 359.01 140.455 359.839 140.455Z" fill="#1E203D"/>
<path d="M436.577 208.794H353.058C349.084 208.794 346.104 205.167 346.884 201.28L353.752 167.069C354.342 164.134 356.923 162.022 359.925 162.022H443.444C447.418 162.022 450.397 165.649 449.617 169.537L442.75 203.747C442.16 206.682 439.578 208.794 436.577 208.794Z" fill="#667CFF"/>
<path d="M430.277 200.775H406.055C403.273 200.775 401.186 198.235 401.732 195.512L406.135 173.578C406.548 171.523 408.356 170.044 410.458 170.044H434.68C437.463 170.044 439.549 172.584 439.004 175.307L434.601 197.24C434.187 199.295 432.379 200.775 430.277 200.775Z" fill="white"/>
<path d="M481.102 113.957H397.616C391.434 113.957 386.799 108.315 388.013 102.269L401.694 34.1144H505.156L490.703 106.108C489.786 110.672 485.768 113.96 481.1 113.96L481.102 113.957Z" fill="white"/>
<path d="M491.628 98.2512C491.269 100.04 490.909 101.826 490.551 103.614C490.091 105.9 489.716 108.136 488.164 109.999C486.4 112.116 483.801 113.294 481.054 113.316C480.629 113.32 480.205 113.316 479.781 113.316H399.17C398.686 113.316 398.204 113.316 397.72 113.316C395.28 113.307 392.946 112.416 391.2 110.696C389.971 109.486 389.136 107.973 388.711 106.306C388.508 105.506 387.266 105.845 387.469 106.648C388.711 111.532 393.07 114.599 398.028 114.599H478.925C481.211 114.599 483.366 114.608 485.527 113.616C488.522 112.24 490.662 109.442 491.334 106.24C491.74 104.306 492.112 102.364 492.501 100.425C492.624 99.8146 492.746 99.2038 492.87 98.593C493.031 97.786 491.791 97.4398 491.628 98.2512Z" fill="#1E203D"/>
<path d="M505.159 34.1144H401.697L402.707 29.0804C403.297 26.1455 405.878 24.0331 408.88 24.0331H499.5C503.474 24.0331 506.454 27.6604 505.674 31.5478L505.159 34.1144Z" fill="#667CFF"/>
<path d="M499.666 29.0738C499.394 30.4276 498.137 31.5257 496.859 31.5257C495.581 31.5257 494.764 30.4276 495.036 29.0738C495.307 27.7199 496.565 26.6218 497.843 26.6218C499.12 26.6218 499.938 27.7199 499.666 29.0738Z" fill="white"/>
<path d="M490.686 29.0738C490.414 30.4276 489.156 31.5257 487.879 31.5257C486.601 31.5257 485.783 30.4276 486.055 29.0738C486.327 27.7199 487.585 26.6218 488.862 26.6218C490.14 26.6218 490.958 27.7199 490.686 29.0738Z" fill="white"/>
<path d="M459.744 93.7552H451.544C449.336 93.7552 447.681 91.7399 448.114 89.5812L456.84 46.1162C457.167 44.4867 458.602 43.3114 460.271 43.3114H468.471C470.679 43.3114 472.334 45.3268 471.901 47.4855L463.175 90.9505C462.848 92.58 461.413 93.7552 459.744 93.7552Z" fill="#BDBAD4"/>
<path d="M451.16 55.9461L444.131 90.9505C443.804 92.58 442.37 93.7552 440.701 93.7552H432.501C430.293 93.7552 428.637 91.7399 429.071 89.5812L436.099 54.5768C436.426 52.9473 437.861 51.772 439.53 51.772H447.73C449.938 51.772 451.593 53.7874 451.16 55.9461Z" fill="#BDBAD4"/>
<path d="M427.946 76.726L425.092 90.9483C424.765 92.58 423.33 93.753 421.662 93.753H413.462C411.254 93.753 409.598 91.7377 410.031 89.579L412.885 75.3567C413.212 73.725 414.646 72.552 416.315 72.552H424.515C426.723 72.552 428.379 74.5673 427.946 76.726Z" fill="#BDBAD4"/>
<path d="M493.61 181.554C499.023 180.068 504.619 179.453 510.227 179.715C511.056 179.755 511.053 178.469 510.227 178.429C504.511 178.16 498.784 178.8 493.267 180.312C492.47 180.531 492.808 181.772 493.61 181.552V181.554Z" fill="#1E203D"/>
<path d="M498.481 195.88C503.894 194.394 509.491 193.778 515.098 194.041C515.927 194.081 515.925 192.795 515.098 192.755C509.382 192.486 503.656 193.126 498.139 194.638C497.341 194.857 497.679 196.098 498.481 195.878V195.88Z" fill="#1E203D"/>
<path d="M506.58 229.078C508.611 225.672 510.64 222.265 512.671 218.86C513.096 218.148 511.984 217.502 511.56 218.212C509.531 221.619 507.499 225.025 505.47 228.43C505.046 229.142 506.158 229.788 506.582 229.078H506.58Z" fill="#1E203D"/>
<path d="M228.337 105.658C227.749 104.114 226.971 102.648 226.017 101.301C225.866 101.089 225.557 101.091 225.391 101.281C224.934 101.81 224.494 102.353 224.045 102.888C224.408 102.311 224.763 101.729 225.102 101.135C225.309 100.772 224.717 100.518 224.507 100.871C221.112 106.613 216.524 111.547 211.272 115.642C205.943 119.798 200.013 123.13 193.864 125.911C190.732 127.329 187.536 128.596 184.307 129.776C180.56 131.143 176.779 132.438 173.167 134.135C167.007 137.028 160.916 141.432 158.405 148C157.198 151.154 156.862 154.668 157.724 157.952C158.577 161.197 160.704 163.925 163.48 165.777C169.832 170.013 177.955 169.36 185.052 167.718C191.912 166.128 198.47 163.297 204.334 159.405C210.207 155.506 215.341 150.536 219.426 144.799C223.473 139.112 226.498 132.722 228.304 125.984C230.059 119.432 230.804 112.134 228.337 105.658Z" fill="#1E203D"/>
<path d="M121.195 250.994C117.237 249.591 118.249 245.087 119.652 241.506C123.288 232.231 130.591 224.126 137.147 216.796C141.003 212.486 145.031 208.342 149.164 204.301C131.144 193.884 106.194 190.824 89.604 201.866C68.5734 215.866 40.9805 233.246 27.7256 255.157C23.8157 261.62 20.7744 268.927 20.5334 276.563C20.3146 283.454 22.5558 290.049 26.6757 295.557C30.8111 301.087 36.4694 305.338 42.6802 308.295C49.7994 311.684 57.5597 313.488 65.311 314.736C73.7675 316.096 82.3145 316.978 90.8638 317.519C108.064 318.606 150.099 320.775 170.506 320.659C172.844 320.645 172.347 306.353 172.604 305.118C173.001 303.195 173.105 301.204 173.275 299.252C173.47 297.036 173.647 294.818 173.806 292.598C174.292 285.804 174.604 276.179 174.754 269.368C159.872 264.383 129.236 253.84 121.197 250.992L121.195 250.994Z" fill="#BD6548"/>
<path d="M100.304 283.412C109.456 276.872 118.607 270.332 127.76 263.792C128.427 263.315 127.786 262.2 127.11 262.682C117.957 269.223 108.807 275.763 99.6539 282.303C98.9864 282.779 99.6274 283.895 100.304 283.412Z" fill="#1E203D"/>
<path d="M196.465 190.694C195.515 202.484 199.529 219.965 198.952 231.801C195.25 234.483 191.548 237.162 187.85 239.854C182.541 243.72 177.23 247.587 171.921 251.452C166.587 255.335 161.254 259.218 155.921 263.101C150.612 266.967 145.302 270.834 139.993 274.702C136.875 276.973 133.761 279.249 130.644 281.524C124.84 277.189 114.496 266.808 109.227 261.752C103.447 256.204 98.0118 250.251 92.9813 243.944C87.9618 237.651 83.3379 231.008 79.165 224.077C76.5967 219.811 74.2007 215.434 71.9905 210.962C76.9326 208.124 81.762 205.077 86.5163 201.919C96.5597 195.245 106.311 188.114 116.375 181.47C126.398 174.853 136.766 168.701 147.866 164.161C160.043 159.18 173.001 156.406 186.221 155.742C190.752 155.515 195.181 155.352 199.852 155.425C198.523 167.034 197.407 179.025 196.465 190.696V190.694Z" fill="#FFB3D4"/>
<path d="M516.546 96.4365C523.528 121.062 508.651 148.148 483.315 156.939C457.979 165.731 431.78 152.893 424.796 128.27C417.814 103.645 432.691 76.5584 458.027 67.7671C483.363 58.9758 509.562 71.8133 516.546 96.4365Z" fill="#1E203D"/>
<path d="M508.764 99.1376C514.561 119.585 502.208 142.078 481.168 149.379C460.129 156.677 438.376 146.018 432.576 125.571C426.779 105.124 439.132 82.631 460.171 75.3303C481.21 68.0317 502.964 78.6907 508.764 99.1376Z" fill="white"/>
<path d="M511.129 219.881L497.368 225.306L473.884 153.967L487.645 148.543L511.129 219.881Z" fill="#1E203D"/>
<path d="M476.416 159.354C479.294 155.861 484.305 154.243 488.73 154.532C489.556 154.587 489.554 153.301 488.73 153.246C484.002 152.935 478.58 154.715 475.506 158.443C474.984 159.076 475.89 159.991 476.416 159.352V159.354Z" fill="#7D83AB"/>
<path d="M496.139 108.443C496.172 107.656 495.699 107.016 494.947 106.857C492.448 106.333 490.381 104.76 489.391 102.306C488.401 99.8565 488.686 97.0231 489.946 94.4807C490.324 93.7156 490.2 92.8887 489.656 92.4102C488.197 91.1247 486.524 90.053 484.67 89.2372C483.987 88.9373 483.089 89.1159 482.431 89.7069C480.247 91.6627 477.42 92.8909 474.553 92.8909C471.687 92.8909 469.348 91.6627 467.945 89.7047C467.525 89.1181 466.705 88.9351 465.907 89.2328C463.509 90.128 461.208 91.3342 459.068 92.7961C458.337 93.2944 457.926 94.1367 458.016 94.904C458.317 97.4222 457.541 100.253 455.631 102.73C453.724 105.206 451.069 106.833 448.375 107.426C447.548 107.609 446.817 108.255 446.549 109.058C446.189 110.138 445.897 111.239 445.674 112.357C445.409 113.688 445.254 114.998 445.201 116.275C445.17 117.06 445.641 117.699 446.393 117.856C448.892 118.378 450.959 119.953 451.953 122.403C452.944 124.852 452.656 127.688 451.399 130.23C451.021 130.993 451.145 131.822 451.686 132.301C453.143 133.586 454.816 134.66 456.67 135.476C457.353 135.776 458.25 135.595 458.907 135.006C461.091 133.051 463.915 131.827 466.784 131.827C469.653 131.827 471.989 133.053 473.393 135.009C473.813 135.595 474.633 135.778 475.431 135.48C477.829 134.585 480.13 133.379 482.272 131.917C483.003 131.419 483.416 130.574 483.324 129.809C483.023 127.291 483.799 124.462 485.702 121.99C487.607 119.514 490.264 117.885 492.96 117.289C493.787 117.106 494.516 116.46 494.784 115.658C495.144 114.577 495.436 113.475 495.659 112.359C495.924 111.029 496.079 109.724 496.132 108.449L496.139 108.443ZM469.499 118.224C466.249 118.224 464.139 115.596 464.784 112.352C465.432 109.111 468.59 106.48 471.841 106.48C475.093 106.48 477.201 109.109 476.556 112.352C475.908 115.594 472.75 118.224 469.499 118.224Z" fill="#F26A49"/>
<path d="M483.153 112.185C482.033 117.576 477.86 122.167 472.663 123.977C468.031 125.591 462.324 124.81 459.508 120.427C456.61 115.915 458.093 109.982 461.272 106.03C464.581 101.92 470.13 99.0847 475.49 100.125C478.032 100.619 480.353 102.022 481.783 104.203C483.33 106.564 483.677 109.446 483.153 112.182C482.999 112.989 484.241 113.336 484.395 112.524C485.414 107.188 483.211 101.671 477.981 99.5301C472.471 97.2722 466.068 99.4971 461.928 103.424C457.782 107.358 455.24 113.752 457.49 119.302C459.612 124.541 465.23 126.762 470.592 125.84C477.265 124.691 483.021 119.128 484.393 112.524C484.561 111.717 483.319 111.373 483.151 112.182L483.153 112.185Z" fill="white"/>
<path d="M521.046 199.141C519.771 196.753 517.921 194.652 515.651 193.168C516.468 192.105 517.346 190.881 517.755 189.582C518.92 185.876 518.338 182.429 514.316 179.783C513.573 179.294 511.489 178.324 510.569 178.015C512.47 176.282 514.307 174.527 516.075 172.908C519.337 169.923 523.442 163.773 521.621 159.402C521.101 158.159 520.102 157.059 518.464 156.216C510.669 152.212 501.412 157.092 493.869 160.6C486.398 164.075 471.101 171.204 464.393 177.918C464.393 177.918 464.393 177.918 464.393 177.92C455.362 186.191 402.167 249.523 401.568 250.418C398.596 247.06 386.523 232.657 384.178 230.549C377.795 237.129 371.991 244.291 366.777 251.821C361.426 259.549 356.696 267.705 352.658 276.19C350.5 280.719 342.426 292.062 342.426 292.062C352.094 303.098 362.056 314.163 374.451 322.204C386.616 330.096 401.723 334.94 416.273 332.191C430.825 329.441 446.54 318.187 455.883 307.373C466.282 295.336 498.179 243.607 504.98 230.798C505.93 230.549 506.878 230.269 507.831 229.938C512.377 228.368 517.16 224.924 519.225 221.822C521.417 218.525 522.666 214.525 523.057 210.605C523.448 206.698 522.916 202.632 521.053 199.139L521.046 199.141Z" fill="#BD6548"/>
<path d="M401.803 251.353C405.602 255.653 409.402 259.955 413.201 264.255C413.749 264.876 414.658 263.966 414.112 263.346C410.312 259.046 406.513 254.745 402.713 250.445C402.165 249.823 401.257 250.734 401.803 251.353Z" fill="#1E203D"/>
<path d="M380.664 271.913C375.202 279.185 356.192 303.521 330.352 318.76C330.25 318.654 269.254 255.984 269.254 255.984C270.346 247.644 280.099 225.638 281.037 217.284C283.03 199.553 284.668 181.781 285.928 163.982C286.076 161.879 285.046 160.282 285.185 158.177C293.812 158.642 301.019 159.38 307.971 160.915C318.458 163.23 328.117 166.28 337.188 172.022C346.272 177.775 354.063 185.232 360.878 193.498C367.634 201.694 392.685 234.584 398.881 242.566C393.837 254.947 386.152 264.603 380.666 271.908L380.664 271.913Z" fill="#FFB3D4"/>
<path d="M311.191 114.231C309.467 111.997 307.606 109.874 305.623 107.867C305.597 107.823 305.562 107.788 305.52 107.759C305.402 107.64 305.288 107.517 305.168 107.4C304.89 107.124 304.401 107.49 304.68 107.783C304.773 107.88 304.859 107.982 304.952 108.081C304.967 109.466 305.17 110.862 305.294 112.24C305.425 113.677 305.555 115.113 305.683 116.551C305.805 117.9 305.895 119.256 306.052 120.601C306.172 121.626 306.642 122.61 307.787 122.72C308.769 122.813 309.832 122.339 310.709 121.944C311.536 121.571 312.376 121.08 312.915 120.332C314.447 118.206 312.477 115.9 311.191 114.235V114.231Z" fill="#BD6548"/>
<path d="M235.355 90.5536C236.343 84.5891 238.845 78.9134 243.279 74.3931C252.869 64.614 268.584 61.2094 281.165 64.7441C293.787 68.2919 301.939 78.9266 304.817 91.3474C306.558 98.8642 305.568 106.91 306.753 114.511C307.637 120.189 308.253 125.207 308.574 131.247C309.098 141.13 303.707 150.097 292.375 148.351C279.149 146.314 272.547 142.327 263.898 138.373C252.394 133.114 242.436 124.193 237.79 112.271C235.216 105.662 234.144 97.8896 235.359 90.5558L235.355 90.5536Z" fill="#BD6548"/>
<path d="M271.159 121.984C271.159 121.984 267.6 141.864 265.282 154.113C265.282 154.113 263.518 162.67 250.723 160.461C238.721 158.388 239.789 147.634 239.789 147.634L244.291 117.56L271.156 121.984H271.159Z" fill="#FFA67D"/>
<path d="M304.872 160.827C288.434 157.339 270.414 157.519 252.579 156.668C238.77 156.009 193.813 153.985 172.652 157.169C165.661 158.221 160.761 165.246 157.961 171.698C154.402 179.894 155.428 188.667 154.484 197.234C153.436 206.768 152.333 215.921 153.129 225.555C153.186 226.256 153.266 226.957 153.337 227.658C153.299 227.879 153.262 228.101 153.224 228.322C149.429 250.967 145.72 273.628 142.106 296.304C141.649 299.175 141.167 302.101 140.676 305.052C138.442 318.462 148.81 330.671 162.438 330.671H275.601C286.741 330.671 296.256 322.663 298.124 311.706C301.053 294.531 305.232 269.701 307.533 254.692C309.69 240.628 311.746 226.551 313.706 212.459C315.417 200.153 306.691 161.217 304.87 160.831L304.872 160.827Z" fill="#FFB3D4"/>
<path d="M214.561 156.904C221.698 161.936 229.962 165.31 238.591 166.705C247.164 168.092 256.019 167.583 264.367 165.177C269.154 163.797 273.754 161.797 278.039 159.261C278.751 158.84 278.103 157.729 277.39 158.152C269.979 162.538 261.622 165.246 253.033 165.98C244.6 166.701 236.051 165.561 228.116 162.62C223.537 160.922 219.2 158.609 215.211 155.797C214.532 155.319 213.889 156.432 214.561 156.906V156.904Z" fill="#1E203D"/>
<path d="M320.337 307.065C330.851 298.478 340.738 289.138 350.008 279.229C359.127 269.483 367.659 259.19 375.58 248.454C379.904 242.595 384.039 236.602 387.98 230.481C388.428 229.784 387.315 229.138 386.868 229.832C379.804 240.804 372.11 251.373 363.842 261.472C355.334 271.862 346.224 281.767 336.512 291.045C331.013 296.298 325.319 301.345 319.426 306.156C318.786 306.681 319.701 307.585 320.337 307.065Z" fill="#1E203D"/>
<path d="M263.668 247.36C273.203 258.27 282.738 269.181 292.273 280.091C294.983 283.191 297.693 286.291 300.4 289.392C300.946 290.016 301.855 289.105 301.311 288.483C291.776 277.573 282.241 266.663 272.706 255.752C269.996 252.652 267.286 249.552 264.579 246.452C264.033 245.827 263.127 246.738 263.668 247.36Z" fill="#1E203D"/>
<path d="M147.15 269.024C149.977 254.328 152.806 239.631 155.633 224.935C156.442 220.737 157.249 216.536 158.058 212.338C158.212 211.531 156.972 211.185 156.815 211.996C153.989 226.692 151.159 241.389 148.333 256.085C147.524 260.283 146.717 264.484 145.908 268.682C145.753 269.489 146.993 269.836 147.15 269.024Z" fill="#1E203D"/>
<path d="M88.2821 201.668C93.8498 211.641 100.308 221.114 107.204 230.216C114.412 239.728 122.13 248.868 130.343 257.534C134.675 262.105 139.151 266.541 143.808 270.784C144.418 271.339 145.333 270.435 144.719 269.875C136.293 262.2 128.436 253.904 121.007 245.27C113.238 236.238 105.927 226.801 99.2516 216.935C95.755 211.765 92.4374 206.47 89.3939 201.022C88.9916 200.299 87.8776 200.947 88.2821 201.67V201.668Z" fill="#1E203D"/>
<path d="M301.957 76.2034C298.148 71.5509 285.868 63.8753 274.79 60.5479C266.089 57.935 256.35 57.4301 247.635 60.4355C243.336 61.9172 239.484 64.3582 236.243 67.5334C221.819 81.6652 228.103 104.586 211.798 117.56C207.51 120.972 186.15 136.058 181.796 139.194C173.868 144.902 165.628 156.6 165.725 166.807C165.818 176.357 171.558 184.021 179.729 189.512C184.15 192.482 189.39 193.972 194.646 194.563C200.26 195.196 206.005 194.921 211.566 193.986C215.085 193.395 218.555 192.522 221.932 191.373C224.953 190.345 228.083 188.048 231.304 188.817C242.295 191.446 255.409 189.981 265.75 185.549C269.024 184.147 272.074 182.253 274.715 179.865C277.29 177.536 279.474 174.818 281.3 171.874C285.192 165.599 287.515 158.417 288.839 151.189C290.293 143.255 290.45 135.077 289.285 127.095C290.362 123.3 287.205 116.82 287.654 112.908C296.203 103.587 309.31 85.1844 301.954 76.199L301.957 76.2034Z" fill="#1E203D"/>
<path d="M280.159 86.6022C280.535 97.1642 277.56 107.731 271.802 116.597C270.164 119.119 268.303 121.481 266.243 123.673C265.677 124.275 266.586 125.185 267.154 124.581C274.571 116.685 279.441 106.498 280.955 95.7838C281.386 92.7409 281.554 89.6738 281.445 86.6C281.417 85.7753 280.128 85.7709 280.157 86.6L280.159 86.6022Z" fill="#7D83AB"/>
<path d="M266.968 104.798C264 113.172 258.828 120.709 252.12 126.546C250.217 128.202 248.192 129.706 246.064 131.062C245.367 131.505 246.013 132.618 246.713 132.171C254.434 127.247 260.824 120.323 265.103 112.24C266.312 109.953 267.346 107.576 268.21 105.14C268.487 104.359 267.244 104.022 266.968 104.798Z" fill="#7D83AB"/>
<path d="M297.998 128.539C306.11 125.119 308.51 114.725 301.835 108.657C294.91 102.359 285.736 107.221 283.656 112.888C280.367 121.843 288.344 132.61 297.998 128.541V128.539Z" fill="#BD6548"/>
<path d="M292.048 112.359C290.099 113.364 288.781 115.419 288.704 117.611C288.627 119.807 289.853 121.929 291.721 123.057C292.43 123.487 293.08 122.376 292.371 121.948C290.877 121.044 289.933 119.362 289.992 117.611C290.052 115.856 291.153 114.266 292.698 113.47C293.434 113.091 292.784 111.982 292.048 112.361V112.359Z" fill="#1E203D"/>
<path d="M305.239 96.3417C302.432 96.6085 297.437 100.253 298.177 103.596C298.716 106.03 301.47 105.093 303.418 104.489C305.873 103.726 307.56 103.812 308.636 101.753C309.407 100.278 308.97 95.9889 305.239 96.3439V96.3417Z" fill="#1E203D"/>
<path d="M306.214 108.452C306.127 108.081 305.999 107.731 305.827 107.415C304.978 105.858 303.166 106.315 302.454 107.817C301.815 109.164 301.698 111.071 302.173 112.462C302.814 114.343 304.898 114.392 305.714 112.937C306.178 112.11 306.558 109.92 306.214 108.452Z" fill="#1E203D"/>
<path d="M308.574 131.247C308.461 129.174 308.322 127.221 308.141 125.322C306.161 125.102 304.178 124.881 302.195 124.658C301.687 124.601 301.269 125.084 301.428 125.569C301.603 126.105 301.833 126.621 302.118 127.11C303.426 129.357 305.951 131.159 308.581 131.346C308.574 131.311 308.574 131.284 308.574 131.249V131.247Z" fill="white"/>
<path d="M238.986 64.453C238.286 61.6923 237.083 59.1015 235.302 56.8921C231.832 52.5879 226.308 50.0962 220.772 50.0213C211.13 49.889 202.113 56.9472 197.929 65.2953C192.129 76.8716 194.984 91.9317 208.213 96.4012C213.772 98.2799 219.969 97.636 225.227 95.1378C230.7 92.5403 234.977 88.0222 237.366 82.4745C239.687 77.0832 240.489 70.3778 238.984 64.4508L238.986 64.453Z" fill="#1E203D"/>
<path d="M225.4 95.7574C234.595 92.5976 240.991 84.0797 241.625 74.4218C241.82 71.4693 241.469 68.4903 240.609 65.6591C240.37 64.8697 239.126 65.2071 239.367 66.0009C242.129 75.112 239.051 85.2484 231.458 91.0784C229.527 92.5623 227.36 93.7266 225.057 94.5204C224.279 94.7872 224.613 96.0286 225.4 95.7596V95.7574Z" fill="#7D83AB"/>
</g>
<defs>
<clipPath id="clip0_13473_57586">
<rect width="862" height="441" fill="white" transform="translate(-48 -42)"/>
</clipPath>
</defs>
</svg>
