<svg width="760" height="380" viewBox="0 0 760 380" fill="none" xmlns="http://www.w3.org/2000/svg">
  <!-- 404 Background illustration -->
  <g opacity="0.1">
    <!-- Stars and decorative elements -->
    <circle cx="400" cy="60" r="3" fill="#FFD700"/>
    <circle cx="600" cy="80" r="2" fill="#FFD700"/>
    <circle cx="150" cy="100" r="2.5" fill="#FFD700"/>
    <circle cx="700" cy="120" r="2" fill="#FFD700"/>
    
    <!-- 4 -->
    <path d="M120 80L120 300L200 300L200 220L280 220L280 140L200 140L200 80L120 80Z" fill="#87CEEB" opacity="0.6"/>
    
    <!-- Monitor with sad face -->
    <rect x="350" y="140" width="160" height="100" rx="8" fill="#E0E0E0" stroke="#999999" stroke-width="3"/>
    <rect x="360" y="150" width="140" height="70" fill="#B8D4F0"/>
    
    <!-- Sad face -->
    <circle cx="390" cy="175" r="3" fill="#999999"/>
    <circle cx="420" cy="175" r="3" fill="#999999"/>
    <path d="M380 200Q405 190 430 200" stroke="#999999" stroke-width="2" fill="none"/>
    
    <!-- Monitor stand -->
    <rect x="400" y="240" width="60" height="20" fill="#E0E0E0"/>
    <rect x="380" y="260" width="100" height="40" rx="4" fill="#E0E0E0"/>
    
    <!-- Another 4 -->
    <path d="M540 80L540 300L620 300L620 220L700 220L700 140L620 140L620 80L540 80Z" fill="#87CEEB" opacity="0.6"/>
    
    <!-- Decorative lines -->
    <line x1="200" y1="50" x2="300" y2="50" stroke="#D0D0D0" stroke-width="2"/>
    <line x1="520" y1="70" x2="580" y2="70" stroke="#D0D0D0" stroke-width="2"/>
    <line x1="100" y1="320" x2="200" y2="320" stroke="#D0D0D0" stroke-width="2"/>
    <line x1="580" y1="340" x2="680" y2="340" stroke="#D0D0D0" stroke-width="2"/>
  </g>
</svg>
