<svg width="52" height="52" viewBox="0 0 52 52" fill="none" xmlns="http://www.w3.org/2000/svg">
<rect width="52" height="52" rx="8" fill="#244874"/>
<g clip-path="url(#clip0_13182_26517)">
<path fill-rule="evenodd" clip-rule="evenodd" d="M25.4375 17.5625H27.6875V27.6875H25.4375V17.5625Z" fill="#FBBC53"/>
<path fill-rule="evenodd" clip-rule="evenodd" d="M18.6875 25.4375H20.9375V27.6875H23.1875V20.375C23.1875 19.4806 22.8331 18.62 22.1975 17.99C21.5675 17.36 20.7069 17 19.8125 17C18.9181 17 18.0575 17.3544 17.4275 17.99C16.7919 18.6256 16.4375 19.4806 16.4375 20.375V27.6875H18.6875V25.4375ZM20.9375 23.1875V20.375C20.9375 20.0769 20.8194 19.79 20.6056 19.5819C20.3975 19.3681 20.1106 19.25 19.8125 19.25C19.5144 19.25 19.2275 19.3681 19.0194 19.5819C18.8056 19.7956 18.6875 20.0769 18.6875 20.375V23.1875H20.9375Z" fill="#FBBC53"/>
<path fill-rule="evenodd" clip-rule="evenodd" d="M17 40.625V38.375H15.875C14.6319 38.375 13.625 37.3681 13.625 36.125V35H11.375V36.125C11.375 37.3681 10.3681 38.375 9.125 38.375H8V40.625H9.125C10.3681 40.625 11.375 41.6319 11.375 42.875V44H13.625V42.875C13.625 41.6319 14.6319 40.625 15.875 40.625H17ZM12.5 39.1006C12.3762 39.2413 12.2413 39.3762 12.1006 39.5C12.2413 39.6238 12.3762 39.7587 12.5 39.8994C12.6238 39.7587 12.7587 39.6238 12.8994 39.5C12.7587 39.3762 12.6238 39.2413 12.5 39.1006Z" fill="#FBBC53"/>
<path fill-rule="evenodd" clip-rule="evenodd" d="M31.9063 12.0332L30.3145 13.6251L31.1132 14.4182C33.0876 16.3926 33.0876 19.6045 31.1132 21.5788L30.3145 22.372L31.9063 23.9638L32.6995 23.1707C34.6795 21.1963 37.8857 21.1963 39.8601 23.1707L40.6588 23.9638L42.2451 22.372L41.452 21.5788C39.4776 19.6045 39.4776 16.3982 41.452 14.4182L42.2451 13.6251L40.6588 12.0332L39.8601 12.8263C37.8857 14.8007 34.6795 14.8007 32.6995 12.8263L31.9063 12.0332ZM37.9026 16.3813C36.8338 16.6232 35.7257 16.6232 34.6626 16.3813C34.9045 17.4445 34.9045 18.5582 34.6626 19.6213C35.7257 19.3795 36.8338 19.3795 37.9026 19.6213C37.6607 18.5582 37.6607 17.4445 37.9026 16.3813Z" fill="#FBBC53"/>
<path fill-rule="evenodd" clip-rule="evenodd" d="M31.175 32.7669L32.8456 34.4375L32.1875 35.0956V36.5919L39.5956 44H41.0919L44 41.0919V39.5956L36.5919 32.1875H35.0956L34.4375 32.8456L32.7669 31.175C34.4881 29.1613 35.6469 26.6525 36.0069 23.8962L33.7738 23.6038C33.02 29.3975 28.0588 33.875 22.0625 33.875C15.5431 33.875 10.25 28.5819 10.25 22.0625C10.25 15.5431 15.5431 10.25 22.0625 10.25C24.7681 10.25 27.26 11.1613 29.2512 12.6912L30.6238 10.9081C28.25 9.08563 25.2856 8 22.0625 8C14.3 8 8 14.3 8 22.0625C8 29.825 14.3 36.125 22.0625 36.125C25.5387 36.125 28.7225 34.8594 31.175 32.7669ZM34.6231 35.8438L40.3438 41.5644L41.5644 40.3438L35.8438 34.6231L34.6231 35.8438Z" fill="white"/>
</g>
<defs>
<clipPath id="clip0_13182_26517">
<rect width="36" height="36" fill="white" transform="translate(8 8)"/>
</clipPath>
</defs>
</svg>
