<svg id="barcode" width="200px" height="122px" x="0px" y="0px" viewBox="0 0 200 122" xmlns="http://www.w3.org/2000/svg" version="1.1" style="transform: translate(0,0)">
    <rect x="0" y="0" width="200" height="122" style="fill:#ffffff;"></rect>
    <g transform="translate(10, 10)" style="fill:#000000;">
        <rect x="0" y="0" width="4" height="80"></rect>
        <rect x="6" y="0" width="2" height="80"></rect>
        <rect x="12" y="0" width="6" height="80"></rect>
        <rect x="22" y="0" width="2" height="80"></rect>
        <rect x="26" y="0" width="4" height="80"></rect>
        <rect x="34" y="0" width="6" height="80"></rect>
        <rect x="44" y="0" width="2" height="80"></rect>
        <rect x="52" y="0" width="2" height="80"></rect>
        <rect x="56" y="0" width="4" height="80"></rect>
        <rect x="66" y="0" width="6" height="80"></rect>
        <rect x="78" y="0" width="2" height="80"></rect>
        <rect x="82" y="0" width="4" height="80"></rect>
        <rect x="88" y="0" width="4" height="80"></rect>
        <rect x="100" y="0" width="2" height="80"></rect>
        <rect x="104" y="0" width="2" height="80"></rect>
        <rect x="110" y="0" width="4" height="80"></rect>
        <rect x="116" y="0" width="8" height="80"></rect>
        <rect x="126" y="0" width="4" height="80"></rect>
        <rect x="132" y="0" width="2" height="80"></rect>
        <rect x="138" y="0" width="8" height="80"></rect>
        <rect x="150" y="0" width="2" height="80"></rect>
        <rect x="154" y="0" width="4" height="80"></rect>
        <rect x="164" y="0" width="6" height="80"></rect>
        <rect x="172" y="0" width="2" height="80"></rect>
        <rect x="176" y="0" width="4" height="80"></rect>
        <text style="font: 20px monospace" text-anchor="middle" x="90" y="102">1234567890</text>
    </g>
</svg>