<svg width="309" height="100" viewBox="0 0 309 100" fill="none" xmlns="http://www.w3.org/2000/svg">
<path d="M3.71284 0.0223389H0V99.3475H3.71284V0.0223389Z" fill="black"/>
<path d="M13.4384 0.0223389H9.72559V99.3475H13.4384V0.0223389Z" fill="black"/>
<path d="M28.1893 0.0223389H24.1738V99.3475H28.1893V0.0223389Z" fill="black"/>
<path d="M47.2381 0.0223389H39.207V99.3475H47.2381V0.0223389Z" fill="black"/>
<path d="M70.4947 0H54.4326V99.3252H70.4947V0Z" fill="black"/>
<path d="M81.7431 0.0223389H77.7275V99.3475H81.7431V0.0223389Z" fill="black"/>
<path d="M35.8769 0.0223389H31.8613V99.3475H35.8769V0.0223389Z" fill="black"/>
<path d="M95.908 0.0223389H87.877V99.3475H95.908V0.0223389Z" fill="black"/>
<path d="M212.963 0.0223389H196.901V99.3475H212.963V0.0223389Z" fill="black"/>
<path d="M261.231 0.0223389H245.169V99.3475H261.231V0.0223389Z" fill="black"/>
<path d="M223.981 0.0223389H219.966V99.3475H223.981V0.0223389Z" fill="black"/>
<path d="M238.146 0.0223389H230.115V99.3475H238.146V0.0223389Z" fill="black"/>
<path d="M308.045 0.0223389H295.837V99.3475H308.045V0.0223389Z" fill="black"/>
<path d="M125.531 99.3475H121.515V0.0223389H125.531V99.3475ZM115.805 99.3475H111.789V0.0223389H115.805V99.3475Z" fill="black"/>
<path d="M135.276 99.3475H131.261V0.0223389H135.276V99.3475ZM125.53 99.3475H121.515V0.0223389H125.53V99.3475Z" fill="black"/>
<path d="M115.804 99.3475H111.789V0.0223389H115.804V99.3475ZM106.078 99.3475H102.062V0.0223389H106.078V99.3475Z" fill="black"/>
<path d="M292.064 99.3475H288.048V0.0223389H292.064V99.3475ZM282.317 99.3475H278.302V0.0223389H282.317V99.3475Z" fill="black"/>
<path d="M301.789 99.3475H297.774V0.0223389H301.789V99.3475ZM292.063 99.3475H288.048V0.0223389H292.063V99.3475Z" fill="black"/>
<path d="M282.318 99.3475H278.302V0.0223389H282.318V99.3475ZM272.592 99.3475H268.576V0.0223389H272.592V99.3475Z" fill="black"/>
<path d="M197.244 99.3475H193.229V0.0223389H197.244V99.3475ZM187.518 99.3475H183.503V0.0223389H187.518V99.3475Z" fill="black"/>
<path d="M187.519 99.3475H183.503V0.0223389H187.519V99.3475ZM177.772 99.3475H173.757V0.0223389H177.772V99.3475Z" fill="black"/>
<path d="M149.442 0.0223389H141.411V99.3475H149.442V0.0223389Z" fill="black"/>
<path d="M166.371 99.3475H162.659V0.0223389H166.371V99.3475ZM159.45 99.3475H155.737V0.0223389H159.45V99.3475Z" fill="black"/>
</svg>
