<svg width="460" height="250" viewBox="0 0 460 250" fill="none" xmlns="http://www.w3.org/2000/svg">
<path d="M417.783 174.952C351.976 165.148 289.243 195.356 257.66 246.403C254.441 228.531 247.892 215.146 240.114 203.026C166.022 86.2804 39.7255 141.669 -3.43452 157.008C-15.0838 161.132 -29.6996 166.884 -42 169.996V218.546C-39.4676 217.316 -37.0075 216.014 -34.5474 214.639C17.1868 184.611 158.28 130.236 232.444 246.946C237.401 254.724 241.706 263.081 244.962 272.596L246.952 279.035C247.784 281.785 248.363 284.607 248.905 287.429C249.195 288.84 249.412 290.251 249.81 291.661C250.099 292.602 250.244 294.013 251.221 294.592C251.872 294.954 252.74 295.026 253.464 294.664C254.187 294.23 254.332 293.507 254.513 292.783C255.815 286.886 257.588 281.134 259.795 275.562C261.929 270.027 264.498 264.709 267.428 259.572C270.323 254.507 273.615 249.587 277.233 244.884C280.85 240.289 284.757 235.948 288.954 231.787C293.151 227.699 297.637 223.864 302.448 220.283C307.188 216.737 312.144 213.554 317.354 210.623C322.599 207.729 328.026 205.124 333.597 202.881C339.205 200.674 344.993 198.793 350.89 197.31C356.86 195.827 362.901 194.669 369.015 193.982C375.238 193.222 381.533 192.932 387.828 192.932C394.231 193.077 400.599 193.62 406.93 194.488C428.853 197.708 448.643 205.848 465.393 217.316L474.003 193.982C457.253 184.539 438.332 177.919 417.747 174.88L417.783 174.952Z" fill="white" fill-opacity="0.12"/>
<path d="M272.817 184.865C272.491 166.776 268.186 152.558 262.47 139.498C207.842 13.6355 85.2713 55.3122 41.9304 70.2898C14.1821 79.9131 -17.2202 80.709 -41.9658 68.3362V116.344C-19.8612 122.82 5.49939 121.373 27.3508 112.654C83.3177 90.2961 193.19 56.072 247.782 181.862C251.4 190.183 254.366 199.01 256.066 208.959L256.971 215.616C257.369 218.365 257.514 221.332 257.586 224.118C257.658 225.601 257.586 227.048 257.767 228.495C257.948 229.544 257.839 230.883 258.707 231.606C259.286 232.041 260.155 232.258 260.914 231.968C261.674 231.679 261.927 230.955 262.217 230.304C264.46 224.66 267.137 219.234 270.176 214.024C273.215 208.814 276.579 203.93 280.342 199.191C283.996 194.597 288.011 190.255 292.317 186.167C296.622 182.043 301.18 178.28 305.992 174.807C310.84 171.37 315.905 168.223 321.15 165.365C326.432 162.652 331.859 160.047 337.466 157.949C343.074 155.814 348.862 154.005 354.759 152.594C360.693 151.219 366.734 150.134 372.776 149.447C378.926 148.832 385.113 148.542 391.263 148.723C397.522 148.832 403.816 149.411 410.039 150.387C416.334 151.364 422.593 152.775 428.671 154.62C447.845 160.3 464.667 169.67 478.596 181.645L487.351 157.949C474.146 148.904 459.132 141.669 442.599 136.748C379.071 117.791 312.251 138.81 272.817 184.829V184.865Z" fill="white" fill-opacity="0.12"/>
<path d="M54.1585 20.5092C112.983 5.82105 236.784 -10.6398 271.768 121.228C274.047 129.983 275.639 139.136 275.82 149.121L275.747 155.85C275.675 158.708 275.385 161.566 275.06 164.388C274.879 165.871 274.589 167.319 274.553 168.729C274.553 169.742 274.192 171.117 275.024 171.949C275.494 172.492 276.362 172.818 277.122 172.564C277.954 172.42 278.28 171.732 278.678 171.117C281.753 165.908 285.19 160.843 289.024 156.067C292.787 151.364 296.875 146.914 301.289 142.826C305.666 138.774 310.297 134.939 315.181 131.503C320.029 128.066 325.166 124.918 330.484 122.133C335.766 119.347 341.229 116.851 346.873 114.788C352.516 112.654 358.269 110.954 364.166 109.579C370.063 108.276 376.068 107.191 382.074 106.612C388.151 105.997 394.302 105.708 400.38 105.961C406.566 106.07 412.716 106.685 418.83 107.661C424.98 108.638 431.131 110.013 437.064 111.822C443.214 113.631 449.147 115.874 454.899 118.442C469.334 125.027 481.924 133.673 492.524 143.803L501.207 120.215C492.162 113.486 482.25 107.517 471.396 102.56C411.378 75.3909 342.025 87.2934 296.079 127.559C298.431 109.651 296.332 94.963 292.715 81.2155C257.694 -50.6162 120.255 -28.4755 75.1054 -19.4672C40.8812 -12.6296 -18.6312 -20.7696 -41.9658 -44.5022V8.96852C-17.1479 25.6103 24.6374 27.8895 54.1585 20.5092Z" fill="white" fill-opacity="0.12"/>
</svg>
