<svg width="200" height="31" viewBox="0 0 200 31" fill="none" xmlns="http://www.w3.org/2000/svg">
<g clip-path="url(#clip0_11074_29991)">
<path d="M59.5298 7.46375C60.2557 7.46375 60.9361 7.60308 61.568 7.88822C62.1998 8.17012 62.7571 8.55247 63.2432 9.03527C63.7 9.51806 64.0727 10.0786 64.3513 10.7072C64.6332 11.3391 64.7758 12.0066 64.7758 12.7032C64.7758 13.3999 64.6332 14.1095 64.3513 14.7413C64.0694 15.3732 63.7 15.9338 63.2432 16.4198C62.7571 16.8993 62.1998 17.2785 61.568 17.5474C60.9361 17.8196 60.2589 17.9492 59.5298 17.9492C58.8008 17.9492 58.1171 17.8196 57.4723 17.5474C56.8275 17.2785 56.2766 16.8993 55.8165 16.4198C55.3337 15.9338 54.9578 15.3732 54.6889 14.7413C54.4167 14.1095 54.2839 13.429 54.2839 12.7032C54.2839 11.9774 54.4167 11.3391 54.6889 10.7072C54.9578 10.0754 55.3337 9.51806 55.8165 9.03527C56.2734 8.55247 56.8242 8.17012 57.4723 7.88822C58.1171 7.60308 58.804 7.46375 59.5298 7.46375ZM59.572 10.286C58.9272 10.286 58.3698 10.529 57.9 11.0118C57.4302 11.4946 57.1936 12.0455 57.1936 12.6643C57.1936 13.2832 57.4302 13.8697 57.9 14.3396C58.3698 14.8094 58.9272 15.0427 59.572 15.0427C60.2168 15.0427 60.7741 14.8094 61.2439 14.3396C61.717 13.8665 61.9503 13.3092 61.9503 12.6643C61.9503 12.0195 61.717 11.4946 61.2439 11.0118C60.7741 10.529 60.2168 10.286 59.572 10.286ZM73.0838 28.9628H62.958V21.0177H65.8224V26.3414H73.0838V28.9628ZM69.5746 11.7409H66.0233V9.28152H69.5746V6.61804H72.4779V19.5661H69.5746V16.6207H66.0233V13.9993H69.5746V11.7409Z" fill="#72BF44"/>
<path d="M84.0844 19.1448H76.2981V16.5235H94.45V19.1448H86.9877V28.1819H84.0844V19.1448ZM85.4583 8.33213L80.7373 13.4938L78.7575 11.5594L85.4972 4.17813L92.1915 11.5594L90.134 13.5781L85.4551 8.32889L85.4583 8.33213Z" fill="#72BF44"/>
<path d="M105.02 19.1513H97.2333V16.53H115.388V19.1513H107.926V28.1884H105.02V19.1513ZM101.07 5.11133H111.354V13.2184H108.49V7.73269H101.07V5.11133Z" fill="#FAA61A"/>
<path d="M118.998 5.42887H129.185V11.6923H121.979V13.5716H129.509V15.9046H119.118V9.46622H126.321V7.72296H118.998V5.42563V5.42887ZM128.116 22.074H132.231V19.0023H135.135V29.0665H125.21V19.0023H128.116V22.074ZM128.116 24.2644V26.9506H132.231V24.2644H128.116ZM135.297 18.4611H132.432V4.15869H135.297V18.4611Z" fill="#FAA61A"/>
<path d="M144.753 19.268V10.4739H154.879V13.0953H147.66V16.6887H154.879V19.2712H151.37V22.8193H158.952V25.4828H140.8V22.8193H148.544V19.2712H144.75L144.753 19.268Z" fill="#0072BC"/>
<path d="M164.528 13.5262L160.614 18.419L158.479 16.773L164.532 9.29773L170.62 16.6272L168.4 18.27L164.532 13.5262H164.528ZM174.771 15.2436H171.057V12.8717H174.771V8.89594H177.674V24.0311H174.771V15.2403V15.2436Z" fill="#0072BC"/>
<path d="M183.497 12.9041V8.95102H186.361V12.9041H192.252V15.5676H179.625V12.9041H183.5H183.497ZM181.203 1.89052H190.719V10.0786H187.855V4.47299H181.199V1.89052H181.203ZM197.375 26.4192H187.246V18.4741H190.113V23.8367H197.371V26.4192H197.375ZM196.931 10.7267V16.1346H194.109V3.70506H196.931V8.10207H200.203V10.7267H196.931Z" fill="#0072BC"/>
<path d="M41.1771 20.0553C35.2831 19.1772 29.6645 21.8828 26.8358 26.4548C26.5474 24.8542 25.9609 23.6553 25.2643 22.5698C18.6282 12.1135 7.31652 17.0743 3.4509 18.4482C2.40754 18.8176 1.09848 19.3328 -0.00320435 19.6114V23.9598C0.223613 23.8497 0.44395 23.733 0.664287 23.6099C5.29784 20.9205 17.9348 16.0504 24.5773 26.5034C25.0212 27.2001 25.4068 27.9486 25.6984 28.8008L25.8767 29.3775C25.9512 29.6238 26.003 29.8765 26.0516 30.1293C26.0776 30.2556 26.097 30.382 26.1326 30.5084C26.1586 30.5926 26.1715 30.719 26.259 30.7708C26.3173 30.8032 26.3951 30.8097 26.4599 30.7773C26.5247 30.7384 26.5377 30.6736 26.5539 30.6088C26.6705 30.0807 26.8293 29.5655 27.0269 29.0665C27.2181 28.5707 27.4482 28.0944 27.7106 27.6343C27.9699 27.1807 28.2647 26.74 28.5887 26.3187C28.9128 25.9072 29.2627 25.5184 29.6386 25.1458C30.0145 24.7796 30.4162 24.4362 30.8472 24.1154C31.2717 23.7978 31.7156 23.5127 32.1822 23.2502C32.652 22.991 33.1381 22.7577 33.6371 22.5568C34.1393 22.3592 34.6577 22.1907 35.1859 22.0578C35.7205 21.925 36.2617 21.8213 36.8093 21.7597C37.3666 21.6917 37.9304 21.6657 38.4942 21.6657C39.0677 21.6787 39.638 21.7273 40.205 21.8051C42.1686 22.0935 43.941 22.8225 45.4413 23.8497L46.2125 21.7597C44.7122 20.914 43.0176 20.321 41.1739 20.0489L41.1771 20.0553Z" fill="#0072BC"/>
<path d="M28.1934 20.9432C28.1642 19.323 27.7786 18.0496 27.2667 16.8799C22.3739 5.60708 11.396 9.33985 7.51414 10.6813C5.02887 11.5432 2.21633 11.6145 0 10.5063V14.8061C1.97979 15.3861 4.25121 15.2565 6.20832 14.4756C11.221 12.4732 21.0616 9.40789 25.9511 20.6742C26.2752 21.4195 26.5409 22.2101 26.6932 23.1012L26.7742 23.6974C26.8098 23.9436 26.8228 24.2093 26.8293 24.4588C26.8357 24.5917 26.8293 24.7213 26.8455 24.8509C26.8617 24.9449 26.8519 25.0648 26.9297 25.1296C26.9815 25.1685 27.0593 25.1879 27.1274 25.162C27.1954 25.136 27.2181 25.0712 27.244 25.0129C27.4449 24.5074 27.6847 24.0214 27.9569 23.5548C28.229 23.0882 28.5304 22.6508 28.8674 22.2263C29.1946 21.8148 29.5543 21.426 29.9399 21.0598C30.3255 20.6904 30.7338 20.3534 31.1647 20.0424C31.5989 19.7346 32.0525 19.4527 32.5224 19.1967C32.9954 18.9537 33.4815 18.7204 33.9837 18.5324C34.486 18.3413 35.0044 18.1792 35.5326 18.0529C36.064 17.9297 36.6051 17.8325 37.1462 17.771C37.697 17.7159 38.2511 17.69 38.802 17.7062C39.3625 17.7159 39.9263 17.7677 40.4837 17.8552C41.0475 17.9427 41.608 18.0691 42.1524 18.2343C43.8697 18.743 45.3764 19.5823 46.6239 20.6548L47.4081 18.5324C46.2254 17.7224 44.8807 17.0743 43.3999 16.6336C37.71 14.9358 31.7253 16.8183 28.1934 20.9399V20.9432Z" fill="#72BF44"/>
<path d="M8.60934 6.22273C13.878 4.90719 24.9661 3.43288 28.0994 15.2436C28.3036 16.0277 28.4461 16.8475 28.4623 17.7418L28.4559 18.3445C28.4494 18.6005 28.4235 18.8565 28.3943 19.1092C28.3781 19.242 28.3522 19.3717 28.3489 19.498C28.3489 19.5888 28.3165 19.7119 28.3911 19.7864C28.4332 19.835 28.5109 19.8642 28.579 19.8415C28.6535 19.8285 28.6827 19.767 28.7183 19.7119C28.9937 19.2453 29.3016 18.7916 29.645 18.3639C29.982 17.9427 30.3482 17.5442 30.7435 17.178C31.1355 16.8151 31.5503 16.4716 31.9877 16.1638C32.4219 15.856 32.882 15.5741 33.3584 15.3246C33.8314 15.0751 34.3207 14.8515 34.8262 14.6668C35.3317 14.4756 35.8469 14.3233 36.375 14.2002C36.9032 14.0836 37.4411 13.9864 37.979 13.9345C38.5233 13.8794 39.0742 13.8535 39.6185 13.8762C40.1726 13.8859 40.7234 13.941 41.271 14.0285C41.8219 14.116 42.3727 14.2391 42.9041 14.4011C43.455 14.5631 43.9864 14.764 44.5016 14.9941C45.7944 15.5838 46.922 16.3582 47.8714 17.2655L48.6491 15.1529C47.839 14.5502 46.9512 14.0155 45.9791 13.5716C40.6035 11.1382 34.392 12.2042 30.2769 15.8106C30.4875 14.2067 30.2996 12.8912 29.9755 11.6599C26.839 -0.147592 14.5293 1.83544 10.4854 2.64226C7.42017 3.25467 2.08996 2.52561 0 0.400009V5.18909C2.22281 6.67961 5.9653 6.88374 8.60934 6.22273Z" fill="#FAA61A"/>
</g>
<defs>
<clipPath id="clip0_11074_29991">
<rect width="242.883" height="30.4" fill="white" transform="translate(0 0.400009)"/>
</clipPath>
</defs>
</svg>
